<svg width="40" height="40" viewBox="0 0 40 40" fill="none" xmlns="http://www.w3.org/2000/svg">
<path fill-rule="evenodd" clip-rule="evenodd" d="M26.4996 21.1528C25.1298 21.1528 24.4424 22.8122 25.4111 23.7809C25.5893 23.9592 25.5893 24.2488 25.4111 24.427L24.4275 25.4106C24.2493 25.5889 23.9596 25.5889 23.7814 25.4106C22.8127 24.4419 21.1532 25.1293 21.1532 26.4991C21.1532 26.7516 20.9485 26.9558 20.6965 26.9558H19.3054C19.0529 26.9558 18.8486 26.7511 18.8486 26.4991C18.8486 25.1275 17.1901 24.4405 16.2205 25.4106C16.0422 25.5889 15.7526 25.5889 15.5744 25.4106L14.5908 24.427C14.4125 24.2488 14.4125 23.9592 14.5908 23.7809C15.5595 22.8122 14.8721 21.1528 13.5023 21.1528C13.2498 21.1528 13.0455 20.9481 13.0455 20.696V19.3049C13.0455 19.0524 13.2502 18.8482 13.5023 18.8482C14.8721 18.8482 15.5595 17.1887 14.5908 16.22C14.4125 16.0418 14.4125 15.7521 14.5908 15.5739L15.5744 14.5903C15.7526 14.4121 16.0422 14.4121 16.2205 14.5903C17.1892 15.559 18.8486 14.8716 18.8486 13.5018C18.8486 13.2493 19.0533 13.0451 19.3054 13.0451H20.6965C20.949 13.0451 21.1532 13.2498 21.1532 13.5018C21.1532 14.8716 22.8127 15.559 23.7814 14.5903C23.9596 14.4121 24.2493 14.4121 24.4275 14.5903L25.4111 15.5739C25.5893 15.7521 25.5893 16.0418 25.4111 16.22C24.4424 17.1887 25.1298 18.8482 26.4996 18.8482C26.7521 18.8482 26.9563 19.0529 26.9563 19.3049V20.696C26.9568 20.9481 26.7521 21.1528 26.4996 21.1528ZM34.6699 25.7736C33.2551 29.3663 30.5518 32.3282 27.1095 34.0711L27.6405 32.2697C27.731 31.9615 27.5546 31.6379 27.2464 31.5474C26.9382 31.4569 26.6147 31.6333 26.5242 31.9415L25.633 34.9661C25.5448 35.2659 25.7091 35.5815 26.002 35.6813L28.9829 36.709C29.2874 36.8135 29.6188 36.6515 29.7232 36.3465C29.8277 36.042 29.6657 35.7106 29.3607 35.6062L27.7487 35.0505C31.3924 33.1711 34.2512 30.0152 35.7542 26.1979C35.8712 25.8985 35.7231 25.5605 35.4237 25.4436C35.1248 25.3261 34.7869 25.4742 34.6699 25.7736ZM25.7736 5.33055C29.3663 6.74534 32.3282 9.44868 34.0711 12.891L32.2697 12.36C31.9615 12.2695 31.6379 12.4458 31.5474 12.754C31.4569 13.0623 31.6333 13.3858 31.9415 13.4763L34.9661 14.3675C35.2659 14.4557 35.5815 14.2914 35.6813 13.9985L36.709 11.0176C36.8135 10.7131 36.6515 10.3817 36.3465 10.2772C36.042 10.1728 35.7106 10.3348 35.6062 10.6397L35.0505 12.2518C33.1711 8.60806 30.0152 5.74923 26.1979 4.24624C25.8985 4.12927 25.5605 4.27734 25.4436 4.57673C25.3261 4.87566 25.4742 5.21358 25.7736 5.33055ZM5.33055 14.2269C6.74534 10.6342 9.44868 7.6723 12.891 5.92933L12.36 7.73078C12.2695 8.03899 12.4458 8.36252 12.754 8.45303C13.0623 8.54354 13.3858 8.36716 13.4763 8.05895L14.3675 5.03441C14.4557 4.73455 14.2914 4.41892 13.9985 4.31912L11.0176 3.29144C10.7131 3.187 10.3817 3.349 10.2772 3.65396C10.1728 3.95846 10.3348 4.28988 10.6397 4.39431L12.2518 4.94993C8.60806 6.82936 5.74923 9.98526 4.24624 13.8026C4.12927 14.102 4.27734 14.4399 4.57673 14.5569C4.87566 14.6743 5.21358 14.5263 5.33055 14.2269ZM14.2269 34.6699C10.6342 33.2551 7.6723 30.5518 5.92933 27.1095L7.73078 27.6405C8.03899 27.731 8.36252 27.5546 8.45303 27.2464C8.54354 26.9382 8.36716 26.6147 8.05895 26.5242L5.03441 25.633C4.73455 25.5448 4.41892 25.7091 4.31912 26.002L3.29144 28.9829C3.187 29.2874 3.349 29.6188 3.65396 29.7232C3.95846 29.8277 4.28988 29.6657 4.39431 29.3607L4.94993 27.7487C6.82936 31.3924 9.98526 34.2512 13.8026 35.7542C14.102 35.8712 14.4399 35.7231 14.5569 35.4237C14.6743 35.1248 14.5263 34.7869 14.2269 34.6699ZM36.3335 15.7661L40 17.8831V22.1169L36.3335 24.2339L32.667 22.1169V17.8831L36.3335 15.7661ZM4.23417 16.3337L8.46835 23.6672H0L4.23417 16.3337ZM20.0002 32.667C22.0254 32.667 23.6667 34.3088 23.6667 36.3335C23.6667 38.3587 22.025 40 20.0002 40C17.9755 40 16.3337 38.3582 16.3337 36.3335C16.3337 34.3088 17.9751 32.667 20.0002 32.667ZM16.3337 0H23.6672V7.33345H16.3337V0ZM20.0002 16.6006C18.1227 16.6006 16.6006 18.1227 16.6006 20.0002C16.6006 21.8778 18.1227 23.3998 20.0002 23.3998C21.8778 23.3998 23.3998 21.8778 23.3998 20.0002C23.3998 18.1227 21.8778 16.6006 20.0002 16.6006Z" fill="#E5A120"/>
</svg>
