<svg width="80" height="80" viewBox="0 0 80 80" fill="none" xmlns="http://www.w3.org/2000/svg">
<g id="bootstrap">
<g id="Vector">
<path d="M71.25 2.5H8.75C5.29688 2.5 2.5 5.3 2.5 8.75V71.25C2.5 74.7 5.29688 77.5 8.75 77.5H71.25C74.7 77.5 77.5 74.7 77.5 71.25V8.75C77.5 5.3 74.7 2.5 71.25 2.5ZM58.1625 55.1656V55.1719C57.5406 56.6781 56.5469 58.0031 55.2781 59.0281C53.9656 60.0906 52.3031 60.9656 50.2594 61.5906C48.2156 62.225 45.7875 62.5438 42.9688 62.5438H22.8688V18.7938H44.1281C48.0594 18.7938 51.2094 19.6781 53.5625 21.4813C55.9375 23.2938 57.1219 25.9937 57.1219 29.6375C57.1219 31.8406 56.5812 33.7313 55.5 35.2938C54.425 36.8469 52.875 38.0625 50.875 38.9062V39.05C53.5437 39.6125 55.6094 40.8812 56.9656 42.85C58.3281 44.8187 59.0219 47.3031 59.0219 50.3094C59.0219 51.9906 58.6969 53.5906 58.0844 55.0844L58.1625 55.1656Z" fill="#543B79"/>
<path d="M49.4906 44.3906C48.2094 43.2188 46.4094 42.6469 44.0812 42.6469H30.5781V56.2969H44.1219C46.4313 56.2969 48.2469 55.6969 49.5281 54.4844C50.8094 53.2812 51.4656 51.5656 51.4656 49.3594C51.4438 47.2031 50.8094 45.5344 49.5281 44.3906H49.4906ZM47.6 35.5687H47.6156C48.8531 34.5187 49.4594 33.0156 49.4594 31.0562C49.4594 28.8562 48.9094 27.2937 47.8 26.4C46.7 25.5094 45.1125 25.0469 43.025 25.0469H30.525V37.1187H43.025C44.85 37.1187 46.4031 36.5875 47.6 35.5687Z" fill="#543B79"/>
<path d="M40 18.7938H22.8688V62.5438L40 62.5437V56.2969L30.5781 56.2969V42.6469H40V37.1187H30.5281V25.0469H40V18.7938Z" fill="#DEDEDE"/>
<path d="M40 2.5H8.75C5.29688 2.5 2.5 5.3 2.5 8.75V71.25C2.5 74.7 5.29688 77.5 8.75 77.5H40V62.5437L22.8688 62.5438V18.7938H40V2.5Z" fill="#493369"/>
<path d="M40 42.6469H30.5781V56.2969L40 56.2969V42.6469Z" fill="#493369"/>
<path d="M40 25.0469H30.5281V37.1187H40V25.0469Z" fill="#493369"/>
</g>
</g>
</svg>
