<svg width="404" height="250" viewBox="0 0 404 250" fill="none" xmlns="http://www.w3.org/2000/svg">
<path d="M357.821 246.837L361.793 246.856L361.795 246.356L363.407 246.363C363.562 245.842 363.714 245.32 363.864 244.797L364.345 244.935C364.714 243.645 365.068 242.352 365.407 241.055L364.924 240.928C365.262 239.634 365.585 238.337 365.893 237.037L366.38 237.152C366.689 235.846 366.983 234.538 367.261 233.227L366.772 233.123C367.05 231.815 367.313 230.504 367.56 229.19L368.052 229.283C368.3 227.965 368.532 226.644 368.75 225.321L368.256 225.24C368.473 223.92 368.675 222.599 368.861 221.275L369.356 221.344C369.542 220.016 369.714 218.686 369.869 217.355L369.373 217.297C369.528 215.969 369.668 214.639 369.792 213.308L370.29 213.354C370.414 212.019 370.524 210.683 370.617 209.345L370.118 209.31C370.212 207.976 370.29 206.641 370.352 205.306L370.852 205.329C370.914 203.99 370.961 202.65 370.992 201.309L370.493 201.297C370.524 199.961 370.54 198.624 370.54 197.287L371.04 197.287C371.04 195.946 371.025 194.605 370.994 193.264L370.494 193.276C370.463 191.94 370.417 190.603 370.355 189.267L370.855 189.244C370.792 187.905 370.715 186.566 370.622 185.228L370.123 185.263C370.03 183.93 369.922 182.597 369.798 181.265L370.296 181.219C370.171 179.884 370.032 178.551 369.876 177.218L369.38 177.276C369.225 175.949 369.055 174.623 368.869 173.298L369.365 173.228C369.179 171.901 368.977 170.576 368.76 169.251L368.267 169.332C368.158 168.673 368.046 168.014 367.931 167.355C367.815 166.696 367.695 166.039 367.572 165.382L368.063 165.289C367.815 163.971 367.552 162.656 367.274 161.345L366.785 161.448C366.508 160.14 366.215 158.835 365.908 157.535L366.394 157.42C366.086 156.114 365.762 154.813 365.423 153.516L364.94 153.642C364.602 152.348 364.249 151.058 363.881 149.774L364.362 149.636C363.993 148.346 363.609 147.062 363.21 145.782L362.733 145.93C362.335 144.653 361.923 143.382 361.496 142.115L361.97 141.955C361.541 140.684 361.098 139.419 360.641 138.159L360.171 138.329C359.714 137.072 359.243 135.821 358.758 134.575L359.224 134.394C358.737 133.144 358.235 131.901 357.719 130.663L357.258 130.855C356.744 129.621 356.215 128.393 355.672 127.171L356.129 126.968C355.585 125.743 355.026 124.524 354.453 123.311L354.001 123.525C353.43 122.316 352.845 121.114 352.246 119.918L352.693 119.694C352.092 118.496 351.478 117.304 350.849 116.119L350.407 116.353C349.781 115.173 349.14 113.999 348.486 112.832L348.922 112.588C348.267 111.419 347.598 110.257 346.914 109.102L346.484 109.357C345.804 108.207 345.109 107.064 344.402 105.929L344.826 105.664C344.117 104.527 343.394 103.397 342.658 102.276L342.24 102.55C341.507 101.433 340.761 100.324 340.001 99.2225L340.412 98.9386C339.651 97.8355 338.877 96.7407 338.089 95.6544L337.685 95.9478C337.292 95.4067 336.897 94.8676 336.498 94.3307C336.099 93.7938 335.698 93.2594 335.293 92.7276L335.691 92.4248C334.878 91.357 334.054 90.2994 333.218 89.252L332.827 89.564C331.992 88.5185 331.146 87.4834 330.288 86.4587L330.672 86.1378C329.811 85.109 328.938 84.0908 328.054 83.0833L327.678 83.413C326.796 82.4076 325.903 81.4129 324.998 80.429L325.366 80.0906C324.458 79.1031 323.539 78.1266 322.609 77.1611L322.249 77.508C321.322 76.5447 320.383 75.5926 319.433 74.6516L319.785 74.2965C318.833 73.3524 317.869 72.4196 316.896 71.4983L316.552 71.8615C315.581 70.9425 314.599 70.035 313.606 69.139L313.941 68.7679C312.946 67.8692 311.941 66.9822 310.925 66.107L310.598 66.4858C309.585 65.613 308.562 64.7521 307.53 63.9031L307.847 63.5168C306.811 62.6654 305.765 61.8261 304.71 60.9989L304.402 61.3924C303.349 60.5678 302.287 59.7553 301.216 58.9551L301.515 58.5545C300.441 57.7523 299.357 56.9624 298.265 56.185L297.975 56.5925C296.885 55.8177 295.787 55.0554 294.679 54.3058L294.96 53.8917C293.85 53.1403 292.73 52.4017 291.602 51.6758L291.332 52.0963C290.208 51.3731 289.075 50.6626 287.934 49.9652L288.195 49.5385C287.051 48.8396 285.899 48.1537 284.738 47.4809L284.487 47.9135C283.331 47.2434 282.167 46.5864 280.994 45.9426L281.235 45.5043C280.06 44.8594 278.877 44.2278 277.686 43.6096L277.456 44.0534C276.863 43.7454 276.267 43.4408 275.67 43.1396C275.073 42.8384 274.474 42.5407 273.874 42.2467L274.094 41.7977C272.889 41.2073 271.678 40.6313 270.462 40.0698L270.252 40.5238C269.038 39.9633 267.817 39.4172 266.591 38.8856L266.79 38.4269C265.559 37.8932 264.323 37.3741 263.081 36.8696L262.893 37.3329C261.654 36.8294 260.409 36.3406 259.159 35.8665L259.337 35.399C258.083 34.9232 256.823 34.4621 255.559 34.0158L255.393 34.4873C254.132 34.0421 252.866 33.6116 251.596 33.196L251.751 32.7208C250.476 32.3038 249.197 31.9017 247.914 31.5146L247.769 31.9933C246.489 31.6071 245.204 31.2359 243.916 30.8797L244.049 30.3978C242.757 30.0405 241.46 29.6983 240.16 29.3712L240.038 29.8561C238.741 29.5299 237.441 29.2187 236.137 28.9228L236.247 28.4352C234.94 28.1383 233.629 27.8567 232.315 27.5903L232.215 28.0803C230.905 27.8148 229.592 27.5644 228.275 27.3293L228.363 26.8371C227.043 26.6013 225.721 26.3809 224.395 26.1758L224.319 26.67C222.998 26.4656 221.674 26.2765 220.348 26.1027L220.413 25.607C219.084 25.4328 217.752 25.2741 216.419 25.1308L216.365 25.6279C215.036 25.4851 213.706 25.3578 212.373 25.2458L212.415 24.7476C211.079 24.6354 209.741 24.5387 208.402 24.4575L208.372 24.9565C207.038 24.8757 205.703 24.8103 204.366 24.7603L204.385 24.2607C203.045 24.2107 201.705 24.1762 200.363 24.1573L200.356 24.6573C199.688 24.6478 199.019 24.6423 198.351 24.6407C197.682 24.639 197.013 24.6412 196.345 24.6474L196.34 24.1474C194.999 24.1597 193.658 24.1875 192.318 24.2309L192.335 24.7307C190.998 24.774 189.662 24.8328 188.328 24.9071L188.3 24.4079C186.96 24.4825 185.622 24.5726 184.286 24.6782L184.326 25.1766C182.992 25.282 181.661 25.4028 180.331 25.5391L180.28 25.0417C178.946 25.1784 177.614 25.3306 176.284 25.4981L176.346 25.9942C175.019 26.1614 173.695 26.344 172.373 26.5418L172.299 26.0474C170.972 26.2459 169.648 26.4598 168.328 26.689L168.413 27.1816C167.096 27.4103 165.781 27.6542 164.469 27.9133L164.372 27.4228C163.057 27.6827 161.744 27.9578 160.435 28.2482L160.544 28.7363C159.238 29.0259 157.936 29.3306 156.638 29.6504L156.519 29.1649C155.217 29.4856 153.919 29.8214 152.624 30.1723L152.755 30.6549C151.465 31.0048 150.178 31.3696 148.896 31.7494L148.754 31.27C147.469 31.6508 146.188 32.0466 144.911 32.4573L145.064 32.9333C143.792 33.3426 142.524 33.7668 141.26 34.2059L141.096 33.7336C139.83 34.1736 138.569 34.6285 137.312 35.0981L137.487 35.5665C136.235 36.0344 134.988 36.5171 133.747 37.0144L133.561 36.5502C132.316 37.0486 131.077 37.5616 129.844 38.0892L130.041 38.5489C128.812 39.0744 127.589 39.6144 126.372 40.169L126.164 39.7139C124.945 40.2695 123.731 40.8395 122.523 41.4239L122.741 41.874C122.139 42.1651 121.539 42.4598 120.941 42.758C120.342 43.0563 119.745 43.358 119.151 43.663L118.922 43.2181C117.729 43.8304 116.543 44.4562 115.365 45.0953L115.603 45.5348C114.427 46.1727 113.26 46.824 112.1 47.4884L111.852 47.0546C110.688 47.7216 109.532 48.4018 108.385 49.0951L108.643 49.523C107.499 50.2149 106.363 50.9197 105.235 51.6373L104.967 51.2155C103.835 51.9358 102.712 52.669 101.598 53.4149L101.877 53.8303C100.765 54.5745 99.6631 55.3313 98.5701 56.1007L98.2823 55.6919C97.1856 56.4638 96.0981 57.2483 95.02 58.0452L95.3172 58.4473C94.2419 59.2422 93.176 60.0495 92.1197 60.8689L91.8132 60.4739C90.7536 61.2958 89.7038 62.13 88.6637 62.9763L88.9793 63.3641C87.9422 64.208 86.915 65.0639 85.8978 65.9316L85.5733 65.5512C84.5532 66.4214 83.5432 67.3035 82.5434 68.1973L82.8767 68.57C81.88 69.4611 80.8936 70.3638 79.9177 71.2779L79.5759 70.913C78.5975 71.8295 77.6296 72.7576 76.6723 73.6969L77.0225 74.0538C76.0685 74.99 75.1251 75.9376 74.1926 76.8962L73.8342 76.5476C72.8995 77.5085 71.9757 78.4805 71.063 79.4635L71.4294 79.8037C70.52 80.7831 69.6217 81.7734 68.7346 82.7745L68.3604 82.4428C67.4715 83.446 66.5938 84.4599 65.7276 85.4844L66.1094 85.8072C65.2467 86.8277 64.3953 87.8586 63.5556 88.8999L63.1664 88.5861C62.3252 89.6292 61.4956 90.6828 60.6778 91.7466L61.0742 92.0513C60.6669 92.5812 60.2625 93.1136 59.8611 93.6485C59.4597 94.1835 59.0615 94.7205 58.6665 95.2597L58.2632 94.9643C57.4703 96.0468 56.6906 97.1377 55.9241 98.237L56.3342 98.523C55.5691 99.6203 54.8171 100.726 54.0785 101.839L53.6618 101.563C52.9202 102.681 52.192 103.807 51.4773 104.941L51.9002 105.208C51.187 106.339 50.4872 107.478 49.801 108.625L49.3719 108.368C48.6832 109.52 48.0081 110.678 47.3467 111.844L47.7816 112.091C47.1218 113.254 46.4757 114.425 45.8434 115.602L45.4029 115.366C44.7684 116.548 44.1479 117.736 43.5414 118.932L43.9873 119.158C43.3823 120.351 42.7912 121.55 42.2142 122.756L41.7632 122.54C41.1844 123.75 40.6198 124.966 40.0693 126.189L40.5253 126.394C39.9764 127.613 39.4417 128.839 38.9213 130.07L38.4607 129.876C37.9389 131.111 37.4313 132.352 36.9382 133.599L37.4032 133.783C36.9116 135.026 36.4344 136.275 35.9717 137.53L35.5026 137.357C35.0387 138.615 34.5894 139.878 34.1547 141.147L34.6277 141.309C34.1945 142.573 33.7758 143.843 33.3719 145.118L32.8952 144.967C32.4904 146.245 32.1002 147.528 31.7249 148.816L32.2049 148.956C31.8309 150.239 31.4717 151.527 31.1274 152.819L30.6443 152.69C30.2992 153.986 29.9691 155.285 29.6539 156.589L30.1399 156.707C29.826 158.006 29.5271 159.309 29.2431 160.616L28.7545 160.51C28.4701 161.819 28.2007 163.133 27.9464 164.451L28.4374 164.545C28.3107 165.202 28.1878 165.859 28.0687 166.517C27.9496 167.175 27.8344 167.834 27.723 168.493L27.23 168.409C27.0064 169.732 26.7984 171.057 26.6059 172.383L27.1007 172.455C26.9085 173.779 26.7318 175.104 26.5706 176.431L26.0742 176.37C25.9124 177.702 25.7661 179.035 25.6353 180.369L26.1329 180.418C26.0025 181.749 25.8875 183.081 25.7881 184.414L25.2895 184.377C25.1897 185.714 25.1055 187.053 25.0369 188.391L25.5362 188.417C25.4677 189.753 25.4148 191.089 25.3774 192.425L24.8776 192.411C24.8401 193.751 24.8181 195.092 24.8118 196.433L25.3118 196.435C25.3054 197.772 25.3146 199.11 25.3393 200.446L24.8394 200.455C24.8642 201.796 24.9046 203.137 24.9605 204.476L25.4601 204.455C25.5158 205.791 25.5871 207.126 25.6739 208.461L25.175 208.493C25.262 209.831 25.3646 211.168 25.4827 212.504L25.9808 212.46C26.0985 213.792 26.2318 215.122 26.3805 216.451L25.8836 216.507C26.0326 217.839 26.1972 219.17 26.3773 220.499L26.8728 220.432C27.0522 221.756 27.2471 223.079 27.4575 224.4L26.9637 224.478C27.1745 225.802 27.4007 227.124 27.6424 228.443L28.1342 228.353C28.375 229.668 28.6311 230.98 28.9026 232.29L28.413 232.391C28.685 233.704 28.9724 235.014 29.2752 236.321L29.7623 236.208C30.0638 237.51 30.3806 238.808 30.7127 240.104L30.2283 240.228C30.561 241.527 30.9089 242.822 31.2721 244.113L31.7535 243.978C31.9006 244.501 32.0503 245.024 32.2025 245.547H33.7924V246.047H37.7216V245.547H41.6508V246.047H45.5801V245.547H49.5093V246.047H53.4385V245.547H57.3677V246.047H61.2969V245.547H65.2261V246.047H69.1553V245.547H73.0845V246.047H77.0138V245.547H80.943V246.047H84.8722V245.547H88.8014V246.047H92.7306V245.547H96.6598V246.047H100.589V245.547H104.518V246.047H108.447V245.547H112.377V246.047H116.306V245.547H120.235V246.047H124.164V245.547H128.094V246.047H132.023V245.547H135.952V246.047H139.881V245.547H143.81V246.047H147.74V245.547H151.669V246.047H155.598V245.547H159.527V246.047H163.456V245.547H167.386V246.047H171.315V245.547H175.244V246.047H179.173V245.547H183.103V246.047H187.032V245.547H188.996H188.999L190.985 245.556L190.983 246.056L194.955 246.074L194.957 245.574L198.93 245.593L198.927 246.093L202.9 246.112L202.902 245.612L206.874 245.63L206.872 246.13L210.844 246.149L210.847 245.649L214.819 245.667L214.817 246.167L218.789 246.186L218.791 245.686L222.764 245.705L222.761 246.205L226.734 246.223L226.736 245.723L230.708 245.742L230.706 246.242L234.678 246.261L234.681 245.761L238.653 245.779L238.651 246.279L242.623 246.298L242.625 245.798L246.598 245.816L246.595 246.316L250.568 246.335L250.57 245.835L254.542 245.854L254.54 246.354L258.512 246.372L258.515 245.872L262.487 245.891L262.485 246.391L266.457 246.409L266.459 245.909L270.432 245.928L270.429 246.428L274.402 246.447L274.404 245.947L278.376 245.965L278.374 246.465L282.346 246.484L282.349 245.984L286.321 246.002L286.319 246.502L290.291 246.521L290.293 246.021L294.266 246.04L294.263 246.54L298.236 246.558L298.238 246.058L302.21 246.077L302.208 246.577L306.18 246.595L306.183 246.095L310.155 246.114L310.153 246.614L314.125 246.633L314.127 246.133L318.1 246.151L318.097 246.651L322.07 246.67L322.072 246.17L326.044 246.188L326.042 246.688L330.014 246.707L330.017 246.207L333.989 246.226L333.987 246.726L337.959 246.744L337.961 246.244L341.934 246.263L341.931 246.763L345.904 246.781L345.906 246.281L349.878 246.3L349.876 246.8L353.848 246.819L353.851 246.319L357.823 246.337L357.821 246.837Z" stroke="#DB9A1E" stroke-dasharray="4 4"/>
<path d="M208.326 152.281L222.876 138.393L216.357 105.144L195.595 101.852L189.973 135.251L208.326 152.281Z" fill="#EBB0B0"/>
<circle cx="165.425" cy="67.4246" r="9.4246" fill="#4372D6"/>
<circle cx="250.425" cy="67.4246" r="9.4246" fill="#4372D6"/>
<path d="M191.468 24.6362L169.808 59.8545C169.808 75.2315 182.54 107.804 208.499 107.804C239.485 107.804 247.3 75.1212 247.355 57.8704L237.434 33.5648L191.468 24.6362Z" fill="#F3C6C7"/>
<path d="M276.29 151.62C267.031 140.377 236.718 133.433 222.884 131.614L208.334 145.833L191.799 131.779C177.911 133.433 143.734 145.833 138.559 152.612C129.167 164.914 122.079 218.805 119.709 244.213H298.446C293.684 211.012 281.691 168.651 276.29 151.62Z" fill="#797C7D"/>
<rect x="138.889" y="156.084" width="136.574" height="84.9868" rx="8" fill="#EDEDED"/>
<path d="M242.067 223.528C249.211 222.313 255.139 217.329 257.563 210.499L275.463 160.053V241.071H138.889L242.067 223.528Z" fill="#7F7F7F" fill-opacity="0.1"/>
<rect x="24.479" y="241.071" width="346.23" height="8.92857" rx="4.46429" fill="#4C4C4C"/>
<path d="M171.131 20.9989C160.417 36.4751 165.344 54.9495 170.47 61.5081C188.591 49.0743 191.579 31.1951 190.807 23.8097C195.767 35.3838 232.474 35.8798 233.631 35.8798C231.779 54.266 243.111 63.382 249.008 65.6417C253.693 52.6898 254.663 22.5201 237.599 12.0704C216.27 -0.991763 184.524 1.65365 171.131 20.9989Z" fill="#252E51"/>
<path d="M247.85 54.729L247.52 42.4935L250.661 41.5015V54.729H247.85Z" fill="#8C8F91"/>
<path d="M165.84 54.8943V41.8322H168.981V54.8943H165.84Z" fill="#8C8F91"/>
<path d="M221.883 131.614L207.333 144.841L191.46 132.11C188.814 130.787 184.736 134.535 183.027 136.574C185.805 138.69 190.798 148.81 192.948 153.605L207.333 146.329L221.222 152.778C220.031 145.899 225.355 138.228 228.166 135.251L221.883 131.614Z" fill="#3E4344"/>
<circle cx="205.5" cy="193.5" r="5.5" fill="#D9D9D9"/>
<rect x="282.069" y="44.312" width="66.1376" height="66.1376" rx="33.0688" fill="#101010"/>
<rect x="282.069" y="44.312" width="66.1376" height="66.1376" rx="33.0688" stroke="#DB9A1E" stroke-opacity="0.6" stroke-width="2"/>
<path fill-rule="evenodd" clip-rule="evenodd" d="M300.334 63C298.493 63 297 64.4908 297 66.3297V77.9837C297 79.8226 298.493 81.3134 300.334 81.3134H301.25C301.435 81.3134 301.584 81.4625 301.584 81.6464V85.1859C301.584 85.4804 301.938 85.6299 302.15 85.4244L306.181 81.5023C306.306 81.3811 306.473 81.3134 306.646 81.3134H318.334C320.175 81.3134 321.667 79.8226 321.667 77.9837V66.3297C321.667 64.4908 320.175 63 318.334 63H300.334ZM303 73.988C304.105 73.988 305 73.0936 305 71.9902C305 70.8868 304.105 69.9924 303 69.9924C301.896 69.9924 301.001 70.8868 301.001 71.9902C301.001 73.0936 301.896 73.988 303 73.988ZM311.334 71.9902C311.334 73.0936 310.438 73.988 309.334 73.988C308.229 73.988 307.334 73.0936 307.334 71.9902C307.334 70.8868 308.229 69.9924 309.334 69.9924C310.438 69.9924 311.334 70.8868 311.334 71.9902ZM315.667 73.988C316.772 73.988 317.667 73.0936 317.667 71.9902C317.667 70.8868 316.772 69.9924 315.667 69.9924C314.563 69.9924 313.667 70.8868 313.667 71.9902C313.667 73.0936 314.563 73.988 315.667 73.988Z" fill="#DB9A1E" fill-opacity="0.8"/>
<path d="M323.167 69.6594C322.983 69.6594 322.834 69.8085 322.834 69.9924V78.6496C322.834 80.7644 321.118 82.4788 319.001 82.4788H308.667C308.483 82.4788 308.334 82.6278 308.334 82.8117V84.6431C308.334 86.482 309.826 87.9726 311.667 87.9726H323.354C323.528 87.9726 323.695 88.0405 323.82 88.1617L327.851 92.0838C328.062 92.2892 328.417 92.1399 328.417 91.8455V88.3057C328.417 88.1219 328.566 87.9726 328.751 87.9726H329.667C331.508 87.9726 333 86.482 333 84.6431V72.9891C333 71.1502 331.508 69.6594 329.667 69.6594H323.167Z" fill="#DB9A1E" fill-opacity="0.8"/>
<rect x="57" y="38" width="66.1376" height="66.1376" rx="33.0688" fill="#101010"/>
<rect x="57" y="38" width="66.1376" height="66.1376" rx="33.0688" stroke="#DB9A1E" stroke-opacity="0.6" stroke-width="2"/>
<path d="M97.8967 52.8809L97.2637 55.0898C96.6895 55.248 96.1427 55.4732 95.6361 55.7615L93.6339 54.6506L91.8384 56.4461L92.9493 58.4483C92.661 58.9548 92.4358 59.5017 92.2776 60.0759L90.0687 60.7089V63.2407L92.2776 63.8736C92.4358 64.4479 92.661 64.9946 92.9493 65.5012L91.8384 67.5035L93.6339 69.299L95.6361 68.1881C96.1427 68.4763 96.6895 68.7016 97.2637 68.8598L97.8967 71.0687H100.429L101.061 68.8598C101.636 68.7016 102.182 68.4763 102.689 68.1881L104.691 69.299L106.487 67.5035L105.376 65.5012C105.664 64.9946 105.889 64.4479 106.048 63.8736L108.257 63.2407V60.7089L106.048 60.0759C105.889 59.5017 105.664 58.9548 105.376 58.4483L106.487 56.4461L104.691 54.6506L102.689 55.7615C102.182 55.4732 101.636 55.248 101.061 55.0898L100.429 52.8809H97.8967ZM99.1626 58.2545C101.207 58.2545 102.883 59.9299 102.883 61.9748C102.883 64.0196 101.207 65.695 99.1626 65.695C97.1178 65.695 95.4424 64.0196 95.4424 61.9748C95.4424 59.9299 97.1178 58.2545 99.1626 58.2545ZM99.1626 59.908C98.0114 59.908 97.0958 60.8235 97.0958 61.9748C97.0958 63.126 98.0114 64.0416 99.1626 64.0416C100.314 64.0416 101.229 63.126 101.229 61.9748C101.229 60.8235 100.314 59.908 99.1626 59.908ZM81.1298 67.7618L80.3806 70.3711C79.7019 70.5581 79.0546 70.8314 78.4559 71.172L76.092 69.8544L73.9735 71.9729L75.2911 74.3368C74.9504 74.9356 74.6772 75.5829 74.4902 76.2615L71.8809 77.0107V80.0076L74.4902 80.7568C74.6772 81.4355 74.9504 82.0828 75.2911 82.6816L73.9735 85.0454L76.092 87.1639L78.4559 85.8463C79.0546 86.187 79.7019 86.4602 80.3806 86.6472L81.1298 89.2565H84.1266L84.8759 86.6472C85.5545 86.4602 86.2018 86.187 86.8006 85.8463L89.1645 87.1639L91.2829 85.0454L89.9654 82.6816C90.306 82.0828 90.5793 81.4355 90.7662 80.7568L93.3756 80.0076V77.0107L90.7662 76.2615C90.5793 75.5829 90.306 74.9356 89.9654 74.3368L91.2829 71.9729L89.1645 69.8544L86.8006 71.172C86.2018 70.8314 85.5545 70.5581 84.8759 70.3711L84.1266 67.7618H81.1298ZM82.6282 73.9622C85.1296 73.9622 87.1752 76.0078 87.1752 78.5092C87.1752 81.0106 85.1296 83.0561 82.6282 83.0561C80.1268 83.0561 78.0813 81.0106 78.0813 78.5092C78.0813 76.0078 80.1268 73.9622 82.6282 73.9622ZM82.6282 75.6156C81.0204 75.6156 79.7347 76.9014 79.7347 78.5092C79.7347 80.117 81.0204 81.4027 82.6282 81.4027C84.236 81.4027 85.5217 80.117 85.5217 78.5092C85.5217 76.9014 84.236 75.6156 82.6282 75.6156Z" fill="#DB9A1E" fill-opacity="0.8"/>
<rect x="1" y="147.487" width="66.1376" height="66.1376" rx="33.0688" fill="#101010"/>
<rect x="1" y="147.487" width="66.1376" height="66.1376" rx="33.0688" stroke="#DB9A1E" stroke-opacity="0.6" stroke-width="2"/>
<path d="M47.5076 170.74C45.3936 167.871 42.3736 165.682 38.9006 164.625C40.3351 166.059 41.5431 168.173 42.4491 170.74H47.5076Z" fill="#DB9A1E" fill-opacity="0.8"/>
<path d="M20.7805 170.74H25.839C26.745 168.173 27.953 166.135 29.3875 164.625C25.9145 165.682 22.8945 167.871 20.7805 170.74Z" fill="#DB9A1E" fill-opacity="0.8"/>
<path d="M17.5344 179.8H24.3294C24.4049 177.082 24.7824 174.515 25.3864 172.25H19.7994C18.4404 174.515 17.6854 177.082 17.5344 179.8Z" fill="#DB9A1E" fill-opacity="0.8"/>
<path d="M48.4888 172.25H42.9019C43.5059 174.515 43.8834 177.082 43.9589 179.8H50.7538C50.6028 177.082 49.8478 174.515 48.4888 172.25Z" fill="#DB9A1E" fill-opacity="0.8"/>
<path d="M50.7538 181.311H43.9589C43.8834 184.029 43.5059 186.596 42.9019 188.861H48.5643C49.8478 186.596 50.6028 184.029 50.7538 181.311Z" fill="#DB9A1E" fill-opacity="0.8"/>
<path d="M19.7239 188.861H25.3864C24.7824 186.596 24.4049 184.029 24.3294 181.311H17.5344C17.6854 184.029 18.4404 186.596 19.7239 188.861Z" fill="#DB9A1E" fill-opacity="0.8"/>
<path d="M20.7805 190.37C22.8945 193.239 25.9145 195.429 29.3875 196.486C27.953 195.051 26.745 192.937 25.839 190.37H20.7805Z" fill="#DB9A1E" fill-opacity="0.8"/>
<path d="M38.9006 196.486C42.3736 195.429 45.3936 193.239 47.5076 190.37H42.4491C41.5431 192.937 40.3351 195.051 38.9006 196.486Z" fill="#DB9A1E" fill-opacity="0.8"/>
<path d="M34.8992 164.021V170.74H40.7881C39.4292 167.041 37.3152 164.474 34.8992 164.021Z" fill="#DB9A1E" fill-opacity="0.8"/>
<path d="M33.3895 164.021C31.049 164.474 28.8595 167.041 27.5005 170.74H33.3895V164.021Z" fill="#DB9A1E" fill-opacity="0.8"/>
<path d="M33.3893 172.25H26.9719C26.2924 174.515 25.9149 177.082 25.8394 179.8H33.3893V172.25Z" fill="#DB9A1E" fill-opacity="0.8"/>
<path d="M34.8992 179.8H42.4491C42.3736 177.082 41.9961 174.515 41.3166 172.25H34.8992V179.8Z" fill="#DB9A1E" fill-opacity="0.8"/>
<path d="M34.8992 188.861H41.3166C41.9961 186.596 42.3736 184.029 42.4491 181.311H34.8992V188.861Z" fill="#DB9A1E" fill-opacity="0.8"/>
<path d="M33.3893 181.311H25.8394C25.9149 184.029 26.2924 186.596 26.9719 188.861H33.3893V181.311Z" fill="#DB9A1E" fill-opacity="0.8"/>
<path d="M33.3895 197.09V190.37H27.5005C28.8595 194.07 31.049 196.637 33.3895 197.09Z" fill="#DB9A1E" fill-opacity="0.8"/>
<path d="M34.8992 197.09C37.3152 196.637 39.4292 194.07 40.7881 190.37H34.8992V197.09Z" fill="#DB9A1E" fill-opacity="0.8"/>
<rect x="335.971" y="147.487" width="66.1376" height="66.1376" rx="33.0688" fill="#101010"/>
<rect x="335.971" y="147.487" width="66.1376" height="66.1376" rx="33.0688" stroke="#DB9A1E" stroke-opacity="0.6" stroke-width="2"/>
<path d="M375.95 177.754C375.95 177.754 375.697 178.542 375.657 178.647C375.617 178.753 375.374 179.079 375.427 179.079C375.479 179.079 376.017 179.328 376.017 179.328L378.105 179.977L378.075 180.961C377.892 180.987 377.171 181.465 377.066 181.701C376.997 181.855 376.844 182.131 376.698 182.321C378.599 183.088 379.713 184.211 379.758 185.468C379.789 185.692 380.943 189.811 381.009 190.738H389.796C389.803 190.7 389.531 185.372 389.528 185.332C389.528 185.332 389.024 184.049 388.224 183.918C387.424 183.787 386.397 183.508 385.968 183.184C385.717 182.993 384.899 182.662 384.52 182.524C384.343 182.461 384.04 181.938 383.936 181.701C383.831 181.466 383.109 180.988 382.926 180.961L382.896 179.977L384.985 179.328C384.985 179.328 385.523 179.079 385.575 179.079C385.628 179.079 385.326 178.684 385.287 178.578C385.247 178.473 385.051 177.756 385.051 177.756C385.051 177.756 385.756 178.617 386.113 178.778C386.113 178.778 385.411 177.46 385.202 176.727C384.992 175.992 384.854 174.845 384.854 174.74C384.854 174.635 384.421 171.554 384.185 171.043C383.949 170.531 383.629 169.836 383.081 169.495C382.533 169.154 381.72 168.669 380.553 168.604C380.536 168.603 380.519 168.603 380.501 168.602C380.484 168.603 380.466 168.603 380.448 168.604C379.281 168.669 378.469 169.154 377.921 169.495C377.374 169.836 377.053 170.531 376.817 171.043C376.58 171.554 376.148 174.635 376.148 174.74C376.148 174.845 376.025 176.039 375.816 176.773C375.606 177.507 374.89 178.778 374.89 178.778C375.247 178.616 375.95 177.754 375.95 177.754Z" fill="#DB9A1E" fill-opacity="0.8"/>
<path d="M357.779 186.288V186.234L357.784 186.181C358.353 183.727 361.31 182.554 362.925 181.851C362.922 181.851 362.927 181.85 362.925 181.851C361.945 181.403 361.428 181.069 361.185 181.014C361.086 180.815 360.874 179.316 360.874 179.316C360.874 179.316 362.052 178.275 362.316 176.282C362.316 176.282 362.896 176.603 362.933 175.39C362.959 174.455 363.121 174.09 362.485 173.817C362.485 173.817 362.531 173.17 362.551 172.596C362.583 171.746 362.74 170.552 361.267 169.592C361.058 169.455 359.979 168.854 359.972 168.858C359.587 168.624 359.098 168.475 359.098 168.475L359.113 168.826C359.087 168.8 359.061 168.773 359.036 168.749C358.939 168.649 358.884 168.262 358.894 168.109C358.913 167.837 358.913 167.837 358.913 167.837C358.216 168.357 357.735 169.029 357.735 169.029L357.797 168.379C357.797 168.379 357.668 168.578 356.072 169.574C354.507 170.551 354.767 171.993 354.809 172.847C354.838 173.421 354.895 173.816 354.895 173.816C354.26 174.09 354.593 174.479 354.609 175.414C354.63 176.707 355.281 176.479 355.281 176.479C355.581 178.24 356.506 179.315 356.506 179.315C356.506 179.315 356.244 180.824 356.144 181.015C355.855 181.079 355.189 181.539 353.792 182.121C351.733 182.978 352.379 182.481 350.703 183.318C348.055 184.642 348.58 190.167 348.58 190.167H356.925L357.779 186.288Z" fill="#DB9A1E" fill-opacity="0.8"/>
<path d="M380.523 193.783C380.523 192.208 378.745 185.548 378.745 185.548C378.745 184.575 377.464 183.463 374.941 182.815C373.631 182.479 372.533 181.726 372.533 181.726C372.37 181.634 372.395 180.784 372.395 180.784L371.582 180.662C371.582 180.592 371.513 179.573 371.513 179.573C372.486 179.249 372.385 177.335 372.385 177.335C373.002 177.675 373.404 176.162 373.404 176.162C374.135 174.058 373.041 174.185 373.041 174.185C373.388 172.61 373.041 170.31 373.041 170.31C372.555 166.048 365.233 167.205 366.101 168.597C363.962 168.203 364.45 173.042 364.45 173.042L364.914 174.293C364.003 174.879 364.636 175.59 364.667 176.408C364.711 177.614 365.454 177.364 365.454 177.364C365.5 179.356 366.487 179.618 366.487 179.618C366.673 180.869 366.558 180.656 366.558 180.656L365.678 180.761C365.717 181.077 365.608 181.61 365.608 181.61C364.572 182.068 364.351 182.337 363.323 182.783C361.336 183.648 359.177 184.773 358.793 186.287C358.41 187.802 357.271 193.782 357.271 193.782H380.522L380.523 193.783Z" fill="#DB9A1E" fill-opacity="0.8"/>
<path d="M249.093 44.4328C251.209 44.4328 252.911 42.6654 252.69 40.5604C251.59 30.0798 247.822 20.158 240.169 12.8286C231.577 4.60156 220.143 0.00627556 208.248 6.42291e-06C196.353 -0.00626271 184.914 4.57697 176.315 12.795C168.521 20.2428 165.195 29.7742 164.243 40.3408C164.077 42.1781 165.49 43.7514 167.331 43.8775C169.234 44.0078 170.858 42.5442 171.051 40.6468C171.935 31.9509 174.771 24.0643 181.207 17.9145C188.488 10.9564 198.173 7.07588 208.245 7.08119C218.316 7.0865 227.997 10.9773 235.271 17.943C241.683 24.0833 244.424 32.1637 245.286 40.8845C245.481 42.8642 247.103 44.4328 249.093 44.4328Z" fill="#073BAA"/>
<rect x="241.725" y="52.9102" width="11.5741" height="28.4392" rx="5.78704" fill="#073BAA"/>
<rect x="162.037" y="52.9102" width="11.5741" height="28.4392" rx="5.78704" fill="#073BAA"/>
</svg>
