<svg width="80" height="80" viewBox="0 0 80 80" fill="none" xmlns="http://www.w3.org/2000/svg">
<g id="css3 1">
<g id="Vector">
<path d="M11.7588 71.3269L5.47501 0.845001H74.525L68.235 71.3163L39.9581 79.1556L11.7588 71.3269Z" fill="#1572B6"/>
<path d="M40.0006 73.1637L62.85 66.8288L68.2256 6.6075H40.0006V73.1637Z" fill="#33A9DC"/>
<path d="M40.0006 32.1431H51.4394L52.2294 23.2913H40.0006V14.6469H61.6769L59.3444 40.7875H40.0006V32.1431Z" fill="white"/>
<path d="M40.0519 54.5931L40.0138 54.6044L30.3869 52.005L29.7713 45.1106H21.095L22.3056 58.6838L40.0125 63.5981L40.0519 63.5869V54.5931Z" fill="#EBEBEB"/>
<path d="M50.7044 40.4219L49.6631 51.9981L40.0219 54.6006V63.5944L57.7431 58.6831L59.3769 40.4219H50.7044Z" fill="white"/>
<path d="M40.03 14.6469V23.2913H19.15L18.3763 14.6469H40.03ZM40.0006 32.1444V40.7888H30.495L29.9275 34.4637L29.7213 32.1444H40.0006Z" fill="#EBEBEB"/>
</g>
</g>
</svg>
