<svg width="36" height="40" viewBox="0 0 36 40" fill="none" xmlns="http://www.w3.org/2000/svg">
<path d="M19.2902 39.3682C19.2902 39.7052 19.5851 40 19.9221 40H25.4821C25.8191 40 26.1139 39.7052 26.1139 39.3682V36.3775H19.2902V39.3682Z" fill="#DB9A1E"/>
<path d="M35.3385 18.9812C35.1279 18.6863 34.8331 18.4757 34.454 18.3915C33.9485 18.3073 33.4852 18.5179 33.1903 18.897L30.7052 22.3509C30.7473 22.4352 30.8315 22.4773 30.8737 22.5615C31.5476 23.5303 31.4634 24.8361 30.7052 25.7206L30.5367 25.9312C29.5258 27.0685 28.4306 28.1637 27.2512 29.0904L26.2824 29.8907C25.9454 30.1434 25.4821 30.1013 25.2294 29.7643C24.9766 29.4273 25.0188 28.964 25.3557 28.7113L26.3245 27.911C27.4197 27.0264 28.4727 26.0155 29.4415 24.9203L29.61 24.7097C29.947 24.3306 29.9891 23.7831 29.6943 23.3618C29.5258 23.1091 29.273 22.9406 28.9782 22.8985C28.6833 22.8564 28.3885 22.8985 28.1358 23.067L22.7863 26.8158C22.1966 27.237 21.7754 27.8267 21.5648 28.5007L19.5851 34.861H26.5351L31.2106 31.9968C32.0109 31.4913 32.6006 30.7331 32.8534 29.8064L35.507 19.9921C35.5913 19.6551 35.5491 19.276 35.3385 18.9812Z" fill="#DB9A1E"/>
<path d="M14.025 28.5852C13.8144 27.9112 13.3932 27.2794 12.8035 26.9003L7.45407 23.1515C7.20134 22.983 6.90649 22.8987 6.61164 22.983C6.31679 23.0251 6.06406 23.1936 5.89557 23.4463C5.60072 23.8675 5.64284 24.4151 5.97982 24.7942L6.1483 25.0048C7.07498 26.1 8.12802 27.1109 9.2653 27.9955L10.2341 28.7958C10.4026 28.9221 10.4868 29.0906 10.4868 29.3012C10.4868 29.5118 10.4447 29.6803 10.3183 29.8488C10.192 30.0173 10.0235 30.1015 9.81288 30.1015C9.60227 30.1015 9.43378 30.0594 9.2653 29.933L8.2965 29.1327C7.1171 28.1639 6.02194 27.1109 5.01102 25.9736L4.84253 25.763C4.08435 24.8785 4.0001 23.5727 4.67405 22.6039C4.71617 22.5197 4.75829 22.4775 4.84253 22.3933L2.35736 18.9393C2.06251 18.5602 1.55705 18.3496 1.09372 18.4339C0.714623 18.476 0.419773 18.6866 0.209165 19.0236C-0.00144283 19.3184 -0.0435644 19.6975 0.0406787 20.0766L2.69434 29.933C2.94707 30.8597 3.53677 31.66 4.33708 32.1234L9.01257 34.9876H15.9626L14.025 28.5852Z" fill="#DB9A1E"/>
<path d="M9.4338 39.3682C9.4338 39.7052 9.72865 40 10.0656 40H15.6257C15.9626 40 16.2575 39.7052 16.2575 39.3682V36.3775H9.4338V39.3682Z" fill="#DB9A1E"/>
<path d="M28.5991 13.6741C28.5991 11.3153 27.8409 9.0407 26.4088 7.14523C25.9876 6.55553 25.1451 6.47128 24.5975 6.8925C24.0078 7.31371 23.9236 8.15614 24.3448 8.70372C25.44 10.1359 26.0297 11.8628 26.0297 13.6741C26.0297 18.2232 22.323 21.9299 17.7739 21.9299C13.2247 21.9299 9.51803 18.2232 9.51803 13.6741C9.51803 9.6304 12.4665 6.26067 16.3417 5.54461V7.10311C16.3417 7.52432 16.5944 7.94554 16.9735 8.15614C17.142 8.24039 17.3526 8.28251 17.5211 8.28251C17.7317 8.28251 17.9845 8.19827 18.1529 8.11402L22.7863 5.12339C23.1233 4.91278 23.3339 4.53369 23.3339 4.1546C23.3339 3.7755 23.1233 3.39641 22.7863 3.1858L18.1529 0.195172C17.7739 -0.0575577 17.3105 -0.0575576 16.9314 0.15305C16.5523 0.363658 16.2996 0.742752 16.2996 1.20609V3.01732C11.0344 3.64914 6.94862 8.19826 6.94862 13.6741C6.94862 19.6553 11.7926 24.4993 17.7739 24.4993C23.7551 24.4993 28.5991 19.6553 28.5991 13.6741Z" fill="#DB9A1E"/>
<path d="M20.596 10.3044L16.5945 14.3059L14.9517 12.6632C14.4463 12.1577 13.646 12.1577 13.1405 12.6632C12.635 13.1687 12.635 13.969 13.1405 14.4744L15.7099 17.0438C15.9626 17.2966 16.2996 17.4229 16.6366 17.4229C16.9736 17.4229 17.3105 17.2966 17.5633 17.0438L22.4915 12.1156C22.9969 11.6102 22.9969 10.8099 22.4915 10.3044C21.9439 9.79894 21.1015 9.79894 20.596 10.3044Z" fill="#DB9A1E"/>
</svg>
