<svg width="80" height="80" viewBox="0 0 80 80" fill="none" xmlns="http://www.w3.org/2000/svg">
<g id="git" clip-path="url(#clip0_60_1442)">
<path id="Vector" d="M77.9637 36.4862L43.5156 2.04C41.5331 0.0562476 38.3156 0.0562476 36.33 2.04L29.1781 9.19375L38.2519 18.2675C40.3612 17.5556 42.7787 18.0331 44.4594 19.7137C46.1487 21.405 46.6231 23.8431 45.8925 25.9594L54.6375 34.7056C56.7531 33.9762 59.195 34.4475 60.8837 36.14C63.2462 38.5006 63.2462 42.3275 60.8837 44.6894C58.5212 47.0519 54.6956 47.0519 52.3319 44.6894C50.5556 42.9119 50.1162 40.3025 51.0162 38.1137L42.8612 29.9581L42.86 51.4212C43.4362 51.7056 43.9794 52.0856 44.4594 52.5637C46.8212 54.9244 46.8212 58.75 44.4594 61.1156C42.0975 63.4762 38.2694 63.4762 35.91 61.1156C33.5487 58.7506 33.355 54.925 35.7156 52.5637C36.2994 51.9806 36.875 51.54 37.5 51.245V29.5831C36.875 29.2881 36.3 28.8506 35.715 28.2637C33.9269 26.4762 33.5925 23.8512 34.51 21.6537L25.6144 12.7081L2.01812 36.3269C0.0337428 38.3125 0.0462427 41.53 2.03062 43.5144L36.4844 77.9606C38.4675 79.9444 41.6875 79.9444 43.6737 77.9606L77.9612 43.6744C79.9456 41.6894 79.9475 38.47 77.9637 36.4862Z" fill="#F34F29"/>
</g>
<defs>
<clipPath id="clip0_60_1442">
<rect width="80" height="80" fill="white"/>
</clipPath>
</defs>
</svg>
