<svg width="24" height="24" viewBox="0 0 24 24" fill="none" xmlns="http://www.w3.org/2000/svg">
<path d="M12.56 14.2051L3.0425 8.14833C2.55046 7.82293 2.20589 7.31731 2.08299 6.74035C1.9601 6.16339 2.0687 5.56124 2.38542 5.06357C2.70214 4.5659 3.20164 4.21252 3.77635 4.07953C4.35107 3.94653 4.95503 4.04456 5.45817 4.3525L12.4407 8.79573L18.71 4.4071C19.1991 4.07564 19.799 3.94989 20.3801 4.05701C20.9612 4.16412 21.4768 4.4955 21.8156 4.97958C22.1544 5.46365 22.2891 6.06157 22.1908 6.64419C22.0925 7.22681 21.7689 7.74736 21.29 8.09343L12.56 14.2051Z" fill="#EA4435"/>
<path d="M20.75 19.75H17.75V6.25C17.75 5.65326 17.9871 5.08097 18.409 4.65901C18.831 4.23705 19.4033 4 20 4C20.5967 4 21.169 4.23705 21.591 4.65901C22.0129 5.08097 22.25 5.65326 22.25 6.25V18.25C22.25 18.6478 22.092 19.0294 21.8107 19.3107C21.5294 19.592 21.1478 19.75 20.75 19.75Z" fill="#00AC47"/>
<path d="M22.2171 5.9242C22.2106 5.8792 22.2111 5.83322 22.2017 5.7883C22.1873 5.71945 22.1605 5.65585 22.14 5.5894C22.1201 5.51334 22.0961 5.43841 22.0681 5.36493C22.0531 5.3293 22.03 5.29803 22.013 5.26338C21.9663 5.1634 21.9123 5.06701 21.8514 4.975C21.8214 4.93143 21.784 4.8943 21.7508 4.85305C21.6939 4.77808 21.6324 4.70672 21.5667 4.63938C21.5168 4.59085 21.46 4.55027 21.4057 4.50655C21.3481 4.45714 21.288 4.41065 21.2257 4.36727C21.1663 4.32842 21.1012 4.2985 21.0382 4.26535C20.9719 4.23077 20.907 4.19312 20.838 4.16552C20.7713 4.13867 20.7002 4.12158 20.6305 4.1011C20.5609 4.08063 20.4916 4.0561 20.42 4.04282C20.3314 4.02859 20.242 4.01957 20.1522 4.01583C20.0953 4.01185 20.0389 4.00188 19.9818 4.00233C19.8757 4.00542 19.7699 4.01607 19.6653 4.0342C19.6231 4.0405 19.5806 4.03998 19.5387 4.04868C19.3972 4.09192 19.256 4.13642 19.1153 4.18217C19.0767 4.19867 19.0428 4.2232 19.0054 4.2418C18.6246 4.41952 18.3033 4.70374 18.0805 5.06012C17.8577 5.4165 17.7429 5.82977 17.75 6.25V10.5715L21.29 8.09343C21.6376 7.86012 21.9102 7.53092 22.0747 7.14593C22.2392 6.76094 22.2888 6.33668 22.2171 5.9242Z" fill="#FFBA00"/>
<path d="M4.25 4C4.84674 4 5.41903 4.23705 5.84099 4.65901C6.26295 5.08097 6.5 5.65326 6.5 6.25V19.75H3.5C3.10218 19.75 2.72064 19.592 2.43934 19.3107C2.15804 19.0294 2 18.6478 2 18.25V6.25C2 5.65326 2.23705 5.08097 2.65901 4.65901C3.08097 4.23705 3.65326 4 4.25 4Z" fill="#4285F4"/>
<path d="M2.03292 5.9242C2.03952 5.8792 2.039 5.83322 2.04837 5.7883C2.06277 5.71945 2.08955 5.65585 2.1101 5.5894C2.13002 5.51337 2.15401 5.43846 2.18195 5.365C2.19695 5.32938 2.22005 5.2981 2.23715 5.26345C2.28379 5.16343 2.33778 5.06702 2.3987 4.975C2.4287 4.93143 2.4662 4.8943 2.49935 4.85305C2.55621 4.77808 2.61768 4.70672 2.6834 4.63938C2.73327 4.59085 2.79012 4.55027 2.84442 4.50655C2.90204 4.45712 2.96211 4.41063 3.02442 4.36727C3.0839 4.32842 3.149 4.2985 3.21192 4.26535C3.27695 4.22857 3.34379 4.19508 3.41218 4.165C3.47893 4.13815 3.55003 4.12105 3.61963 4.10058C3.68923 4.0801 3.7586 4.05557 3.83015 4.0423C3.91879 4.02806 4.0082 4.01905 4.0979 4.0153C4.1549 4.01133 4.21123 4.00135 4.26837 4.0018C4.37447 4.00489 4.48022 4.01554 4.5848 4.03368C4.62702 4.03998 4.66955 4.03945 4.71155 4.04815C4.78415 4.06665 4.85574 4.08888 4.92605 4.11475C4.99675 4.13354 5.06646 4.15587 5.13492 4.18165C5.17347 4.19815 5.2073 4.22268 5.2448 4.24128C5.34202 4.28695 5.43581 4.33959 5.52545 4.39878C5.82593 4.60509 6.07167 4.88145 6.24146 5.20397C6.41125 5.5265 6.49998 5.88551 6.5 6.25V10.5715L2.96 8.09342C2.61243 7.86005 2.33991 7.53099 2.17539 7.14603C2.01086 6.76107 1.96138 6.33669 2.03292 5.9242Z" fill="#C52528"/>
</svg>
