<svg width="81" height="80" viewBox="0 0 81 80" fill="none" xmlns="http://www.w3.org/2000/svg">
<g id="Group">
<path id="Vector" d="M6.18611 39.999C6.18611 53.5821 14.0795 65.3193 25.5255 70.8824L9.15698 26.034C7.19476 30.428 6.18239 35.1868 6.18611 39.999ZM63.6656 38.2674C63.6656 34.0266 62.1423 31.0897 60.8358 28.8037C59.0963 25.9772 57.4666 23.5835 57.4666 20.7569C57.4666 17.6026 59.8583 14.6663 63.2281 14.6663C63.3803 14.6663 63.5246 14.6852 63.6734 14.6937C57.5678 9.10066 49.4342 5.68579 40.5006 5.68579C28.5127 5.68579 17.9658 11.8365 11.8301 21.1526C12.6352 21.1768 13.3945 21.1931 14.0383 21.1931C17.6276 21.1931 23.1834 20.7576 23.1834 20.7576C25.0332 20.6485 25.2513 23.3654 23.4041 23.5841C23.4041 23.5841 21.5445 23.8029 19.476 23.9113L31.972 61.0798L39.4821 38.558L34.1351 23.9106C32.2873 23.8022 30.5368 23.5835 30.5368 23.5835C28.6877 23.4751 28.9045 20.6479 30.7536 20.7569C30.7536 20.7569 36.4204 21.1924 39.7922 21.1924C43.3808 21.1924 48.9373 20.7569 48.9373 20.7569C50.7883 20.6479 51.0058 23.3648 49.1573 23.5835C49.1573 23.5835 47.2945 23.8022 45.2299 23.9106L57.6305 60.7977L61.0525 49.3602C62.5367 44.614 63.6656 41.205 63.6656 38.2674Z" fill="#00749A"/>
<path id="Vector_2" d="M41.1027 43.0006L30.8071 72.9169C33.9547 73.8445 37.2192 74.3155 40.5007 74.3155C44.4966 74.3155 48.3287 73.6241 51.8957 72.3704C51.8001 72.2206 51.7183 72.0624 51.6515 71.8977L41.1027 43.0006ZM70.6103 23.5358C70.7578 24.6288 70.8414 25.8028 70.8414 27.0643C70.8414 30.5464 70.1911 34.4608 68.2323 39.3552L57.7506 69.6601C67.9522 63.7111 74.8139 52.6588 74.8139 39.999C74.823 34.2447 73.377 28.5814 70.6103 23.5358Z" fill="#00749A"/>
<path id="Vector_3" d="M40.5009 0C18.4452 0 0.500519 17.9434 0.500519 39.999C0.500519 62.0572 18.4446 80.0007 40.5009 80.0007C62.5558 80.0007 80.5031 62.0579 80.5031 39.999C80.5025 17.9434 62.5558 0 40.5009 0ZM40.5009 78.1665C19.4566 78.1665 2.33462 61.0445 2.33462 39.999C2.33462 18.9555 19.456 1.83476 40.5009 1.83476C61.5444 1.83476 78.6651 18.9555 78.6651 39.999C78.6651 61.0445 61.5438 78.1665 40.5009 78.1665Z" fill="#00749A"/>
</g>
</svg>
