<svg width="80" height="80" viewBox="0 0 80 80" fill="none" xmlns="http://www.w3.org/2000/svg">
<g id="gsap-greensock 2">
<g id="Group 3">
<path id="Vector" d="M16.8092 35.3494C14.532 36.4207 8.50488 41.2427 7.34403 42.6714C6.13847 44.1001 5.7814 41.8678 7.03146 38.1621C8.01345 35.1708 10.514 31.1078 14.7107 27.6255C17.1661 25.6164 22.5685 22.7145 25.8722 21.0177C26.5421 20.6604 35.2035 16.9995 42.9274 15.169C43.5973 14.9903 42.1239 16.2851 41.9005 16.9995C40.7397 20.3926 17.5679 34.9475 17.5679 34.9475L16.8092 35.3494ZM49.4458 76.2904C49.8476 78.7013 49.4905 78.8799 46.9904 79.1925C44.4901 79.5051 42.6596 78.5674 41.99 77.9425C41.3201 77.3171 41.1864 75.9333 41.856 74.6833C42.258 73.8795 42.6598 73.6116 42.8832 72.6294C43.1063 71.6919 43.2849 71.4686 43.4634 71.1115C43.6418 70.7987 43.6867 70.4861 43.7312 68.2986C43.7759 66.111 43.7312 62.0034 43.9546 60.2623C44.1779 58.4765 51.9019 61.0659 51.9019 61.0659C51.9019 61.0659 50.0712 65.6198 49.5802 66.736C49.089 67.8523 49.1337 69.9952 49.1337 70.4417C49.1337 70.8881 48.9553 71.7809 48.8211 71.8256C48.6872 71.8701 49.2676 73.031 48.9995 73.7008C48.8209 74.326 49.4013 75.9333 49.4458 76.2904ZM52.3926 8.02547C52.1246 6.32891 52.3926 2.98007 52.7497 2.44458C53.8661 0.92645 59.7593 0.748026 61.0096 2.53379C61.5453 3.33736 61.5006 5.21256 61.4114 6.41812C61.3221 7.62346 61.0096 10.213 60.9649 11.0615C60.9204 11.6867 54.4465 12.6686 53.0178 10.9721C52.6158 10.5258 52.3926 8.02547 52.3926 8.02547ZM65.5188 71.9596C68.2423 73.9242 70.3406 74.2813 71.7246 74.9956C73.1086 75.7102 72.7515 77.0942 70.4298 77.4959C68.5546 77.853 65.608 77.1387 63.6436 77.1387C61.6792 77.1387 57.3037 77.362 56.1428 76.5585C54.8036 75.621 55.3838 73.8795 55.3838 73.8795C55.741 72.8975 56.6338 70.7095 56.366 68.9237C56.0981 67.138 55.7408 66.1558 55.0712 64.5037C54.4016 62.8519 53.9106 58.7891 54.5357 58.5658C55.1608 58.3424 54.982 58.5658 55.7858 58.7442C56.5893 58.9226 57.4823 59.1907 59.2236 59.1907C60.9649 59.1907 62.8846 58.9226 63.5544 58.7889C64.224 58.655 64.7598 58.5208 64.5364 59.905C64.3133 61.289 63.6436 63.8786 63.5989 65.8877C63.5544 67.8968 63.5544 70.2185 63.6883 70.6203C63.822 71.0221 64.8045 71.4686 65.5188 71.9596Z" fill="#010101"/>
<path id="Vector_2" d="M55.9644 12.4902C51.0533 16.7318 41.5434 17.8925 27.4353 23.3394C23.8188 24.7234 14.1752 28.8756 11.8535 33.2064C19.6666 28.6972 22.5687 34.903 23.1936 41.2874C23.7738 47.2701 26.7654 50.3956 34.4446 50.2167C42.3472 50.0383 44.7581 54.6367 46.9457 60.0392C51.187 39.3675 57.9735 35.3495 62.3486 31.8224C71.6354 24.2769 60.2058 10.9721 55.9644 12.4902Z" fill="#8AC640"/>
<path id="Vector_3" d="M55.9644 12.4902C44.1777 16.5977 32.5247 17.6246 18.8183 26.0629C15.5591 28.072 8.68348 32.6258 7.34399 41.3321C12.3442 35.7958 23.9078 28.8311 38.0609 24.4111C45.2044 22.1786 50.4282 20.7054 56.7679 18.2498C56.3217 15.3921 56.3217 14.276 55.9644 12.4902Z" fill="#8AC640"/>
<path id="Vector_4" d="M71.0103 36.9566C71.0103 36.9566 70.162 39.8587 68.4654 40.7964C68.4654 40.7964 67.2154 41.2429 64.7152 39.8589C64.0009 39.4572 63.4652 38.0732 63.5097 37.6265C63.5544 36.5548 64.224 36.0638 64.224 36.0638C64.224 36.0638 64.9386 34.8583 65.7867 34.903C66.6352 34.9475 68.0639 35.0814 68.5104 34.6796C68.9119 34.2331 71.0997 35.4832 71.0103 36.9566ZM52.7944 8.87376C52.7944 8.87376 52.616 11.151 52.3034 12.5794C52.2587 12.8475 50.9194 12.9812 49.937 13.3832C51.8122 18.7408 63.1079 18.696 64.5813 16.062C63.867 15.571 62.4383 14.8119 61.7686 14.5441C61.0988 14.276 61.1435 14.3207 61.0988 13.0707C61.0543 11.8204 60.9648 9.4989 60.8754 8.87376C60.7862 8.24862 53.8658 8.24862 52.7944 8.87376Z" fill="#010101"/>
<path id="Vector_5" d="M53.2409 8.87377C53.2409 8.87377 53.2409 10.1685 53.107 11.4186C53.0625 11.999 53.0178 12.3561 52.9286 12.8026C52.8838 13.0707 54.4465 14.1419 54.893 16.5083C57.036 21.2854 61.992 18.9192 64.0456 16.6422C63.3313 16.151 62.1704 15.4814 60.8311 14.9456C60.1613 14.6776 60.4738 14.0974 60.4294 12.8473C60.3846 11.5972 60.206 9.76654 60.1168 9.09691C60.0271 8.42727 54.3125 8.24863 53.2409 8.87377Z" fill="#F0EFEF"/>
<path id="Vector_6" d="M52.7944 8.87376C52.7944 8.87376 52.7497 9.67754 52.616 10.615C53.1962 11.1952 53.9552 11.999 54.5359 12.4902C54.9377 12.8475 55.9197 12.8028 56.8129 12.8028C57.6164 12.8028 58.3308 12.892 58.6433 12.7136C59.3579 12.3563 60.3846 11.4635 60.965 10.7937C60.9205 9.99011 60.8758 9.23105 60.8313 8.87376C60.7862 8.24862 53.8658 8.24862 52.7944 8.87376Z" fill="#010101"/>
<path id="Vector_7" d="M56.8574 12.2669C56.3215 12.2669 55.6963 12.2224 55.2053 12.1329C54.982 12.0884 54.7588 11.9545 54.5802 11.8651C54.2676 11.6417 53.9551 11.3741 53.5982 11.106C52.8836 10.5703 52.8391 10.2577 52.8391 10.124C53.1517 7.31113 52.7497 4.94493 52.7497 4.94493C52.7497 4.94493 52.4371 3.73937 54.1337 3.4268C55.8303 3.11423 56.8572 3.06973 56.8572 3.06973C56.8572 3.06973 57.9288 3.06973 59.5807 3.4268C61.2772 3.73937 60.9646 4.94493 60.9646 4.94493C60.9646 4.94493 60.5629 7.31113 60.8754 10.124C60.8754 10.2577 60.8309 10.5703 60.1164 11.106C59.4912 11.5525 59.0002 12.0435 58.5092 12.1329C58.018 12.2224 57.3929 12.2669 56.8574 12.2669Z" fill="#010101"/>
<path id="Vector_8" d="M56.8574 1.90891C53.9108 1.90891 53.3301 2.71247 52.4818 3.60546C52.3034 3.8286 52.4371 5.16809 52.7499 8.0255H53.1517C53.1517 8.0255 52.8836 7.22171 52.9283 6.28422C52.9731 5.34673 53.1517 5.39145 53.0175 5.16809C52.8391 4.90002 52.4818 4.45352 53.2856 4.00724C54.0892 3.56075 55.3392 4.36431 56.8574 4.40902C58.3753 4.36431 59.6701 3.56075 60.4736 4.00724C61.2772 4.45352 60.9201 4.90002 60.7417 5.16809C60.5631 5.43595 60.7862 5.34651 60.8309 6.28422C60.8754 7.22171 60.6076 8.0255 60.6076 8.0255H61.0093C61.2772 5.16809 61.4558 3.91803 61.3219 3.69467C60.5628 2.71247 59.804 1.9534 56.8574 1.90891ZM71.0103 37.0905C71.0103 37.0905 70.162 39.814 68.5101 40.7515C68.1529 40.5731 68.1976 40.3052 67.885 39.9032C67.7956 39.7695 67.483 39.6799 67.3493 39.5462C67.2154 39.4122 67.2601 39.1889 67.0367 39.0105C66.8581 38.8318 66.7242 38.9657 66.5455 38.8318C66.3671 38.6534 66.3222 38.43 66.1884 38.2963C66.099 38.2069 65.7419 38.1624 65.6527 38.073C65.4294 37.8496 63.4652 37.4478 63.5544 37.0013C63.7328 36.3315 64.0901 35.8405 64.0901 35.8405C64.0901 35.8405 64.9384 34.5904 65.7864 34.6349C66.6347 34.6796 67.4385 34.8583 67.885 34.4565C68.3762 34.0098 71.1444 35.6618 71.0103 37.0905Z" fill="#010101"/>
<path id="Vector_9" d="M65.2062 17.3568C65.2062 17.3568 68.0189 16.6869 69.9388 18.5176C71.8587 20.3928 71.7246 22.7143 71.1444 24.143C71.6354 24.7234 72.5284 26.3305 71.8587 28.2505C74.8054 30.7506 73.5106 34.5904 70.8765 37.1352C70.8765 37.1352 70.2514 34.8135 67.7513 34.6796C67.8405 33.7868 65.4296 33.0723 66.5457 30.7506C64.8491 30.3488 64.8939 29.1879 64.626 27.7595C64.4027 26.3305 65.2062 17.3568 65.2062 17.3568Z" fill="#010101"/>
<path id="Vector_10" d="M64.1793 18.6068C64.1793 18.6068 67.4385 16.955 69.3584 18.8302C71.2781 20.7054 70.7422 22.759 70.162 24.1877C70.653 24.7679 71.8138 26.4202 71.0995 28.3844C70.9656 28.8309 69.9833 28.8309 69.2688 29.9917C71.0545 28.9646 72.1709 29.2327 72.5727 30.5272C73.1978 32.5363 71.8136 34.9473 70.6083 36.2867C70.6083 36.242 70.5636 36.1973 70.5636 36.1528C70.3851 36.8227 70.1618 38.1172 68.8225 39.5459C68.1526 40.2603 67.6169 40.1711 66.8579 39.9924C65.9651 39.7691 65.6525 39.3671 64.4025 38.6976C63.6881 38.2959 64.0899 37.8047 64.0899 37.4029C64.0899 37.3137 64.1791 37.1795 64.3132 37.0011C64.4025 36.7777 64.6703 36.4209 65.0721 36.0189C65.0721 36.0189 65.6525 35.2153 66.501 35.2598C67.3493 35.3045 68.2421 35.1261 68.4654 34.9028C68.4654 33.3401 66.6797 33.2954 67.3046 30.6166C67.3493 30.4827 67.5727 30.2594 68.2868 30.1701C67.2152 29.9468 66.7242 29.9021 65.9651 29.1879C65.4294 28.697 65.0276 28.0718 64.8935 27.2682C64.6258 25.8843 64.1793 18.6068 64.1793 18.6068Z" fill="#F0EFEF"/>
<path id="Vector_11" d="M54.7588 15.7941C54.491 15.4368 53.107 13.6511 50.4727 12.9367C49.7137 12.7134 49.2227 13.3385 48.4638 13.785C48.2405 13.6511 47.2582 13.2046 46.7225 13.5169C46.1868 13.8293 45.8298 14.1421 45.2938 14.3652C45.0258 14.2313 44.3116 14.2313 43.7312 14.4544C43.1508 14.6331 42.2578 15.0348 41.4095 16.1957C40.8738 18.1156 50.8745 16.6867 50.8745 16.6867L54.7588 15.7941Z" fill="#010101"/>
<path id="Vector_12" d="M54.8482 15.7941C53.4193 15.3029 53.6427 13.6511 50.4727 13.3832C49.8475 13.3385 49.4458 13.8295 48.9993 14.1421C49.2226 14.3654 49.4458 14.7225 49.5797 15.0796C49.1779 14.6333 48.4636 14.0526 47.749 13.9187C47.0794 13.785 46.6329 14.276 45.9185 14.6333C46.0522 14.767 46.1864 14.9904 46.3648 15.2584C45.7396 14.8566 45.2934 14.7227 44.4451 15.0351C43.8647 15.2135 42.7485 15.7047 41.9003 16.9103C41.3645 18.8302 50.919 16.6869 50.919 16.6869L54.8482 15.7941Z" fill="#8AC640"/>
<path id="Vector_13" d="M63.2418 16.5085C63.2418 16.5085 63.2418 16.0173 63.1971 15.571C63.1971 15.4818 62.84 15.2584 62.84 15.1692L62.7508 15.0798C62.7508 15.0798 63.4651 14.678 64.0009 14.9014C64.5811 15.0798 64.8936 15.8388 64.8936 15.8388C65.9205 15.4818 66.0098 15.8836 66.501 16.4193C67.5726 16.1959 67.7063 16.5977 68.3762 17.5801C68.3762 17.5801 67.5726 17.4462 66.01 17.7138C64.4918 17.937 63.2418 16.4638 63.2418 16.5085Z" fill="#010101"/>
<path id="Vector_14" d="M63.0632 16.2851C63.0632 16.2851 63.331 16.0618 63.2416 16.0171C63.7326 15.7492 64.4025 15.4369 64.715 16.2851C65.742 15.9279 65.8759 16.4191 66.3669 16.955C67.6169 16.3746 67.7061 17.0887 67.7956 17.4013C67.3938 17.4013 66.8136 17.446 66.0098 17.5352C64.4919 17.7586 63.0185 16.2404 63.0632 16.2851Z" fill="#8AC640"/>
<path id="Vector_15" d="M47.8834 15.169C47.8834 15.169 50.4282 16.0618 52.5713 15.9279C54.7143 15.7494 58.3753 15.5708 60.3397 16.7316C60.3397 16.7316 62.3488 16.0171 64.224 16.5083C66.0995 16.9993 69.5371 20.214 68.5104 23.6071C68.4209 23.8304 67.8405 24.1875 67.1709 24.4109C67.1709 24.4109 67.5282 25.9288 66.903 27.1788C66.2779 28.3844 64.8939 30.7061 64.8492 33.9206C64.8047 34.4563 64.7155 35.5724 64.626 36.1081C61.1435 35.9744 55.786 34.6794 50.5177 34.7688C50.5622 34.1886 50.6069 33.8314 50.6516 33.2509H50.7853C50.5174 31.7775 50.4282 31.0184 50.1602 29.9023C48.4636 28.8309 46.6776 27.5808 45.1599 25.2144C43.6865 22.848 47.8834 15.169 47.8834 15.169ZM65.117 39.2783C65.117 39.2783 67.8852 49.19 64.626 53.3422C64.626 53.3422 65.117 55.2619 64.0009 57.3157C63.8223 58.2085 63.5989 59.0123 63.4652 59.9051C62.8848 63.6107 61.9023 65.1734 61.6345 71.1113L58.9555 71.0668C58.9555 71.0668 58.6429 66.7807 57.7054 64.5037C57.17 63.2092 55.0712 61.4677 55.1608 59.7266C55.25 58.3871 55.5179 57.271 57.7951 55.485C57.9735 52.8957 55.384 50.4399 55.786 40.7962L65.117 39.2783Z" fill="#010101"/>
<path id="Vector_16" d="M64.3135 38.8763C65.0278 43.4303 66.6796 50.172 63.6883 53.4757C63.8648 54.3134 63.8799 55.1771 63.7328 56.0205C63.6436 56.5562 63.465 57.1367 63.2418 57.7616C62.7953 58.8332 62.6167 60.3958 62.4828 61.3333C61.9023 65.039 61.9023 65.2179 61.6345 71.1558L58.9555 71.1111C58.9555 71.1111 58.6429 66.825 57.7054 64.5482C57.1699 63.2535 56.0536 62.1373 55.9644 60.3961C55.8752 59.0568 56.8127 56.378 59.0451 56.4672C58.9112 51.065 56.4109 52.1364 55.7412 40.8854L64.3135 38.8763ZM47.8834 15.169C47.8834 15.169 48.8656 15.4816 49.937 15.5708C51.0086 15.66 52.1695 15.5708 53.1962 15.5261C55.3392 15.3476 58.3753 15.1243 60.3844 16.2851C60.3844 16.2851 61.5005 15.9279 62.7061 16.0171C63.2418 16.0618 63.7777 16.5083 64.4027 16.6869C66.3671 17.1779 68.2423 20.4371 67.3938 23.3839C67.3046 23.6073 66.6794 23.3839 65.9651 23.6073C66.0988 24.2324 66.1884 25.6611 65.4739 27.1791C64.715 28.6972 63.7328 30.6616 63.9112 34.412C59.2233 34.1886 57.125 33.8763 52.4816 33.6529C52.0798 32.0009 51.8118 30.349 51.7673 29.5007C52.3924 29.1882 52.7493 28.9205 53.2407 28.3846C51.9014 28.608 51.3655 28.5185 50.5617 28.072C49.7581 27.6255 48.3294 26.1968 47.6151 25.2594C47.5259 25.1699 47.0349 26.6431 45.9187 26.6881C45.5167 26.1076 47.2133 24.4556 46.9007 23.8307C45.7848 21.5535 47.8834 15.169 47.8834 15.169Z" fill="#F0EFEF"/>
<path id="Vector_17" d="M64.6703 35.1706C64.6703 35.1706 64.7595 36.778 64.7595 37.1798C64.7595 37.6262 65.1168 38.9655 65.1613 39.5907C64.6703 40.4389 62.5272 42.3589 58.6429 43.0732C54.8033 43.8768 49.7136 37.8496 49.7136 37.8496C49.8476 37.2692 50.294 35.5724 50.6066 34.6796C50.6513 34.5904 50.7405 34.3671 50.7405 34.2778C51.1425 33.6974 64.6703 35.1706 64.6703 35.1706Z" fill="#010101"/>
<path id="Vector_18" d="M63.6883 35.3048C63.6883 36.4209 63.8667 37.2247 64.0009 37.939C64.224 39.2338 64.5811 40.0821 64.5811 40.9304C64.5811 43.5197 61.188 43.0732 58.3304 43.1626C54.4908 43.9664 51.2316 37.939 51.2316 37.939C51.4994 36.9121 51.6781 35.7515 52.0798 34.769C52.1243 34.2333 52.2138 33.5637 52.2583 33.2511C57.7052 33.2511 61.5448 33.5637 63.7773 33.7866C63.8668 34.2778 63.7775 35.1261 63.6883 35.3048Z" fill="#F0EFEF"/>
<path id="Vector_19" d="M59.402 41.0641C59.402 41.0641 57.0358 35.7958 49.9368 37.3586C48.2404 42.1357 45.9632 47.6274 47.4366 53.5653C45.9632 55.5745 44.2667 56.6908 44.2667 60.3963C44.2667 64.102 44.4453 64.7271 44.4453 64.7271L49.6689 64.9952C49.6689 64.9952 51.3655 62.8076 52.0351 60.4412C52.2137 59.7714 52.3924 58.566 52.2585 57.182C52.4369 56.9142 53.1959 56.2892 53.2854 55.0837C53.2854 55.0837 55.8302 53.7444 57.3036 50.4852C58.6878 47.538 58.3305 44.9931 59.402 41.0641Z" fill="#010101"/>
<path id="Vector_20" d="M59.402 41.0641C59.2683 40.5731 57.4823 35.7513 50.8745 37.1797C46.9904 47.5379 48.4191 51.8241 48.9993 53.699C46.365 57.0474 45.1597 57.7618 45.6956 64.5482H49.1782C50.7853 62.0034 51.1426 61.0657 51.2318 57.7173C51.2318 57.5834 50.7408 57.9851 50.3835 58.4316C50.6516 57.0476 51.4104 56.7798 51.9908 55.9315C52.2587 55.5742 52.4818 55.0385 52.4818 54.3242C55.6071 52.2258 56.7679 49.5916 57.4376 46.8681C57.9735 44.9931 58.5984 41.9123 59.402 41.0641Z" fill="#F0EFEF"/>
<path id="Vector_21" d="M48.3744 33.8761C48.3744 33.8761 49.5799 33.9206 50.6516 34.2779C51.6785 34.6349 51.6785 34.8581 52.0803 35.3048C52.4821 35.7515 53.4643 36.4209 53.2858 37.0905C53.1964 37.4478 52.9733 37.537 52.6607 37.8496C52.5268 37.9835 51.5443 39.055 51.3212 39.1889C51.1873 39.2781 51.0086 39.4122 50.8747 39.5014L50.2051 39.9479C49.7586 40.1713 49.446 40.3052 48.955 40.2605C48.955 40.2605 47.8389 40.2158 47.1243 39.457C47.1243 39.457 47.0351 39.0997 47.2137 38.9212C47.2137 38.9212 46.276 38.1175 46.0082 37.5818C45.7401 37.0463 45.7401 36.2872 45.919 35.8854C46.0082 35.4832 47.7492 34.3671 48.3744 33.8761ZM49.4907 77.3174L49.3568 78.4337C49.3568 78.4337 48.955 78.9247 45.9637 78.8802C42.9276 78.8355 42.1241 77.898 41.8562 77.4068L41.6778 76.2459C41.6778 76.2459 42.2582 75.3977 42.3921 75.3977C43.3743 75.4869 46.723 76.8264 49.0447 77.1834C49.2674 77.1834 49.3119 77.2726 49.4907 77.3174ZM55.9644 75.0404C55.9644 75.5314 55.9197 75.5314 55.9197 76.0226C56.4554 76.4244 57.7951 76.6477 60.3397 76.6028C64.0454 76.5136 67.4832 77.7191 71.6799 77.0046L71.7246 76.201L71.3228 76.1565L56.4554 74.9509L55.9644 75.0404Z" fill="#010101"/>
<path id="Vector_22" d="M59.2236 76.603H60.3397C62.7508 76.5138 65.0278 77.0495 67.4832 77.1834C68.778 77.1387 70.3853 76.8261 70.2514 75.8886L57.5717 74.817C56.8127 75.6653 57.3929 76.3796 59.2236 76.603ZM44.6687 57.8067C45.0705 58.0746 47.794 59.6819 52.214 59.4586C52.1246 60.3068 52.1693 61.9589 50.2049 64.8608C49.2227 66.2895 48.3742 68.7898 48.1957 71.9598C48.2405 72.6742 48.6422 73.2991 48.1065 74.2368C48.285 74.817 48.9993 75.9778 49.3566 76.6922C49.7137 77.4068 49.8923 78.2103 47.5259 78.2551C45.115 78.2995 41.2307 78.0317 41.7666 76.1567C42.0347 75.1745 42.7935 74.1476 42.8829 73.7456C42.9721 73.3438 42.9721 72.1385 43.731 71.3347C44.4008 69.1024 44.1775 66.9594 44.0438 64.9502C43.8204 62.8517 43.7757 59.5033 44.6687 57.8067ZM48.8209 21.4195C51.9909 17.1779 49.3119 13.785 44.2224 14.8117C42.1686 15.2135 40.115 16.6424 39.9808 19.2317C39.3112 19.321 37.7933 19.4102 37.0342 22.1784C36.454 24.3214 36.1414 24.7232 35.1143 25.7946C34.4446 26.5537 35.159 28.1163 35.65 29.2327C37.3021 33.0723 42.3917 33.4293 45.8295 36.3315C46.9904 36.0189 48.1957 34.7243 48.553 33.8761C45.6509 30.438 46.2758 29.0987 45.115 27.313C46.3653 26.8663 49.2227 25.1252 48.8209 21.4195Z" fill="#010101"/>
<path id="Vector_23" d="M48.1957 21.1517C48.3742 20.8836 48.6867 20.3034 48.8209 20.08C48.8656 20.0353 49.3566 20.8836 49.4013 20.8391C50.6066 18.8745 50.9192 16.0171 49.535 15.7492C49.2224 15.7045 48.6422 15.5708 48.151 15.3919C47.2582 15.0794 46.4547 15.0794 45.0258 15.3474C43.0613 15.7045 41.0969 17.1332 41.0969 19.187C41.0969 19.321 42.4807 19.7227 42.8827 21.3748C42.2129 20.4371 41.052 19.4102 39.668 20.3032C38.1946 21.2407 38.9537 23.3837 36.9893 25.616C36.3194 26.375 36.4088 27.268 37.123 29.0538C38.2838 31.8667 43.7755 33.3846 46.7668 36.0634C47.4812 35.7508 47.9722 35.0365 48.3294 34.5008C46.3203 32.4024 45.5165 30.4378 44.9363 29.0091C44.222 27.3573 43.4182 26.4198 41.8556 25.1693C42.6593 25.4818 43.2845 25.7944 43.6413 26.0623C44.0431 26.3301 44.6235 26.3748 45.1595 26.1962C47.0796 25.527 48.1065 22.848 48.1957 21.1517Z" fill="#F0EFEF"/>
<path id="Vector_24" d="M67.6171 21.866C67.4832 23.5626 66.2332 22.7143 65.5635 22.4017C64.224 21.8213 62.8845 21.4195 61.3219 21.4195C59.7593 21.4195 57.7502 21.5534 56.0091 21.9999C53.5982 22.6696 52.8836 22.6251 51.8122 22.0891C50.7408 21.5087 48.8658 20.08 48.8658 20.08C48.8658 20.08 48.8211 20.5265 49.2676 21.1069C49.8478 21.8213 51.1428 22.7143 52.8838 23.2945C53.7321 23.5626 54.402 23.3837 55.161 23.2053C59.1346 22.2231 63.3313 22.0444 66.8583 24.1875C67.0369 24.2767 67.6621 24.0088 67.9299 23.6071C68.2868 23.0269 67.6171 21.866 67.6171 21.866Z" fill="#010101"/>
<path id="Vector_25" d="M47.303 38.8763C47.66 39.0997 48.1065 39.2336 48.5975 39.6354C48.5975 39.6354 48.1958 39.6354 48.0173 39.457C47.794 39.323 47.3475 38.9212 47.303 38.8763Z" fill="#0A1825"/>
<path id="Vector_26" d="M60.2058 3.47152C60.0718 3.06973 59.0894 2.35516 56.8126 2.35516C54.357 2.35516 53.6427 3.11423 53.5982 3.51601C53.5982 3.64994 53.4195 5.07886 53.3748 5.65907C53.3748 5.65907 53.3748 6.37342 53.4193 7.44483C53.464 8.15918 53.6427 8.56097 53.7319 9.49868C53.8211 10.4807 54.0892 11.1058 54.5802 11.9096C54.8035 12.0433 54.9819 12.1774 55.2053 12.2222C56.0983 12.4006 57.6609 12.4453 58.5092 12.2222C59.0002 12.0882 59.6253 11.2399 59.7593 10.4809C59.9377 9.54339 60.1163 8.87354 60.161 8.29333C60.2503 7.71313 60.295 6.41813 60.3395 6.06085C60.4736 5.07886 60.2503 3.56073 60.2058 3.47152Z" fill="#F0EFEF"/>
<path id="Vector_27" d="M55.5179 58.655C55.5179 58.655 57.8843 59.6819 63.733 58.789C63.733 58.789 62.0812 67.0933 62.8403 71.2453C62.8403 71.2453 63.5991 72.3169 69.2247 74.3705C69.2247 74.3705 71.7248 74.9957 71.6356 76.246C71.6356 76.246 71.7248 76.5138 68.689 76.4244C65.6532 76.335 62.7956 75.7992 60.7864 75.7992C58.7773 75.7992 56.6342 75.8885 56.2772 75.3082C55.8754 74.7725 56.3664 73.3883 56.9468 72.5846C57.5722 71.7365 57.3933 71.1111 57.3488 69.5934C57.2144 65.6199 54.1784 61.5124 55.5179 58.655Z" fill="#010101"/>
<path id="Vector_28" d="M55.0267 59.4141C54.7141 59.8606 55.0712 61.5569 55.5177 63.209C55.9642 64.8608 56.9466 65.8432 57.1697 68.5665C57.3929 71.2453 57.4376 71.6026 56.6785 73.165C55.9194 74.7274 55.6963 76.1563 58.3303 76.201C60.9644 76.2457 62.3933 76.1563 65.0721 76.5583C67.7511 76.9601 68.6886 77.094 70.162 76.8709C71.6354 76.6477 71.9477 76.1563 71.3228 75.71C70.6977 75.2635 68.1081 74.7725 66.992 73.8793C65.9204 73.0758 62.8845 71.7363 62.84 71.3792C62.7061 70.1736 62.6614 65.7983 62.8845 64.3696C63.1079 62.9407 63.4202 60.8871 63.5097 60.3514C63.5991 59.8157 64.0454 59.2797 63.2863 59.4584C62.5275 59.6368 59.6701 60.0388 57.527 59.9049C55.384 59.7712 55.1608 59.2799 55.0267 59.4141Z" fill="#8AC640"/>
<path id="Vector_29" opacity="0.3" d="M56.5448 73.2099C57.3036 73.567 58.42 73.835 59.2683 73.835C59.2683 73.835 58.9555 75.3085 59.4467 76.2012C59.9377 77.0942 55.8749 76.5585 55.8749 76.5585L55.6965 73.3885L56.5448 73.2099ZM68.3762 77.0495C69.0906 76.8261 69.5818 76.0226 69.0013 75.2637C68.3762 74.5047 67.8405 74.3707 68.6441 74.3262C69.4478 74.2815 72.3945 76.0673 72.3945 76.0673L70.8763 77.4513L68.3762 77.0495ZM54.8927 61.1551C55.9197 61.5124 57.4823 61.6016 58.8218 61.5569C60.1611 61.5124 62.1702 61.3336 63.4652 60.8873C64.7597 60.4408 64.224 61.3783 64.224 61.3783L63.5097 62.0481C63.5097 62.0481 61.8131 62.7178 59.0451 62.6733C55.786 62.6286 54.8035 62.2715 54.8035 62.2715L54.8927 61.1551ZM54.982 63.3876C56.0091 63.7449 57.5715 63.8341 58.911 63.7894C60.2503 63.7449 62.0363 63.7449 63.331 63.2537C63.8667 63.0753 63.5544 63.8341 63.5544 63.8341L63.331 64.2359C63.331 64.2359 61.5898 64.861 58.8663 64.8161C55.6071 64.7716 55.0267 64.5035 55.0267 64.5035L54.982 63.3876Z" fill="#010101"/>
<path id="Vector_30" d="M52.0353 32.0903C52.0353 32.4029 55.5179 34.1439 57.4376 34.5012C59.3575 34.8583 63.3757 34.5012 64.0007 34.3673L63.9112 34.9924C63.9112 34.9924 59.1341 35.7068 55.4732 34.7246C51.812 33.7424 52.214 33.519 52.214 33.519L52.0353 32.0903Z" fill="#010101"/>
<path id="Vector_31" d="M44.5793 70.1738C45.115 70.4419 47.0349 70.9329 48.285 70.6651C48.4634 70.6203 48.285 67.5843 48.7762 66.2003C49.4905 64.2804 50.6514 62.7178 51.1869 59.3249C49.3117 59.1462 47.1688 58.655 46.0525 58.2977C44.624 62.6733 45.1152 66.4234 44.5793 70.1738ZM47.5708 72.9868C47.8834 73.076 48.1065 73.433 48.196 73.2101C48.3744 72.8081 47.8834 72.0493 47.8387 71.5136V71.4688C47.4369 71.1118 44.7134 71.0671 44.8921 71.2455C44.5795 71.8259 44.0885 71.7367 43.9101 72.8975C43.8209 73.4777 44.5352 72.9868 45.2046 72.942C43.9993 73.7456 42.6153 74.7727 42.3919 75.6655C42.1241 76.9156 42.5706 77.2729 43.9101 77.9427C45.0709 78.2106 46.4549 78.2553 47.5263 78.2106C48.7319 77.9872 48.9552 77.407 48.598 76.6032C48.0618 75.3977 47.7047 73.835 47.5708 72.9868Z" fill="#F0EFEF"/>
<path id="Vector_32" d="M48.0618 14.9904C49.5352 15.8386 51.5891 15.6155 52.3479 15.5708C52.5266 15.5708 54.3126 15.2582 54.4018 15.3027C54.5802 15.3474 54.5802 15.4814 54.5802 15.4814C54.5802 15.4814 53.9105 15.8384 52.3926 15.9276C50.9639 16.0168 49.2674 15.9276 48.3299 15.4814C47.2135 14.9904 48.0618 14.9904 48.0618 14.9904ZM63.2418 15.8386C63.5097 16.0171 65.251 16.6869 66.01 17.4905C66.6797 18.205 66.3226 18.1603 66.1884 17.9817C66.01 17.7583 64.6258 16.8208 64.0901 16.5977C63.5544 16.3746 62.8845 15.9726 62.8845 15.8834C62.8845 15.7941 63.2418 15.8386 63.2418 15.8386Z" fill="#010101"/>
<path id="Vector_33" d="M47.8385 34.3671C49.1332 34.2779 50.4727 34.5904 51.321 35.4832C51.7675 35.9297 52.4818 36.4207 52.3926 36.8672C52.3926 37.0011 52.1246 37.3584 51.9016 37.6263C51.7677 37.8047 51.3659 38.2065 51.2318 38.3406C51.0534 38.4745 50.4282 38.9657 50.2943 39.055C50.1604 39.1444 49.9817 39.3677 49.8478 39.4122C49.4015 39.6356 48.9103 39.457 48.4638 39.2338C48.0175 39.0105 48.5532 38.9657 48.062 38.6087C46.8567 37.7604 46.1868 37.1798 46.678 35.5279C46.7225 35.2153 47.2135 34.8581 47.8385 34.3671Z" fill="#F0EFEF"/>
<path id="Vector_34" opacity="0.4" d="M36.4538 24.143C32.4355 25.7503 22.2112 30.8402 19.3093 32.4029C21.7202 33.9208 22.8364 37.5817 23.1937 41.2874C23.2381 41.6447 23.2829 41.9573 23.3276 42.3143C23.3721 42.6269 23.4168 42.8501 23.4613 42.9842C23.4613 43.0289 23.4613 43.1181 23.506 43.1626C26.1403 35.9746 35.5605 28.3846 35.9178 27.8042C36.0963 27.5363 35.6945 26.3755 36.3196 25.2596C37.1234 23.8304 38.6862 23.2053 36.4538 24.143ZM46.0082 57.8514C48.0618 53.744 48.1065 49.8149 48.0618 45.2162C48.0618 43.2963 49.4458 40.5729 48.7317 41.3319C46.0527 44.323 39.3112 49.9489 34.4446 50.2612C41.2756 50.0381 43.9543 53.4759 46.0082 57.8514Z" fill="#010101"/>
<path id="Vector_35" d="M15.3803 36.1976C17.9251 34.3671 31.096 27.3577 34.266 26.3753C37.4358 25.3484 36.4536 24.1428 36.4536 24.1428C36.4536 24.1428 23.5952 29.679 15.916 34.4563" fill="#010101"/>
<path id="Vector_36" opacity="0.4" d="M52.8836 23.2947C51.8567 22.8929 51.0531 24.0985 51.3209 25.2594C51.589 26.4202 53.9999 27.7148 53.8658 31.9564C53.7766 35.4389 53.0175 36.8674 53.0175 36.8674L51.3209 34.7246C51.3209 34.7246 51.0531 29.9025 50.4727 29.1882C49.8925 28.4738 48.0618 27.1791 47.3474 26.5094C46.6331 25.8396 48.151 24.9468 48.0618 23.6965C47.9726 22.4912 48.8208 20.0803 48.8208 20.0803L52.8836 23.2947ZM59.0896 42.3141C59.0004 45.6625 59.7595 50.6185 60.0718 52.9849C60.3844 55.3511 60.7862 55.5297 60.0718 56.6014C59.3575 57.6283 58.42 59.3249 58.42 59.3249L55.3392 59.0568C55.3392 59.0568 57.7948 55.9315 57.9285 55.3511C58.0625 54.7709 56.6785 50.3509 56.6785 50.3509L59.0896 42.3141ZM53.1517 11.0615C53.7768 12.4453 54.5356 13.0704 55.741 13.4724C56.4553 13.7403 59.268 14.0976 60.3844 12.8473C60.8754 12.2669 60.5628 10.7043 60.5628 10.7043L58.018 12.7579L54.5801 12.133L54.1784 11.106L53.1517 11.0615Z" fill="#010101"/>
<path id="Vector_37" d="M53.4193 14.1421C54.5802 14.9012 57.4823 15.6155 58.2859 15.7494C59.0894 15.9279 60.3842 14.9012 61.0093 14.6333C61.6792 14.3207 62.84 14.1421 64.1793 15.3477C64.3132 15.4816 63.8667 16.062 63.8667 16.062C63.822 16.0173 63.5542 16.0173 63.1969 15.8386C62.8398 15.6602 62.5272 15.5261 61.9915 15.5708C59.7591 15.8386 59.402 16.5977 57.4376 16.151C55.4732 15.7043 54.982 15.3474 53.0623 15.4366" fill="#8AC640"/>
<path id="Vector (Stroke)" fill-rule="evenodd" clip-rule="evenodd" d="M55.9368 15.3467C54.9661 15.0566 53.9281 14.6824 53.3242 14.2876L53.5145 13.9966C54.0715 14.3608 55.0649 14.7233 56.0364 15.0136C57.0028 15.3025 57.9219 15.5126 58.3144 15.578C58.3175 15.5785 58.3205 15.5791 58.3235 15.5797C58.4824 15.615 58.6804 15.5931 58.9112 15.5219C59.1401 15.4513 59.3857 15.3371 59.6327 15.2054C59.8463 15.0915 60.0557 14.9673 60.2532 14.8503C60.2839 14.8321 60.3144 14.814 60.3446 14.7962C60.5631 14.667 60.7702 14.547 60.9383 14.4746C61.2962 14.3081 61.7858 14.1771 62.3646 14.2487C62.946 14.3206 63.6033 14.5952 64.2956 15.2185C64.2979 15.2205 64.3001 15.2226 64.3022 15.2247C64.3612 15.2837 64.3769 15.3571 64.3781 15.4131C64.3793 15.4682 64.3672 15.5222 64.3528 15.5679C64.3239 15.66 64.2728 15.7584 64.2232 15.843C64.1725 15.9295 64.1179 16.0105 64.0766 16.0693C64.0558 16.0988 64.038 16.1232 64.0254 16.1403C64.019 16.1488 64.014 16.1556 64.0104 16.1603C64.0086 16.1626 64.0072 16.1645 64.0062 16.1657L64.0047 16.1677L64.0046 16.1679L64.0046 16.1679C64.0045 16.168 64.0045 16.168 63.8667 16.062L64.0045 16.168C63.974 16.2076 63.9279 16.2322 63.878 16.2355C63.84 16.2379 63.8026 16.2278 63.7713 16.2073C63.767 16.206 63.7608 16.2043 63.752 16.2022C63.7361 16.1983 63.7171 16.1941 63.6925 16.1887L63.692 16.1885C63.6678 16.1832 63.6397 16.177 63.6088 16.1696C63.4839 16.1399 63.3138 16.0914 63.1192 15.9941C62.7747 15.822 62.4967 15.7037 62.0091 15.7438C61.1683 15.8449 60.6056 16.015 60.1058 16.1661C59.9533 16.2122 59.8067 16.2565 59.6598 16.2966C59.0219 16.4705 58.4125 16.5509 57.399 16.3205C56.8554 16.1969 56.4267 16.0813 56.0523 15.9803C55.055 15.7114 54.4432 15.5465 53.0703 15.6103L53.0542 15.263C54.4843 15.1966 55.1531 15.3769 56.171 15.6514C56.5418 15.7514 56.959 15.8639 57.4761 15.9815C58.4271 16.1978 58.9784 16.122 59.5683 15.9612C59.7043 15.9241 59.8441 15.8818 59.9921 15.837C60.4956 15.6847 61.0951 15.5033 61.9708 15.3982C61.9729 15.398 61.975 15.3978 61.9771 15.3976C62.559 15.349 62.9056 15.4988 63.2746 15.6832L63.2746 15.6832C63.4373 15.7645 63.5797 15.8054 63.6893 15.8315C63.717 15.8381 63.7426 15.8437 63.7668 15.849L63.7699 15.8497C63.7803 15.852 63.7908 15.8543 63.8011 15.8566C63.8377 15.804 63.8825 15.7368 63.9233 15.6671C63.9686 15.5898 64.004 15.5181 64.0212 15.4636C64.0234 15.4564 64.0252 15.45 64.0266 15.4444C63.3938 14.8856 62.8138 14.6545 62.322 14.5937C61.8194 14.5315 61.3946 14.6453 61.0828 14.7908C61.0812 14.7916 61.0795 14.7924 61.0778 14.7931C60.9338 14.8548 60.7457 14.9629 60.5215 15.0954C60.4919 15.1129 60.4618 15.1308 60.4312 15.1489C60.2342 15.2657 60.0174 15.3942 59.7963 15.5121C59.5411 15.6482 59.2732 15.774 59.0138 15.8541C58.7579 15.933 58.4945 15.9726 58.2529 15.9202C57.8396 15.8509 56.909 15.6373 55.9368 15.3467ZM63.7786 16.2096C63.7804 16.2103 63.7799 16.2102 63.7778 16.2093C63.7781 16.2094 63.7784 16.2095 63.7786 16.2096Z" fill="#010101"/>
<path id="Vector_38" d="M53.0175 14.276C54.491 14.9011 57.3484 15.5708 58.1519 15.7494C58.9555 15.9281 60.2503 15.1243 60.8754 14.7225C61.9918 14.0081 63.4202 14.5886 64.0901 15.3476C64.5364 15.8386 64.7152 16.1512 64.7152 16.2851C64.7152 16.4636 64.1795 16.2851 64.1795 16.2851C63.867 16.1512 63.5097 16.1067 63.242 15.9278C62.8848 15.7494 62.5275 15.4816 61.992 15.5261C59.7595 15.7941 59.313 16.553 57.3933 16.1065C55.4736 15.66 54.9824 15.2582 52.9288 15.3919" fill="#8AC640"/>
<path id="Vector_39" d="M46.0974 55.976C46.0082 55.8868 46.1866 55.7976 46.0974 55.7976C45.5172 55.7976 44.7134 55.3511 44.2667 54.726C42.347 51.958 39.5341 50.1275 34.4444 50.2614C26.8097 50.4399 23.7736 47.3148 23.1934 41.3322C22.8809 38.073 21.9879 34.903 20.1574 33.117L19.0858 33.7869C21.1394 35.5726 21.8092 38.4747 22.2557 42.4483C22.9701 48.431 27.7919 51.1991 33.4175 51.2884C39.2662 51.3776 41.3646 52.5831 43.5521 55.53C44.2665 56.4675 45.0703 56.78 45.6952 56.914L46.0974 55.976Z" fill="#010101"/>
<path id="Vector_40" opacity="0.4" d="M66.8136 27.2682C66.9475 27.9379 67.3046 29.2327 68.0189 29.8576C68.3317 30.1702 68.3762 30.2594 68.1083 30.2594C67.8403 30.2594 65.8759 30.1702 65.8759 30.1702L65.3401 29.2327L66.8136 27.2682Z" fill="#010101"/>
</g>
</g>
</svg>
