<svg width="43" height="40" viewBox="0 0 43 40" fill="none" xmlns="http://www.w3.org/2000/svg">
<path d="M15.9388 5.31119C15.9388 6.36164 16.2502 7.3885 16.8338 8.26192C17.4174 9.13535 18.2469 9.81609 19.2174 10.2181C20.1879 10.6201 21.2558 10.7253 22.2861 10.5203C23.3164 10.3154 24.2627 9.80955 25.0055 9.06676C25.7483 8.32398 26.2541 7.37762 26.4591 6.34735C26.664 5.31708 26.5588 4.24918 26.1568 3.27868C25.7548 2.30819 25.0741 1.4787 24.2007 0.895097C23.3273 0.311496 22.3004 0 21.2499 0C19.8413 0 18.4904 0.55957 17.4944 1.55561C16.4983 2.55165 15.9388 3.90257 15.9388 5.31119ZM25.2333 5.31119C25.2333 6.09903 24.9997 6.86918 24.562 7.52424C24.1243 8.17931 23.5022 8.68987 22.7743 8.99136C22.0464 9.29285 21.2455 9.37174 20.4728 9.21804C19.7001 9.06434 18.9903 8.68496 18.4333 8.12787C17.8762 7.57078 17.4968 6.86101 17.3431 6.08831C17.1894 5.31561 17.2683 4.51468 17.5698 3.78681C17.8713 3.05894 18.3818 2.43682 19.0369 1.99912C19.6919 1.56142 20.4621 1.3278 21.2499 1.3278C22.3064 1.3278 23.3196 1.74747 24.0666 2.49451C24.8137 3.24154 25.2333 4.25473 25.2333 5.31119Z" fill="#E5A120"/>
<path d="M21.2499 20.4149C21.6166 20.4149 21.9138 20.1176 21.9138 19.751C21.9138 19.3843 21.6166 19.0871 21.2499 19.0871C20.8833 19.0871 20.586 19.3843 20.586 19.751C20.586 20.1176 20.8833 20.4149 21.2499 20.4149Z" fill="#E5A120"/>
<path d="M40.9146 21.6996C40.8367 21.5218 40.7104 21.3694 40.5502 21.2597C40.3901 21.15 40.2024 21.0874 40.0084 21.0789H32.2043L33.0275 14.1777C33.0628 13.9192 33.042 13.6561 32.9665 13.4064C32.891 13.1566 32.7625 12.9261 32.5899 12.7305C32.4173 12.5349 32.2045 12.3788 31.9661 12.2728C31.7277 12.1668 31.4693 12.1134 31.2084 12.1163H30.9097C30.5116 11.3104 29.9443 10.5999 29.2465 10.0334C28.5488 9.46678 27.737 9.05744 26.8665 8.83329C26.6023 9.25605 26.2917 9.64797 25.9404 10.0017C26.6303 10.0903 27.2934 10.3247 27.8858 10.6893C28.4781 11.0538 28.9862 11.5403 29.3761 12.1163H13.1106C13.5001 11.5407 14.0076 11.0545 14.5993 10.6899C15.1911 10.3254 15.8536 10.0908 16.5429 10.0017C16.1916 9.64797 15.881 9.25605 15.6168 8.83329C14.7494 9.05958 13.9408 9.46989 13.246 10.0364C12.5513 10.6028 11.9865 11.3122 11.5902 12.1163H11.2915C11.0298 12.1119 10.7702 12.1642 10.5306 12.2696C10.291 12.375 10.077 12.5309 9.90326 12.7267C9.72954 12.9225 9.6002 13.1535 9.52412 13.4039C9.44803 13.6544 9.42698 13.9183 9.46243 14.1777L10.2956 21.0789H2.4915C2.29753 21.0874 2.10982 21.15 1.94965 21.2597C1.78947 21.3694 1.66325 21.5218 1.58527 21.6996L0.0450304 26.4332C0.0105329 26.5027 -0.0046027 26.5802 0.00121619 26.6575C0.00703509 26.7349 0.0335933 26.8092 0.0780965 26.8728C0.1226 26.9363 0.183403 26.9866 0.254108 27.0185C0.324814 27.0504 0.402808 27.0627 0.479884 27.054H5.31638V39.3361C5.31638 39.5122 5.38633 39.681 5.51084 39.8055C5.63534 39.9301 5.80421 40 5.98028 40C6.15636 40 6.32522 39.9301 6.44973 39.8055C6.57423 39.681 6.64418 39.5122 6.64418 39.3361V38.0083H18.5944C18.7704 38.0083 18.9393 37.9384 19.0638 37.8139C19.1883 37.6893 19.2583 37.5205 19.2583 37.3444C19.2583 37.1683 19.1883 36.9995 19.0638 36.875C18.9393 36.7505 18.7704 36.6805 18.5944 36.6805H6.64418V35.0208H35.8557V36.6805H23.9055C23.7295 36.6805 23.5606 36.7505 23.4361 36.875C23.3116 36.9995 23.2416 37.1683 23.2416 37.3444C23.2416 37.5205 23.3116 37.6893 23.4361 37.8139C23.5606 37.9384 23.7295 38.0083 23.9055 38.0083H35.8557V39.3361C35.8557 39.5122 35.9257 39.681 36.0502 39.8055C36.1747 39.9301 36.3435 40 36.5196 40C36.6957 40 36.8646 39.9301 36.9891 39.8055C37.1136 39.681 37.1835 39.5122 37.1835 39.3361V27.054H42.02C42.0971 27.0627 42.1751 27.0504 42.2458 27.0185C42.3165 26.9866 42.3773 26.9363 42.4218 26.8728C42.4663 26.8092 42.4929 26.7349 42.4987 26.6575C42.5045 26.5802 42.4894 26.5027 42.4549 26.4332L40.9146 21.6996ZM21.2499 17.7594C21.6439 17.7594 22.0289 17.8762 22.3565 18.0951C22.684 18.3139 22.9393 18.625 23.09 18.9889C23.2408 19.3528 23.2802 19.7533 23.2034 20.1397C23.1265 20.526 22.9368 20.8809 22.6583 21.1594C22.3797 21.438 22.0249 21.6277 21.6385 21.7045C21.2522 21.7814 20.8517 21.7419 20.4878 21.5912C20.1238 21.4404 19.8128 21.1852 19.5939 20.8576C19.3751 20.5301 19.2583 20.145 19.2583 19.7511C19.2583 19.2229 19.4681 18.7163 19.8416 18.3428C20.2151 17.9692 20.7217 17.7594 21.2499 17.7594ZM26.9362 29.0457C26.9362 29.2218 26.8663 29.3906 26.7418 29.5151C26.6173 29.6396 26.4484 29.7096 26.2723 29.7096H16.2309C16.0548 29.7096 15.8859 29.6396 15.7614 29.5151C15.6369 29.3906 15.567 29.2218 15.567 29.0457V27.054H26.9362V29.0457ZM1.66494 25.7262L2.75042 22.4067H10.445L10.4948 22.8283C10.5635 23.3503 10.8181 23.8301 11.2121 24.1795C11.606 24.5289 12.1127 24.7244 12.6392 24.7303H29.8607C30.3872 24.7244 30.8939 24.5289 31.2878 24.1795C31.6818 23.8301 31.9364 23.3503 32.0051 22.8283L32.0549 22.4067H39.7462L40.835 25.7262H1.66494Z" fill="#E5A120"/>
<path d="M38.1793 23.4024H36.1877C36.0116 23.4024 35.8427 23.4724 35.7182 23.5969C35.5937 23.7214 35.5238 23.8902 35.5238 24.0663C35.5238 24.2424 35.5937 24.4113 35.7182 24.5358C35.8427 24.6603 36.0116 24.7302 36.1877 24.7302H38.1793C38.3554 24.7302 38.5243 24.6603 38.6488 24.5358C38.7733 24.4113 38.8432 24.2424 38.8432 24.0663C38.8432 23.8902 38.7733 23.7214 38.6488 23.5969C38.5243 23.4724 38.3554 23.4024 38.1793 23.4024Z" fill="#E5A120"/>
<path d="M6.31222 23.4024H4.32053C4.14445 23.4024 3.97558 23.4724 3.85108 23.5969C3.72657 23.7214 3.65663 23.8902 3.65663 24.0663C3.65663 24.2424 3.72657 24.4113 3.85108 24.5358C3.97558 24.6603 4.14445 24.7302 4.32053 24.7302H6.31222C6.4883 24.7302 6.65716 24.6603 6.78167 24.5358C6.90617 24.4113 6.97612 24.2424 6.97612 24.0663C6.97612 23.8902 6.90617 23.7214 6.78167 23.5969C6.65716 23.4724 6.4883 23.4024 6.31222 23.4024Z" fill="#E5A120"/>
</svg>
