<svg width="433" height="327" viewBox="0 0 433 327" fill="none" xmlns="http://www.w3.org/2000/svg">
<path d="M161.942 233.956C120.66 221.234 26.1446 191.366 44.1661 107.52C64.9501 10.6665 179.453 76.3439 249.694 43.5745C299.411 20.3917 403.192 -4.05552 395.572 100.609C388.159 202.416 383.907 276.173 323.581 293.675C263.255 311.177 224.372 253.181 161.942 233.956Z" fill="#DB9A1E"/>
<g opacity="0.4">
<path d="M161.942 233.956C120.66 221.234 26.1446 191.366 44.1661 107.52C64.9501 10.6665 179.453 76.3439 249.694 43.5745C299.411 20.3917 403.192 -4.05552 395.572 100.609C388.159 202.416 383.907 276.173 323.581 293.675C263.255 311.177 224.372 253.181 161.942 233.956Z" fill="white"/>
</g>
<path d="M37.4285 308.77H395.571" stroke="#263238" stroke-linecap="round" stroke-linejoin="round"/>
<path d="M98.7242 210.046C103.92 214.376 102.188 239.836 118.434 228.881C134.681 217.926 107.003 211.44 108.579 205.231C110.796 196.571 147.35 206.963 141.219 190.336C135.088 173.708 113.23 198.718 107.488 192.526C102.206 186.828 128.515 166.235 116.252 162.736C103.99 159.237 106.596 189.019 98.7242 189.019C92.5756 189.019 93.7274 160.545 82.4261 170.617C71.1248 180.688 95.8231 190.621 92.5929 196.874C90.1335 201.628 70.6918 189.894 71.5665 200.849C72.4411 211.804 93.1818 205.465 98.7242 210.046Z" fill="#DB9A1E"/>
<path d="M102.188 197.021C102.188 197.021 90.3759 211.336 91.6922 250.349" stroke="#263238" stroke-linecap="round" stroke-linejoin="round"/>
<path d="M125.25 217.311C123.154 213.094 105.773 210.21 115.724 201.057C125.674 191.903 125.639 211.527 130.065 211.449C136.257 211.345 135.053 185.105 145.272 191.877C155.49 198.649 135.174 209.362 138.43 214.202C141.418 218.662 159.448 204.252 159.855 213.059C160.262 221.867 140.647 215.346 139.391 220.654C138.413 224.785 157.742 228.543 149.169 234.51C140.595 240.477 137.85 222.326 133.139 223.503C129.545 224.369 134.343 239.342 127.12 237.004C119.898 234.666 127.449 221.728 125.25 217.311Z" fill="#DB9A1E"/>
<path opacity="0.3" d="M125.25 217.311C123.154 213.094 105.773 210.21 115.724 201.057C125.674 191.903 125.639 211.527 130.065 211.449C136.257 211.345 135.053 185.105 145.272 191.877C155.49 198.649 135.174 209.362 138.43 214.202C141.418 218.662 159.448 204.252 159.855 213.059C160.262 221.867 140.647 215.346 139.391 220.654C138.413 224.785 157.742 228.543 149.169 234.51C140.595 240.477 137.85 222.326 133.139 223.503C129.545 224.369 134.343 239.342 127.12 237.004C119.898 234.666 127.449 221.728 125.25 217.311Z" fill="black"/>
<path d="M134.23 217.493C134.23 217.493 100.569 213.986 97.2432 250.349" stroke="#263238" stroke-linecap="round" stroke-linejoin="round"/>
<path d="M70.0076 213.553C64.8116 217.883 66.5436 243.343 50.2974 232.388C34.0512 221.434 61.7373 214.939 60.1525 208.738C57.9442 200.078 21.3817 210.47 27.5216 193.843C33.6615 177.216 55.5021 202.234 61.2956 196.034C66.5695 190.344 40.2691 169.751 52.5317 166.243C64.7942 162.736 62.1529 192.535 70.0509 192.535C76.1995 192.535 75.0563 164.052 86.3576 174.133C97.6589 184.213 72.952 194.137 76.1908 200.39C78.6416 205.144 98.0919 193.41 97.2173 204.356C96.3426 215.302 75.524 208.972 70.0076 213.553Z" fill="#DB9A1E"/>
<path opacity="0.3" d="M70.0076 213.553C64.8116 217.883 66.5436 243.343 50.2974 232.388C34.0512 221.434 61.7373 214.939 60.1525 208.738C57.9442 200.078 21.3817 210.47 27.5216 193.843C33.6615 177.216 55.5021 202.234 61.2956 196.034C66.5695 190.344 40.2691 169.751 52.5317 166.243C64.7942 162.736 62.1529 192.535 70.0509 192.535C76.1995 192.535 75.0563 164.052 86.3576 174.133C97.6589 184.213 72.952 194.137 76.1908 200.39C78.6416 205.144 98.0919 193.41 97.2173 204.356C96.3426 215.302 75.524 208.972 70.0076 213.553Z" fill="white"/>
<path d="M66.2837 200.528C66.2837 200.528 81.6119 221.001 85.1192 255.164" stroke="#263238" stroke-linecap="round" stroke-linejoin="round"/>
<path d="M77.256 308.622H101.158C103.376 308.632 105.517 307.805 107.153 306.306C108.789 304.806 109.799 302.745 109.982 300.534L113.741 256.368C113.839 255.155 113.684 253.935 113.288 252.784C112.891 251.633 112.26 250.577 111.435 249.683C110.61 248.788 109.609 248.073 108.495 247.585C107.38 247.096 106.176 246.843 104.959 246.842H73.4975C72.2808 246.843 71.0774 247.096 69.9633 247.585C68.8492 248.073 67.8484 248.788 67.0242 249.683C66.2 250.578 65.5701 251.634 65.1744 252.785C64.7787 253.935 64.6256 255.155 64.7249 256.368L68.4834 300.534C68.6638 302.737 69.666 304.792 71.2912 306.29C72.9163 307.789 75.0455 308.621 77.256 308.622Z" fill="#DB9A1E" stroke="#263238" stroke-linecap="round" stroke-linejoin="round"/>
<path d="M256.232 245.197C248.239 245.197 225.169 240.001 225.169 240.001H287.296C287.296 240.001 264.217 245.197 256.232 245.197Z" fill="#263238" stroke="#263238" stroke-linecap="round" stroke-linejoin="round"/>
<path d="M263.351 242.59H249.114V252.35H263.351V242.59Z" fill="#858585" stroke="#263238" stroke-linecap="round" stroke-linejoin="round"/>
<path d="M265.455 252.35H247.009V294.308H265.455V252.35Z" fill="#999999" stroke="#263238" stroke-linecap="round" stroke-linejoin="round"/>
<path d="M290.881 227.539H278.852C280.186 219.277 281.173 210.86 281.779 202.52H293.765C293.193 210.86 292.214 219.277 290.881 227.539Z" fill="#858585" stroke="#263238" stroke-linecap="round" stroke-linejoin="round"/>
<path d="M309.093 128.616H257.41C251.348 128.616 247.356 133.751 248.533 139.796C251.834 158.261 253.808 176.94 254.44 195.687C254.434 196.966 254.682 198.234 255.17 199.416C255.658 200.598 256.376 201.672 257.283 202.574C258.189 203.476 259.266 204.19 260.45 204.673C261.635 205.155 262.903 205.398 264.182 205.387H307.69C310.394 205.359 312.999 204.367 315.037 202.589C317.074 200.811 318.409 198.363 318.801 195.687C320.898 177.136 321.657 158.457 321.07 139.796C320.784 133.751 315.164 128.616 309.093 128.616Z" fill="#858585" stroke="#263238" stroke-linecap="round" stroke-linejoin="round"/>
<path d="M311.907 139.796C312.494 158.457 311.736 177.136 309.638 195.687C309.246 198.363 307.911 200.811 305.874 202.589C303.837 204.367 301.232 205.359 298.528 205.387H264.182C262.903 205.398 261.635 205.155 260.45 204.673C259.266 204.19 258.189 203.476 257.283 202.574C256.376 201.672 255.658 200.598 255.17 199.416C254.682 198.234 254.434 196.966 254.44 195.687C253.811 176.94 251.84 158.262 248.542 139.796C247.364 133.734 251.339 128.616 257.419 128.616H299.931C306.001 128.616 311.622 133.751 311.907 139.796Z" fill="#999999" stroke="#263238" stroke-linecap="round" stroke-linejoin="round"/>
<path d="M287.296 301.842C287.296 302.072 287.244 302.3 287.145 302.508C287.045 302.715 286.901 302.898 286.721 303.043C286.542 303.188 286.332 303.29 286.108 303.343C285.883 303.396 285.65 303.398 285.425 303.349C279.77 302.119 262.84 298.551 256.232 298.551C249.625 298.551 232.686 302.119 227.031 303.349C226.806 303.398 226.573 303.396 226.349 303.343C226.125 303.29 225.916 303.188 225.737 303.043C225.558 302.898 225.414 302.715 225.316 302.507C225.218 302.299 225.167 302.072 225.169 301.842C225.168 300.916 225.485 300.018 226.066 299.298C226.648 298.577 227.459 298.078 228.364 297.884C234.981 296.464 250.075 293.372 256.232 293.372C262.389 293.372 277.484 296.464 284.1 297.884C285.004 298.08 285.815 298.579 286.396 299.299C286.977 300.019 287.295 300.916 287.296 301.842Z" fill="#263238" stroke="#263238" stroke-linecap="round" stroke-linejoin="round"/>
<path d="M225.16 298.724C224.108 298.722 223.079 299.033 222.203 299.617C221.327 300.2 220.644 301.031 220.241 302.002C219.837 302.974 219.731 304.044 219.936 305.077C220.141 306.109 220.647 307.057 221.392 307.801C222.136 308.545 223.084 309.052 224.116 309.257C225.149 309.462 226.218 309.356 227.19 308.952C228.162 308.549 228.993 307.866 229.576 306.99C230.16 306.114 230.47 305.085 230.469 304.033C230.466 302.625 229.906 301.276 228.911 300.281C227.916 299.286 226.567 298.726 225.16 298.724ZM225.16 306.916C224.589 306.918 224.031 306.75 223.556 306.435C223.08 306.119 222.709 305.669 222.49 305.142C222.27 304.615 222.212 304.035 222.322 303.475C222.432 302.915 222.706 302.401 223.109 301.997C223.512 301.592 224.026 301.317 224.586 301.205C225.145 301.093 225.726 301.15 226.253 301.368C226.78 301.586 227.231 301.955 227.549 302.43C227.866 302.904 228.035 303.462 228.035 304.033C228.035 304.796 227.733 305.528 227.194 306.069C226.655 306.609 225.923 306.914 225.16 306.916Z" fill="#858585" stroke="#263238" stroke-linecap="round" stroke-linejoin="round"/>
<path d="M256.232 298.724C255.178 298.721 254.146 299.031 253.269 299.615C252.391 300.199 251.707 301.031 251.303 302.005C250.899 302.978 250.794 304.05 251.001 305.084C251.208 306.118 251.717 307.067 252.464 307.81C253.212 308.554 254.163 309.059 255.198 309.26C256.233 309.462 257.304 309.352 258.276 308.943C259.248 308.534 260.076 307.846 260.656 306.966C261.236 306.085 261.541 305.052 261.532 303.998C261.521 302.598 260.958 301.26 259.966 300.272C258.973 299.285 257.632 298.729 256.232 298.724ZM256.232 306.916C255.663 306.918 255.106 306.751 254.631 306.437C254.157 306.123 253.786 305.675 253.565 305.15C253.345 304.625 253.284 304.047 253.392 303.488C253.499 302.929 253.77 302.414 254.169 302.009C254.569 301.603 255.079 301.325 255.637 301.209C256.194 301.093 256.773 301.145 257.301 301.358C257.829 301.57 258.282 301.935 258.604 302.405C258.925 302.874 259.1 303.429 259.107 303.998C259.112 304.379 259.041 304.757 258.899 305.11C258.756 305.464 258.545 305.785 258.278 306.057C258.011 306.328 257.692 306.544 257.341 306.691C256.99 306.839 256.613 306.915 256.232 306.916Z" fill="#858585" stroke="#263238" stroke-linecap="round" stroke-linejoin="round"/>
<path d="M286.646 298.724C285.594 298.724 284.566 299.036 283.691 299.621C282.816 300.205 282.135 301.036 281.733 302.008C281.331 302.981 281.226 304.05 281.432 305.082C281.638 306.114 282.145 307.061 282.889 307.804C283.634 308.548 284.582 309.053 285.614 309.257C286.646 309.462 287.715 309.355 288.687 308.951C289.658 308.548 290.488 307.865 291.071 306.989C291.655 306.114 291.965 305.085 291.963 304.033C291.963 303.335 291.826 302.644 291.558 301.999C291.291 301.355 290.899 300.769 290.405 300.276C289.912 299.783 289.325 299.392 288.68 299.126C288.035 298.859 287.344 298.723 286.646 298.724ZM286.646 306.916C286.076 306.916 285.518 306.747 285.044 306.43C284.57 306.114 284.2 305.663 283.982 305.136C283.764 304.609 283.706 304.029 283.818 303.47C283.929 302.911 284.204 302.397 284.607 301.994C285.01 301.59 285.524 301.316 286.083 301.204C286.643 301.093 287.223 301.15 287.75 301.368C288.277 301.587 288.727 301.956 289.044 302.43C289.361 302.905 289.53 303.462 289.53 304.033C289.53 304.797 289.226 305.531 288.685 306.072C288.144 306.613 287.411 306.916 286.646 306.916Z" fill="#858585" stroke="#263238" stroke-linecap="round" stroke-linejoin="round"/>
<path d="M271.976 225.859C251.242 226.517 230.488 225.599 209.892 223.114C208.942 222.942 207.965 222.984 207.033 223.238C206.101 223.492 205.237 223.95 204.504 224.58C203.772 225.209 203.189 225.995 202.798 226.878C202.407 227.761 202.219 228.721 202.246 229.687V230.7C202.296 232.827 203.087 234.871 204.484 236.477C205.88 238.083 207.793 239.152 209.892 239.498C230.488 241.98 251.242 242.897 271.976 242.244V225.859Z" fill="#999999" stroke="#263238" stroke-linecap="round" stroke-linejoin="round"/>
<path d="M304.538 239.23C291.669 240.841 278.913 241.906 265.957 242.46C265.211 242.483 264.468 242.356 263.772 242.085C263.076 241.815 262.442 241.406 261.907 240.885C261.373 240.363 260.949 239.739 260.661 239.05C260.374 238.361 260.228 237.621 260.233 236.874V231.895C260.248 230.373 260.854 228.917 261.921 227.833C262.989 226.749 264.436 226.122 265.957 226.084C278.947 225.521 291.669 224.456 304.538 222.845C305.242 222.713 305.968 222.74 306.661 222.925C307.354 223.11 307.996 223.448 308.541 223.914C309.086 224.38 309.52 224.963 309.81 225.618C310.1 226.274 310.24 226.987 310.219 227.703V232.683C310.177 234.263 309.587 235.78 308.551 236.974C307.515 238.168 306.096 238.966 304.538 239.23Z" fill="#858585" stroke="#263238" stroke-linecap="round" stroke-linejoin="round"/>
<path d="M218.379 306.596C218.379 303.704 217.747 297.936 214.335 290.445L209.893 274.424L196.037 280.339L199.934 292.61C199.934 292.61 188.026 298.291 183.627 299.824C180.7 300.846 171.936 302.855 172.369 306.613C172.369 306.878 172.421 307.141 172.522 307.386C172.624 307.63 172.772 307.853 172.96 308.04C173.147 308.228 173.37 308.376 173.614 308.478C173.859 308.579 174.122 308.631 174.387 308.631H216.353C216.62 308.632 216.885 308.58 217.132 308.478C217.379 308.376 217.603 308.226 217.791 308.037C217.98 307.848 218.129 307.623 218.23 307.376C218.331 307.128 218.382 306.863 218.379 306.596Z" fill="white" stroke="#263238" stroke-linecap="round" stroke-linejoin="round"/>
<path d="M210.75 297.217C208.585 298.811 197.041 300.828 199.934 298.516C202.826 296.204 199.934 292.601 199.934 292.601C199.934 292.601 188.026 298.282 183.627 299.815C180.7 300.837 171.936 302.846 172.369 306.605C172.369 306.87 172.421 307.132 172.522 307.377C172.624 307.622 172.772 307.844 172.96 308.031C173.147 308.219 173.37 308.367 173.614 308.469C173.859 308.57 174.122 308.622 174.387 308.622H216.353C216.62 308.624 216.884 308.572 217.13 308.47C217.377 308.368 217.601 308.217 217.788 308.028C217.976 307.838 218.125 307.614 218.224 307.366C218.324 307.119 218.374 306.854 218.371 306.587C218.229 302.2 217.333 297.871 215.721 293.788C213.339 293.814 212.915 295.632 210.75 297.217Z" fill="#DB9A1E" stroke="#263238" stroke-linecap="round" stroke-linejoin="round"/>
<path d="M228.399 308.622H259.142C259.449 308.622 259.747 308.515 259.984 308.319C260.221 308.123 260.383 307.851 260.441 307.549C260.908 305.107 260.805 299.642 258.033 292.385L257.756 277.663L242.012 280.339L244.004 292.896C244.004 292.896 237.665 299.876 234.651 301.123C232.538 301.989 227.723 302.093 227.083 307.185C227.066 307.368 227.087 307.552 227.146 307.726C227.204 307.9 227.298 308.06 227.422 308.195C227.546 308.33 227.697 308.438 227.865 308.512C228.034 308.586 228.215 308.623 228.399 308.622Z" fill="white" stroke="#263238" stroke-linecap="round" stroke-linejoin="round"/>
<path d="M252.872 297.278C249.625 299.547 247.226 299.815 248.741 296.412C250.257 293.008 244.039 292.887 244.039 292.887C244.039 292.887 237.7 299.867 234.686 301.114C232.573 301.98 227.758 302.084 227.117 307.176C227.095 307.362 227.113 307.55 227.169 307.728C227.225 307.906 227.318 308.07 227.443 308.21C227.567 308.349 227.72 308.46 227.891 308.536C228.062 308.611 228.247 308.65 228.433 308.648H259.176C259.484 308.648 259.782 308.541 260.019 308.345C260.256 308.149 260.417 307.877 260.475 307.575C260.943 305.132 260.839 299.668 258.068 292.411C255.661 292.965 256.094 295 252.872 297.278Z" fill="#DB9A1E" stroke="#263238" stroke-linecap="round" stroke-linejoin="round"/>
<path d="M225.342 196.19C225.342 196.19 222.241 199.359 209.572 201.386C196.902 203.412 170.602 209.751 170.922 220.143C171.243 230.535 195.465 285.959 195.465 285.959C195.465 285.959 207.589 283.656 213.218 280.192C213.218 280.192 203.458 240.641 196.14 230.249C196.14 230.249 228.988 226.205 247.156 218.706C265.325 211.206 254.639 194.111 254.639 194.111L225.342 196.19Z" fill="#263238" stroke="#263238" stroke-linecap="round" stroke-linejoin="round"/>
<path d="M245.944 194.726C245.944 194.726 250.603 202.52 247.122 206.85C243.64 211.18 223.87 219.26 226.104 229.08C228.338 238.901 235.717 252.748 240.523 285.656C240.523 285.656 251.72 283.924 259.22 280.746C259.22 280.746 260.467 247.266 251.764 232.83C251.764 232.83 276.687 228.214 279.216 219.84C281.745 211.466 277.016 198.666 276.921 194.094L245.944 194.726Z" fill="#263238" stroke="#263238" stroke-linecap="round" stroke-linejoin="round"/>
<path d="M230.962 207.127C230.386 207.084 229.807 207.084 229.23 207.127" stroke="#7F7F7F" stroke-width="0.75" stroke-linecap="round" stroke-linejoin="round"/>
<path d="M232.088 201.957C232.088 201.957 237.206 203.464 239.215 210.141C239.241 210.251 239.232 210.366 239.189 210.47C239.146 210.574 239.072 210.662 238.976 210.722C238.88 210.781 238.768 210.809 238.656 210.801C238.543 210.793 238.436 210.75 238.349 210.678C236.977 209.267 235.288 208.204 233.422 207.578" stroke="#7F7F7F" stroke-width="0.75" stroke-linecap="round" stroke-linejoin="round"/>
<path d="M193.733 229.886C193.733 227.071 181.609 225.556 184.856 222.958C188.104 220.36 195.465 228.803 195.465 228.803" stroke="#7F7F7F" stroke-width="0.75" stroke-linecap="round" stroke-linejoin="round"/>
<path d="M253.305 241.144C253.305 237.922 241.718 236.164 242.298 232.7C242.878 229.236 250.239 236.06 250.239 236.06" stroke="#7F7F7F" stroke-width="0.75" stroke-linecap="round" stroke-linejoin="round"/>
<path d="M194.183 286.158L195.456 289.103C195.527 289.266 195.652 289.399 195.81 289.48C195.968 289.56 196.149 289.583 196.322 289.544C199.119 288.912 210.793 286.158 214.889 283.214C215.008 283.127 215.098 283.006 215.148 282.867C215.197 282.728 215.204 282.577 215.166 282.435L214.37 279.152C214.343 279.039 214.29 278.934 214.216 278.844C214.141 278.754 214.047 278.683 213.94 278.636C213.834 278.589 213.718 278.568 213.602 278.573C213.485 278.579 213.372 278.611 213.27 278.668C211.425 279.672 206.29 282.071 194.694 285.119C194.588 285.148 194.49 285.199 194.405 285.268C194.321 285.338 194.252 285.425 194.204 285.523C194.155 285.622 194.128 285.729 194.125 285.839C194.121 285.948 194.141 286.057 194.183 286.158Z" fill="#999999" stroke="#263238" stroke-linecap="round" stroke-linejoin="round"/>
<path d="M239.146 283.734C239.131 283.632 239.143 283.528 239.18 283.433C239.217 283.337 239.278 283.253 239.357 283.187C239.437 283.122 239.531 283.078 239.632 283.06C239.733 283.042 239.837 283.05 239.934 283.084C241.341 283.523 242.845 283.544 244.264 283.145C247.477 282.417 256.665 279.508 259.402 278.633C259.492 278.604 259.587 278.597 259.68 278.612C259.773 278.628 259.861 278.664 259.937 278.72C260.013 278.776 260.075 278.849 260.117 278.933C260.16 279.017 260.182 279.11 260.181 279.204V283.032C260.182 283.148 260.149 283.261 260.086 283.358C260.023 283.456 259.932 283.532 259.826 283.578C257.678 284.539 246.169 289.467 240.151 288.124C240.033 288.097 239.927 288.034 239.846 287.944C239.766 287.854 239.715 287.742 239.7 287.622L239.146 283.734Z" fill="#999999" stroke="#263238" stroke-linecap="round" stroke-linejoin="round"/>
<path d="M248.412 203.542C248.329 204.739 247.892 205.884 247.156 206.833C244.61 209.994 233.413 215.146 228.399 221.555" stroke="#7F7F7F" stroke-linecap="round" stroke-linejoin="round"/>
<path d="M247.866 199.212C248.06 199.85 248.208 200.501 248.308 201.161" stroke="#7F7F7F" stroke-linecap="round" stroke-linejoin="round"/>
<path d="M181.548 301.764C182.255 303.052 182.766 304.438 183.064 305.877H214.335C214.451 304.515 215.068 303.243 216.067 302.309" stroke="#263238" stroke-linecap="round" stroke-linejoin="round"/>
<path d="M235.89 301.764C235.89 301.764 240.22 302.093 241.839 305.877H258.189C258.683 304.747 258.976 303.54 259.055 302.309" stroke="#263238" stroke-linecap="round" stroke-linejoin="round"/>
<path d="M210.256 147.252C210.655 148.776 211.07 150.292 211.486 151.773C215.816 167.361 221.445 197.021 221.445 197.021C249.157 202.867 278.384 197.021 278.384 197.021C278.54 190.561 277.752 182.031 276.878 173.067C281.415 171.812 284.672 167.62 284.879 160.649C285.096 152.206 283.563 137.007 282.714 129.906C281.961 123.662 282.498 119.947 272.825 115.184C267.975 112.387 259.921 111.062 250.023 109.737C230.538 107.139 216.474 111.079 211.486 113.201C207.528 112.162 206.428 116.803 206.428 116.803C204.237 115.149 201.691 122.164 201.691 122.164C195.283 130.339 190.243 144.108 188.563 149.01C188.191 150.082 187.51 151.019 186.606 151.703C182.059 155.167 184.588 159.454 184.588 159.454L193.897 162.303C193.897 162.303 198.409 163.481 201.856 157.549C204.731 152.595 209.442 144.186 210.256 147.252Z" fill="#DB9A1E"/>
<mask id="mask0_291_4726" style="mask-type:luminance" maskUnits="userSpaceOnUse" x="183" y="108" width="102" height="92">
<path d="M210.256 147.252C210.655 148.776 211.07 150.292 211.486 151.773C215.816 167.361 221.445 197.021 221.445 197.021C249.157 202.867 278.384 197.021 278.384 197.021C278.54 190.561 277.752 182.031 276.878 173.067C281.415 171.812 284.672 167.62 284.879 160.649C285.096 152.206 283.563 137.007 282.714 129.906C281.961 123.662 282.498 119.947 272.825 115.184C267.975 112.387 259.921 111.062 250.023 109.737C230.538 107.139 216.474 111.079 211.486 113.201C207.528 112.162 206.428 116.803 206.428 116.803C204.237 115.149 201.691 122.164 201.691 122.164C195.283 130.339 190.243 144.108 188.563 149.01C188.191 150.082 187.51 151.019 186.606 151.703C182.059 155.167 184.588 159.454 184.588 159.454L193.897 162.303C193.897 162.303 198.409 163.481 201.856 157.549C204.731 152.595 209.442 144.186 210.256 147.252Z" fill="white"/>
</mask>
<g mask="url(#mask0_291_4726)">
<path opacity="0.3" d="M195.612 158.397C195.612 158.397 195.396 154.067 191.932 153.314C188.468 152.561 192.902 151.262 195.612 151.911C198.323 152.561 197.691 150.179 200.011 146.282C202.332 142.385 203.475 139.302 205.433 141.545C207.39 143.788 209.425 144.143 210.256 147.209C211.088 150.274 206.974 157.601 206.974 157.601L200.514 162.615L197.232 164.451H192.339L190.659 160.216L195.612 158.397Z" fill="black"/>
</g>
<path d="M210.256 147.252C210.655 148.776 211.07 150.292 211.486 151.773C215.816 167.361 221.445 197.021 221.445 197.021C249.157 202.867 278.384 197.021 278.384 197.021C278.54 190.561 277.752 182.031 276.878 173.067C281.415 171.812 284.672 167.62 284.879 160.649C285.096 152.206 283.563 137.007 282.714 129.906C281.961 123.662 282.498 119.947 272.825 115.184C267.975 112.387 259.921 111.062 250.023 109.737C230.538 107.139 216.474 111.079 211.486 113.201C207.528 112.162 206.428 116.803 206.428 116.803C204.237 115.149 201.691 122.164 201.691 122.164C195.283 130.339 190.243 144.108 188.563 149.01C188.191 150.082 187.51 151.019 186.606 151.703C182.059 155.167 184.588 159.454 184.588 159.454L193.897 162.303C193.897 162.303 198.409 163.481 201.856 157.549C204.731 152.595 209.442 144.186 210.256 147.252Z" stroke="#263238" stroke-linecap="round" stroke-linejoin="round"/>
<path opacity="0.3" d="M278.384 196.978C278.406 191.413 278.132 185.851 277.562 180.316C278.506 193.505 251.045 197.636 250.179 190.483C249.313 183.33 276.878 173.024 261.878 176.627C248.793 179.77 223.428 176.765 217.193 175.951C219.592 187.209 221.445 196.978 221.445 196.978C249.157 202.823 278.384 196.978 278.384 196.978Z" fill="black"/>
<path opacity="0.3" d="M265.793 130.729C265.793 130.729 261.87 142.203 261.879 148.265C261.887 154.327 250.889 158.397 250.863 158.397C256.76 157.202 262.493 155.618 265.23 154.821C265.701 154.688 266.111 154.394 266.39 153.991C266.668 153.588 266.797 153.101 266.754 152.613C266.055 145.34 265.734 138.035 265.793 130.729Z" fill="black"/>
<path d="M206.628 127.845C206.665 133.252 207.641 138.611 209.512 143.684C209.566 143.833 209.571 143.995 209.527 144.147C209.483 144.299 209.391 144.433 209.266 144.53C209.14 144.626 208.987 144.68 208.829 144.684C208.671 144.688 208.516 144.641 208.386 144.55C206.896 143.485 204.792 141.32 202.895 136.955" stroke="#263238" stroke-width="0.75" stroke-linecap="round" stroke-linejoin="round"/>
<path d="M280.116 163.204C277.83 155.626 273.872 153.73 270.807 153.539C270.712 153.526 270.624 153.484 270.552 153.421C270.481 153.357 270.43 153.274 270.406 153.181C270.382 153.089 270.386 152.991 270.417 152.901C270.448 152.81 270.506 152.731 270.582 152.673C272.366 151.712 275.838 150.941 280.108 155.67" stroke="#263238" stroke-width="0.75" stroke-linecap="round" stroke-linejoin="round"/>
<path d="M236.184 141.519C236.147 141.838 235.995 142.132 235.755 142.345C235.516 142.559 235.206 142.677 234.885 142.677C234.565 142.677 234.255 142.559 234.015 142.345C233.776 142.132 233.623 141.838 233.586 141.519C233.565 141.336 233.583 141.15 233.638 140.975C233.694 140.799 233.786 140.637 233.909 140.499C234.032 140.361 234.182 140.251 234.35 140.176C234.519 140.1 234.701 140.061 234.885 140.061C235.07 140.061 235.252 140.1 235.42 140.176C235.589 140.251 235.739 140.361 235.862 140.499C235.984 140.637 236.076 140.799 236.132 140.975C236.188 141.15 236.205 141.336 236.184 141.519Z" fill="#999999" stroke="#263238" stroke-width="0.75" stroke-linecap="round" stroke-linejoin="round"/>
<path d="M237.942 156.258C237.942 156.515 237.866 156.766 237.723 156.98C237.581 157.194 237.378 157.36 237.14 157.459C236.903 157.557 236.642 157.583 236.39 157.532C236.138 157.482 235.906 157.359 235.725 157.177C235.543 156.995 235.419 156.764 235.369 156.512C235.319 156.26 235.345 155.999 235.443 155.761C235.541 155.524 235.708 155.321 235.922 155.178C236.135 155.036 236.386 154.959 236.643 154.959C236.988 154.959 237.318 155.096 237.562 155.34C237.805 155.583 237.942 155.914 237.942 156.258Z" fill="#999999" stroke="#263238" stroke-width="0.75" stroke-linecap="round" stroke-linejoin="round"/>
<path d="M242.298 191.782C242.3 192.041 242.225 192.294 242.082 192.511C241.939 192.727 241.736 192.896 241.497 192.996C241.258 193.096 240.995 193.123 240.741 193.074C240.487 193.025 240.253 192.901 240.069 192.718C239.885 192.536 239.76 192.303 239.709 192.049C239.657 191.795 239.683 191.531 239.782 191.292C239.88 191.053 240.048 190.848 240.263 190.704C240.478 190.56 240.732 190.483 240.991 190.483C241.336 190.483 241.667 190.619 241.912 190.863C242.157 191.106 242.296 191.436 242.298 191.782Z" fill="#999999" stroke="#263238" stroke-linecap="round" stroke-linejoin="round"/>
<path d="M217.427 165.914C217.427 165.914 213.175 169.967 215.201 170.036C217.227 170.106 219.782 167.317 222.129 166.997C224.476 166.676 220.683 165.265 220.683 165.265L217.427 165.914Z" fill="white" stroke="#263238" stroke-linecap="round" stroke-linejoin="round"/>
<path d="M242.255 161.35C242.064 161.18 241.841 161.05 241.598 160.97C241.355 160.889 241.098 160.86 240.843 160.883C238.765 161.056 232.79 161.506 230.538 161.368C226.537 161.117 214.751 158.623 214.751 158.623C214.48 158.576 214.202 158.591 213.937 158.666L206.636 160.814C206.371 160.891 206.127 161.03 205.926 161.221L201.51 165.273C201.365 165.409 201.242 165.567 201.146 165.741L200.228 167.421C200.038 167.766 199.967 168.164 200.025 168.553C200.083 168.943 200.267 169.302 200.548 169.577L207.84 169.768C208.291 169.789 208.732 169.634 209.07 169.335L211.235 167.482C211.379 167.356 211.505 167.21 211.607 167.049C212.135 166.183 214.205 163.325 217.409 163.585C217.409 163.585 210.481 167.265 211.789 168.781C213.097 170.296 218.397 165.966 220.129 166.399C221.861 166.832 221.973 171.084 231.387 169.543C231.808 169.472 232.239 169.492 232.651 169.603L241.224 172.002C241.479 172.073 241.744 172.092 242.006 172.058C242.268 172.025 242.52 171.939 242.748 171.807C242.976 171.675 243.176 171.498 243.335 171.288C243.494 171.078 243.61 170.838 243.675 170.582C244.342 168.123 244.931 163.793 242.255 161.35Z" fill="white" stroke="#263238" stroke-linecap="round" stroke-linejoin="round"/>
<path d="M215.773 160.173L213.937 160.484C213.041 160.636 212.205 161.032 211.52 161.628L209.572 163.299C209.24 163.597 208.949 163.938 208.706 164.312L207.45 166.226C207.314 166.438 207.161 166.637 206.991 166.824C206.247 167.69 204.194 170.088 206.411 169.759" fill="white"/>
<path d="M215.773 160.173L213.937 160.484C213.041 160.636 212.205 161.032 211.52 161.628L209.572 163.299C209.24 163.597 208.949 163.938 208.706 164.312L207.45 166.226C207.314 166.438 207.161 166.637 206.991 166.824C206.247 167.69 204.194 170.088 206.411 169.759" stroke="#263238" stroke-linecap="round" stroke-linejoin="round"/>
<path d="M210.603 160.822L208.706 161.342C208.114 161.487 207.57 161.785 207.13 162.208L205.649 163.628C205.503 163.757 205.373 163.903 205.259 164.061L202.826 167.291C202.826 167.291 201.527 169.578 202.826 169.621" fill="white"/>
<path d="M210.603 160.822L208.706 161.342C208.114 161.487 207.57 161.785 207.13 162.208L205.649 163.628C205.503 163.757 205.373 163.903 205.259 164.061L202.826 167.291C202.826 167.291 201.527 169.578 202.826 169.621" stroke="#263238" stroke-linecap="round" stroke-linejoin="round"/>
<path d="M265.862 128.893C265.678 136.81 265.967 144.73 266.728 152.613C266.771 153.101 266.642 153.588 266.364 153.991C266.085 154.394 265.675 154.688 265.204 154.821C258.319 156.857 251.306 158.433 244.212 159.541" stroke="#263238" stroke-linecap="round" stroke-linejoin="round"/>
<path d="M266.278 123.524C266.165 124.39 266.07 125.334 266 126.295" stroke="#263238" stroke-width="0.75" stroke-linecap="round" stroke-linejoin="round"/>
<path d="M269.179 115.418C268.191 116.284 267.447 117.851 266.936 119.93" stroke="#263238" stroke-width="0.75" stroke-linecap="round" stroke-linejoin="round"/>
<path d="M225.818 110.274C225.818 110.274 226.364 108.542 229.282 107.563C232.201 106.585 242.324 105.035 247.529 107.563C252.734 110.092 242.766 123.853 242.766 123.853L238.15 130.244L234.037 133.327L232.201 127.845L229.819 125.368C229.819 125.368 224.675 121.151 225.108 116.985C225.541 112.82 225.818 110.274 225.818 110.274Z" fill="white"/>
<path d="M251.374 109.91C250.56 107.061 246.845 106.264 246.845 106.264C229.092 103.233 225.342 109.728 225.342 109.728C223.165 115.595 223.165 122.048 225.342 127.914C225.342 127.914 230.391 125.818 231.257 127.914C232.123 130.01 233.708 134.479 233.708 134.479C236.118 133.12 238.22 131.277 239.882 129.066C242.627 125.455 249.07 129.066 249.07 129.066C253.245 121.852 251.374 109.91 251.374 109.91ZM247.044 109.702C240.168 131.283 234.106 132.218 234.106 132.218C232.088 124.286 230.356 126.018 227.611 121.056C225.411 117.072 226.156 112.032 226.537 110.187C226.582 109.967 226.675 109.76 226.81 109.58C226.945 109.4 227.118 109.253 227.316 109.148C234.141 105.684 242.489 106.957 245.927 107.71C246.14 107.754 246.341 107.843 246.517 107.97C246.693 108.097 246.84 108.26 246.949 108.448C247.058 108.636 247.125 108.845 247.148 109.061C247.17 109.278 247.147 109.496 247.079 109.702H247.044Z" fill="#DB9A1E"/>
<mask id="mask1_291_4726" style="mask-type:luminance" maskUnits="userSpaceOnUse" x="223" y="105" width="29" height="30">
<path d="M251.374 109.91C250.56 107.061 246.845 106.264 246.845 106.264C229.092 103.233 225.342 109.728 225.342 109.728C223.165 115.595 223.165 122.048 225.342 127.914C225.342 127.914 230.391 125.818 231.257 127.914C232.123 130.01 233.708 134.479 233.708 134.479C236.118 133.12 238.22 131.277 239.882 129.066C242.627 125.455 249.07 129.066 249.07 129.066C253.245 121.852 251.374 109.91 251.374 109.91ZM247.044 109.702C240.168 131.283 234.106 132.218 234.106 132.218C232.088 124.286 230.356 126.018 227.611 121.056C225.411 117.072 226.156 112.032 226.537 110.187C226.582 109.967 226.675 109.76 226.81 109.58C226.945 109.4 227.118 109.253 227.316 109.148C234.141 105.684 242.489 106.957 245.927 107.71C246.14 107.754 246.341 107.843 246.517 107.97C246.693 108.097 246.84 108.26 246.949 108.448C247.058 108.636 247.125 108.845 247.148 109.061C247.17 109.278 247.147 109.496 247.079 109.702H247.044Z" fill="white"/>
</mask>
<g mask="url(#mask1_291_4726)">
<path opacity="0.4" d="M251.374 109.91C250.56 107.061 246.845 106.264 246.845 106.264C229.092 103.233 225.342 109.728 225.342 109.728C223.165 115.595 223.165 122.048 225.342 127.914C225.342 127.914 230.391 125.818 231.257 127.914C232.123 130.01 233.708 134.479 233.708 134.479C236.118 133.12 238.22 131.277 239.882 129.066C242.627 125.455 249.07 129.066 249.07 129.066C253.245 121.852 251.374 109.91 251.374 109.91ZM247.044 109.702C240.168 131.283 234.106 132.218 234.106 132.218C232.088 124.286 230.356 126.018 227.611 121.056C225.411 117.072 226.156 112.032 226.537 110.187C226.582 109.967 226.675 109.76 226.81 109.58C226.945 109.4 227.118 109.253 227.316 109.148C234.141 105.684 242.489 106.957 245.927 107.71C246.14 107.754 246.341 107.843 246.517 107.97C246.693 108.097 246.84 108.26 246.949 108.448C247.058 108.636 247.125 108.845 247.148 109.061C247.17 109.278 247.147 109.496 247.079 109.702H247.044Z" fill="white"/>
</g>
<path d="M251.374 109.91C250.56 107.061 246.845 106.264 246.845 106.264C229.092 103.233 225.342 109.728 225.342 109.728C223.165 115.595 223.165 122.048 225.342 127.914C225.342 127.914 230.391 125.818 231.257 127.914C232.123 130.01 233.708 134.478 233.708 134.478C236.118 133.12 238.22 131.277 239.882 129.066C242.627 125.455 249.07 129.066 249.07 129.066C253.245 121.852 251.374 109.91 251.374 109.91ZM247.044 109.702C240.168 131.283 234.106 132.218 234.106 132.218C232.088 124.286 230.356 126.018 227.611 121.056C225.411 117.072 226.156 112.032 226.537 110.187C226.582 109.967 226.675 109.76 226.81 109.58C226.945 109.4 227.118 109.253 227.316 109.148C234.141 105.684 242.489 106.957 245.927 107.71C246.14 107.754 246.341 107.843 246.517 107.97C246.693 108.097 246.84 108.26 246.949 108.448C247.058 108.636 247.125 108.845 247.148 109.061C247.17 109.278 247.147 109.496 247.079 109.702H247.044Z" stroke="#263238" stroke-linecap="round" stroke-linejoin="round"/>
<path d="M222.389 76.9328C222.389 76.9328 207.087 79.9984 215.513 89.9228C224.857 100.982 222.389 76.9328 222.389 76.9328Z" fill="#263238" stroke="#263238" stroke-linecap="round" stroke-linejoin="round"/>
<path d="M216.353 101.215C216.353 101.215 212.716 86.4934 219.644 79.4182C226.572 72.343 234.08 70.9054 239.709 74.3694C245.338 77.8334 247.676 86.4934 246.81 90.962C245.944 95.4306 246.36 111.452 238.644 118.094C230.928 124.736 226.182 123.099 221.081 114.05C217.695 108.117 216.093 106.411 216.353 101.215Z" fill="white" stroke="#263238" stroke-linecap="round" stroke-linejoin="round"/>
<path d="M243.173 98.3317C243.173 98.3317 237.353 92.5555 235.569 85.7747C233.785 78.9939 232.781 77.8335 226.139 81.1502C219.496 84.467 209.139 80.0071 211.85 71.6242C214.699 62.8257 223.402 74.2222 231.768 71.3385C240.133 68.4547 246.083 73.6507 246.091 81.2975C246.091 81.2975 251.149 86.2077 246.091 98.9032L243.173 98.3317Z" fill="#263238" stroke="#263238" stroke-linecap="round" stroke-linejoin="round"/>
<path d="M241.346 97.3618C241.346 97.3618 242.818 89.2907 246.905 90.0354C250.993 90.7802 248.075 102.696 243.26 101.397" fill="white"/>
<path d="M241.346 97.3618C241.346 97.3618 242.818 89.2907 246.905 90.0354C250.993 90.7802 248.075 102.696 243.26 101.397" stroke="#263238" stroke-linecap="round" stroke-linejoin="round"/>
<path d="M221.887 100.098C221.887 100.098 220.276 107.589 220.804 108.871C221.332 110.153 226.277 109.174 226.277 109.174" fill="white"/>
<path d="M221.887 100.098C221.887 100.098 220.276 107.589 220.804 108.871C221.332 110.153 226.277 109.174 226.277 109.174" stroke="#263238" stroke-linecap="round" stroke-linejoin="round"/>
<path d="M226.97 112.439C226.97 112.439 230.85 113.972 234.27 108.871L226.97 112.439Z" fill="white"/>
<path d="M226.97 112.439C226.97 112.439 230.85 113.972 234.27 108.871" stroke="#263238" stroke-linecap="round" stroke-linejoin="round"/>
<path d="M219.228 100.722C219.366 101.415 219.185 102.047 218.821 102.125C218.457 102.203 218.033 101.7 217.886 100.999C217.738 100.298 217.886 99.674 218.293 99.596C218.7 99.5181 219.098 100.02 219.228 100.722Z" fill="#263238"/>
<path d="M228.719 99.9598C228.866 100.653 228.719 101.285 228.312 101.363C227.905 101.441 227.533 100.93 227.386 100.237C227.238 99.5441 227.386 98.9119 227.793 98.834C228.2 98.756 228.624 99.2583 228.719 99.9598Z" fill="#263238"/>
<path d="M221.22 100.393C221.419 102.359 219.488 104.16 216.821 104.42C214.153 104.679 211.902 103.311 211.702 101.345C211.503 99.3796 213.573 98.5222 216.206 98.2538C218.838 97.9853 221.029 98.4356 221.22 100.393Z" stroke="#263238" stroke-linecap="round" stroke-linejoin="round"/>
<path d="M233.474 99.1717C233.673 101.129 231.698 102.939 229.074 103.199C226.45 103.458 224.156 102.081 223.956 100.124C223.757 98.1671 225.827 97.2925 228.46 97.0327C231.092 96.7729 233.283 97.2059 233.474 99.1717Z" stroke="#263238" stroke-linecap="round" stroke-linejoin="round"/>
<path d="M221.22 100.393L223.956 100.124" stroke="#263238" stroke-linecap="round" stroke-linejoin="round"/>
<path d="M233.145 98.1845L243.207 92.2524" stroke="#263238" stroke-linecap="round" stroke-linejoin="round"/>
<path d="M244.931 107.425L245.407 108.576" stroke="#263238" stroke-linecap="round" stroke-linejoin="round"/>
<path d="M215.547 97.2319C215.547 97.2319 217.08 95.2834 218.959 96.2187L215.547 97.2319Z" fill="white"/>
<path d="M215.547 97.2319C215.547 97.2319 217.08 95.2834 218.959 96.2187" stroke="#263238" stroke-linecap="round" stroke-linejoin="round"/>
<path d="M231.222 96.3572C231.222 96.3572 228.529 93.7592 225.931 95.5951L231.222 96.3572Z" fill="white"/>
<path d="M231.222 96.3572C231.222 96.3572 228.529 93.7592 225.931 95.5951" stroke="#263238" stroke-linecap="round" stroke-linejoin="round"/>
<path d="M218.951 72.6028C223.047 73.9018 229.94 75.4953 235.569 73.7893C244.229 71.1913 241.259 80.8905 243.208 83.5664" stroke="#7F7F7F" stroke-linecap="round" stroke-linejoin="round"/>
<path d="M215.4 71.3038C215.4 71.3038 216.084 71.6069 217.253 72.0226" stroke="#7F7F7F" stroke-linecap="round" stroke-linejoin="round"/>
<path d="M225.749 77.4264C226.208 77.2879 226.684 77.1233 227.187 76.9328" stroke="#7F7F7F" stroke-linecap="round" stroke-linejoin="round"/>
<path d="M216.353 76.2833C216.353 76.2833 218.189 79.1151 224.095 77.8594" stroke="#7F7F7F" stroke-linecap="round" stroke-linejoin="round"/>
<path d="M238.349 81.8344C238.806 85.1772 240.066 88.3596 242.021 91.1093" stroke="#7F7F7F" stroke-linecap="round" stroke-linejoin="round"/>
<path d="M238.15 78.7687C238.138 79.286 238.156 79.8036 238.202 80.3189" stroke="#7F7F7F" stroke-linecap="round" stroke-linejoin="round"/>
<path opacity="0.3" d="M245.823 171.673C245.665 171.805 245.551 171.983 245.497 172.182C245.443 172.381 245.452 172.591 245.522 172.785C245.592 172.979 245.72 173.146 245.888 173.265C246.057 173.384 246.258 173.448 246.464 173.449C252.318 173.449 268.114 173.518 274.176 173.163C281.753 172.73 275.968 164.503 269.846 167.638C264.294 170.539 252.482 165.706 245.823 171.673Z" fill="black"/>
<path d="M179.877 163.55C179.877 163.55 183.419 154.119 192.304 155.618C201.189 157.116 194.4 164.555 190.122 165.213C190.122 165.213 189.472 162.624 179.877 163.55Z" fill="white" stroke="#263238" stroke-linecap="round" stroke-linejoin="round"/>
<path d="M172.334 168.902C171.165 170.071 168.35 170.175 170.247 167.638C171.798 165.597 173.902 164.043 176.309 163.16C180.518 161.281 182.163 161.662 185.974 160.822C189.784 159.982 190.503 161.541 191.819 162.26C194.963 163.992 195.716 164.286 196.513 166.018C197.309 167.75 198.175 170.002 195.716 170.002C193.482 170.002 193.335 166.304 191.17 166.451C189.005 166.598 187.922 170.002 186.407 170.002H185.835C184.536 170.002 184.467 168.919 185.255 167.222C186.043 165.525 186.917 163.992 186.917 163.992C185.632 164.669 184.604 165.749 183.99 167.066C182.951 169.274 182.761 170.201 180.847 170.201C178.933 170.201 179.115 168.781 180.968 165.646C179.867 166.305 178.957 167.239 178.327 168.356C177.391 170.088 176.898 170.002 175.677 170.002C174.066 170.002 174.179 167.352 177.028 165.62C177.045 165.62 176.413 164.84 172.334 168.902Z" fill="white" stroke="#263238" stroke-linecap="round" stroke-linejoin="round"/>
<path d="M183.488 162.572C183.488 162.572 182.371 162.52 181.661 164.407L183.488 162.572Z" fill="white"/>
<path d="M183.488 162.572C183.488 162.572 182.371 162.52 181.661 164.407" stroke="#263238" stroke-width="0.75" stroke-linecap="round" stroke-linejoin="round"/>
<path d="M325.789 81.0377C331.381 85.432 336.705 90.1573 341.732 95.1881" stroke="#263238" stroke-width="0.75" stroke-linecap="round" stroke-linejoin="round"/>
<path d="M319.745 76.4911C320.801 77.2532 321.858 78.024 322.897 78.812" stroke="#263238" stroke-width="0.75" stroke-linecap="round" stroke-linejoin="round"/>
<path d="M313.708 72.343C314.794 73.0531 315.873 73.7806 316.947 74.5253" stroke="#263238" stroke-width="0.75" stroke-linecap="round" stroke-linejoin="round"/>
<path d="M269.404 51.3858C283.745 55.8465 297.453 62.1302 310.193 70.0827" stroke="#263238" stroke-width="0.75" stroke-linecap="round" stroke-linejoin="round"/>
<path d="M259.947 48.7186C261.679 49.1631 263.426 49.6307 265.187 50.1215" stroke="#263238" stroke-width="0.75" stroke-linecap="round" stroke-linejoin="round"/>
<path d="M250.213 46.5622C252.119 46.9259 254.018 47.3243 255.912 47.7573" stroke="#263238" stroke-width="0.75" stroke-linecap="round" stroke-linejoin="round"/>
<path d="M241.545 45.116C243.19 45.3527 244.83 45.6067 246.464 45.8781" stroke="#263238" stroke-width="0.75" stroke-linecap="round" stroke-linejoin="round"/>
<path d="M189.316 45.4624C205.367 42.9626 221.683 42.6712 237.812 44.5964" stroke="#263238" stroke-width="0.75" stroke-linecap="round" stroke-linejoin="round"/>
<path d="M182.172 46.7181C183.644 46.4323 185.125 46.1552 186.597 45.9041" stroke="#263238" stroke-width="0.75" stroke-linecap="round" stroke-linejoin="round"/>
<path d="M175.235 48.2336C176.716 47.8785 178.188 47.5494 179.678 47.2377" stroke="#263238" stroke-width="0.75" stroke-linecap="round" stroke-linejoin="round"/>
<path d="M166.714 50.5025C168.221 50.0609 169.728 49.6365 171.243 49.2382" stroke="#263238" stroke-width="0.75" stroke-linecap="round" stroke-linejoin="round"/>
<path d="M115.178 75.2787C129.517 65.227 145.28 57.3778 161.942 51.992" stroke="#263238" stroke-width="0.75" stroke-linecap="round" stroke-linejoin="round"/>
<path d="M108.25 80.4141C109.601 79.3692 110.966 78.3415 112.346 77.3312" stroke="#263238" stroke-width="0.75" stroke-linecap="round" stroke-linejoin="round"/>
<path d="M101.236 86.1297C102.716 84.848 104.223 83.601 105.739 82.3799" stroke="#263238" stroke-width="0.75" stroke-linecap="round" stroke-linejoin="round"/>
<path d="M91.4844 95.1881C93.5166 93.1559 95.5834 91.1843 97.6849 89.2733" stroke="#263238" stroke-width="0.75" stroke-linecap="round" stroke-linejoin="round"/>
<path d="M158.634 68.5629C161.393 56.9878 154.247 45.3671 142.672 42.6074C131.097 39.8476 119.476 46.9939 116.716 58.5691C113.957 70.1442 121.103 81.7649 132.678 84.5246C144.253 87.2843 155.874 80.138 158.634 68.5629Z" fill="#DB9A1E"/>
<mask id="mask2_291_4726" style="mask-type:luminance" maskUnits="userSpaceOnUse" x="116" y="42" width="44" height="44">
<path d="M158.634 68.5629C161.393 56.9878 154.247 45.3671 142.672 42.6074C131.097 39.8476 119.476 46.9939 116.716 58.5691C113.957 70.1442 121.103 81.7649 132.678 84.5246C144.253 87.2843 155.874 80.138 158.634 68.5629Z" fill="white"/>
</mask>
<g mask="url(#mask2_291_4726)">
<path opacity="0.3" d="M158.634 68.5629C161.393 56.9878 154.247 45.3671 142.672 42.6074C131.097 39.8476 119.476 46.9939 116.716 58.5691C113.957 70.1442 121.103 81.7649 132.678 84.5246C144.253 87.2843 155.874 80.138 158.634 68.5629Z" fill="white"/>
</g>
<path d="M158.634 68.5629C161.393 56.9878 154.247 45.3671 142.672 42.6074C131.097 39.8476 119.476 46.9939 116.716 58.5691C113.957 70.1442 121.103 81.7649 132.678 84.5246C144.253 87.2843 155.874 80.138 158.634 68.5629Z" stroke="#263238" stroke-width="0.75" stroke-linecap="round" stroke-linejoin="round"/>
<path d="M127.302 72.0226V66.6274C127.302 65.2764 126.921 64.8954 125.458 64.8954V62.2541C126.921 62.2541 127.302 61.8471 127.302 60.5221V55.1269C127.264 54.6897 127.322 54.2493 127.472 53.8368C127.622 53.4244 127.86 53.0498 128.171 52.7394C128.481 52.429 128.856 52.1904 129.268 52.0403C129.681 51.8903 130.121 51.8324 130.558 51.8708H132.204V54.4688H131.727C130.705 54.4688 130.177 54.9364 130.177 56.5558V60.9464C130.236 61.5219 130.088 62.0994 129.759 62.5755C129.431 63.0516 128.943 63.3951 128.385 63.5444V63.6051C128.943 63.7544 129.431 64.0979 129.759 64.574C130.088 65.0501 130.236 65.6276 130.177 66.2031V70.6023C130.177 72.2131 130.705 72.6807 131.727 72.6807H132.204V75.2787H130.558C130.121 75.3171 129.681 75.2592 129.268 75.1091C128.856 74.9591 128.481 74.7204 128.171 74.4101C127.86 74.0997 127.622 73.7251 127.472 73.3126C127.322 72.9002 127.264 72.4598 127.302 72.0226Z" fill="white" stroke="#263238" stroke-width="0.75" stroke-linecap="round" stroke-linejoin="round"/>
<path d="M143.089 72.6375H143.557C144.588 72.6375 145.116 72.1698 145.116 70.5591V66.1598C145.058 65.5858 145.206 65.01 145.533 64.5345C145.859 64.059 146.343 63.7144 146.9 63.5618V63.5012C146.343 63.3501 145.857 63.0059 145.53 62.53C145.204 62.054 145.057 61.4774 145.116 60.9032V56.5125C145.116 54.8931 144.588 54.4255 143.557 54.4255H143.089V51.8275H144.735C145.172 51.7891 145.612 51.847 146.025 51.9971C146.437 52.1472 146.812 52.3858 147.122 52.6961C147.433 53.0065 147.671 53.3811 147.821 53.7936C147.971 54.206 148.029 54.6464 147.991 55.0836V60.4788C147.991 61.8298 148.372 62.2108 149.836 62.2108V64.8521C148.372 64.8521 147.991 65.2591 147.991 66.5841V71.9793C148.029 72.4166 147.971 72.8569 147.821 73.2694C147.671 73.6818 147.433 74.0564 147.122 74.3668C146.812 74.6772 146.437 74.9158 146.025 75.0659C145.612 75.2159 145.172 75.2738 144.735 75.2355H143.089V72.6375Z" fill="white" stroke="#263238" stroke-width="0.75" stroke-linecap="round" stroke-linejoin="round"/>
<path d="M95.9183 91.0573H83.4912C77.7709 91.0573 73.1338 95.6944 73.1338 101.415V113.842C73.1338 119.562 77.7709 124.199 83.4912 124.199H95.9183C101.638 124.199 106.276 119.562 106.276 113.842V101.415C106.276 95.6944 101.638 91.0573 95.9183 91.0573Z" fill="#DB9A1E" stroke="#263238" stroke-width="0.75" stroke-linecap="round" stroke-linejoin="round"/>
<path d="M77.689 108.429V106.827L84.3139 103.969V105.701L79.75 107.633L84.3139 109.555V111.287L77.689 108.429Z" fill="white" stroke="#263238" stroke-width="0.75" stroke-linecap="round" stroke-linejoin="round"/>
<path d="M91.6575 100.055H93.7186L87.7432 115.21H85.6821L91.6575 100.055Z" fill="white" stroke="#263238" stroke-width="0.75" stroke-linecap="round" stroke-linejoin="round"/>
<path d="M95.0869 109.555L99.6507 107.633L95.0869 105.684V103.952L101.712 106.81V108.412L95.0869 111.27V109.555Z" fill="white" stroke="#263238" stroke-width="0.75" stroke-linecap="round" stroke-linejoin="round"/>
<path d="M308.411 62.8604C310.723 52.9732 304.582 43.084 294.695 40.7723C284.807 38.4605 274.918 44.6016 272.606 54.4888C270.295 64.376 276.436 74.2652 286.323 76.5769C296.21 78.8887 306.099 72.7476 308.411 62.8604Z" fill="#DB9A1E"/>
<mask id="mask3_291_4726" style="mask-type:luminance" maskUnits="userSpaceOnUse" x="272" y="40" width="37" height="38">
<path d="M308.411 62.8604C310.723 52.9732 304.582 43.084 294.695 40.7723C284.807 38.4605 274.918 44.6016 272.606 54.4888C270.295 64.376 276.436 74.2652 286.323 76.5769C296.21 78.8887 306.099 72.7476 308.411 62.8604Z" fill="white"/>
</mask>
<g mask="url(#mask3_291_4726)">
<path opacity="0.2" d="M308.411 62.8604C310.723 52.9732 304.582 43.084 294.695 40.7723C284.807 38.4605 274.918 44.6016 272.606 54.4888C270.295 64.376 276.436 74.2652 286.323 76.5769C296.21 78.8887 306.099 72.7476 308.411 62.8604Z" fill="black"/>
</g>
<path d="M308.411 62.8604C310.723 52.9732 304.582 43.084 294.695 40.7723C284.807 38.4605 274.918 44.6016 272.606 54.4888C270.295 64.376 276.436 74.2652 286.323 76.5769C296.21 78.8887 306.099 72.7476 308.411 62.8604Z" stroke="#263238" stroke-width="0.75" stroke-linecap="round" stroke-linejoin="round"/>
<path d="M279.138 62.4879V54.8671C279.138 52.6762 280.272 51.4031 282.42 51.4031C284.568 51.4031 285.702 52.6935 285.702 54.8671V56.3653H283.598V54.7286C283.598 53.7933 283.148 53.4123 282.481 53.4123C281.814 53.4123 281.372 53.7933 281.372 54.7286V62.6438C281.372 63.5791 281.814 63.9428 282.481 63.9428C283.148 63.9428 283.598 63.5791 283.598 62.6438V60.4788H285.702V62.4879C285.702 64.6703 284.568 65.9519 282.42 65.9519C280.272 65.9519 279.138 64.6703 279.138 62.4879Z" fill="white" stroke="#263238" stroke-width="0.75" stroke-linecap="round" stroke-linejoin="round"/>
<path d="M289.478 59.4656H286.759V57.8809H289.478V55.153H291.054V57.8809H293.773V59.4656H291.054V62.2368H289.478V59.4656Z" fill="white" stroke="#263238" stroke-width="0.75" stroke-linecap="round" stroke-linejoin="round"/>
<path d="M297.584 59.4656H294.865V57.8809H297.584V55.153H299.16V57.8809H301.879V59.4656H299.16V62.2368H297.584V59.4656Z" fill="white" stroke="#263238" stroke-width="0.75" stroke-linecap="round" stroke-linejoin="round"/>
<path d="M220.025 22.7559H203.406C196.902 22.7559 191.629 28.0289 191.629 34.5335V51.152C191.629 57.6566 196.902 62.9296 203.406 62.9296H220.025C226.529 62.9296 231.802 57.6566 231.802 51.152V34.5335C231.802 28.0289 226.529 22.7559 220.025 22.7559Z" fill="#DB9A1E" stroke="#263238" stroke-width="0.75" stroke-linecap="round" stroke-linejoin="round"/>
<path d="M199.639 47.0732V38.6124C199.639 36.1789 200.904 34.7413 203.285 34.7413C205.667 34.7413 206.974 36.1789 206.974 38.6124V40.2751H204.636V38.4478C204.636 37.4173 204.134 36.9929 203.398 36.9929C202.661 36.9929 202.159 37.4173 202.159 38.4478V47.2464C202.159 48.2856 202.653 48.6926 203.398 48.6926C204.142 48.6926 204.636 48.2856 204.636 47.2464V44.8389H206.974V47.0732C206.974 49.498 205.71 50.9355 203.328 50.9355C200.947 50.9355 199.639 49.498 199.639 47.0732Z" fill="white" stroke="#263238" stroke-width="0.75" stroke-linecap="round" stroke-linejoin="round"/>
<path d="M208.039 46.9779V46.1119H210.378V47.1944C210.378 48.3202 210.871 48.7272 211.659 48.7272C212.447 48.7272 212.941 48.3202 212.941 47.1511C212.941 45.8434 212.447 45.0121 210.828 43.5918C208.758 41.7732 208.083 40.4915 208.083 38.6903C208.083 36.2135 209.364 34.7759 211.772 34.7759C214.179 34.7759 215.374 36.2135 215.374 38.7336V39.3831H213.036V38.5777C213.036 37.4519 212.586 37.0275 211.798 37.0275C211.01 37.0275 210.568 37.4519 210.568 38.5344C210.568 39.6169 211.079 40.5089 212.698 41.9291C214.768 43.7477 215.426 45.0121 215.426 46.9692C215.426 49.5672 214.119 50.9701 211.685 50.9701C209.252 50.9701 208.039 49.4979 208.039 46.9779Z" fill="white" stroke="#263238" stroke-width="0.75" stroke-linecap="round" stroke-linejoin="round"/>
<path d="M216.414 46.9779V46.1119H218.752V47.1944C218.752 48.3202 219.245 48.7272 220.033 48.7272C220.822 48.7272 221.315 48.3202 221.315 47.1511C221.315 45.8434 220.822 45.0121 219.202 43.5918C217.132 41.7732 216.457 40.4915 216.457 38.6903C216.457 36.2135 217.739 34.7759 220.146 34.7759C222.554 34.7759 223.749 36.2135 223.749 38.7336V39.3831H221.402V38.5777C221.402 37.4519 220.951 37.0275 220.163 37.0275C219.375 37.0275 218.934 37.4519 218.934 38.5344C218.934 39.6169 219.445 40.5089 221.064 41.9291C223.134 43.7477 223.792 45.0121 223.792 46.9692C223.792 49.5672 222.484 50.9701 220.051 50.9701C217.617 50.9701 216.414 49.4979 216.414 46.9779Z" fill="white" stroke="#263238" stroke-width="0.75" stroke-linecap="round" stroke-linejoin="round"/>
<path d="M356.985 101.83C359.335 91.9761 353.251 82.0835 343.397 79.7342C333.544 77.3849 323.651 83.4685 321.302 93.3222C318.952 103.176 325.036 113.068 334.89 115.418C344.743 117.767 354.636 111.684 356.985 101.83Z" fill="#DB9A1E"/>
<mask id="mask4_291_4726" style="mask-type:luminance" maskUnits="userSpaceOnUse" x="320" y="79" width="38" height="37">
<path d="M356.985 101.83C359.335 91.9761 353.251 82.0835 343.397 79.7342C333.544 77.3849 323.651 83.4685 321.302 93.3222C318.952 103.176 325.036 113.068 334.89 115.418C344.743 117.767 354.636 111.684 356.985 101.83Z" fill="white"/>
</mask>
<g mask="url(#mask4_291_4726)">
<path opacity="0.3" d="M356.985 101.83C359.335 91.9761 353.251 82.0835 343.397 79.7342C333.544 77.3849 323.651 83.4685 321.302 93.3222C318.952 103.176 325.036 113.068 334.89 115.418C344.743 117.767 354.636 111.684 356.985 101.83Z" fill="white"/>
</g>
<path d="M356.985 101.83C359.335 91.9761 353.251 82.0835 343.397 79.7342C333.544 77.3849 323.651 83.4685 321.302 93.3222C318.952 103.176 325.036 113.068 334.89 115.418C344.743 117.767 354.636 111.684 356.985 101.83Z" stroke="#263238" stroke-width="0.75" stroke-linecap="round" stroke-linejoin="round"/>
<path d="M331.912 101.207V93.9238C331.912 91.8367 332.994 90.5983 335.047 90.5983C337.099 90.5983 338.182 91.8367 338.182 93.9238V95.3613H336.173V93.7939C336.173 92.9279 335.74 92.5295 335.107 92.5295C334.475 92.5295 334.042 92.9019 334.042 93.7939V101.354C334.042 102.22 334.467 102.592 335.107 102.592C335.748 102.592 336.173 102.246 336.173 101.354V99.2843H338.182V101.198C338.182 103.285 337.099 104.524 335.047 104.524C332.994 104.524 331.912 103.294 331.912 101.207Z" fill="white" stroke="#263238" stroke-width="0.75" stroke-linecap="round" stroke-linejoin="round"/>
<path d="M339.931 100.488H338.979L339.134 98.9812H340.087L340.451 95.4392H339.472L339.628 93.9237H340.598L340.927 90.8062H342.607L342.278 93.9237H343.655L343.984 90.8062H345.673L345.344 93.9237H346.331L346.175 95.4392H345.188L344.815 98.9812H345.803L345.647 100.488H344.668L344.261 104.359H342.581L342.988 100.488H341.611L341.204 104.359H339.524L339.931 100.488ZM343.144 98.9812L343.508 95.4392H342.139L341.767 98.9812H343.144Z" fill="white" stroke="#263238" stroke-width="0.75" stroke-linecap="round" stroke-linejoin="round"/>
<path d="M122.305 308.77H119.092L118.226 181.242H122.305V308.77Z" fill="#858585" stroke="#263238" stroke-linecap="round" stroke-linejoin="round"/>
<path d="M125.509 308.77H122.305V181.242H126.375L125.509 308.77Z" fill="#999999" stroke="#263238" stroke-linecap="round" stroke-linejoin="round"/>
<path d="M305.689 173.44H85.5435V181.251H305.689V173.44Z" fill="#263238" stroke="#263238" stroke-linecap="round" stroke-linejoin="round"/>
<path d="M351.691 173.44H302.398V181.251H351.691V173.44Z" fill="#858585" stroke="#263238" stroke-linecap="round" stroke-linejoin="round"/>
<path d="M315.674 181.242H96.8188V194.111H315.674V181.242Z" fill="#DB9A1E" stroke="#263238" stroke-miterlimit="10"/>
<path d="M315.674 194.12H341.161V181.251H315.674V194.12Z" fill="#DB9A1E"/>
<mask id="mask5_291_4726" style="mask-type:luminance" maskUnits="userSpaceOnUse" x="315" y="181" width="27" height="14">
<path d="M315.674 194.12H341.161V181.251H315.674V194.12Z" fill="white"/>
</mask>
<g mask="url(#mask5_291_4726)">
<path opacity="0.3" d="M315.674 194.12H341.161V181.251H315.674V194.12Z" fill="black"/>
</g>
<path d="M315.674 194.12H341.161V181.251H315.674V194.12Z" stroke="#263238" stroke-miterlimit="10"/>
<path d="M315.674 308.77H312.47L311.604 181.242H315.674V308.77Z" fill="#858585" stroke="#263238" stroke-linecap="round" stroke-linejoin="round"/>
<path d="M318.887 308.77H315.674V181.242H319.753L318.887 308.77Z" fill="#999999" stroke="#263238" stroke-linecap="round" stroke-linejoin="round"/>
<path d="M96.8189 308.77H93.606L92.74 181.242H96.8189V308.77Z" fill="#858585" stroke="#263238" stroke-linecap="round" stroke-linejoin="round"/>
<path d="M100.023 308.77H96.8188V181.242H100.889L100.023 308.77Z" fill="#999999" stroke="#263238" stroke-linecap="round" stroke-linejoin="round"/>
<path d="M341.161 308.77H337.948L337.082 181.242H341.161V308.77Z" fill="#858585" stroke="#263238" stroke-linecap="round" stroke-linejoin="round"/>
<path d="M344.365 308.77H341.161V181.242H345.231L344.365 308.77Z" fill="#999999" stroke="#263238" stroke-linecap="round" stroke-linejoin="round"/>
<path d="M227.801 172.574H202.003C201.75 172.572 201.507 172.469 201.329 172.289C201.151 172.109 201.051 171.866 201.051 171.613V169.482L228.763 170.348V171.613C228.763 171.867 228.661 172.112 228.481 172.292C228.301 172.473 228.056 172.574 227.801 172.574Z" fill="#858585" stroke="#263238" stroke-linecap="round" stroke-linejoin="round"/>
<path d="M198.167 172.574H146.302C145.875 172.558 145.464 172.41 145.124 172.151C144.785 171.892 144.534 171.535 144.405 171.128L133.269 134.981C133.185 134.77 133.156 134.541 133.182 134.316C133.209 134.091 133.292 133.876 133.422 133.69C133.553 133.505 133.727 133.355 133.93 133.253C134.133 133.152 134.358 133.103 134.585 133.11H186.45C186.876 133.124 187.287 133.27 187.626 133.528C187.966 133.785 188.218 134.141 188.346 134.548L199.483 170.695C199.566 170.906 199.595 171.135 199.568 171.36C199.541 171.586 199.459 171.801 199.329 171.987C199.199 172.173 199.024 172.324 198.821 172.427C198.619 172.529 198.394 172.58 198.167 172.574Z" fill="#999999" stroke="#263238" stroke-linecap="round" stroke-linejoin="round"/>
<path d="M201.778 170.695L190.641 134.548C190.512 134.141 190.261 133.785 189.921 133.528C189.582 133.27 189.171 133.124 188.745 133.11H186.45C186.876 133.124 187.287 133.27 187.626 133.528C187.966 133.785 188.218 134.141 188.346 134.548L199.483 170.695C199.566 170.906 199.595 171.135 199.568 171.36C199.541 171.586 199.459 171.801 199.329 171.987C199.199 172.173 199.024 172.324 198.821 172.427C198.619 172.529 198.394 172.58 198.167 172.574H200.496C200.72 172.574 200.941 172.519 201.139 172.414C201.337 172.309 201.507 172.158 201.633 171.973C201.76 171.788 201.839 171.574 201.864 171.352C201.889 171.129 201.86 170.903 201.778 170.695Z" fill="#858585" stroke="#263238" stroke-linecap="round" stroke-linejoin="round"/>
<path d="M169.589 152.838C169.652 153.24 169.627 153.652 169.513 154.043C169.4 154.435 169.202 154.797 168.934 155.103C168.665 155.41 168.333 155.654 167.96 155.817C167.586 155.981 167.182 156.061 166.774 156.051C165.891 156.028 165.043 155.693 164.384 155.105C163.724 154.516 163.294 153.713 163.172 152.838C163.108 152.436 163.134 152.024 163.247 151.633C163.36 151.242 163.558 150.881 163.827 150.575C164.095 150.269 164.428 150.026 164.801 149.863C165.175 149.701 165.579 149.622 165.986 149.633C166.868 149.657 167.713 149.992 168.372 150.578C169.032 151.164 169.462 151.965 169.589 152.838Z" fill="white" stroke="#263238" stroke-linecap="round" stroke-linejoin="round"/>
</svg>
