<svg width="81" height="80" viewBox="0 0 81 80" fill="none" xmlns="http://www.w3.org/2000/svg">
<g id="javascript" clip-path="url(#clip0_60_1417)">
<path id="Vector" d="M0.5 8C0.5 3.58172 4.08172 0 8.5 0H72.5C76.9183 0 80.5 3.58172 80.5 8V72C80.5 76.4183 76.9183 80 72.5 80H8.5C4.08172 80 0.5 76.4183 0.5 72V8Z" fill="#F7DF1E"/>
<path id="Vector_2" d="M21.535 66.8537L27.6569 63.1487C28.8381 65.2428 29.9125 67.0147 32.4897 67.0147C34.96 67.0147 36.5178 66.0484 36.5178 62.2897V36.7278H44.0356V62.3959C44.0356 70.1825 39.4712 73.7269 32.8119 73.7269C26.7978 73.7269 23.3069 70.6122 21.5347 66.8531M48.1191 66.0481L54.2403 62.504C55.8519 65.1356 57.9463 67.0687 61.6513 67.0687C64.7666 67.0687 66.7528 65.5112 66.7528 63.3631C66.7528 60.7856 64.7122 59.8725 61.2753 58.3694L59.3962 57.5631C53.9722 55.2547 50.3744 52.3547 50.3744 46.2328C50.3744 40.594 54.6703 36.2978 61.3831 36.2978C66.1625 36.2978 69.5994 37.9628 72.0694 42.3125L66.2156 46.0719C64.9266 43.7628 63.5309 42.85 61.3828 42.85C59.1809 42.85 57.7847 44.2462 57.7847 46.0719C57.7847 48.3272 59.1809 49.2406 62.4028 50.6369L64.2822 51.4422C70.6728 54.1812 74.2706 56.9734 74.2706 63.2559C74.2706 70.0228 68.9544 73.7278 61.8122 73.7278C54.8312 73.7278 50.3203 70.3984 48.1187 66.0484" fill="black"/>
</g>
<defs>
<clipPath id="clip0_60_1417">
<rect width="80" height="80" fill="white" transform="translate(0.5)"/>
</clipPath>
</defs>
</svg>
