<svg width="80" height="80" viewBox="0 0 80 80" fill="none" xmlns="http://www.w3.org/2000/svg">
<g id="jquery">
<path id="Vector" d="M29.9756 49.3875L30.0963 49.4463L30.3113 49.55C30.5856 49.6806 30.8625 49.81 31.1419 49.9344L31.3175 50.0125C31.6381 50.1531 31.9606 50.2869 32.2869 50.4156L32.5231 50.5081C32.8244 50.6256 33.1306 50.7394 33.4375 50.8475L33.5525 50.8869C33.8894 51.0044 34.2294 51.1138 34.5725 51.2206L34.8194 51.2938C35.1681 51.3994 35.5125 51.525 35.8725 51.5919C58.7188 55.7575 65.3544 37.8625 65.3544 37.8625C59.7806 45.1238 49.8875 47.0394 40.5138 44.9069C40.1588 44.8269 39.8138 44.7156 39.4675 44.6131L39.2069 44.5344C38.8688 44.4306 38.5325 44.3213 38.1994 44.2069L38.0613 44.1569C37.7625 44.0519 37.4669 43.9406 37.1731 43.8275L36.9244 43.73C36.6019 43.6031 36.2819 43.47 35.9656 43.3313L35.7738 43.2463C35.5019 43.1231 35.2325 42.9988 34.965 42.87L34.7306 42.7575C34.5206 42.655 34.3125 42.5456 34.105 42.4388L33.6875 42.22C33.4344 42.0844 33.1856 41.9438 32.9381 41.7994L32.685 41.6581C32.3556 41.4638 32.03 41.2631 31.7081 41.0594L31.445 40.8844C31.2113 40.7338 30.9788 40.5806 30.75 40.4225L30.5263 40.265C30.305 40.1088 30.0863 39.9506 29.8694 39.79L29.5781 39.5694C29.3794 39.4175 29.1813 39.2644 28.9856 39.1069L28.7213 38.8944C28.4725 38.6894 28.2263 38.4838 27.9825 38.2725L27.9019 38.2044C27.6375 37.9744 27.3794 37.7375 27.1244 37.5L26.9056 37.2894C26.7163 37.11 26.5306 36.9288 26.3475 36.7431L26.1288 36.5244C25.8963 36.2863 25.6681 36.045 25.4444 35.8006L25.4106 35.7644C25.1738 35.5056 24.9425 35.2413 24.7163 34.9744L24.5344 34.7581C24.3656 34.555 24.1981 34.3488 24.035 34.1406L23.8519 33.9131C23.655 33.6581 23.4631 33.4038 23.275 33.145C18.0713 26.0463 16.2013 16.2556 20.3606 8.21501L16.6738 12.8913C11.9494 19.6806 12.5381 28.5144 16.1463 35.7294L16.4106 36.2425L16.58 36.5675L16.685 36.7544L16.8731 37.0913C16.985 37.2888 17.0994 37.485 17.2169 37.6813L17.4138 38.0056C17.5438 38.2156 17.6769 38.4231 17.8138 38.6306L17.9838 38.8944C18.1719 39.1744 18.3644 39.4544 18.5625 39.7294L18.5794 39.7513L18.6769 39.8831C18.8488 40.12 19.0256 40.3538 19.2044 40.585L19.4031 40.8375C19.5625 41.0381 19.7256 41.2381 19.8906 41.4369L20.0769 41.6588C20.2988 41.9206 20.525 42.1806 20.7563 42.435L20.77 42.4494L20.7963 42.4781C21.0213 42.7244 21.2525 42.9644 21.4863 43.2056L21.7075 43.4288C21.8888 43.6113 22.0725 43.7906 22.2588 43.9694L22.4844 44.1838C22.7325 44.4175 22.9831 44.6469 23.2394 44.8719L23.2519 44.8813L23.3831 44.9938C23.6088 45.1888 23.8388 45.3831 24.07 45.5738L24.3544 45.8C24.5431 45.9513 24.7344 46.1006 24.9269 46.2475L25.2325 46.48C25.445 46.6363 25.6588 46.79 25.8744 46.9406L26.1088 47.1069L26.1731 47.1525C26.3781 47.2938 26.5875 47.4288 26.7969 47.5644L27.0669 47.7444C27.3875 47.9475 27.7138 48.1481 28.0431 48.3419L28.3131 48.4944C28.5556 48.6338 28.7988 48.7706 29.0456 48.9044L29.4506 49.1144L29.9756 49.3875ZM32.2838 26.3906C32.7956 27.1244 33.3625 27.9969 34.0419 28.5869C34.2881 28.8581 34.5456 29.1219 34.8081 29.3825L35.0106 29.5813C35.2663 29.8288 35.5256 30.0719 35.7931 30.3088L35.8256 30.3363L35.8331 30.3444C36.13 30.6044 36.4363 30.8544 36.7475 31.1006L36.9556 31.2631C37.2681 31.5025 37.5863 31.7375 37.9125 31.9619L37.9406 31.9825L38.3769 32.27L38.5844 32.4075C38.8175 32.5563 39.0531 32.7025 39.2938 32.8413L39.3938 32.8994C39.6006 33.0188 39.8106 33.1363 40.0206 33.25L40.2431 33.3669L40.6819 33.5938L40.7481 33.6238C41.0494 33.7719 41.3531 33.9144 41.6631 34.05L41.865 34.1331C42.1125 34.2381 42.3631 34.3413 42.6144 34.4375L42.9356 34.555C43.1644 34.64 43.3931 34.7175 43.6244 34.7944L43.9363 34.8944C44.265 34.9963 44.5894 35.125 44.9319 35.1819C62.5706 38.105 66.6431 24.5231 66.6431 24.5231C62.9719 29.81 55.8631 32.3319 48.2769 30.3631C47.94 30.2744 47.6075 30.1788 47.2781 30.0744L46.9775 29.9775C46.7431 29.9019 46.51 29.8213 46.2788 29.7369L45.9638 29.6194C45.7106 29.5219 45.4594 29.4213 45.2113 29.3163L45.0088 29.23C44.6975 29.0944 44.3906 28.9519 44.0888 28.8019L43.6269 28.5669L43.3606 28.43C43.1644 28.3238 42.9694 28.2125 42.7769 28.1006L42.6375 28.0213C42.3981 27.8819 42.1631 27.7381 41.93 27.5906L41.7169 27.4475L41.2594 27.145C40.9338 26.9206 40.6175 26.6863 40.3063 26.4481L40.0919 26.2788C36.7713 23.6581 34.1394 20.0744 32.8875 16.0113C31.5763 11.7988 31.8588 7.06876 34.1306 3.23063L31.3394 7.17188C27.9231 12.0875 28.1088 18.6694 30.7738 23.8688C31.22 24.7394 31.7219 25.5856 32.2838 26.3906ZM50.8756 20.3088L51.3138 20.4606L51.5069 20.5219C51.715 20.5869 51.9206 20.6631 52.135 20.7031C61.8744 22.585 64.5169 15.705 65.22 14.6925C62.9056 18.0244 59.0169 18.8238 54.245 17.6656C53.8681 17.5744 53.4538 17.4388 53.09 17.3094C52.6244 17.1431 52.1656 16.9544 51.7194 16.7406C50.8719 16.3331 50.0644 15.84 49.3156 15.2738C45.0456 12.0331 42.3931 5.85376 45.1794 0.820007L43.6719 2.89751C41.6581 5.86188 41.46 9.54313 42.8575 12.8156C44.3313 16.2906 47.3513 19.0156 50.8756 20.3088ZM41.4744 60.1844H38.8331C38.6869 60.1844 38.5413 60.3019 38.51 60.445L37.5725 64.7825L36.635 69.12C36.6044 69.2631 36.4588 69.3806 36.3125 69.3806H34.4431C32.5938 69.3806 32.8075 68.1013 33.1863 66.3488L33.1975 66.2956L33.2388 66.0744L33.2463 66.0331L33.3306 65.5831L33.4213 65.1013L33.5175 64.6106L33.9438 62.5281L34.3706 60.4456C34.4 60.3019 34.3038 60.1838 34.1575 60.1838H31.4469C31.3006 60.1838 31.1556 60.3013 31.1256 60.445L30.5425 63.21L29.96 65.9756L29.9588 65.9794L29.905 66.2369C29.2338 69.3013 29.4113 72.2244 33.06 72.3163L33.1663 72.3181H38.8931C39.0394 72.3181 39.185 72.2006 39.2156 72.0575L40.4506 66.2519L41.6856 60.4456C41.7163 60.3019 41.6213 60.185 41.4744 60.1844ZM13.1894 60.1538H10.2894C10.1425 60.1538 9.99626 60.2713 9.96376 60.4138L9.68876 61.6275L9.41376 62.8413C9.38189 62.9844 9.47501 63.1013 9.62189 63.1013H12.5444C12.6913 63.1013 12.8369 62.9838 12.8681 62.8406L13.1338 61.6275L13.3994 60.4144C13.43 60.2713 13.3363 60.1538 13.1894 60.1538ZM12.3481 63.9313H9.42501C9.27876 63.9313 9.13189 64.0488 9.09939 64.1913L8.68877 66.01L8.27877 67.8281L8.16439 68.3494L7.77002 70.2056L7.37626 72.0625C7.34564 72.2056 7.28251 72.4369 7.23564 72.5756C7.23564 72.5756 6.68939 74.2006 5.77126 74.1819L5.65626 74.1794L4.86189 74.165C4.71564 74.1631 4.56814 74.2775 4.53376 74.4194L4.23064 75.6938L3.92814 76.9675C3.89376 77.11 3.98626 77.2275 4.13189 77.23C4.65251 77.2363 5.81876 77.2494 6.52439 77.2494C8.81751 77.2494 10.0269 75.9788 10.8013 72.3225L11.7081 68.1263L12.5588 64.1906C12.5894 64.0488 12.4944 63.9313 12.3481 63.9313ZM66.1713 62.9475L66.05 62.4469L65.9306 61.9344L65.87 61.6756C65.6325 60.7525 64.9356 60.2206 63.4219 60.2206L61.0656 60.2181L58.8956 60.215H56.4538C56.3075 60.215 56.1625 60.3325 56.1319 60.4756L56.0238 60.9856L55.8963 61.5881L55.8606 61.7575L54.7613 66.9075L53.7175 71.7963C53.6863 71.94 53.6763 72.1163 53.6938 72.1875C53.7113 72.2594 53.9931 72.3181 54.1394 72.3181H56.3419C56.4888 72.3181 56.6744 72.2919 56.7544 72.2594C56.8344 72.2269 56.9525 71.9388 56.9819 71.7956L57.3731 69.8588L57.765 67.9213L57.7656 67.9181L57.8181 67.66L58.2931 65.435L58.7125 63.47C58.7438 63.3269 58.8881 63.21 59.0344 63.2094L65.965 63.2063C66.1119 63.2075 66.2044 63.0906 66.1713 62.9475ZM75.0931 58.4225L74.5594 58.4244H72.3413C72.1944 58.4244 72.0063 58.5238 71.9244 58.645L67.0188 65.8313C66.9363 65.9525 66.8419 65.935 66.8094 65.7925L66.4481 64.2094C66.4156 64.0663 66.2688 63.9494 66.1219 63.9494H62.9688C62.8219 63.9494 62.735 64.0644 62.775 64.205L64.1881 69.1556C64.2281 69.2969 64.2313 69.5281 64.195 69.6706L63.5794 72.0663C63.5425 72.2088 63.6325 72.3244 63.7794 72.3244H66.8963C67.0425 72.3244 67.1925 72.2081 67.2288 72.0663L67.845 69.6706C67.8813 69.5275 67.9831 69.3163 68.0719 69.1988L76.0356 58.6294C76.1244 58.5119 76.0763 58.4163 75.93 58.4175L75.0931 58.4225ZM50.0394 64.6219V64.6194C50.0213 64.7781 49.8744 64.895 49.7275 64.895H45.7294C45.5906 64.895 45.5206 64.8013 45.5413 64.685L45.545 64.6756L45.5425 64.6769L45.5444 64.6638L45.5625 64.5956C45.9444 63.5806 46.7219 62.9144 48.1838 62.9144C49.83 62.9138 50.1513 63.7175 50.0394 64.6219ZM48.8663 60.0069C43.7344 60.0069 42.5181 63.1219 41.8356 66.2663C41.1538 69.4713 41.2119 72.4669 46.5231 72.4669H47.1669L47.3269 72.4663H47.3644L48.0019 72.4644H48.0131C49.4156 72.4588 50.8225 72.4481 51.3919 72.4438C51.5375 72.4413 51.68 72.3244 51.71 72.1813L51.925 71.1306L51.9669 70.9263L52.2231 69.6725C52.2525 69.5294 52.1569 69.4113 52.01 69.4113H47.2356C45.3363 69.4113 44.7725 68.9069 44.9806 67.4231H52.6125L52.6119 67.4238L52.6169 67.4231C52.7381 67.4213 52.8506 67.3375 52.895 67.2263L52.9131 67.16L52.9125 67.1606C54.0456 62.8863 53.7206 60.0075 48.8663 60.0069ZM24.61 64.6056L24.5375 64.8613L23.9613 66.9044L23.385 68.9463C23.3456 69.0881 23.1925 69.2031 23.0456 69.2031H19.9956C17.6819 69.2031 17.1181 67.3931 17.6819 64.7244C18.245 61.9944 19.3494 60.2975 21.6269 60.1256C24.7394 59.8906 25.3619 62.0794 24.61 64.6056ZM26.7025 69.0463C26.7025 69.0463 28.1406 65.5538 28.4669 63.5375C28.9125 60.8381 27.5606 56.9219 22.3394 56.9219C17.1481 56.9219 14.8931 60.66 14.0331 64.7244C13.1731 68.8181 14.3 72.4075 19.4619 72.3781L23.5344 72.3631L27.34 72.3494C27.4863 72.3481 27.6363 72.2319 27.6738 72.0906L28.3369 69.5619C28.3738 69.4194 28.2844 69.3031 28.1375 69.3019L27.5019 69.2981L26.8663 69.2944C26.7419 69.2938 26.6706 69.2125 26.6856 69.1056L26.7025 69.0463ZM52.4025 66.7081C52.4025 66.805 52.3244 66.8838 52.2275 66.8838C52.1313 66.8838 52.0525 66.805 52.0525 66.7081C52.0525 66.6119 52.1306 66.5338 52.2275 66.5338C52.3244 66.5338 52.4025 66.6119 52.4025 66.7081Z" fill="#0868AC"/>
</g>
</svg>
