<svg width="20" height="20" viewBox="0 0 20 20" fill="none" xmlns="http://www.w3.org/2000/svg">
<path d="M0 6.25H4.4725V20H0V6.25ZM16.655 6.41125C16.6075 6.39625 16.5625 6.38 16.5125 6.36625C16.4525 6.35266 16.392 6.34099 16.3312 6.33125C16.0672 6.27726 15.7983 6.25003 15.5288 6.25C12.9213 6.25 11.2675 8.14625 10.7225 8.87875V6.25H6.25V20H10.7225V12.5C10.7225 12.5 14.1025 7.7925 15.5288 11.25V20H20V10.7212C19.9981 9.73392 19.6687 8.77512 19.0634 7.99513C18.458 7.21515 17.611 6.65808 16.655 6.41125Z" fill="#1976D2"/>
<path d="M2.1875 4.375C3.39562 4.375 4.375 3.39562 4.375 2.1875C4.375 0.979377 3.39562 0 2.1875 0C0.979377 0 0 0.979377 0 2.1875C0 3.39562 0.979377 4.375 2.1875 4.375Z" fill="#1976D2"/>
</svg>
