<svg width="30" height="32" viewBox="0 0 30 32" fill="none" xmlns="http://www.w3.org/2000/svg">
<path fill-rule="evenodd" clip-rule="evenodd" d="M13.6528 0.0601857C21.6118 -0.639508 26.7831 4.93427 28.3852 7.8109L27.288 8.422C25.8202 5.78664 21.042 0.671328 13.7628 1.31126C6.99429 1.90629 3.07597 6.99364 1.69556 9.99031L11.6651 12.5316L11.3549 13.7485L0 10.8542L0.247143 10.1977C1.41089 7.10649 5.70236 0.759125 13.6528 0.0601857ZM4.04463 10.1307C5.19138 7.91119 8.99716 3.51149 15.173 3.51149C18.2909 3.51149 20.837 4.83115 22.7361 6.44782C24.3977 7.8624 25.589 9.52437 26.2683 10.7977L29.0977 9.82509L29.506 11.0128L25.6218 12.348L25.3833 11.8348C24.8425 10.6712 23.6657 8.88862 21.9219 7.40411C20.1841 5.92465 17.916 4.76739 15.173 4.76739C9.62712 4.76739 6.1766 8.74035 5.16041 10.7072L4.04463 10.1307ZM17.5932 7.98884L18.8177 7.96569L21.2248 17.6989L20.0056 18.0004L18.2616 10.9485L17.6717 13.7909L16.442 13.5357L17.5932 7.98884ZM11.4739 10.9934L11.1791 12.2382L9.95699 11.9487L10.8989 7.97173L12.1244 7.98709L13.799 15.9411L12.57 16.1998L11.4739 10.9934ZM2.93494 12.3143L4.17694 12.5006L3.94798 14.027L8.51958 15.1466L8.22084 16.3664L2.53595 14.9742L2.93494 12.3143ZM18.4776 15.5292L13.768 14.378L14.0662 13.158L18.7758 14.3093L18.4776 15.5292ZM10.7614 14.2226L8.98222 21.9673L7.75821 21.6861L9.5374 13.9414L10.7614 14.2226ZM25.7983 17.5923L20.9834 16.365L21.2936 15.148L27.1359 16.6372L27.1028 17.1571C26.9907 18.9125 26.2433 21.5429 24.3718 23.8308C22.4845 26.1382 19.4745 28.0703 14.9067 28.4183C12.3366 28.6142 9.45691 27.3317 7.26428 25.7106C6.15721 24.892 5.19056 23.9624 4.49642 23.0395C4.02319 22.4104 3.64542 21.7429 3.46389 21.0889L1.0334 21.8991L0.636249 20.7077L4.61351 19.3819L4.60247 20.2646C4.59637 20.7531 4.87714 21.4564 5.5001 22.2846C6.10765 23.0923 6.98124 23.9394 8.01093 24.7007C10.0918 26.2393 12.6718 27.3291 14.8113 27.1661C19.0349 26.8443 21.7287 25.0785 23.3997 23.0356C24.9067 21.1932 25.5985 19.1036 25.7983 17.5923ZM17.2521 15.8886L15.4729 24.1566L14.2442 24.1521L13.0929 18.6052L14.3226 18.35L14.8701 20.988L16.0243 15.6244L17.2521 15.8886ZM15.0207 18.1449L10.4157 16.9936L10.7203 15.7752L15.3253 16.9265L15.0207 18.1449ZM24.6573 20.554L17.1219 18.7748L17.4105 17.5525L24.9458 19.3317L24.6573 20.554ZM28.2849 21.5394L26.8471 21.18L27.1517 19.9616L29.8747 20.6423L29.6963 21.2666C28.7375 24.6225 24.5066 31.3693 15.214 31.9772C12.0539 32.1839 8.80828 30.9589 6.29504 29.3722C5.03277 28.5753 3.93354 27.6738 3.10255 26.7866C2.28646 25.9154 1.67373 24.9993 1.47926 24.1674L2.70219 23.8816C2.8217 24.3928 3.25554 25.1128 4.01914 25.928C4.76783 26.7273 5.78139 27.5627 6.96551 28.3102C9.34504 29.8126 12.3266 30.9075 15.132 30.724C23.2002 30.1961 27.1133 24.6974 28.2849 21.5394ZM20.8367 21.9498L20.5228 20.38L21.7543 20.1336L22.0682 21.7035L20.8367 21.9498Z" fill="#DB9A1E"/>
</svg>
