<svg width="20" height="20" viewBox="0 0 20 20" fill="none" xmlns="http://www.w3.org/2000/svg">
<path fill-rule="evenodd" clip-rule="evenodd" d="M7.56429 1.1137C7.73929 0.854411 7.72499 0.511555 7.52928 0.26727C7.33356 0.0236982 7.00142 -0.0648681 6.71071 0.0494177C2.76928 1.5987 0 5.31442 0 9.64014C0 15.3487 4.83144 20.0001 10.8014 20.0001C14.6093 20.0001 17.9564 18.1058 19.8779 15.2544C20.0529 14.9951 20.0386 14.6523 19.8429 14.4087C19.6471 14.1644 19.3157 14.0759 19.0243 14.1909C17.9236 14.623 16.7193 14.8616 15.4564 14.8616C10.2922 14.8616 6.08429 10.8687 6.08429 5.93013C6.08429 4.15585 6.62786 2.50298 7.56429 1.1137Z" fill="#DB9A1E"/>
</svg>
