<svg width="81" height="80" viewBox="0 0 81 80" fill="none" xmlns="http://www.w3.org/2000/svg">
<g id="nodejs-icon">
<g id="Group">
<path id="Vector" d="M36.713 0.849788C38.6881 -0.280708 41.2605 -0.285814 43.2339 0.849788C53.1615 6.45943 63.0923 12.0603 73.0183 17.6733C74.8852 18.725 76.134 20.8027 76.115 22.9539V56.7037C76.1289 58.944 74.7567 61.0713 72.7871 62.0991C62.892 67.6779 53.0021 73.2634 43.1088 78.8421C41.0929 79.9948 38.4688 79.906 36.5159 78.6589C33.5493 76.9391 30.5777 75.2279 27.6109 73.5099C27.0047 73.1485 26.3212 72.8609 25.8932 72.273C26.2716 71.763 26.9482 71.6994 27.498 71.4767C28.7363 71.083 29.8736 70.4509 31.0112 69.8376C31.2988 69.6407 31.65 69.7162 31.9258 69.8923C34.4625 71.3468 36.9768 72.8436 39.5221 74.2841C40.0651 74.5976 40.6149 74.1814 41.079 73.9227C50.7891 68.4347 60.511 62.9675 70.2194 57.4779C70.5791 57.3048 70.778 56.923 70.7488 56.5289C70.7556 45.3956 70.7505 34.2603 70.7522 23.127C70.7933 22.6799 70.5346 22.2688 70.1303 22.0858C60.2696 16.5326 50.414 10.9709 40.555 5.41631C40.3842 5.29888 40.1818 5.23587 39.9746 5.23557C39.7673 5.23526 39.5647 5.29768 39.3936 5.41461C29.5346 10.9709 19.6807 16.5377 9.82167 22.0906C9.41884 22.2739 9.14848 22.6782 9.19642 23.127C9.19813 34.2603 9.19642 45.3956 9.19642 56.5306C9.17933 56.7229 9.22156 56.9158 9.31742 57.0833C9.41328 57.2509 9.55818 57.385 9.73259 57.4677C12.3635 58.9596 14.9978 60.441 17.6305 61.9278C19.1136 62.7261 20.9346 63.2004 22.5686 62.5888C24.0106 62.0716 25.0214 60.6001 24.9939 59.0691C25.0075 48.0007 24.9871 36.9306 25.0041 25.864C24.9681 25.3726 25.4342 24.9667 25.9119 25.0129C27.176 25.0044 28.4418 24.9959 29.7059 25.0163C30.2336 25.0044 30.5967 25.5335 30.5315 26.0285C30.5264 37.167 30.5451 48.3057 30.5229 59.4441C30.5264 62.4126 29.3068 65.6427 26.561 67.0952C23.1783 68.8475 18.9973 68.4759 15.6554 66.7956C12.7624 65.3516 10.0015 63.6475 7.15983 62.1006C5.18508 61.0784 3.81969 58.9426 3.83359 56.704V22.9539C3.81288 20.7582 5.11132 18.6427 7.03642 17.6064C16.9298 12.0231 26.8214 6.4356 36.713 0.849788Z" fill="#8CC84B"/>
<path id="Vector_2" d="M45.3439 24.2285C49.6588 23.9508 54.2781 24.064 58.161 26.1896C61.1672 27.8186 62.8339 31.2373 62.8869 34.5772C62.803 35.0277 62.332 35.2762 61.902 35.2452C60.65 35.2435 59.3978 35.2623 58.1459 35.2367C57.6149 35.2572 57.3062 34.7675 57.2396 34.298C56.8798 32.7 56.0083 31.1173 54.5042 30.3465C52.1953 29.1905 49.5181 29.2487 47.0004 29.2728C45.1624 29.3704 43.1859 29.5295 41.6288 30.6104C40.4333 31.4291 40.0702 33.0818 40.4969 34.4129C40.8991 35.3687 42.0024 35.677 42.9051 35.9613C48.1051 37.3213 53.6154 37.186 58.7161 38.9757C60.8279 39.7054 62.8937 41.1238 63.6166 43.3349C64.5621 46.2983 64.1476 49.8404 62.0393 52.2194C60.3295 54.1772 57.8393 55.2427 55.3556 55.8214C52.0515 56.5582 48.6225 56.5769 45.2671 56.2498C42.1119 55.8901 38.8285 55.0611 36.3927 52.9113C34.3099 51.1028 33.2926 48.285 33.3936 45.5652C33.4177 45.106 33.875 44.7857 34.315 44.8234C35.5757 44.8132 36.8364 44.8098 38.0971 44.8251C38.6007 44.7891 38.974 45.2243 38.9998 45.6989C39.2325 47.2214 39.8047 48.8194 41.1323 49.7221C43.6946 51.3752 46.9096 51.262 49.8435 51.3082C52.2742 51.2004 55.0027 51.1678 56.9862 49.5613C58.0327 48.645 58.3428 47.1119 58.06 45.793C57.7536 44.6796 56.5888 44.1607 55.5885 43.8214C50.4552 42.1976 44.8832 42.7868 39.7996 40.9505C37.7357 40.2211 35.74 38.8421 34.9471 36.7218C33.8407 33.721 34.3476 30.0092 36.677 27.7105C38.9482 25.424 42.2268 24.5437 45.3439 24.2285Z" fill="#8CC84B"/>
</g>
</g>
</svg>
