<svg width="24" height="24" viewBox="0 0 24 24" fill="none" xmlns="http://www.w3.org/2000/svg">
<path d="M16.5689 7.43091C15.3571 6.21917 13.7135 5.53839 11.9999 5.53839C10.2867 5.54068 8.6447 6.22207 7.43329 7.43339C6.22201 8.64473 5.54058 10.2869 5.53833 11.9999C5.53833 13.7136 6.21905 15.3572 7.43084 16.569C8.64264 17.7807 10.2862 18.4615 11.9999 18.4615C13.7135 18.4615 15.3571 17.7807 16.5689 16.569C17.7806 15.3572 18.4614 13.7136 18.4614 11.9999C18.4614 10.2863 17.7806 8.64267 16.5689 7.43091Z" fill="#DB9A1E"/>
<path d="M11.5384 4.49173C11.824 4.65656 12.1759 4.65656 12.4615 4.49173C12.7471 4.32689 12.9231 4.02214 12.9231 3.69228V0.923045C12.9231 0.593182 12.7471 0.288462 12.4615 0.123626C12.1759 -0.0412088 11.824 -0.0412088 11.5384 0.123626C11.2528 0.288462 11.0769 0.593182 11.0769 0.923045V3.69228C11.0769 4.02217 11.2528 4.32689 11.5384 4.49173Z" fill="#DB9A1E"/>
<path d="M12.4615 19.5083C12.1759 19.3434 11.824 19.3434 11.5384 19.5083C11.2528 19.6731 11.0769 19.9778 11.0769 20.3077V23.0769C11.0769 23.4068 11.2528 23.7115 11.5384 23.8764C11.824 24.0412 12.1759 24.0412 12.4615 23.8764C12.7471 23.7115 12.9231 23.4068 12.9231 23.0769V20.3077C12.9231 19.9778 12.7471 19.6731 12.4615 19.5083Z" fill="#DB9A1E"/>
<path d="M23.8765 11.5384C23.7117 11.2529 23.4069 11.0769 23.0771 11.0769H20.3078C19.9779 11.0769 19.6732 11.2529 19.5084 11.5384C19.3436 11.824 19.3436 12.176 19.5084 12.4615C19.6732 12.7471 19.978 12.9231 20.3078 12.9231H23.0771C23.4069 12.9231 23.7117 12.7471 23.8765 12.4615C24.0414 12.176 24.0414 11.824 23.8765 11.5384Z" fill="#DB9A1E"/>
<path d="M4.49176 12.4615C4.6566 12.176 4.6566 11.824 4.49176 11.5384C4.32693 11.2529 4.02217 11.0769 3.69231 11.0769H0.923078C0.593149 11.0769 0.288462 11.2529 0.123626 11.5384C-0.0412088 11.824 -0.0412088 12.176 0.123626 12.4615C0.288462 12.7471 0.593214 12.9231 0.923078 12.9231H3.69231C4.02217 12.9231 4.32693 12.7471 4.49176 12.4615Z" fill="#DB9A1E"/>
<path d="M5.47287 6.77812C5.70731 7.00458 6.0438 7.09051 6.35821 7.00439C6.67262 6.91804 6.91807 6.67265 7.00435 6.35821C7.09051 6.0438 7.00461 5.70731 6.77809 5.47287L4.82029 3.51503C4.58585 3.28861 4.24916 3.20245 3.93494 3.2888C3.62053 3.37492 3.37495 3.62053 3.2888 3.93494C3.20245 4.24916 3.28861 4.58585 3.515 4.82032L5.47287 6.77812Z" fill="#DB9A1E"/>
<path d="M18.5273 17.2216C18.2928 16.9952 17.9563 16.9092 17.6419 16.9954C17.3274 17.0817 17.0821 17.3271 16.9957 17.6415C16.9096 17.956 16.9956 18.2924 17.222 18.5269L19.1798 20.4847C19.4143 20.7111 19.7509 20.7973 20.0651 20.711C20.3796 20.6248 20.6252 20.3792 20.7113 20.0648C20.7976 19.7506 20.7115 19.4139 20.4851 19.1794L18.5273 17.2216Z" fill="#DB9A1E"/>
<path d="M17.8713 7.05985C18.1188 7.05779 18.3551 6.95622 18.5272 6.77818L20.485 4.82038C20.658 4.64707 20.7553 4.41238 20.7553 4.1676C20.7553 3.92283 20.658 3.68816 20.485 3.51509C20.3119 3.34201 20.0772 3.24475 19.8324 3.24475C19.5876 3.24475 19.353 3.34198 19.1797 3.51506L17.2219 5.47289C17.0439 5.64494 16.9423 5.88128 16.9402 6.12876C16.9379 6.3764 17.0354 6.61438 17.2105 6.78951C17.3857 6.96462 17.6236 7.0621 17.8713 7.05985Z" fill="#DB9A1E"/>
<path d="M6.35839 16.9956C6.04392 16.9094 5.70749 16.9953 5.47305 17.2218L3.51524 19.1796C3.34216 19.3529 3.24487 19.5876 3.24487 19.8324C3.24487 20.0771 3.34216 20.3118 3.51524 20.4849C3.68825 20.658 3.92295 20.7552 4.16776 20.7552C4.4125 20.7552 4.6472 20.658 4.82047 20.4849L6.77834 18.5271C7.00473 18.2926 7.09062 17.9561 7.00453 17.6417C6.91819 17.3273 6.6728 17.0819 6.35839 16.9956Z" fill="#DB9A1E"/>
</svg>
