<svg width="174" height="174" viewBox="0 0 174 174" fill="none" xmlns="http://www.w3.org/2000/svg">
<g filter="url(#filter0_d_60_1359)">
<path d="M157.381 66.9998C160.239 71.9502 160.239 78.0494 157.381 82.9998L129.119 131.952C126.261 136.902 120.979 139.952 115.262 139.952L58.7377 139.952C53.0214 139.952 47.7394 136.902 44.8813 131.952L16.6189 82.9998C13.7607 78.0494 13.7607 71.9502 16.6189 66.9998L44.8813 18.0479C47.7394 13.0975 53.0214 10.0479 58.7377 10.0479L115.262 10.0479C120.979 10.0479 126.261 13.0975 129.119 18.0479L157.381 66.9998Z" fill="#C9CBD0" fill-opacity="0.02" shape-rendering="crispEdges"/>
<path d="M156.948 67.2498C159.717 72.0455 159.717 77.9541 156.948 82.7498L128.686 131.702C125.917 136.497 120.8 139.452 115.262 139.452L58.7377 139.452C53.2001 139.452 48.0831 136.497 45.3143 131.702L17.0519 82.7498C14.2831 77.9541 14.2831 72.0455 17.0519 67.2498L45.3143 18.2979C48.0831 13.5022 53.2001 10.5479 58.7377 10.5479L115.262 10.5479C120.8 10.5479 125.917 13.5022 128.686 18.2979L156.948 67.2498Z" stroke="white" stroke-opacity="0.06" shape-rendering="crispEdges"/>
</g>
<path d="M63.8092 70.3494C61.532 71.4207 55.5049 76.2427 54.344 77.6714C53.1385 79.1001 52.7814 76.8678 54.0315 73.1621C55.0134 70.1708 57.514 66.1078 61.7107 62.6255C64.1661 60.6164 69.5685 57.7145 72.8722 56.0177C73.5421 55.6604 82.2035 51.9995 89.9274 50.169C90.5973 49.9903 89.1239 51.2851 88.9005 51.9995C87.7397 55.3926 64.5679 69.9475 64.5679 69.9475L63.8092 70.3494ZM96.4458 111.29C96.8476 113.701 96.4905 113.88 93.9904 114.193C91.4901 114.505 89.6596 113.567 88.99 112.942C88.3201 112.317 88.1864 110.933 88.856 109.683C89.258 108.879 89.6598 108.612 89.8832 107.629C90.1063 106.692 90.2849 106.469 90.4634 106.112C90.6418 105.799 90.6867 105.486 90.7312 103.299C90.7759 101.111 90.7312 97.0034 90.9546 95.2623C91.1779 93.4765 98.9019 96.0659 98.9019 96.0659C98.9019 96.0659 97.0712 100.62 96.5802 101.736C96.089 102.852 96.1337 104.995 96.1337 105.442C96.1337 105.888 95.9553 106.781 95.8211 106.826C95.6872 106.87 96.2676 108.031 95.9995 108.701C95.8209 109.326 96.4013 110.933 96.4458 111.29ZM99.3926 43.0255C99.1246 41.3289 99.3926 37.9801 99.7497 37.4446C100.866 35.9264 106.759 35.748 108.01 37.5338C108.545 38.3374 108.501 40.2126 108.411 41.4181C108.322 42.6235 108.01 45.213 107.965 46.0615C107.92 46.6867 101.446 47.6686 100.018 45.9721C99.6158 45.5258 99.3926 43.0255 99.3926 43.0255ZM112.519 106.96C115.242 108.924 117.341 109.281 118.725 109.996C120.109 110.71 119.752 112.094 117.43 112.496C115.555 112.853 112.608 112.139 110.644 112.139C108.679 112.139 104.304 112.362 103.143 111.558C101.804 110.621 102.384 108.879 102.384 108.879C102.741 107.897 103.634 105.71 103.366 103.924C103.098 102.138 102.741 101.156 102.071 99.5037C101.402 97.8519 100.911 93.7891 101.536 93.5658C102.161 93.3424 101.982 93.5658 102.786 93.7442C103.589 93.9226 104.482 94.1907 106.224 94.1907C107.965 94.1907 109.885 93.9226 110.554 93.7889C111.224 93.655 111.76 93.5208 111.536 94.905C111.313 96.289 110.644 98.8786 110.599 100.888C110.554 102.897 110.554 105.219 110.688 105.62C110.822 106.022 111.804 106.469 112.519 106.96Z" fill="#010101"/>
<path d="M102.964 47.4902C98.0533 51.7318 88.5434 52.8925 74.4353 58.3394C70.8188 59.7234 61.1752 63.8756 58.8535 68.2064C66.6666 63.6972 69.5687 69.903 70.1936 76.2874C70.7738 82.2701 73.7654 85.3956 81.4446 85.2167C89.3472 85.0383 91.7581 89.6367 93.9457 95.0392C98.187 74.3675 104.973 70.3495 109.349 66.8224C118.635 59.2769 107.206 45.9721 102.964 47.4902Z" fill="#8AC640"/>
<path d="M102.964 47.4902C91.1777 51.5977 79.5247 52.6246 65.8183 61.0629C62.5591 63.072 55.6835 67.6258 54.344 76.3321C59.3442 70.7958 70.9078 63.8311 85.0609 59.4111C92.2044 57.1786 97.4282 55.7054 103.768 53.2498C103.322 50.3921 103.322 49.276 102.964 47.4902Z" fill="#8AC640"/>
<path d="M118.01 71.9566C118.01 71.9566 117.162 74.8587 115.465 75.7964C115.465 75.7964 114.215 76.2429 111.715 74.8589C111.001 74.4572 110.465 73.0732 110.51 72.6265C110.554 71.5548 111.224 71.0638 111.224 71.0638C111.224 71.0638 111.939 69.8583 112.787 69.903C113.635 69.9475 115.064 70.0814 115.51 69.6796C115.912 69.2331 118.1 70.4832 118.01 71.9566ZM99.7944 43.8738C99.7944 43.8738 99.616 46.151 99.3034 47.5794C99.2587 47.8475 97.9194 47.9812 96.937 48.3832C98.8122 53.7408 110.108 53.696 111.581 51.062C110.867 50.571 109.438 49.8119 108.769 49.5441C108.099 49.276 108.143 49.3207 108.099 48.0707C108.054 46.8204 107.965 44.4989 107.875 43.8738C107.786 43.2486 100.866 43.2486 99.7944 43.8738Z" fill="#010101"/>
<path d="M100.241 43.8738C100.241 43.8738 100.241 45.1685 100.107 46.4186C100.062 46.999 100.018 47.3561 99.9286 47.8026C99.8838 48.0707 101.446 49.1419 101.893 51.5083C104.036 56.2854 108.992 53.9192 111.046 51.6422C110.331 51.151 109.17 50.4814 107.831 49.9456C107.161 49.6776 107.474 49.0974 107.429 47.8473C107.385 46.5972 107.206 44.7665 107.117 44.0969C107.027 43.4273 101.313 43.2486 100.241 43.8738Z" fill="#F0EFEF"/>
<path d="M99.7944 43.8738C99.7944 43.8738 99.7497 44.6775 99.616 45.615C100.196 46.1952 100.955 46.999 101.536 47.4902C101.938 47.8475 102.92 47.8028 103.813 47.8028C104.616 47.8028 105.331 47.892 105.643 47.7136C106.358 47.3563 107.385 46.4635 107.965 45.7937C107.921 44.9901 107.876 44.231 107.831 43.8738C107.786 43.2486 100.866 43.2486 99.7944 43.8738Z" fill="#010101"/>
<path d="M103.857 47.2669C103.321 47.2669 102.696 47.2224 102.205 47.1329C101.982 47.0884 101.759 46.9545 101.58 46.8651C101.268 46.6417 100.955 46.3741 100.598 46.106C99.8836 45.5703 99.8391 45.2577 99.8391 45.124C100.152 42.3111 99.7497 39.9449 99.7497 39.9449C99.7497 39.9449 99.4371 38.7394 101.134 38.4268C102.83 38.1142 103.857 38.0697 103.857 38.0697C103.857 38.0697 104.929 38.0697 106.581 38.4268C108.277 38.7394 107.965 39.9449 107.965 39.9449C107.965 39.9449 107.563 42.3111 107.875 45.124C107.875 45.2577 107.831 45.5703 107.116 46.106C106.491 46.5525 106 47.0435 105.509 47.1329C105.018 47.2224 104.393 47.2669 103.857 47.2669Z" fill="#010101"/>
<path d="M103.857 36.9089C100.911 36.9089 100.33 37.7125 99.4818 38.6055C99.3034 38.8286 99.4371 40.1681 99.7499 43.0255H100.152C100.152 43.0255 99.8836 42.2217 99.9283 41.2842C99.9731 40.3467 100.152 40.3914 100.018 40.1681C99.8391 39.9 99.4818 39.4535 100.286 39.0072C101.089 38.5607 102.339 39.3643 103.857 39.409C105.375 39.3643 106.67 38.5607 107.474 39.0072C108.277 39.4535 107.92 39.9 107.742 40.1681C107.563 40.4359 107.786 40.3465 107.831 41.2842C107.875 42.2217 107.608 43.0255 107.608 43.0255H108.009C108.277 40.1681 108.456 38.918 108.322 38.6947C107.563 37.7125 106.804 36.9534 103.857 36.9089ZM118.01 72.0905C118.01 72.0905 117.162 74.814 115.51 75.7515C115.153 75.5731 115.198 75.3052 114.885 74.9032C114.796 74.7695 114.483 74.6799 114.349 74.5462C114.215 74.4122 114.26 74.1889 114.037 74.0105C113.858 73.8318 113.724 73.9657 113.546 73.8318C113.367 73.6534 113.322 73.43 113.188 73.2963C113.099 73.2069 112.742 73.1624 112.653 73.073C112.429 72.8496 110.465 72.4478 110.554 72.0013C110.733 71.3315 111.09 70.8405 111.09 70.8405C111.09 70.8405 111.938 69.5904 112.786 69.6349C113.635 69.6796 114.439 69.8583 114.885 69.4565C115.376 69.0098 118.144 70.6618 118.01 72.0905Z" fill="#010101"/>
<path d="M112.206 52.3568C112.206 52.3568 115.019 51.6869 116.939 53.5176C118.859 55.3928 118.725 57.7143 118.144 59.143C118.635 59.7234 119.528 61.3305 118.859 63.2505C121.805 65.7506 120.511 69.5904 117.877 72.1352C117.877 72.1352 117.251 69.8135 114.751 69.6796C114.84 68.7868 112.43 68.0723 113.546 65.7506C111.849 65.3488 111.894 64.1879 111.626 62.7595C111.403 61.3305 112.206 52.3568 112.206 52.3568Z" fill="#010101"/>
<path d="M111.179 53.6068C111.179 53.6068 114.439 51.955 116.358 53.8302C118.278 55.7054 117.742 57.759 117.162 59.1877C117.653 59.7679 118.814 61.4202 118.099 63.3844C117.966 63.8309 116.983 63.8309 116.269 64.9917C118.055 63.9646 119.171 64.2327 119.573 65.5272C120.198 67.5363 118.814 69.9473 117.608 71.2867C117.608 71.242 117.564 71.1973 117.564 71.1528C117.385 71.8227 117.162 73.1172 115.822 74.5459C115.153 75.2603 114.617 75.1711 113.858 74.9924C112.965 74.7691 112.653 74.3671 111.402 73.6976C110.688 73.2959 111.09 72.8047 111.09 72.4029C111.09 72.3137 111.179 72.1795 111.313 72.0011C111.402 71.7777 111.67 71.4209 112.072 71.0189C112.072 71.0189 112.653 70.2153 113.501 70.2598C114.349 70.3045 115.242 70.1261 115.465 69.9028C115.465 68.3401 113.68 68.2954 114.305 65.6166C114.349 65.4827 114.573 65.2594 115.287 65.1701C114.215 64.9468 113.724 64.9021 112.965 64.1879C112.429 63.697 112.028 63.0718 111.893 62.2682C111.626 60.8843 111.179 53.6068 111.179 53.6068Z" fill="#F0EFEF"/>
<path d="M101.759 50.7941C101.491 50.4368 100.107 48.6511 97.4727 47.9367C96.7137 47.7134 96.2227 48.3385 95.4638 48.785C95.2405 48.6511 94.2582 48.2046 93.7225 48.5169C93.1868 48.8293 92.8298 49.1421 92.2938 49.3652C92.0258 49.2313 91.3116 49.2313 90.7312 49.4544C90.1508 49.6331 89.2578 50.0348 88.4095 51.1957C87.8738 53.1156 97.8745 51.6867 97.8745 51.6867L101.759 50.7941Z" fill="#010101"/>
<path d="M101.848 50.7941C100.419 50.3029 100.643 48.6511 97.4727 48.3832C96.8475 48.3385 96.4458 48.8295 95.9993 49.1421C96.2226 49.3654 96.4458 49.7225 96.5797 50.0796C96.1779 49.6333 95.4636 49.0526 94.749 48.9187C94.0794 48.785 93.6329 49.276 92.9185 49.6333C93.0522 49.767 93.1864 49.9904 93.3648 50.2584C92.7396 49.8566 92.2934 49.7227 91.4451 50.0351C90.8647 50.2135 89.7485 50.7047 88.9003 51.9103C88.3645 53.8302 97.919 51.6869 97.919 51.6869L101.848 50.7941Z" fill="#8AC640"/>
<path d="M110.242 51.5085C110.242 51.5085 110.242 51.0173 110.197 50.571C110.197 50.4818 109.84 50.2584 109.84 50.1692L109.751 50.0798C109.751 50.0798 110.465 49.678 111.001 49.9014C111.581 50.0798 111.894 50.8388 111.894 50.8388C112.921 50.4818 113.01 50.8836 113.501 51.4193C114.573 51.1959 114.706 51.5977 115.376 52.5801C115.376 52.5801 114.573 52.4462 113.01 52.7138C111.492 52.937 110.242 51.4638 110.242 51.5085Z" fill="#010101"/>
<path d="M110.063 51.2851C110.063 51.2851 110.331 51.0618 110.242 51.0171C110.733 50.7492 111.402 50.4369 111.715 51.2851C112.742 50.9279 112.876 51.4191 113.367 51.955C114.617 51.3746 114.706 52.0887 114.796 52.4013C114.394 52.4013 113.814 52.446 113.01 52.5352C111.492 52.7586 110.018 51.2404 110.063 51.2851Z" fill="#8AC640"/>
<path d="M94.8834 50.169C94.8834 50.169 97.4282 51.0618 99.5713 50.9279C101.714 50.7494 105.375 50.5708 107.34 51.7316C107.34 51.7316 109.349 51.0171 111.224 51.5083C113.099 51.9993 116.537 55.214 115.51 58.6071C115.421 58.8304 114.841 59.1875 114.171 59.4109C114.171 59.4109 114.528 60.9288 113.903 62.1788C113.278 63.3844 111.894 65.7061 111.849 68.9206C111.805 69.4563 111.715 70.5724 111.626 71.1081C108.143 70.9744 102.786 69.6794 97.5177 69.7688C97.5622 69.1886 97.6069 68.8314 97.6516 68.2509H97.7853C97.5174 66.7775 97.4282 66.0184 97.1602 64.9023C95.4636 63.8309 93.6776 62.5808 92.1599 60.2144C90.6865 57.848 94.8834 50.169 94.8834 50.169ZM112.117 74.2783C112.117 74.2783 114.885 84.19 111.626 88.3422C111.626 88.3422 112.117 90.2619 111.001 92.3157C110.822 93.2085 110.599 94.0123 110.465 94.9051C109.885 98.6107 108.902 100.173 108.634 106.111L105.956 106.067C105.956 106.067 105.643 101.781 104.705 99.5037C104.17 98.2092 102.071 96.4677 102.161 94.7266C102.25 93.3871 102.518 92.271 104.795 90.485C104.974 87.8957 102.384 85.4399 102.786 75.7962L112.117 74.2783Z" fill="#010101"/>
<path d="M111.313 73.8763C112.028 78.4303 113.68 85.172 110.688 88.4757C110.865 89.3134 110.88 90.1771 110.733 91.0205C110.644 91.5562 110.465 92.1367 110.242 92.7616C109.795 93.8332 109.617 95.3958 109.483 96.3333C108.902 100.039 108.902 100.218 108.634 106.156L105.955 106.111C105.955 106.111 105.643 101.825 104.705 99.5482C104.17 98.2535 103.054 97.1373 102.964 95.3961C102.875 94.0568 103.813 91.378 106.045 91.4672C105.911 86.065 103.411 87.1364 102.741 75.8854L111.313 73.8763ZM94.8834 50.169C94.8834 50.169 95.8656 50.4816 96.937 50.5708C98.0086 50.66 99.1695 50.5708 100.196 50.5261C102.339 50.3476 105.375 50.1243 107.384 51.2851C107.384 51.2851 108.501 50.9279 109.706 51.0171C110.242 51.0618 110.778 51.5083 111.403 51.6869C113.367 52.1779 115.242 55.4371 114.394 58.3839C114.305 58.6073 113.679 58.3839 112.965 58.6073C113.099 59.2324 113.188 60.6611 112.474 62.1791C111.715 63.6972 110.733 65.6616 110.911 69.412C106.223 69.1886 104.125 68.8763 99.4816 68.6529C99.0798 67.0009 98.8118 65.349 98.7673 64.5007C99.3924 64.1882 99.7493 63.9205 100.241 63.3846C98.9014 63.608 98.3655 63.5185 97.5617 63.072C96.7581 62.6255 95.3294 61.1968 94.6151 60.2594C94.5259 60.1699 94.0349 61.6431 92.9187 61.6881C92.5167 61.1076 94.2133 59.4556 93.9007 58.8307C92.7848 56.5535 94.8834 50.169 94.8834 50.169Z" fill="#F0EFEF"/>
<path d="M111.67 70.1706C111.67 70.1706 111.759 71.778 111.759 72.1798C111.759 72.6262 112.117 73.9655 112.161 74.5907C111.67 75.4389 109.527 77.3589 105.643 78.0732C101.803 78.8768 96.7136 72.8496 96.7136 72.8496C96.8476 72.2692 97.294 70.5724 97.6066 69.6796C97.6513 69.5904 97.7405 69.3671 97.7405 69.2778C98.1425 68.6974 111.67 70.1706 111.67 70.1706Z" fill="#010101"/>
<path d="M110.688 70.3048C110.688 71.4209 110.867 72.2247 111.001 72.939C111.224 74.2338 111.581 75.0821 111.581 75.9304C111.581 78.5197 108.188 78.0732 105.33 78.1626C101.491 78.9664 98.2316 72.939 98.2316 72.939C98.4994 71.9121 98.6781 70.7515 99.0798 69.769C99.1243 69.2333 99.2138 68.5637 99.2583 68.2511C104.705 68.2511 108.545 68.5637 110.777 68.7866C110.867 69.2778 110.778 70.1261 110.688 70.3048Z" fill="#F0EFEF"/>
<path d="M106.402 76.0641C106.402 76.0641 104.036 70.7958 96.9368 72.3586C95.2404 77.1357 92.9632 82.6274 94.4366 88.5653C92.9632 90.5745 91.2667 91.6908 91.2667 95.3963C91.2667 99.102 91.4453 99.7271 91.4453 99.7271L96.6689 99.9952C96.6689 99.9952 98.3655 97.8076 99.0351 95.4412C99.2137 94.7714 99.3924 93.566 99.2585 92.182C99.4369 91.9142 100.196 91.2892 100.285 90.0837C100.285 90.0837 102.83 88.7444 104.304 85.4852C105.688 82.538 105.331 79.9931 106.402 76.0641Z" fill="#010101"/>
<path d="M106.402 76.0641C106.268 75.5731 104.482 70.7513 97.8745 72.1797C93.9904 82.5379 95.4191 86.8241 95.9993 88.699C93.365 92.0474 92.1597 92.7618 92.6956 99.5482H96.1782C97.7853 97.0034 98.1426 96.0657 98.2318 92.7173C98.2318 92.5834 97.7408 92.9851 97.3835 93.4316C97.6516 92.0476 98.4104 91.7798 98.9908 90.9315C99.2587 90.5742 99.4818 90.0385 99.4818 89.3242C102.607 87.2258 103.768 84.5916 104.438 81.8681C104.974 79.9931 105.598 76.9123 106.402 76.0641Z" fill="#F0EFEF"/>
<path d="M95.3744 68.8761C95.3744 68.8761 96.5799 68.9206 97.6516 69.2779C98.6785 69.6349 98.6785 69.8581 99.0803 70.3048C99.4821 70.7515 100.464 71.4209 100.286 72.0905C100.196 72.4478 99.9733 72.537 99.6607 72.8496C99.5268 72.9835 98.5443 74.055 98.3212 74.1889C98.1873 74.2781 98.0086 74.4122 97.8747 74.5014L97.2051 74.9479C96.7586 75.1713 96.446 75.3052 95.955 75.2605C95.955 75.2605 94.8389 75.2158 94.1243 74.457C94.1243 74.457 94.0351 74.0997 94.2137 73.9212C94.2137 73.9212 93.276 73.1175 93.0082 72.5818C92.7401 72.0463 92.7401 71.2872 92.919 70.8854C93.0082 70.4832 94.7492 69.3671 95.3744 68.8761ZM96.4907 112.317L96.3568 113.434C96.3568 113.434 95.955 113.925 92.9637 113.88C89.9276 113.835 89.1241 112.898 88.8562 112.407L88.6778 111.246C88.6778 111.246 89.2582 110.398 89.3921 110.398C90.3743 110.487 93.723 111.826 96.0447 112.183C96.2674 112.183 96.3119 112.273 96.4907 112.317ZM102.964 110.04C102.964 110.531 102.92 110.531 102.92 111.023C103.455 111.424 104.795 111.648 107.34 111.603C111.045 111.514 114.483 112.719 118.68 112.005L118.725 111.201L118.323 111.157L103.455 109.951L102.964 110.04Z" fill="#010101"/>
<path d="M106.224 111.603H107.34C109.751 111.514 112.028 112.049 114.483 112.183C115.778 112.139 117.385 111.826 117.251 110.889L104.572 109.817C103.813 110.665 104.393 111.38 106.224 111.603ZM91.6687 92.8067C92.0705 93.0746 94.794 94.6819 99.214 94.4586C99.1246 95.3068 99.1693 96.9589 97.2049 99.8608C96.2227 101.29 95.3742 103.79 95.1957 106.96C95.2405 107.674 95.6422 108.299 95.1065 109.237C95.285 109.817 95.9993 110.978 96.3566 111.692C96.7137 112.407 96.8923 113.21 94.5259 113.255C92.115 113.3 88.2307 113.032 88.7666 111.157C89.0347 110.175 89.7935 109.148 89.8829 108.746C89.9721 108.344 89.9721 107.138 90.731 106.335C91.4008 104.102 91.1775 101.959 91.0438 99.9502C90.8204 97.8517 90.7757 94.5033 91.6687 92.8067ZM95.8209 56.4195C98.9909 52.1779 96.3119 48.785 91.2224 49.8117C89.1686 50.2135 87.115 51.6424 86.9808 54.2317C86.3112 54.321 84.7933 54.4102 84.0342 57.1784C83.454 59.3214 83.1414 59.7232 82.1143 60.7946C81.4446 61.5537 82.159 63.1163 82.65 64.2327C84.3021 68.0723 89.3917 68.4293 92.8295 71.3315C93.9904 71.0189 95.1957 69.7243 95.553 68.8761C92.6509 65.438 93.2758 64.0987 92.115 62.313C93.3653 61.8663 96.2227 60.1252 95.8209 56.4195Z" fill="#010101"/>
<path d="M95.1957 56.1517C95.3742 55.8836 95.6867 55.3034 95.8209 55.08C95.8656 55.0353 96.3566 55.8836 96.4013 55.8391C97.6066 53.8745 97.9192 51.0171 96.535 50.7492C96.2224 50.7045 95.6422 50.5708 95.151 50.3919C94.2582 50.0794 93.4547 50.0794 92.0258 50.3474C90.0613 50.7045 88.0969 52.1332 88.0969 54.187C88.0969 54.321 89.4807 54.7227 89.8827 56.3748C89.2129 55.4371 88.052 54.4102 86.668 55.3032C85.1946 56.2407 85.9537 58.3837 83.9893 60.616C83.3194 61.375 83.4088 62.268 84.123 64.0538C85.2838 66.8667 90.7755 68.3846 93.7668 71.0634C94.4812 70.7508 94.9722 70.0365 95.3294 69.5008C93.3203 67.4024 92.5165 65.4378 91.9363 64.0091C91.222 62.3573 90.4182 61.4198 88.8556 60.1693C89.6593 60.4818 90.2845 60.7944 90.6413 61.0623C91.0431 61.3301 91.6235 61.3748 92.1595 61.1962C94.0796 60.527 95.1065 57.848 95.1957 56.1517Z" fill="#F0EFEF"/>
<path d="M114.617 56.866C114.483 58.5626 113.233 57.7143 112.564 57.4017C111.224 56.8213 109.885 56.4195 108.322 56.4195C106.759 56.4195 104.75 56.5534 103.009 56.9999C100.598 57.6696 99.8836 57.6251 98.8122 57.0891C97.7408 56.5087 95.8658 55.08 95.8658 55.08C95.8658 55.08 95.8211 55.5265 96.2676 56.1069C96.8478 56.8213 98.1428 57.7143 99.8838 58.2945C100.732 58.5626 101.402 58.3837 102.161 58.2053C106.135 57.2231 110.331 57.0444 113.858 59.1875C114.037 59.2767 114.662 59.0088 114.93 58.6071C115.287 58.0269 114.617 56.866 114.617 56.866Z" fill="#010101"/>
<path d="M94.303 73.8763C94.66 74.0997 95.1065 74.2336 95.5975 74.6354C95.5975 74.6354 95.1958 74.6354 95.0173 74.457C94.794 74.323 94.3475 73.9212 94.303 73.8763Z" fill="#0A1825"/>
<path d="M107.206 38.4715C107.072 38.0697 106.089 37.3552 103.813 37.3552C101.357 37.3552 100.643 38.1142 100.598 38.516C100.598 38.6499 100.42 40.0789 100.375 40.6591C100.375 40.6591 100.375 41.3734 100.419 42.4448C100.464 43.1592 100.643 43.561 100.732 44.4987C100.821 45.4807 101.089 46.1058 101.58 46.9096C101.804 47.0433 101.982 47.1774 102.205 47.2222C103.098 47.4006 104.661 47.4453 105.509 47.2222C106 47.0882 106.625 46.2399 106.759 45.4809C106.938 44.5434 107.116 43.8735 107.161 43.2933C107.25 42.7131 107.295 41.4181 107.339 41.0608C107.474 40.0789 107.25 38.5607 107.206 38.4715Z" fill="#F0EFEF"/>
<path d="M102.518 93.655C102.518 93.655 104.884 94.6819 110.733 93.789C110.733 93.789 109.081 102.093 109.84 106.245C109.84 106.245 110.599 107.317 116.225 109.371C116.225 109.371 118.725 109.996 118.636 111.246C118.636 111.246 118.725 111.514 115.689 111.424C112.653 111.335 109.796 110.799 107.786 110.799C105.777 110.799 103.634 110.888 103.277 110.308C102.875 109.773 103.366 108.388 103.947 107.585C104.572 106.736 104.393 106.111 104.349 104.593C104.214 100.62 101.178 96.5124 102.518 93.655Z" fill="#010101"/>
<path d="M102.027 94.4141C101.714 94.8606 102.071 96.5569 102.518 98.209C102.964 99.8608 103.947 100.843 104.17 103.567C104.393 106.245 104.438 106.603 103.679 108.165C102.919 109.727 102.696 111.156 105.33 111.201C107.964 111.246 109.393 111.156 112.072 111.558C114.751 111.96 115.689 112.094 117.162 111.871C118.635 111.648 118.948 111.156 118.323 110.71C117.698 110.264 115.108 109.773 113.992 108.879C112.92 108.076 109.885 106.736 109.84 106.379C109.706 105.174 109.661 100.798 109.885 99.3696C110.108 97.9407 110.42 95.8871 110.51 95.3514C110.599 94.8157 111.045 94.2797 110.286 94.4584C109.527 94.6368 106.67 95.0388 104.527 94.9049C102.384 94.7712 102.161 94.2799 102.027 94.4141Z" fill="#8AC640"/>
<path opacity="0.3" d="M103.545 108.21C104.304 108.567 105.42 108.835 106.268 108.835C106.268 108.835 105.955 110.308 106.447 111.201C106.938 112.094 102.875 111.559 102.875 111.559L102.697 108.389L103.545 108.21ZM115.376 112.05C116.091 111.826 116.582 111.023 116.001 110.264C115.376 109.505 114.84 109.371 115.644 109.326C116.448 109.282 119.394 111.067 119.394 111.067L117.876 112.451L115.376 112.05ZM101.893 96.1551C102.92 96.5124 104.482 96.6016 105.822 96.5569C107.161 96.5124 109.17 96.3336 110.465 95.8873C111.76 95.4408 111.224 96.3783 111.224 96.3783L110.51 97.0481C110.51 97.0481 108.813 97.7178 106.045 97.6733C102.786 97.6286 101.804 97.2715 101.804 97.2715L101.893 96.1551ZM101.982 98.3876C103.009 98.7449 104.572 98.8341 105.911 98.7894C107.25 98.7449 109.036 98.7449 110.331 98.2537C110.867 98.0753 110.554 98.8341 110.554 98.8341L110.331 99.2359C110.331 99.2359 108.59 99.861 105.866 99.8161C102.607 99.7716 102.027 99.5035 102.027 99.5035L101.982 98.3876Z" fill="#010101"/>
<path d="M99.0353 67.0903C99.0353 67.4029 102.518 69.1439 104.438 69.5012C106.357 69.8583 110.376 69.5012 111.001 69.3673L110.911 69.9924C110.911 69.9924 106.134 70.7068 102.473 69.7246C98.812 68.7424 99.214 68.519 99.214 68.519L99.0353 67.0903Z" fill="#010101"/>
<path d="M91.5793 105.174C92.115 105.442 94.0349 105.933 95.285 105.665C95.4634 105.62 95.285 102.584 95.7762 101.2C96.4905 99.2804 97.6514 97.7178 98.1869 94.3249C96.3117 94.1462 94.1688 93.655 93.0525 93.2977C91.624 97.6733 92.1152 101.423 91.5793 105.174ZM94.5708 107.987C94.8834 108.076 95.1065 108.433 95.196 108.21C95.3744 107.808 94.8834 107.049 94.8387 106.514V106.469C94.4369 106.112 91.7134 106.067 91.8921 106.245C91.5795 106.826 91.0885 106.737 90.9101 107.898C90.8209 108.478 91.5352 107.987 92.2046 107.942C90.9993 108.746 89.6153 109.773 89.3919 110.666C89.1241 111.916 89.5706 112.273 90.9101 112.943C92.0709 113.211 93.4549 113.255 94.5263 113.211C95.7319 112.987 95.9552 112.407 95.598 111.603C95.0618 110.398 94.7047 108.835 94.5708 107.987Z" fill="#F0EFEF"/>
<path d="M95.0618 49.9904C96.5352 50.8386 98.5891 50.6155 99.3479 50.5708C99.5266 50.5708 101.313 50.2582 101.402 50.3027C101.58 50.3474 101.58 50.4814 101.58 50.4814C101.58 50.4814 100.911 50.8384 99.3926 50.9276C97.9639 51.0168 96.2674 50.9276 95.3299 50.4814C94.2135 49.9904 95.0618 49.9904 95.0618 49.9904ZM110.242 50.8386C110.51 51.0171 112.251 51.6869 113.01 52.4905C113.68 53.205 113.323 53.1603 113.188 52.9817C113.01 52.7583 111.626 51.8208 111.09 51.5977C110.554 51.3746 109.885 50.9726 109.885 50.8834C109.885 50.7941 110.242 50.8386 110.242 50.8386Z" fill="#010101"/>
<path d="M94.8385 69.3671C96.1332 69.2779 97.4727 69.5904 98.321 70.4832C98.7675 70.9297 99.4818 71.4207 99.3926 71.8672C99.3926 72.0011 99.1246 72.3584 98.9016 72.6263C98.7677 72.8047 98.3659 73.2065 98.2318 73.3406C98.0534 73.4745 97.4282 73.9657 97.2943 74.055C97.1604 74.1444 96.9817 74.3677 96.8478 74.4122C96.4015 74.6356 95.9103 74.457 95.4638 74.2338C95.0175 74.0105 95.5532 73.9657 95.062 73.6087C93.8567 72.7604 93.1868 72.1798 93.678 70.5279C93.7225 70.2153 94.2135 69.8581 94.8385 69.3671Z" fill="#F0EFEF"/>
<path opacity="0.4" d="M83.4538 59.143C79.4355 60.7503 69.2112 65.8402 66.3093 67.4029C68.7202 68.9208 69.8364 72.5817 70.1937 76.2874C70.2381 76.6447 70.2829 76.9573 70.3276 77.3143C70.3721 77.6269 70.4168 77.8501 70.4613 77.9842C70.4613 78.0289 70.4613 78.1181 70.506 78.1626C73.1403 70.9746 82.5605 63.3846 82.9178 62.8042C83.0963 62.5363 82.6945 61.3755 83.3196 60.2596C84.1234 58.8304 85.6862 58.2053 83.4538 59.143ZM93.0082 92.8514C95.0618 88.744 95.1065 84.8149 95.0618 80.2162C95.0618 78.2963 96.4458 75.5729 95.7317 76.3319C93.0527 79.323 86.3112 84.9489 81.4446 85.2612C88.2756 85.0381 90.9543 88.4759 93.0082 92.8514Z" fill="#010101"/>
<path d="M62.3803 71.1976C64.9251 69.3671 78.096 62.3577 81.266 61.3753C84.4358 60.3484 83.4536 59.1428 83.4536 59.1428C83.4536 59.1428 70.5952 64.679 62.916 69.4563" fill="#010101"/>
<path opacity="0.4" d="M99.8836 58.2947C98.8567 57.8929 98.0531 59.0985 98.3209 60.2594C98.589 61.4202 101 62.7148 100.866 66.9564C100.777 70.4389 100.018 71.8674 100.018 71.8674L98.3209 69.7246C98.3209 69.7246 98.0531 64.9025 97.4727 64.1882C96.8925 63.4738 95.0618 62.1791 94.3474 61.5094C93.6331 60.8396 95.151 59.9468 95.0618 58.6965C94.9726 57.4912 95.8208 55.0803 95.8208 55.0803L99.8836 58.2947ZM106.09 77.3141C106 80.6625 106.759 85.6185 107.072 87.9849C107.384 90.3511 107.786 90.5297 107.072 91.6014C106.357 92.6283 105.42 94.3249 105.42 94.3249L102.339 94.0568C102.339 94.0568 104.795 90.9315 104.929 90.3511C105.062 89.7709 103.678 85.3509 103.678 85.3509L106.09 77.3141ZM100.152 46.0615C100.777 47.4453 101.536 48.0704 102.741 48.4724C103.455 48.7403 106.268 49.0976 107.384 47.8473C107.875 47.2669 107.563 45.7043 107.563 45.7043L105.018 47.7579L101.58 47.133L101.178 46.106L100.152 46.0615Z" fill="#010101"/>
<path d="M100.419 49.1421C101.58 49.9012 104.482 50.6155 105.286 50.7494C106.089 50.9279 107.384 49.9012 108.009 49.6333C108.679 49.3207 109.84 49.1421 111.179 50.3477C111.313 50.4816 110.867 51.062 110.867 51.062C110.822 51.0173 110.554 51.0173 110.197 50.8386C109.84 50.6602 109.527 50.5261 108.992 50.5708C106.759 50.8386 106.402 51.5977 104.438 51.151C102.473 50.7043 101.982 50.3474 100.062 50.4366" fill="#8AC640"/>
<path fill-rule="evenodd" clip-rule="evenodd" d="M102.937 50.3467C101.966 50.0566 100.928 49.6824 100.324 49.2876L100.514 48.9966C101.071 49.3608 102.065 49.7233 103.036 50.0136C104.003 50.3025 104.922 50.5126 105.314 50.578C105.317 50.5785 105.321 50.5791 105.324 50.5797C105.482 50.615 105.68 50.5931 105.911 50.5219C106.14 50.4513 106.386 50.3371 106.633 50.2054C106.846 50.0915 107.056 49.9673 107.253 49.8503C107.284 49.8321 107.314 49.814 107.345 49.7962C107.563 49.667 107.77 49.547 107.938 49.4746C108.296 49.3081 108.786 49.1771 109.365 49.2487C109.946 49.3206 110.603 49.5952 111.296 50.2185C111.298 50.2205 111.3 50.2226 111.302 50.2247C111.361 50.2837 111.377 50.3571 111.378 50.4131C111.379 50.4682 111.367 50.5222 111.353 50.5679C111.324 50.66 111.273 50.7584 111.223 50.843C111.172 50.9295 111.118 51.0105 111.077 51.0693C111.056 51.0988 111.038 51.1232 111.025 51.1403C111.019 51.1488 111.014 51.1556 111.01 51.1603C111.009 51.1626 111.007 51.1645 111.006 51.1657L111.005 51.1677L111.005 51.1679L111.005 51.1679C111.005 51.168 111.005 51.168 110.867 51.062L111.005 51.168C110.974 51.2076 110.928 51.2322 110.878 51.2355C110.84 51.2379 110.803 51.2278 110.771 51.2073C110.767 51.206 110.761 51.2043 110.752 51.2022C110.736 51.1983 110.717 51.1941 110.693 51.1887L110.692 51.1885C110.668 51.1832 110.64 51.177 110.609 51.1696C110.484 51.1399 110.314 51.0914 110.119 50.9941C109.775 50.822 109.497 50.7037 109.009 50.7438C108.168 50.8449 107.606 51.015 107.106 51.1661C106.953 51.2122 106.807 51.2565 106.66 51.2966C106.022 51.4705 105.412 51.5509 104.399 51.3205C103.855 51.1969 103.427 51.0813 103.052 50.9803C102.055 50.7114 101.443 50.5465 100.07 50.6103L100.054 50.263C101.484 50.1966 102.153 50.3769 103.171 50.6514C103.542 50.7514 103.959 50.8639 104.476 50.9815C105.427 51.1978 105.978 51.122 106.568 50.9612C106.704 50.9241 106.844 50.8818 106.992 50.837C107.496 50.6847 108.095 50.5033 108.971 50.3982C108.973 50.398 108.975 50.3978 108.977 50.3976C109.559 50.349 109.906 50.4988 110.275 50.6832L110.275 50.6832C110.437 50.7645 110.58 50.8054 110.689 50.8315C110.717 50.8381 110.743 50.8437 110.767 50.849L110.77 50.8497C110.78 50.852 110.791 50.8543 110.801 50.8566C110.838 50.804 110.882 50.7368 110.923 50.6671C110.969 50.5898 111.004 50.5181 111.021 50.4636C111.023 50.4564 111.025 50.45 111.027 50.4444C110.394 49.8856 109.814 49.6545 109.322 49.5937C108.819 49.5315 108.395 49.6453 108.083 49.7908C108.081 49.7916 108.079 49.7924 108.078 49.7931C107.934 49.8548 107.746 49.9629 107.522 50.0954C107.492 50.1129 107.462 50.1308 107.431 50.1489C107.234 50.2657 107.017 50.3942 106.796 50.5121C106.541 50.6482 106.273 50.774 106.014 50.8541C105.758 50.933 105.495 50.9726 105.253 50.9202C104.84 50.8509 103.909 50.6373 102.937 50.3467ZM110.779 51.2096C110.78 51.2103 110.78 51.2102 110.778 51.2093C110.778 51.2094 110.778 51.2095 110.779 51.2096Z" fill="#010101"/>
<path d="M100.018 49.276C101.491 49.9011 104.348 50.5708 105.152 50.7494C105.955 50.9281 107.25 50.1243 107.875 49.7225C108.992 49.0081 110.42 49.5886 111.09 50.3476C111.536 50.8386 111.715 51.1512 111.715 51.2851C111.715 51.4636 111.18 51.2851 111.18 51.2851C110.867 51.1512 110.51 51.1067 110.242 50.9278C109.885 50.7494 109.527 50.4816 108.992 50.5261C106.759 50.7941 106.313 51.553 104.393 51.1065C102.474 50.66 101.982 50.2582 99.9288 50.3919" fill="#8AC640"/>
<path d="M93.0974 90.976C93.0082 90.8868 93.1866 90.7976 93.0974 90.7976C92.5172 90.7976 91.7134 90.3511 91.2667 89.726C89.347 86.958 86.5341 85.1275 81.4444 85.2614C73.8097 85.4399 70.7736 82.3148 70.1934 76.3322C69.8809 73.073 68.9879 69.903 67.1574 68.117L66.0858 68.7869C68.1394 70.5726 68.8092 73.4747 69.2557 77.4483C69.9701 83.431 74.7919 86.1991 80.4175 86.2884C86.2662 86.3776 88.3646 87.5831 90.5521 90.53C91.2665 91.4675 92.0703 91.78 92.6952 91.914L93.0974 90.976Z" fill="#010101"/>
<path opacity="0.4" d="M113.814 62.2682C113.947 62.9379 114.305 64.2327 115.019 64.8576C115.332 65.1702 115.376 65.2594 115.108 65.2594C114.84 65.2594 112.876 65.1702 112.876 65.1702L112.34 64.2327L113.814 62.2682Z" fill="#010101"/>
<path d="M73.7273 161.125C73.6477 160.848 73.536 160.604 73.392 160.392C73.2481 160.176 73.072 159.994 72.8636 159.847C72.6591 159.695 72.4242 159.58 72.1591 159.5C71.8977 159.42 71.608 159.381 71.2898 159.381C70.6951 159.381 70.1723 159.528 69.7216 159.824C69.2746 160.119 68.9261 160.549 68.6761 161.114C68.4261 161.674 68.3011 162.36 68.3011 163.17C68.3011 163.981 68.4242 164.67 68.6705 165.239C68.9167 165.807 69.2652 166.241 69.7159 166.54C70.1667 166.835 70.6989 166.983 71.3125 166.983C71.8693 166.983 72.3447 166.884 72.7386 166.688C73.1364 166.487 73.4394 166.205 73.6477 165.841C73.8598 165.477 73.9659 165.047 73.9659 164.551L74.4659 164.625H71.4659V162.773H76.3352V164.239C76.3352 165.261 76.1193 166.14 75.6875 166.875C75.2557 167.606 74.661 168.17 73.9034 168.568C73.1458 168.962 72.2784 169.159 71.3011 169.159C70.2102 169.159 69.2519 168.919 68.4261 168.438C67.6004 167.953 66.9564 167.265 66.4943 166.375C66.036 165.481 65.8068 164.42 65.8068 163.193C65.8068 162.25 65.9432 161.409 66.2159 160.67C66.4924 159.928 66.8788 159.299 67.375 158.784C67.8712 158.269 68.4489 157.877 69.108 157.608C69.767 157.339 70.4811 157.205 71.25 157.205C71.9091 157.205 72.5227 157.301 73.0909 157.494C73.6591 157.684 74.1629 157.953 74.6023 158.301C75.0455 158.65 75.4072 159.064 75.6875 159.545C75.9678 160.023 76.1477 160.549 76.2273 161.125H73.7273ZM84.4957 160.71C84.4503 160.252 84.2552 159.896 83.9105 159.642C83.5658 159.388 83.098 159.261 82.5071 159.261C82.1056 159.261 81.7666 159.318 81.4901 159.432C81.2135 159.542 81.0014 159.695 80.8537 159.892C80.7098 160.089 80.6378 160.312 80.6378 160.562C80.6302 160.771 80.6738 160.953 80.7685 161.108C80.867 161.263 81.0014 161.398 81.1719 161.511C81.3423 161.621 81.5393 161.718 81.7628 161.801C81.9863 161.881 82.2249 161.949 82.4787 162.006L83.5241 162.256C84.0317 162.369 84.4976 162.521 84.9219 162.71C85.3461 162.9 85.7135 163.133 86.0241 163.409C86.3348 163.686 86.5753 164.011 86.7457 164.386C86.92 164.761 87.009 165.191 87.0128 165.676C87.009 166.388 86.8272 167.006 86.4673 167.528C86.1113 168.047 85.5961 168.451 84.9219 168.739C84.2514 169.023 83.4427 169.165 82.4957 169.165C81.5563 169.165 80.7382 169.021 80.0412 168.733C79.348 168.445 78.8063 168.019 78.4162 167.455C78.0298 166.886 77.8272 166.184 77.8082 165.347H80.1889C80.2154 165.737 80.3272 166.062 80.5241 166.324C80.7249 166.581 80.992 166.777 81.3253 166.909C81.6624 167.038 82.0431 167.102 82.4673 167.102C82.884 167.102 83.2457 167.042 83.5526 166.92C83.8632 166.799 84.1037 166.631 84.2741 166.415C84.4446 166.199 84.5298 165.951 84.5298 165.67C84.5298 165.409 84.4522 165.189 84.2969 165.011C84.1454 164.833 83.9219 164.682 83.6264 164.557C83.3348 164.432 82.9768 164.318 82.5526 164.216L81.2855 163.898C80.3045 163.659 79.5298 163.286 78.9616 162.778C78.3935 162.271 78.1113 161.587 78.1151 160.727C78.1113 160.023 78.2988 159.407 78.6776 158.881C79.0601 158.354 79.5848 157.943 80.2514 157.648C80.9181 157.352 81.6757 157.205 82.5241 157.205C83.3878 157.205 84.1416 157.352 84.7855 157.648C85.4332 157.943 85.937 158.354 86.2969 158.881C86.6567 159.407 86.8423 160.017 86.8537 160.71H84.4957ZM90.4077 169H87.7713L91.7884 157.364H94.9588L98.9702 169H96.3338L93.419 160.023H93.3281L90.4077 169ZM90.2429 164.426H96.4702V166.347H90.2429V164.426ZM100.371 169V157.364H104.962C105.844 157.364 106.596 157.532 107.217 157.869C107.839 158.203 108.312 158.667 108.638 159.261C108.967 159.852 109.132 160.534 109.132 161.307C109.132 162.08 108.965 162.761 108.632 163.352C108.299 163.943 107.816 164.403 107.183 164.733C106.554 165.062 105.793 165.227 104.899 165.227H101.973V163.256H104.501C104.975 163.256 105.365 163.174 105.672 163.011C105.982 162.845 106.214 162.616 106.365 162.324C106.52 162.028 106.598 161.689 106.598 161.307C106.598 160.92 106.52 160.583 106.365 160.295C106.214 160.004 105.982 159.778 105.672 159.619C105.361 159.456 104.967 159.375 104.49 159.375H102.831V169H100.371Z" fill="#C9CBD0"/>
<defs>
<filter id="filter0_d_60_1359" x="4.47528" y="0.0478821" width="169.05" height="153.904" filterUnits="userSpaceOnUse" color-interpolation-filters="sRGB">
<feFlood flood-opacity="0" result="BackgroundImageFix"/>
<feColorMatrix in="SourceAlpha" type="matrix" values="0 0 0 0 0 0 0 0 0 0 0 0 0 0 0 0 0 0 127 0" result="hardAlpha"/>
<feOffset dx="2" dy="2"/>
<feGaussianBlur stdDeviation="6"/>
<feComposite in2="hardAlpha" operator="out"/>
<feColorMatrix type="matrix" values="0 0 0 0 0 0 0 0 0 0 0 0 0 0 0 0 0 0 0.08 0"/>
<feBlend mode="normal" in2="BackgroundImageFix" result="effect1_dropShadow_60_1359"/>
<feBlend mode="normal" in="SourceGraphic" in2="effect1_dropShadow_60_1359" result="shape"/>
</filter>
</defs>
</svg>
