<svg width="174" height="174" viewBox="0 0 174 174" fill="none" xmlns="http://www.w3.org/2000/svg">
<g filter="url(#filter0_d_60_1354)">
<path d="M157.381 66.9998C160.239 71.9502 160.239 78.0494 157.381 82.9998L129.119 131.952C126.261 136.902 120.979 139.952 115.262 139.952L58.7377 139.952C53.0214 139.952 47.7394 136.902 44.8813 131.952L16.6189 82.9998C13.7607 78.0494 13.7607 71.9502 16.6189 66.9998L44.8813 18.0479C47.7394 13.0975 53.0214 10.0479 58.7377 10.0479L115.262 10.0479C120.979 10.0479 126.261 13.0975 129.119 18.0479L157.381 66.9998Z" fill="#C9CBD0" fill-opacity="0.02" shape-rendering="crispEdges"/>
<path d="M156.948 67.2498C159.717 72.0455 159.717 77.9541 156.948 82.7498L128.686 131.702C125.917 136.497 120.8 139.452 115.262 139.452L58.7377 139.452C53.2001 139.452 48.0831 136.497 45.3143 131.702L17.0519 82.7498C14.2831 77.9541 14.2831 72.0455 17.0519 67.2498L45.3143 18.2979C48.0831 13.5022 53.2001 10.5479 58.7377 10.5479L115.262 10.5479C120.8 10.5479 125.917 13.5022 128.686 18.2979L156.948 67.2498Z" stroke="white" stroke-opacity="0.06" shape-rendering="crispEdges"/>
</g>
<path fill-rule="evenodd" clip-rule="evenodd" d="M47.7619 70.0975C47.7619 70.5369 47.8913 70.8269 47.9638 71.1087C48.4363 72.9419 49.4519 74.515 50.6569 75.95C52.3732 77.995 54.475 79.6413 56.6282 81.1894C58.4957 82.5319 60.4013 83.8444 62.2763 85.1769C62.5982 85.4056 62.9025 85.6687 63.2519 85.9494C62.9513 86.1119 62.7013 86.255 62.4413 86.3869C59.9669 87.6419 57.5863 89.0488 55.3919 90.7531C54.0694 91.7806 52.7907 92.8725 51.8875 94.2994C50.4344 96.5944 49.92 99.0394 51.0032 101.65C51.3194 102.412 51.8019 103.071 52.4825 103.558C52.7032 103.716 52.9507 103.872 53.2088 103.933C53.87 104.089 54.5438 104.191 55.2132 104.314L57.1088 104.312C59.205 104.126 61.1132 103.407 62.8375 102.217C65.5325 100.357 67.3482 97.8638 68.1288 94.6631C68.6963 92.3369 68.7194 90.0081 68.0507 87.6925C67.9888 87.4775 67.9107 87.2669 67.8294 87.0588C67.7481 86.8506 67.6525 86.6481 67.54 86.3887L71.8375 83.9175L71.9019 83.9725C71.8238 84.2281 71.7407 84.4831 71.67 84.7412C71.1594 86.6063 70.82 88.5038 70.9419 90.4394C71.0719 92.5019 71.6475 94.4325 72.855 96.1556C73.8313 97.5494 76.1575 97.6013 77.195 96.2025C77.5632 95.7056 77.92 95.1863 78.1882 94.6319C78.8888 93.185 79.5375 91.7125 80.2069 90.25L80.3238 89.9825C80.2757 90.675 80.2194 91.2831 80.1938 91.8919C80.1538 92.8425 80.2094 93.7875 80.5344 94.6919C80.8125 95.4656 81.2857 96.0438 82.1719 96.1456C82.7782 96.215 83.2613 95.9375 83.7069 95.5856C84.4031 95.0362 84.9688 94.3575 85.3888 93.5863C86.5769 91.4044 87.7969 89.2356 88.8738 86.9987C90.0388 84.5794 91.0575 82.0894 92.1394 79.6287L92.3182 79.1925C92.5738 80.1969 92.7519 81.1806 93.08 82.1119C93.4613 83.1925 93.9332 84.2475 94.4469 85.2731C94.69 85.7575 94.6619 86.0719 94.325 86.4781C92.915 88.1781 91.5294 89.8988 90.1425 91.6175C89.8357 91.9969 89.53 92.3831 89.2744 92.7975C89.12 93.0494 89.0175 93.3562 88.9744 93.65C88.8913 94.2112 89.2382 94.7525 89.8388 94.8819C90.3875 95 90.9719 95.0437 91.5313 95.0025C93.4669 94.86 95.2244 94.1806 96.7781 93.0294C98.7913 91.5381 99.4375 89.5031 98.95 87.0913C98.8182 86.4369 98.585 85.8006 98.3581 85.17C98.2563 84.8856 98.2494 84.6862 98.435 84.4212C100.044 82.1231 101.419 79.685 102.698 77.1906C102.749 77.0925 102.801 76.9944 102.889 76.8894C103.304 79.0456 103.928 81.1238 105.045 83.0094C104.475 83.5588 103.911 84.0569 103.4 84.6056C102.276 85.8144 101.301 87.1269 100.792 88.7275C100.573 89.4175 100.405 90.1188 100.503 90.8556C100.654 92 101.591 92.7438 102.717 92.4831C105.126 91.9256 107.205 90.7906 108.724 88.78C109.747 87.4262 109.84 85.9162 109.412 84.3344C109.294 83.9044 109.155 83.4813 109.005 82.9881C109.599 82.8037 110.179 82.5825 110.778 82.4456C113.89 81.7356 116.968 81.8594 119.967 82.9831C121.718 83.6394 123.132 84.7375 123.971 86.465C124.995 88.5769 124.429 90.5806 122.438 91.9156C122.253 92.04 122.04 92.1381 121.886 92.2937C121.792 92.3894 121.735 92.5806 121.758 92.7125C121.771 92.7894 121.974 92.8856 122.091 92.8844C122.746 92.8794 123.276 92.5363 123.786 92.1838C125.062 91.3006 125.993 90.1125 126.194 88.5481L126.233 88.4306L126.185 87.4119C126.166 87.3531 126.199 87.295 126.195 87.2506C125.924 84.9725 124.707 83.2056 122.937 81.8206C120.887 80.2175 118.466 79.5575 115.906 79.4531C113.82 79.3681 111.769 79.6781 109.803 80.3925C109.243 80.5956 108.687 80.8362 108.123 81.0631C108.048 80.9262 107.966 80.795 107.899 80.6594C107.321 79.4744 106.619 78.3419 106.464 76.9831C106.354 76.0181 106.219 75.0544 106.449 74.1C106.669 73.1819 106.957 72.2794 107.228 71.3738C107.367 70.9075 107.269 70.6463 106.824 70.4363C106.669 70.3631 106.5 70.2994 106.333 70.275C105.239 70.1162 104.16 70.2069 103.101 70.515C102.726 70.6244 102.453 70.8344 102.37 71.2494C102.323 71.4875 102.226 71.7156 102.158 71.9506C101.881 72.9275 101.685 73.9231 101.238 74.8537C100.116 77.1881 98.8363 79.4344 97.5263 81.6644C97.3844 81.905 97.235 82.1412 97.0563 82.4331C96.5963 81.4706 96.1057 80.6069 95.9569 79.5944C95.7888 78.4494 95.6563 77.3063 95.9413 76.17C96.1532 75.3225 96.43 74.4906 96.685 73.6544C96.8057 73.2569 96.75 73.0481 96.39 72.8387C96.2082 72.7331 96.0025 72.6394 95.7975 72.6087C94.6631 72.4406 93.5457 72.5287 92.4513 72.8825C92.1119 72.9925 91.9338 73.2119 91.83 73.5619C91.525 74.5944 91.265 75.6519 90.8369 76.6337C89.1031 80.6087 87.3194 84.5631 85.5375 88.5169C85.1656 89.3425 84.73 90.1394 84.3106 90.9431C84.2044 91.1469 84.0494 91.3263 83.9169 91.5175C83.8106 91.3919 83.7694 91.3056 83.77 91.2194C83.7732 90.7112 83.7125 90.1881 83.8094 89.6969C84.1025 88.2106 84.44 86.7325 84.7957 85.26C85.0894 84.0438 85.4313 82.8387 85.7569 81.6306C85.8663 81.2262 85.8681 80.8481 85.5775 80.5081C85.0894 79.9388 84.0694 79.8138 83.4644 80.2525L83.1969 80.4038L83.2488 79.9725C83.3763 79.0481 83.4019 78.1269 83.1482 77.2162C82.8319 76.0812 82.0219 75.4281 80.8444 75.4644C80.2957 75.4812 79.7194 75.575 79.2113 75.775C77.0744 76.6125 75.4313 78.0956 74.0325 79.88C73.9056 80.0419 73.7381 80.1894 73.5594 80.2887C71.7513 81.2912 69.9375 82.2812 68.1244 83.275L66.1063 84.3806C65.565 83.8644 65.0732 83.3288 64.515 82.8744C62.8107 81.4844 61.0788 80.1288 59.3625 78.7544C57.8413 77.5363 56.3675 76.2675 55.24 74.6544C54.4013 73.4544 53.8607 72.1412 53.8088 70.6575C53.7432 68.7669 54.2794 67.0394 55.2419 65.4312C56.4732 63.3737 58.1525 61.7225 59.9988 60.2269C61.9519 58.6456 64.0644 57.3031 66.2538 56.0775C69.3169 54.3631 72.4675 52.8456 75.8456 51.8438C79.3094 50.8163 82.8238 50.2281 86.4488 50.6381C87.8738 50.7994 89.2575 51.1256 90.5281 51.8225C91.5013 52.3556 92.2994 53.0538 92.6707 54.145C93.0369 55.2188 93.0257 56.3069 92.7719 57.3975C92.2563 59.6062 91.0469 61.4269 89.525 63.0538C87.0288 65.7206 83.9838 67.5363 80.5556 68.7356C78.5775 69.4275 76.5425 69.8619 74.4525 70.0375C72.7469 70.1806 71.0769 70.0294 69.4619 69.4362C68.3925 69.0431 67.4613 68.4419 66.7125 67.5694C66.5788 67.4131 66.4075 67.2438 66.1582 67.39C65.9138 67.5338 65.8707 67.7663 65.9525 68.0019C66.0894 68.3931 66.2157 68.8006 66.4288 69.1506C66.9644 70.0287 67.7457 70.6656 68.6057 71.2119C70.2575 72.2625 72.1038 72.6156 74.0182 72.6975C76.9232 72.8231 79.7575 72.3894 82.5519 71.61C86.5413 70.4975 90.01 68.5325 92.7919 65.4325C95.1082 62.8513 96.7625 59.9381 97.1169 56.4206C97.29 54.7037 97.1057 53.0219 96.3019 51.4556C95.43 49.7588 94.0438 48.4969 92.3863 47.6275C89.9725 46.3619 87.3675 45.625 84.6788 45.625H81.985C78.7288 45.625 75.5807 46.5581 72.5207 47.6713C70.2044 48.5144 67.9332 49.5094 65.7282 50.6106C60.9263 53.01 56.4544 55.9031 52.7813 59.8813C50.9513 61.8631 49.4019 64.05 48.5107 66.625C48.25 67.3787 48.0025 68.1869 47.8163 68.9663M65.2157 91.4744C65.0075 94.2612 63.7444 96.5206 61.68 98.3506C60.5188 99.3794 59.1869 100.112 57.6357 100.369C57.0732 100.463 56.4975 100.485 55.9519 100.252C55.1738 99.9194 54.9994 99.2287 54.9844 98.4931C54.9613 97.3206 55.3719 96.2606 55.935 95.2519C56.67 93.9369 57.7475 92.9344 58.8982 91.9981C60.7107 90.5225 62.6769 89.2738 64.6907 88.095L64.8425 88.0325C65.1538 89.1825 65.3019 90.3181 65.2157 91.4744ZM80.9394 79.3625C80.7925 80.2525 80.6088 81.1431 80.3488 82.0056C79.45 84.9912 78.2957 87.8844 77.0475 90.7388C76.8169 91.2669 76.4813 91.7487 76.1894 92.2494C76.1444 92.3269 76.0775 92.3937 76.0125 92.4581C75.6513 92.815 75.3088 92.7962 75.1263 92.3294C74.9138 91.7869 74.7831 91.2062 74.6707 90.6319C74.595 90.2463 74.6132 89.8412 74.5894 89.4463C74.6138 86.6375 75.4707 84.085 76.9244 81.7088C77.5238 80.7288 78.1763 79.795 79.1732 79.175C79.4794 78.9844 79.8232 78.8312 80.17 78.7337C80.7013 78.5844 81.0275 78.83 80.9394 79.3625ZM91.6669 93.03L95.5225 88.5281C95.6832 90.2 92.8413 93.5375 91.6669 93.03ZM103.981 90.0006C103.709 90.1569 103.412 90.2694 103.133 90.4137C102.877 90.5463 102.793 90.4125 102.785 90.1925C102.78 90.0431 102.802 89.8869 102.843 89.7419C103.364 87.9056 104.322 86.3381 105.748 85.0631L105.848 85.0119C106.526 86.9087 105.742 88.9919 103.981 90.0006Z" fill="#CB6699"/>
<path d="M73.3239 160.71C73.2784 160.252 73.0833 159.896 72.7386 159.642C72.3939 159.388 71.9261 159.261 71.3352 159.261C70.9337 159.261 70.5947 159.318 70.3182 159.432C70.0417 159.542 69.8295 159.695 69.6818 159.892C69.5379 160.089 69.4659 160.312 69.4659 160.562C69.4583 160.771 69.5019 160.953 69.5966 161.108C69.6951 161.263 69.8295 161.398 70 161.511C70.1705 161.621 70.3674 161.718 70.5909 161.801C70.8144 161.881 71.053 161.949 71.3068 162.006L72.3523 162.256C72.8598 162.369 73.3258 162.521 73.75 162.71C74.1742 162.9 74.5417 163.133 74.8523 163.409C75.1629 163.686 75.4034 164.011 75.5739 164.386C75.7481 164.761 75.8371 165.191 75.8409 165.676C75.8371 166.388 75.6553 167.006 75.2955 167.528C74.9394 168.047 74.4242 168.451 73.75 168.739C73.0795 169.023 72.2708 169.165 71.3239 169.165C70.3845 169.165 69.5663 169.021 68.8693 168.733C68.1761 168.445 67.6345 168.019 67.2443 167.455C66.858 166.886 66.6553 166.184 66.6364 165.347H69.017C69.0436 165.737 69.1553 166.062 69.3523 166.324C69.553 166.581 69.8201 166.777 70.1534 166.909C70.4905 167.038 70.8712 167.102 71.2955 167.102C71.7121 167.102 72.0739 167.042 72.3807 166.92C72.6913 166.799 72.9318 166.631 73.1023 166.415C73.2727 166.199 73.358 165.951 73.358 165.67C73.358 165.409 73.2803 165.189 73.125 165.011C72.9735 164.833 72.75 164.682 72.4545 164.557C72.1629 164.432 71.8049 164.318 71.3807 164.216L70.1136 163.898C69.1326 163.659 68.358 163.286 67.7898 162.778C67.2216 162.271 66.9394 161.587 66.9432 160.727C66.9394 160.023 67.1269 159.407 67.5057 158.881C67.8883 158.354 68.4129 157.943 69.0795 157.648C69.7462 157.352 70.5038 157.205 71.3523 157.205C72.2159 157.205 72.9697 157.352 73.6136 157.648C74.2614 157.943 74.7652 158.354 75.125 158.881C75.4848 159.407 75.6705 160.017 75.6818 160.71H73.3239ZM79.2358 169H76.5994L80.6165 157.364H83.7869L87.7983 169H85.1619L82.2472 160.023H82.1562L79.2358 169ZM79.071 164.426H85.2983V166.347H79.071V164.426ZM95.2457 160.71C95.2003 160.252 95.0052 159.896 94.6605 159.642C94.3158 159.388 93.848 159.261 93.2571 159.261C92.8556 159.261 92.5166 159.318 92.2401 159.432C91.9635 159.542 91.7514 159.695 91.6037 159.892C91.4598 160.089 91.3878 160.312 91.3878 160.562C91.3802 160.771 91.4238 160.953 91.5185 161.108C91.617 161.263 91.7514 161.398 91.9219 161.511C92.0923 161.621 92.2893 161.718 92.5128 161.801C92.7363 161.881 92.9749 161.949 93.2287 162.006L94.2741 162.256C94.7817 162.369 95.2476 162.521 95.6719 162.71C96.0961 162.9 96.4635 163.133 96.7741 163.409C97.0848 163.686 97.3253 164.011 97.4957 164.386C97.67 164.761 97.759 165.191 97.7628 165.676C97.759 166.388 97.5772 167.006 97.2173 167.528C96.8613 168.047 96.3461 168.451 95.6719 168.739C95.0014 169.023 94.1927 169.165 93.2457 169.165C92.3063 169.165 91.4882 169.021 90.7912 168.733C90.098 168.445 89.5563 168.019 89.1662 167.455C88.7798 166.886 88.5772 166.184 88.5582 165.347H90.9389C90.9654 165.737 91.0772 166.062 91.2741 166.324C91.4749 166.581 91.742 166.777 92.0753 166.909C92.4124 167.038 92.7931 167.102 93.2173 167.102C93.634 167.102 93.9957 167.042 94.3026 166.92C94.6132 166.799 94.8537 166.631 95.0241 166.415C95.1946 166.199 95.2798 165.951 95.2798 165.67C95.2798 165.409 95.2022 165.189 95.0469 165.011C94.8954 164.833 94.6719 164.682 94.3764 164.557C94.0848 164.432 93.7268 164.318 93.3026 164.216L92.0355 163.898C91.0545 163.659 90.2798 163.286 89.7116 162.778C89.1435 162.271 88.8613 161.587 88.8651 160.727C88.8613 160.023 89.0488 159.407 89.4276 158.881C89.8101 158.354 90.3348 157.943 91.0014 157.648C91.6681 157.352 92.4257 157.205 93.2741 157.205C94.1378 157.205 94.8916 157.352 95.5355 157.648C96.1832 157.943 96.687 158.354 97.0469 158.881C97.4067 159.407 97.5923 160.017 97.6037 160.71H95.2457ZM105.73 160.71C105.685 160.252 105.49 159.896 105.145 159.642C104.8 159.388 104.332 159.261 103.741 159.261C103.34 159.261 103.001 159.318 102.724 159.432C102.448 159.542 102.236 159.695 102.088 159.892C101.944 160.089 101.872 160.312 101.872 160.562C101.865 160.771 101.908 160.953 102.003 161.108C102.101 161.263 102.236 161.398 102.406 161.511C102.577 161.621 102.774 161.718 102.997 161.801C103.221 161.881 103.459 161.949 103.713 162.006L104.759 162.256C105.266 162.369 105.732 162.521 106.156 162.71C106.58 162.9 106.948 163.133 107.259 163.409C107.569 163.686 107.81 164.011 107.98 164.386C108.154 164.761 108.243 165.191 108.247 165.676C108.243 166.388 108.062 167.006 107.702 167.528C107.346 168.047 106.83 168.451 106.156 168.739C105.486 169.023 104.677 169.165 103.73 169.165C102.791 169.165 101.973 169.021 101.276 168.733C100.582 168.445 100.041 168.019 99.6506 167.455C99.2642 166.886 99.0616 166.184 99.0426 165.347H101.423C101.45 165.737 101.562 166.062 101.759 166.324C101.959 166.581 102.226 166.777 102.56 166.909C102.897 167.038 103.277 167.102 103.702 167.102C104.118 167.102 104.48 167.042 104.787 166.92C105.098 166.799 105.338 166.631 105.509 166.415C105.679 166.199 105.764 165.951 105.764 165.67C105.764 165.409 105.687 165.189 105.531 165.011C105.38 164.833 105.156 164.682 104.861 164.557C104.569 164.432 104.211 164.318 103.787 164.216L102.52 163.898C101.539 163.659 100.764 163.286 100.196 162.778C99.6278 162.271 99.3456 161.587 99.3494 160.727C99.3456 160.023 99.5331 159.407 99.9119 158.881C100.295 158.354 100.819 157.943 101.486 157.648C102.152 157.352 102.91 157.205 103.759 157.205C104.622 157.205 105.376 157.352 106.02 157.648C106.668 157.943 107.171 158.354 107.531 158.881C107.891 159.407 108.077 160.017 108.088 160.71H105.73Z" fill="#C9CBD0"/>
<defs>
<filter id="filter0_d_60_1354" x="4.47528" y="0.0478821" width="169.05" height="153.904" filterUnits="userSpaceOnUse" color-interpolation-filters="sRGB">
<feFlood flood-opacity="0" result="BackgroundImageFix"/>
<feColorMatrix in="SourceAlpha" type="matrix" values="0 0 0 0 0 0 0 0 0 0 0 0 0 0 0 0 0 0 127 0" result="hardAlpha"/>
<feOffset dx="2" dy="2"/>
<feGaussianBlur stdDeviation="6"/>
<feComposite in2="hardAlpha" operator="out"/>
<feColorMatrix type="matrix" values="0 0 0 0 0 0 0 0 0 0 0 0 0 0 0 0 0 0 0.08 0"/>
<feBlend mode="normal" in2="BackgroundImageFix" result="effect1_dropShadow_60_1354"/>
<feBlend mode="normal" in="SourceGraphic" in2="effect1_dropShadow_60_1354" result="shape"/>
</filter>
</defs>
</svg>
