<svg width="174" height="174" viewBox="0 0 174 174" fill="none" xmlns="http://www.w3.org/2000/svg">
<g filter="url(#filter0_d_60_1337)">
<path d="M157.381 66.9998C160.239 71.9502 160.239 78.0494 157.381 82.9998L129.119 131.952C126.261 136.902 120.979 139.952 115.262 139.952L58.7377 139.952C53.0214 139.952 47.7394 136.902 44.8813 131.952L16.6189 82.9998C13.7607 78.0494 13.7607 71.9502 16.6189 66.9998L44.8813 18.0479C47.7394 13.0975 53.0214 10.0479 58.7377 10.0479L115.262 10.0479C120.979 10.0479 126.261 13.0975 129.119 18.0479L157.381 66.9998Z" fill="#C9CBD0" fill-opacity="0.02" shape-rendering="crispEdges"/>
<path d="M156.948 67.2498C159.717 72.0455 159.717 77.9541 156.948 82.7498L128.686 131.702C125.917 136.497 120.8 139.452 115.262 139.452L58.7377 139.452C53.2001 139.452 48.0831 136.497 45.3143 131.702L17.0519 82.7498C14.2831 77.9541 14.2831 72.0455 17.0519 67.2498L45.3143 18.2979C48.0831 13.5022 53.2001 10.5479 58.7377 10.5479L115.262 10.5479C120.8 10.5479 125.917 13.5022 128.686 18.2979L156.948 67.2498Z" stroke="white" stroke-opacity="0.06" shape-rendering="crispEdges"/>
</g>
<path d="M48.1691 48.1838L85.1715 35L123.17 47.9494L117.018 96.9053L85.1715 114.542L53.8235 97.1397L48.1691 48.1838Z" fill="#E23237"/>
<path d="M123.17 47.9494L85.1715 35V114.542L117.018 96.9347L123.17 47.9494Z" fill="#B52E31"/>
<path d="M85.23 44.2874L62.1732 95.5871L70.7865 95.4406L75.4156 83.8679H96.0994L101.168 95.5871L109.4 95.7335L85.23 44.2874ZM85.2888 60.7232L93.0818 77.0124H78.4329L85.2888 60.7232Z" fill="white"/>
<path d="M59.017 169H56.3807L60.3977 157.364H63.5682L67.5795 169H64.9432L62.0284 160.023H61.9375L59.017 169ZM58.8523 164.426H65.0795V166.347H58.8523V164.426ZM71.3551 163.955V169H68.9347V160.273H71.2415V161.812H71.3438C71.5369 161.305 71.8608 160.903 72.3153 160.608C72.7699 160.309 73.321 160.159 73.9688 160.159C74.5748 160.159 75.1032 160.292 75.554 160.557C76.0047 160.822 76.3551 161.201 76.6051 161.693C76.8551 162.182 76.9801 162.765 76.9801 163.443V169H74.5597V163.875C74.5634 163.341 74.4271 162.924 74.1506 162.625C73.8741 162.322 73.4934 162.17 73.0085 162.17C72.6828 162.17 72.3949 162.241 72.1449 162.381C71.8987 162.521 71.7055 162.725 71.5653 162.994C71.429 163.259 71.3589 163.58 71.3551 163.955ZM82.8196 172.455C82.0355 172.455 81.3632 172.347 80.8026 172.131C80.2457 171.919 79.8026 171.629 79.473 171.261C79.1435 170.894 78.9295 170.481 78.831 170.023L81.0696 169.722C81.1378 169.896 81.2457 170.059 81.3935 170.21C81.5412 170.362 81.7363 170.483 81.9787 170.574C82.2249 170.669 82.5241 170.716 82.8764 170.716C83.4029 170.716 83.8366 170.587 84.1776 170.33C84.5223 170.076 84.6946 169.65 84.6946 169.051V167.455H84.5923C84.4863 167.697 84.3272 167.926 84.1151 168.142C83.9029 168.358 83.6302 168.534 83.2969 168.67C82.9635 168.807 82.5658 168.875 82.1037 168.875C81.4484 168.875 80.8518 168.723 80.3139 168.42C79.7798 168.114 79.3537 167.646 79.0355 167.017C78.7211 166.384 78.5639 165.585 78.5639 164.619C78.5639 163.631 78.7249 162.805 79.0469 162.142C79.3688 161.479 79.7969 160.983 80.331 160.653C80.8688 160.324 81.4579 160.159 82.098 160.159C82.5866 160.159 82.9957 160.242 83.3253 160.409C83.6548 160.572 83.92 160.777 84.1207 161.023C84.3253 161.265 84.4825 161.504 84.5923 161.739H84.6832V160.273H87.0866V169.085C87.0866 169.828 86.9048 170.449 86.5412 170.949C86.1776 171.449 85.6738 171.824 85.0298 172.074C84.3897 172.328 83.6529 172.455 82.8196 172.455ZM82.8707 167.057C83.2609 167.057 83.5904 166.96 83.8594 166.767C84.1321 166.57 84.3404 166.29 84.4844 165.926C84.6321 165.559 84.706 165.119 84.706 164.608C84.706 164.097 84.634 163.653 84.4901 163.278C84.3461 162.9 84.1378 162.606 83.8651 162.398C83.5923 162.189 83.2609 162.085 82.8707 162.085C82.473 162.085 82.1378 162.193 81.8651 162.409C81.5923 162.621 81.3859 162.917 81.2457 163.295C81.1056 163.674 81.0355 164.112 81.0355 164.608C81.0355 165.112 81.1056 165.547 81.2457 165.915C81.3897 166.278 81.5961 166.561 81.8651 166.761C82.1378 166.958 82.473 167.057 82.8707 167.057ZM94.6094 165.284V160.273H97.0298V169H94.706V167.415H94.6151C94.4181 167.926 94.0904 168.337 93.6321 168.648C93.1776 168.958 92.6226 169.114 91.9673 169.114C91.384 169.114 90.8707 168.981 90.4276 168.716C89.9844 168.451 89.6378 168.074 89.3878 167.585C89.1416 167.097 89.0166 166.511 89.0128 165.83V160.273H91.4332V165.398C91.437 165.913 91.5753 166.32 91.848 166.619C92.1207 166.919 92.4863 167.068 92.9446 167.068C93.2363 167.068 93.509 167.002 93.7628 166.869C94.0166 166.733 94.2211 166.532 94.3764 166.267C94.5355 166.002 94.6132 165.674 94.6094 165.284ZM101.386 157.364V169H98.9659V157.364H101.386ZM105.814 169.165C105.257 169.165 104.761 169.068 104.325 168.875C103.89 168.678 103.545 168.388 103.291 168.006C103.041 167.619 102.916 167.138 102.916 166.562C102.916 166.078 103.005 165.67 103.183 165.341C103.361 165.011 103.604 164.746 103.911 164.545C104.217 164.345 104.566 164.193 104.956 164.091C105.35 163.989 105.763 163.917 106.195 163.875C106.702 163.822 107.111 163.773 107.422 163.727C107.732 163.678 107.958 163.606 108.098 163.511C108.238 163.417 108.308 163.277 108.308 163.091V163.057C108.308 162.697 108.195 162.419 107.967 162.222C107.744 162.025 107.426 161.926 107.013 161.926C106.577 161.926 106.231 162.023 105.973 162.216C105.715 162.405 105.545 162.644 105.462 162.932L103.223 162.75C103.337 162.22 103.56 161.761 103.893 161.375C104.227 160.985 104.657 160.686 105.183 160.477C105.714 160.265 106.327 160.159 107.024 160.159C107.509 160.159 107.973 160.216 108.416 160.33C108.863 160.443 109.259 160.619 109.604 160.858C109.952 161.097 110.227 161.403 110.428 161.778C110.628 162.15 110.729 162.595 110.729 163.114V169H108.433V167.79H108.365C108.225 168.062 108.037 168.303 107.803 168.511C107.568 168.716 107.286 168.877 106.956 168.994C106.626 169.108 106.246 169.165 105.814 169.165ZM106.507 167.494C106.863 167.494 107.178 167.424 107.45 167.284C107.723 167.14 107.937 166.947 108.092 166.705C108.248 166.462 108.325 166.187 108.325 165.881V164.955C108.25 165.004 108.145 165.049 108.013 165.091C107.884 165.129 107.738 165.165 107.575 165.199C107.412 165.229 107.25 165.258 107.087 165.284C106.924 165.307 106.776 165.328 106.643 165.347C106.359 165.388 106.111 165.455 105.899 165.545C105.687 165.636 105.522 165.759 105.405 165.915C105.287 166.066 105.229 166.256 105.229 166.483C105.229 166.812 105.348 167.064 105.587 167.239C105.829 167.409 106.136 167.494 106.507 167.494ZM112.607 169V160.273H114.953V161.795H115.044C115.203 161.254 115.47 160.845 115.845 160.568C116.22 160.288 116.652 160.148 117.141 160.148C117.262 160.148 117.393 160.155 117.533 160.17C117.673 160.186 117.796 160.206 117.902 160.233V162.381C117.788 162.347 117.631 162.316 117.43 162.29C117.23 162.263 117.046 162.25 116.879 162.25C116.523 162.25 116.205 162.328 115.925 162.483C115.648 162.634 115.429 162.847 115.266 163.119C115.107 163.392 115.027 163.706 115.027 164.062V169H112.607Z" fill="#C9CBD0"/>
<defs>
<filter id="filter0_d_60_1337" x="4.47527" y="0.0478821" width="169.05" height="153.904" filterUnits="userSpaceOnUse" color-interpolation-filters="sRGB">
<feFlood flood-opacity="0" result="BackgroundImageFix"/>
<feColorMatrix in="SourceAlpha" type="matrix" values="0 0 0 0 0 0 0 0 0 0 0 0 0 0 0 0 0 0 127 0" result="hardAlpha"/>
<feOffset dx="2" dy="2"/>
<feGaussianBlur stdDeviation="6"/>
<feComposite in2="hardAlpha" operator="out"/>
<feColorMatrix type="matrix" values="0 0 0 0 0 0 0 0 0 0 0 0 0 0 0 0 0 0 0.08 0"/>
<feBlend mode="normal" in2="BackgroundImageFix" result="effect1_dropShadow_60_1337"/>
<feBlend mode="normal" in="SourceGraphic" in2="effect1_dropShadow_60_1337" result="shape"/>
</filter>
</defs>
</svg>
