<svg width="174" height="174" viewBox="0 0 174 174" fill="none" xmlns="http://www.w3.org/2000/svg">
<g filter="url(#filter0_d_60_1435)">
<path d="M157.381 66.9998C160.239 71.9502 160.239 78.0494 157.381 82.9998L129.119 131.952C126.261 136.902 120.979 139.952 115.262 139.952L58.7377 139.952C53.0214 139.952 47.7394 136.902 44.8813 131.952L16.6189 82.9998C13.7607 78.0494 13.7607 71.9502 16.6189 66.9998L44.8813 18.0479C47.7394 13.0975 53.0214 10.0479 58.7377 10.0479L115.262 10.0479C120.979 10.0479 126.261 13.0975 129.119 18.0479L157.381 66.9998Z" fill="#C9CBD0" fill-opacity="0.02" shape-rendering="crispEdges"/>
<path d="M156.948 67.2498C159.717 72.0455 159.717 77.9541 156.948 82.7498L128.686 131.702C125.917 136.497 120.8 139.452 115.262 139.452L58.7377 139.452C53.2001 139.452 48.0831 136.497 45.3143 131.702L17.0519 82.7498C14.2831 77.9541 14.2831 72.0455 17.0519 67.2498L45.3143 18.2979C48.0831 13.5022 53.2001 10.5479 58.7377 10.5479L115.262 10.5479C120.8 10.5479 125.917 13.5022 128.686 18.2979L156.948 67.2498Z" stroke="white" stroke-opacity="0.06" shape-rendering="crispEdges"/>
</g>
<path d="M76.9756 84.3875L77.0963 84.4463L77.3113 84.55C77.5856 84.6806 77.8625 84.81 78.1419 84.9344L78.3175 85.0125C78.6381 85.1531 78.9606 85.2869 79.2869 85.4156L79.5231 85.5081C79.8244 85.6256 80.1306 85.7394 80.4375 85.8475L80.5525 85.8869C80.8894 86.0044 81.2294 86.1138 81.5725 86.2206L81.8194 86.2938C82.1681 86.3994 82.5125 86.525 82.8725 86.5919C105.719 90.7575 112.354 72.8625 112.354 72.8625C106.781 80.1238 96.8875 82.0394 87.5138 79.9069C87.1588 79.8269 86.8138 79.7156 86.4675 79.6131L86.2069 79.5344C85.8688 79.4306 85.5325 79.3213 85.1994 79.2069L85.0613 79.1569C84.7625 79.0519 84.4669 78.9406 84.1731 78.8275L83.9244 78.73C83.6019 78.6031 83.2819 78.47 82.9656 78.3313L82.7738 78.2463C82.5019 78.1231 82.2325 77.9988 81.965 77.87L81.7306 77.7575C81.5206 77.655 81.3125 77.5456 81.105 77.4388L80.6875 77.22C80.4344 77.0844 80.1856 76.9438 79.9381 76.7994L79.685 76.6581C79.3556 76.4638 79.03 76.2631 78.7081 76.0594L78.445 75.8844C78.2113 75.7338 77.9788 75.5806 77.75 75.4225L77.5263 75.265C77.305 75.1088 77.0863 74.9506 76.8694 74.79L76.5781 74.5694C76.3794 74.4175 76.1813 74.2644 75.9856 74.1069L75.7213 73.8944C75.4725 73.6894 75.2263 73.4838 74.9825 73.2725L74.9019 73.2044C74.6375 72.9744 74.3794 72.7375 74.1244 72.5L73.9056 72.2894C73.7163 72.11 73.5306 71.9288 73.3475 71.7431L73.1288 71.5244C72.8963 71.2863 72.6681 71.045 72.4444 70.8006L72.4106 70.7644C72.1738 70.5056 71.9425 70.2413 71.7163 69.9744L71.5344 69.7581C71.3656 69.555 71.1981 69.3488 71.035 69.1406L70.8519 68.9131C70.655 68.6581 70.4631 68.4038 70.275 68.145C65.0713 61.0463 63.2013 51.2556 67.3606 43.215L63.6738 47.8913C58.9494 54.6806 59.5381 63.5144 63.1463 70.7294L63.4106 71.2425L63.58 71.5675L63.685 71.7544L63.8731 72.0913C63.985 72.2888 64.0994 72.485 64.2169 72.6813L64.4138 73.0056C64.5438 73.2156 64.6769 73.4231 64.8138 73.6306L64.9838 73.8944C65.1719 74.1744 65.3644 74.4544 65.5625 74.7294L65.5794 74.7513L65.6769 74.8831C65.8488 75.12 66.0256 75.3538 66.2044 75.585L66.4031 75.8375C66.5625 76.0381 66.7256 76.2381 66.8906 76.4369L67.0769 76.6588C67.2988 76.9206 67.525 77.1806 67.7563 77.435L67.77 77.4494L67.7963 77.4781C68.0213 77.7244 68.2525 77.9644 68.4863 78.2056L68.7075 78.4288C68.8888 78.6113 69.0725 78.7906 69.2588 78.9694L69.4844 79.1838C69.7325 79.4175 69.9831 79.6469 70.2394 79.8719L70.2519 79.8813L70.3831 79.9938C70.6088 80.1888 70.8388 80.3831 71.07 80.5738L71.3544 80.8C71.5431 80.9513 71.7344 81.1006 71.9269 81.2475L72.2325 81.48C72.445 81.6363 72.6588 81.79 72.8744 81.9406L73.1088 82.1069L73.1731 82.1525C73.3781 82.2938 73.5875 82.4288 73.7969 82.5644L74.0669 82.7444C74.3875 82.9475 74.7138 83.1481 75.0431 83.3419L75.3131 83.4944C75.5556 83.6338 75.7988 83.7706 76.0456 83.9044L76.4506 84.1144L76.9756 84.3875ZM79.2838 61.3906C79.7956 62.1244 80.3625 62.9969 81.0419 63.5869C81.2881 63.8581 81.5456 64.1219 81.8081 64.3825L82.0106 64.5813C82.2663 64.8288 82.5256 65.0719 82.7931 65.3088L82.8256 65.3363L82.8331 65.3444C83.13 65.6044 83.4363 65.8544 83.7475 66.1006L83.9556 66.2631C84.2681 66.5025 84.5863 66.7375 84.9125 66.9619L84.9406 66.9825L85.3769 67.27L85.5844 67.4075C85.8175 67.5563 86.0531 67.7025 86.2938 67.8413L86.3938 67.8994C86.6006 68.0188 86.8106 68.1363 87.0206 68.25L87.2431 68.3669L87.6819 68.5938L87.7481 68.6238C88.0494 68.7719 88.3531 68.9144 88.6631 69.05L88.865 69.1331C89.1125 69.2381 89.3631 69.3413 89.6144 69.4375L89.9356 69.555C90.1644 69.64 90.3931 69.7175 90.6244 69.7944L90.9363 69.8944C91.265 69.9963 91.5894 70.125 91.9319 70.1819C109.571 73.105 113.643 59.5231 113.643 59.5231C109.972 64.81 102.863 67.3319 95.2769 65.3631C94.94 65.2744 94.6075 65.1788 94.2781 65.0744L93.9775 64.9775C93.7431 64.9019 93.51 64.8213 93.2788 64.7369L92.9638 64.6194C92.7106 64.5219 92.4594 64.4213 92.2113 64.3163L92.0088 64.23C91.6975 64.0944 91.3906 63.9519 91.0888 63.8019L90.6269 63.5669L90.3606 63.43C90.1644 63.3238 89.9694 63.2125 89.7769 63.1006L89.6375 63.0213C89.3981 62.8819 89.1631 62.7381 88.93 62.5906L88.7169 62.4475L88.2594 62.145C87.9338 61.9206 87.6175 61.6863 87.3063 61.4481L87.0919 61.2788C83.7713 58.6581 81.1394 55.0744 79.8875 51.0113C78.5763 46.7988 78.8588 42.0688 81.1306 38.2306L78.3394 42.1719C74.9231 47.0875 75.1088 53.6694 77.7738 58.8688C78.22 59.7394 78.7219 60.5856 79.2838 61.3906ZM97.8756 55.3088L98.3138 55.4606L98.5069 55.5219C98.715 55.5869 98.9206 55.6631 99.135 55.7031C108.874 57.585 111.517 50.705 112.22 49.6925C109.906 53.0244 106.017 53.8238 101.245 52.6656C100.868 52.5744 100.454 52.4388 100.09 52.3094C99.6244 52.1431 99.1656 51.9544 98.7194 51.7406C97.8719 51.3331 97.0644 50.84 96.3156 50.2738C92.0456 47.0331 89.3931 40.8538 92.1794 35.82L90.6719 37.8975C88.6581 40.8619 88.46 44.5431 89.8575 47.8156C91.3313 51.2906 94.3513 54.0156 97.8756 55.3088ZM88.4744 95.1844H85.8331C85.6869 95.1844 85.5413 95.3019 85.51 95.445L84.5725 99.7825L83.635 104.12C83.6044 104.263 83.4588 104.381 83.3125 104.381H81.4431C79.5938 104.381 79.8075 103.101 80.1863 101.349L80.1975 101.296L80.2388 101.074L80.2463 101.033L80.3306 100.583L80.4213 100.101L80.5175 99.6106L80.9438 97.5281L81.3706 95.4456C81.4 95.3019 81.3038 95.1838 81.1575 95.1838H78.4469C78.3006 95.1838 78.1556 95.3013 78.1256 95.445L77.5425 98.21L76.96 100.976L76.9588 100.979L76.905 101.237C76.2338 104.301 76.4113 107.224 80.06 107.316L80.1663 107.318H85.8931C86.0394 107.318 86.185 107.201 86.2156 107.058L87.4506 101.252L88.6856 95.4456C88.7163 95.3019 88.6213 95.185 88.4744 95.1844ZM60.1894 95.1538H57.2894C57.1425 95.1538 56.9963 95.2713 56.9638 95.4138L56.6888 96.6275L56.4138 97.8413C56.3819 97.9844 56.475 98.1013 56.6219 98.1013H59.5444C59.6913 98.1013 59.8369 97.9838 59.8681 97.8406L60.1338 96.6275L60.3994 95.4144C60.43 95.2713 60.3363 95.1538 60.1894 95.1538ZM59.3481 98.9313H56.425C56.2788 98.9313 56.1319 99.0488 56.0994 99.1913L55.6888 101.01L55.2788 102.828L55.1644 103.349L54.77 105.206L54.3763 107.063C54.3456 107.206 54.2825 107.437 54.2356 107.576C54.2356 107.576 53.6894 109.201 52.7713 109.182L52.6563 109.179L51.8619 109.165C51.7156 109.163 51.5681 109.278 51.5338 109.419L51.2306 110.694L50.9281 111.968C50.8938 112.11 50.9863 112.228 51.1319 112.23C51.6525 112.236 52.8188 112.249 53.5244 112.249C55.8175 112.249 57.0269 110.979 57.8013 107.323L58.7081 103.126L59.5588 99.1906C59.5894 99.0488 59.4944 98.9313 59.3481 98.9313ZM113.171 97.9475L113.05 97.4469L112.931 96.9344L112.87 96.6756C112.633 95.7525 111.936 95.2206 110.422 95.2206L108.066 95.2181L105.896 95.215H103.454C103.308 95.215 103.163 95.3325 103.132 95.4756L103.024 95.9856L102.896 96.5881L102.861 96.7575L101.761 101.908L100.718 106.796C100.686 106.94 100.676 107.116 100.694 107.188C100.711 107.259 100.993 107.318 101.139 107.318H103.342C103.489 107.318 103.674 107.292 103.754 107.259C103.834 107.227 103.953 106.939 103.982 106.796L104.373 104.859L104.765 102.921L104.766 102.918L104.818 102.66L105.293 100.435L105.713 98.47C105.744 98.3269 105.888 98.21 106.034 98.2094L112.965 98.2063C113.112 98.2075 113.204 98.0906 113.171 97.9475ZM122.093 93.4225L121.559 93.4244H119.341C119.194 93.4244 119.006 93.5238 118.924 93.645L114.019 100.831C113.936 100.953 113.842 100.935 113.809 100.793L113.448 99.2094C113.416 99.0663 113.269 98.9494 113.122 98.9494H109.969C109.822 98.9494 109.735 99.0644 109.775 99.205L111.188 104.156C111.228 104.297 111.231 104.528 111.195 104.671L110.579 107.066C110.543 107.209 110.633 107.324 110.779 107.324H113.896C114.043 107.324 114.193 107.208 114.229 107.066L114.845 104.671C114.881 104.528 114.983 104.316 115.072 104.199L123.036 93.6294C123.124 93.5119 123.076 93.4163 122.93 93.4175L122.093 93.4225ZM97.0394 99.6219V99.6194C97.0213 99.7781 96.8744 99.895 96.7275 99.895H92.7294C92.5906 99.895 92.5206 99.8013 92.5413 99.685L92.545 99.6756L92.5425 99.6769L92.5444 99.6638L92.5625 99.5956C92.9444 98.5806 93.7219 97.9144 95.1838 97.9144C96.83 97.9138 97.1513 98.7175 97.0394 99.6219ZM95.8663 95.0069C90.7344 95.0069 89.5181 98.1219 88.8356 101.266C88.1538 104.471 88.2119 107.467 93.5231 107.467H94.1669L94.3269 107.466H94.3644L95.0019 107.464H95.0131C96.4156 107.459 97.8225 107.448 98.3919 107.444C98.5375 107.441 98.68 107.324 98.71 107.181L98.925 106.131L98.9669 105.926L99.2231 104.673C99.2525 104.529 99.1569 104.411 99.01 104.411H94.2356C92.3363 104.411 91.7725 103.907 91.9806 102.423H99.6125L99.6119 102.424L99.6169 102.423C99.7381 102.421 99.8506 102.338 99.895 102.226L99.9131 102.16L99.9125 102.161C101.046 97.8863 100.721 95.0075 95.8663 95.0069ZM71.61 99.6056L71.5375 99.8613L70.9613 101.904L70.385 103.946C70.3456 104.088 70.1925 104.203 70.0456 104.203H66.9956C64.6819 104.203 64.1181 102.393 64.6819 99.7244C65.245 96.9944 66.3494 95.2975 68.6269 95.1256C71.7394 94.8906 72.3619 97.0794 71.61 99.6056ZM73.7025 104.046C73.7025 104.046 75.1406 100.554 75.4669 98.5375C75.9125 95.8381 74.5606 91.9219 69.3394 91.9219C64.1481 91.9219 61.8931 95.66 61.0331 99.7244C60.1731 103.818 61.3 107.408 66.4619 107.378L70.5344 107.363L74.34 107.349C74.4863 107.348 74.6363 107.232 74.6738 107.091L75.3369 104.562C75.3738 104.419 75.2844 104.303 75.1375 104.302L74.5019 104.298L73.8663 104.294C73.7419 104.294 73.6706 104.213 73.6856 104.106L73.7025 104.046ZM99.4025 101.708C99.4025 101.805 99.3244 101.884 99.2275 101.884C99.1313 101.884 99.0525 101.805 99.0525 101.708C99.0525 101.612 99.1306 101.534 99.2275 101.534C99.3244 101.534 99.4025 101.612 99.4025 101.708Z" fill="#0868AC"/>
<path d="M61.9659 160.273H64.3864V169.432C64.3864 170.106 64.2538 170.652 63.9886 171.068C63.7235 171.485 63.3428 171.79 62.8466 171.983C62.3542 172.176 61.7652 172.273 61.0795 172.273C60.9962 172.273 60.9167 172.271 60.8409 172.267C60.7614 172.267 60.678 172.265 60.5909 172.261V170.369C60.6553 170.373 60.7121 170.375 60.7614 170.375C60.8068 170.379 60.8561 170.381 60.9091 170.381C61.2992 170.381 61.572 170.297 61.7273 170.131C61.8864 169.968 61.9659 169.722 61.9659 169.392V160.273ZM63.1705 159.148C62.8144 159.148 62.5076 159.028 62.25 158.79C61.9924 158.547 61.8636 158.258 61.8636 157.92C61.8636 157.587 61.9924 157.301 62.25 157.062C62.5076 156.82 62.8144 156.699 63.1705 156.699C63.5341 156.699 63.8428 156.82 64.0966 157.062C64.3542 157.301 64.483 157.587 64.483 157.92C64.483 158.258 64.3542 158.547 64.0966 158.79C63.8428 159.028 63.5341 159.148 63.1705 159.148ZM70.7628 164.955H72.8537L73.9048 166.307L74.9389 167.511L76.8878 169.955H74.5923L73.2514 168.307L72.5639 167.33L70.7628 164.955ZM77.0639 163.182C77.0639 164.451 76.8234 165.53 76.3423 166.42C75.8651 167.311 75.2135 167.991 74.3878 168.46C73.5658 168.926 72.6416 169.159 71.6151 169.159C70.581 169.159 69.6529 168.924 68.831 168.455C68.009 167.985 67.3594 167.305 66.8821 166.415C66.4048 165.525 66.1662 164.447 66.1662 163.182C66.1662 161.913 66.4048 160.833 66.8821 159.943C67.3594 159.053 68.009 158.375 68.831 157.909C69.6529 157.439 70.581 157.205 71.6151 157.205C72.6416 157.205 73.5658 157.439 74.3878 157.909C75.2135 158.375 75.8651 159.053 76.3423 159.943C76.8234 160.833 77.0639 161.913 77.0639 163.182ZM74.5696 163.182C74.5696 162.36 74.4465 161.667 74.2003 161.102C73.9579 160.538 73.6151 160.11 73.1719 159.818C72.7287 159.527 72.2098 159.381 71.6151 159.381C71.0204 159.381 70.5014 159.527 70.0582 159.818C69.6151 160.11 69.2704 160.538 69.0241 161.102C68.7817 161.667 68.6605 162.36 68.6605 163.182C68.6605 164.004 68.7817 164.697 69.0241 165.261C69.2704 165.826 69.6151 166.254 70.0582 166.545C70.5014 166.837 71.0204 166.983 71.6151 166.983C72.2098 166.983 72.7287 166.837 73.1719 166.545C73.6151 166.254 73.9579 165.826 74.2003 165.261C74.4465 164.697 74.5696 164.004 74.5696 163.182ZM84.4375 165.284V160.273H86.858V169H84.5341V167.415H84.4432C84.2462 167.926 83.9186 168.337 83.4602 168.648C83.0057 168.958 82.4508 169.114 81.7955 169.114C81.2121 169.114 80.6989 168.981 80.2557 168.716C79.8125 168.451 79.4659 168.074 79.2159 167.585C78.9697 167.097 78.8447 166.511 78.8409 165.83V160.273H81.2614V165.398C81.2652 165.913 81.4034 166.32 81.6761 166.619C81.9489 166.919 82.3144 167.068 82.7727 167.068C83.0644 167.068 83.3371 167.002 83.5909 166.869C83.8447 166.733 84.0492 166.532 84.2045 166.267C84.3636 166.002 84.4413 165.674 84.4375 165.284ZM92.7713 169.17C91.8736 169.17 91.1009 168.989 90.4531 168.625C89.8092 168.258 89.313 167.739 88.9645 167.068C88.616 166.394 88.4418 165.597 88.4418 164.676C88.4418 163.778 88.616 162.991 88.9645 162.312C89.313 161.634 89.8035 161.106 90.4361 160.727C91.0724 160.348 91.8187 160.159 92.6747 160.159C93.2505 160.159 93.7865 160.252 94.2827 160.438C94.7827 160.619 95.2183 160.894 95.5895 161.261C95.9645 161.629 96.2562 162.091 96.4645 162.648C96.6728 163.201 96.777 163.848 96.777 164.591V165.256H89.4077V163.756H94.4986C94.4986 163.407 94.4228 163.098 94.2713 162.83C94.1198 162.561 93.9096 162.35 93.6406 162.199C93.3755 162.044 93.0668 161.966 92.7145 161.966C92.3471 161.966 92.0213 162.051 91.7372 162.222C91.4569 162.388 91.2372 162.614 91.0781 162.898C90.919 163.178 90.8376 163.491 90.8338 163.835V165.261C90.8338 165.693 90.9134 166.066 91.0724 166.381C91.2353 166.695 91.4645 166.938 91.7599 167.108C92.0554 167.278 92.4058 167.364 92.8111 167.364C93.08 167.364 93.3262 167.326 93.5497 167.25C93.7732 167.174 93.9645 167.061 94.1236 166.909C94.2827 166.758 94.4039 166.572 94.4872 166.352L96.7259 166.5C96.6122 167.038 96.3793 167.508 96.027 167.909C95.6785 168.307 95.2277 168.617 94.6747 168.841C94.1255 169.061 93.491 169.17 92.7713 169.17ZM98.3565 169V160.273H100.703V161.795H100.794C100.953 161.254 101.22 160.845 101.595 160.568C101.97 160.288 102.402 160.148 102.891 160.148C103.012 160.148 103.143 160.155 103.283 160.17C103.423 160.186 103.546 160.206 103.652 160.233V162.381C103.538 162.347 103.381 162.316 103.18 162.29C102.98 162.263 102.796 162.25 102.629 162.25C102.273 162.25 101.955 162.328 101.675 162.483C101.398 162.634 101.179 162.847 101.016 163.119C100.857 163.392 100.777 163.706 100.777 164.062V169H98.3565ZM106.663 172.273C106.357 172.273 106.069 172.248 105.8 172.199C105.535 172.153 105.315 172.095 105.141 172.023L105.686 170.216C105.97 170.303 106.226 170.35 106.453 170.358C106.684 170.366 106.883 170.313 107.05 170.199C107.22 170.085 107.358 169.892 107.464 169.619L107.607 169.25L104.476 160.273H107.021L108.828 166.682H108.919L110.743 160.273H113.305L109.913 169.943C109.75 170.413 109.529 170.822 109.249 171.17C108.972 171.523 108.622 171.794 108.197 171.983C107.773 172.176 107.262 172.273 106.663 172.273Z" fill="#C9CBD0"/>
<defs>
<filter id="filter0_d_60_1435" x="4.47528" y="0.0479126" width="169.05" height="153.904" filterUnits="userSpaceOnUse" color-interpolation-filters="sRGB">
<feFlood flood-opacity="0" result="BackgroundImageFix"/>
<feColorMatrix in="SourceAlpha" type="matrix" values="0 0 0 0 0 0 0 0 0 0 0 0 0 0 0 0 0 0 127 0" result="hardAlpha"/>
<feOffset dx="2" dy="2"/>
<feGaussianBlur stdDeviation="6"/>
<feComposite in2="hardAlpha" operator="out"/>
<feColorMatrix type="matrix" values="0 0 0 0 0 0 0 0 0 0 0 0 0 0 0 0 0 0 0.08 0"/>
<feBlend mode="normal" in2="BackgroundImageFix" result="effect1_dropShadow_60_1435"/>
<feBlend mode="normal" in="SourceGraphic" in2="effect1_dropShadow_60_1435" result="shape"/>
</filter>
</defs>
</svg>
