<svg width="174" height="174" viewBox="0 0 174 174" fill="none" xmlns="http://www.w3.org/2000/svg">
<g filter="url(#filter0_d_60_1410)">
<path d="M157.381 66.9998C160.239 71.9502 160.239 78.0494 157.381 82.9998L129.119 131.952C126.261 136.902 120.979 139.952 115.262 139.952L58.7376 139.952C53.0214 139.952 47.7393 136.902 44.8812 131.952L16.6188 82.9998C13.7607 78.0494 13.7607 71.9502 16.6188 66.9998L44.8812 18.0479C47.7393 13.0975 53.0214 10.0479 58.7376 10.0479L115.262 10.0479C120.979 10.0479 126.261 13.0975 129.119 18.0479L157.381 66.9998Z" fill="#C9CBD0" fill-opacity="0.02" shape-rendering="crispEdges"/>
<path d="M156.948 67.2498C159.717 72.0455 159.717 77.9541 156.948 82.7498L128.686 131.702C125.917 136.497 120.8 139.452 115.262 139.452L58.7376 139.452C53.2 139.452 48.083 136.497 45.3142 131.702L17.0518 82.7498C14.283 77.9541 14.283 72.0455 17.0518 67.2498L45.3142 18.2979C48.083 13.5022 53.2 10.5479 58.7376 10.5479L115.262 10.5479C120.8 10.5479 125.917 13.5022 128.686 18.2979L156.948 67.2498Z" stroke="white" stroke-opacity="0.06" shape-rendering="crispEdges"/>
</g>
<path d="M48.25 59.0625H125.75V86.3812H87V90.9375H69.775V86.3812H48.25V59.0625ZM52.5563 81.8312H61.1687V68.1687H65.475V81.8312H69.7812V63.6188H52.5563V81.8312ZM74.0813 63.6188V86.3812H82.6937V81.8312H91.3063V63.6188H74.0813ZM82.6937 68.175H87V77.275H82.6937V68.175ZM95.6125 63.6188V81.8312H104.225V68.1687H108.531V81.8312H112.837V68.1687H117.144V81.8312H121.45V63.6188H95.6125Z" fill="#CB3837"/>
<path d="M79.7443 157.364V169H77.6193L72.5568 161.676H72.4716V169H70.0114V157.364H72.1705L77.1932 164.682H77.2955V157.364H79.7443ZM81.777 169V157.364H86.3679C87.2505 157.364 88.0024 157.532 88.6236 157.869C89.2448 158.203 89.7183 158.667 90.044 159.261C90.3736 159.852 90.5384 160.534 90.5384 161.307C90.5384 162.08 90.3717 162.761 90.0384 163.352C89.705 163.943 89.2221 164.403 88.5895 164.733C87.9607 165.062 87.1993 165.227 86.3054 165.227H83.3793V163.256H85.9077C86.3812 163.256 86.7713 163.174 87.0781 163.011C87.3887 162.845 87.6198 162.616 87.7713 162.324C87.9266 162.028 88.0043 161.689 88.0043 161.307C88.0043 160.92 87.9266 160.583 87.7713 160.295C87.6198 160.004 87.3887 159.778 87.0781 159.619C86.7675 159.456 86.3736 159.375 85.8963 159.375H84.2372V169H81.777ZM92.1364 157.364H95.1705L98.375 165.182H98.5114L101.716 157.364H104.75V169H102.364V161.426H102.267L99.2557 168.943H97.6307L94.6193 161.398H94.5227V169H92.1364V157.364Z" fill="#C9CBD0"/>
<defs>
<filter id="filter0_d_60_1410" x="4.47522" y="0.0478821" width="169.05" height="153.904" filterUnits="userSpaceOnUse" color-interpolation-filters="sRGB">
<feFlood flood-opacity="0" result="BackgroundImageFix"/>
<feColorMatrix in="SourceAlpha" type="matrix" values="0 0 0 0 0 0 0 0 0 0 0 0 0 0 0 0 0 0 127 0" result="hardAlpha"/>
<feOffset dx="2" dy="2"/>
<feGaussianBlur stdDeviation="6"/>
<feComposite in2="hardAlpha" operator="out"/>
<feColorMatrix type="matrix" values="0 0 0 0 0 0 0 0 0 0 0 0 0 0 0 0 0 0 0.08 0"/>
<feBlend mode="normal" in2="BackgroundImageFix" result="effect1_dropShadow_60_1410"/>
<feBlend mode="normal" in="SourceGraphic" in2="effect1_dropShadow_60_1410" result="shape"/>
</filter>
</defs>
</svg>
