<svg width="174" height="174" viewBox="0 0 174 174" fill="none" xmlns="http://www.w3.org/2000/svg">
<g filter="url(#filter0_d_60_1415)">
<path d="M157.381 66.9998C160.239 71.9502 160.239 78.0494 157.381 82.9998L129.119 131.952C126.261 136.902 120.979 139.952 115.262 139.952L58.7377 139.952C53.0214 139.952 47.7394 136.902 44.8813 131.952L16.6189 82.9998C13.7607 78.0494 13.7607 71.9502 16.6189 66.9998L44.8813 18.0479C47.7394 13.0975 53.0214 10.0479 58.7377 10.0479L115.262 10.0479C120.979 10.0479 126.261 13.0975 129.119 18.0479L157.381 66.9998Z" fill="#C9CBD0" fill-opacity="0.02" shape-rendering="crispEdges"/>
<path d="M156.948 67.2498C159.717 72.0455 159.717 77.9541 156.948 82.7498L128.686 131.702C125.917 136.497 120.8 139.452 115.262 139.452L58.7377 139.452C53.2001 139.452 48.0831 136.497 45.3143 131.702L17.0519 82.7498C14.2831 77.9541 14.2831 72.0455 17.0519 67.2498L45.3143 18.2979C48.0831 13.5022 53.2001 10.5479 58.7377 10.5479L115.262 10.5479C120.8 10.5479 125.917 13.5022 128.686 18.2979L156.948 67.2498Z" stroke="white" stroke-opacity="0.06" shape-rendering="crispEdges"/>
</g>
<g clip-path="url(#clip0_60_1415)">
<path d="M47.5 43C47.5 38.5817 51.0817 35 55.5 35H119.5C123.918 35 127.5 38.5817 127.5 43V107C127.5 111.418 123.918 115 119.5 115H55.5C51.0817 115 47.5 111.418 47.5 107V43Z" fill="#F7DF1E"/>
<path d="M68.535 101.854L74.6569 98.1487C75.8381 100.243 76.9125 102.015 79.4897 102.015C81.96 102.015 83.5178 101.048 83.5178 97.2897V71.7278H91.0356V97.3959C91.0356 105.182 86.4712 108.727 79.8119 108.727C73.7978 108.727 70.3069 105.612 68.5347 101.853M95.1191 101.048L101.24 97.504C102.852 100.136 104.946 102.069 108.651 102.069C111.767 102.069 113.753 100.511 113.753 98.3631C113.753 95.7856 111.712 94.8725 108.275 93.3694L106.396 92.5631C100.972 90.2547 97.3744 87.3547 97.3744 81.2328C97.3744 75.594 101.67 71.2978 108.383 71.2978C113.162 71.2978 116.599 72.9628 119.069 77.3125L113.216 81.0719C111.927 78.7628 110.531 77.85 108.383 77.85C106.181 77.85 104.785 79.2462 104.785 81.0719C104.785 83.3272 106.181 84.2406 109.403 85.6369L111.282 86.4422C117.673 89.1812 121.271 91.9734 121.271 98.2559C121.271 105.023 115.954 108.728 108.812 108.728C101.831 108.728 97.3203 105.398 95.1187 101.048" fill="black"/>
</g>
<path d="M51.6705 157.364H54.1023V165.477C54.1023 166.227 53.9337 166.879 53.5966 167.432C53.2633 167.985 52.7992 168.411 52.2045 168.71C51.6098 169.009 50.9186 169.159 50.1307 169.159C49.4299 169.159 48.7936 169.036 48.2216 168.79C47.6534 168.54 47.2027 168.161 46.8693 167.653C46.536 167.142 46.3712 166.5 46.375 165.727H48.8239C48.8314 166.034 48.8939 166.297 49.0114 166.517C49.1326 166.733 49.2973 166.9 49.5057 167.017C49.7178 167.131 49.9678 167.188 50.2557 167.188C50.5587 167.188 50.8144 167.123 51.0227 166.994C51.2348 166.862 51.3958 166.669 51.5057 166.415C51.6155 166.161 51.6705 165.848 51.6705 165.477V157.364ZM58.5795 169.165C58.0227 169.165 57.5265 169.068 57.0909 168.875C56.6553 168.678 56.3106 168.388 56.0568 168.006C55.8068 167.619 55.6818 167.138 55.6818 166.562C55.6818 166.078 55.7708 165.67 55.9489 165.341C56.1269 165.011 56.3693 164.746 56.6761 164.545C56.983 164.345 57.3314 164.193 57.7216 164.091C58.1155 163.989 58.5284 163.917 58.9602 163.875C59.4678 163.822 59.8769 163.773 60.1875 163.727C60.4981 163.678 60.7235 163.606 60.8636 163.511C61.0038 163.417 61.0739 163.277 61.0739 163.091V163.057C61.0739 162.697 60.9602 162.419 60.733 162.222C60.5095 162.025 60.1913 161.926 59.7784 161.926C59.3428 161.926 58.9962 162.023 58.7386 162.216C58.4811 162.405 58.3106 162.644 58.2273 162.932L55.9886 162.75C56.1023 162.22 56.3258 161.761 56.6591 161.375C56.9924 160.985 57.4223 160.686 57.9489 160.477C58.4792 160.265 59.0928 160.159 59.7898 160.159C60.2746 160.159 60.7386 160.216 61.1818 160.33C61.6288 160.443 62.0246 160.619 62.3693 160.858C62.7178 161.097 62.9924 161.403 63.1932 161.778C63.3939 162.15 63.4943 162.595 63.4943 163.114V169H61.1989V167.79H61.1307C60.9905 168.062 60.803 168.303 60.5682 168.511C60.3333 168.716 60.0511 168.877 59.7216 168.994C59.392 169.108 59.0114 169.165 58.5795 169.165ZM59.2727 167.494C59.6288 167.494 59.9432 167.424 60.2159 167.284C60.4886 167.14 60.7027 166.947 60.858 166.705C61.0133 166.462 61.0909 166.187 61.0909 165.881V164.955C61.0152 165.004 60.911 165.049 60.7784 165.091C60.6496 165.129 60.5038 165.165 60.3409 165.199C60.178 165.229 60.0152 165.258 59.8523 165.284C59.6894 165.307 59.5417 165.328 59.4091 165.347C59.125 165.388 58.8769 165.455 58.6648 165.545C58.4527 165.636 58.2879 165.759 58.1705 165.915C58.053 166.066 57.9943 166.256 57.9943 166.483C57.9943 166.812 58.1136 167.064 58.3523 167.239C58.5947 167.409 58.9015 167.494 59.2727 167.494ZM73.196 160.273L70.1449 169H67.4176L64.3665 160.273H66.9233L68.7358 166.517H68.8267L70.6335 160.273H73.196ZM76.6889 169.165C76.1321 169.165 75.6359 169.068 75.2003 168.875C74.7647 168.678 74.42 168.388 74.1662 168.006C73.9162 167.619 73.7912 167.138 73.7912 166.562C73.7912 166.078 73.8802 165.67 74.0582 165.341C74.2363 165.011 74.4787 164.746 74.7855 164.545C75.0923 164.345 75.4408 164.193 75.831 164.091C76.2249 163.989 76.6378 163.917 77.0696 163.875C77.5772 163.822 77.9863 163.773 78.2969 163.727C78.6075 163.678 78.8329 163.606 78.973 163.511C79.1132 163.417 79.1832 163.277 79.1832 163.091V163.057C79.1832 162.697 79.0696 162.419 78.8423 162.222C78.6188 162.025 78.3007 161.926 77.8878 161.926C77.4522 161.926 77.1056 162.023 76.848 162.216C76.5904 162.405 76.42 162.644 76.3366 162.932L74.098 162.75C74.2116 162.22 74.4351 161.761 74.7685 161.375C75.1018 160.985 75.5317 160.686 76.0582 160.477C76.5885 160.265 77.2022 160.159 77.8991 160.159C78.384 160.159 78.848 160.216 79.2912 160.33C79.7382 160.443 80.134 160.619 80.4787 160.858C80.8272 161.097 81.1018 161.403 81.3026 161.778C81.5033 162.15 81.6037 162.595 81.6037 163.114V169H79.3082V167.79H79.2401C79.0999 168.062 78.9124 168.303 78.6776 168.511C78.4427 168.716 78.1605 168.877 77.831 168.994C77.5014 169.108 77.1207 169.165 76.6889 169.165ZM77.3821 167.494C77.7382 167.494 78.0526 167.424 78.3253 167.284C78.598 167.14 78.812 166.947 78.9673 166.705C79.1226 166.462 79.2003 166.187 79.2003 165.881V164.955C79.1245 165.004 79.0204 165.049 78.8878 165.091C78.759 165.129 78.6132 165.165 78.4503 165.199C78.2874 165.229 78.1245 165.258 77.9616 165.284C77.7988 165.307 77.651 165.328 77.5185 165.347C77.2344 165.388 76.9863 165.455 76.7741 165.545C76.562 165.636 76.3973 165.759 76.2798 165.915C76.1624 166.066 76.1037 166.256 76.1037 166.483C76.1037 166.812 76.223 167.064 76.4616 167.239C76.7041 167.409 77.0109 167.494 77.3821 167.494ZM90.7429 162.761L88.527 162.898C88.4891 162.708 88.4077 162.538 88.2827 162.386C88.1577 162.231 87.9929 162.108 87.7884 162.017C87.5876 161.922 87.3471 161.875 87.0668 161.875C86.6918 161.875 86.3755 161.955 86.1179 162.114C85.8603 162.269 85.7315 162.477 85.7315 162.739C85.7315 162.947 85.8149 163.123 85.9815 163.267C86.1482 163.411 86.4342 163.527 86.8395 163.614L88.419 163.932C89.2675 164.106 89.9001 164.386 90.3168 164.773C90.7334 165.159 90.9418 165.667 90.9418 166.295C90.9418 166.867 90.7732 167.369 90.4361 167.801C90.1027 168.233 89.6444 168.57 89.0611 168.812C88.4815 169.051 87.813 169.17 87.0554 169.17C85.9001 169.17 84.9796 168.93 84.294 168.449C83.6122 167.964 83.2126 167.305 83.0952 166.472L85.4759 166.347C85.5478 166.699 85.7221 166.968 85.9986 167.153C86.2751 167.335 86.6293 167.426 87.0611 167.426C87.4853 167.426 87.8262 167.345 88.0838 167.182C88.3452 167.015 88.4777 166.801 88.4815 166.54C88.4777 166.32 88.3849 166.14 88.2031 166C88.0213 165.856 87.741 165.746 87.3622 165.67L85.8509 165.369C84.9986 165.199 84.3641 164.903 83.9474 164.483C83.5346 164.062 83.3281 163.527 83.3281 162.875C83.3281 162.314 83.4796 161.831 83.7827 161.426C84.0895 161.021 84.5194 160.708 85.0724 160.489C85.6293 160.269 86.2808 160.159 87.027 160.159C88.1293 160.159 88.9967 160.392 89.6293 160.858C90.2656 161.324 90.6368 161.958 90.7429 162.761ZM96.4091 169.17C95.5152 169.17 94.7462 168.981 94.1023 168.602C93.4621 168.22 92.9697 167.689 92.625 167.011C92.2841 166.333 92.1136 165.553 92.1136 164.67C92.1136 163.777 92.286 162.992 92.6307 162.318C92.9792 161.64 93.4735 161.112 94.1136 160.733C94.7538 160.35 95.5152 160.159 96.3977 160.159C97.1591 160.159 97.8258 160.297 98.3977 160.574C98.9697 160.85 99.4223 161.239 99.7557 161.739C100.089 162.239 100.273 162.826 100.307 163.5H98.0227C97.9583 163.064 97.7879 162.714 97.5114 162.449C97.2386 162.18 96.8807 162.045 96.4375 162.045C96.0625 162.045 95.7348 162.148 95.4545 162.352C95.178 162.553 94.9621 162.847 94.8068 163.233C94.6515 163.619 94.5739 164.087 94.5739 164.636C94.5739 165.193 94.6496 165.667 94.8011 166.057C94.9564 166.447 95.1742 166.744 95.4545 166.949C95.7348 167.153 96.0625 167.256 96.4375 167.256C96.714 167.256 96.9621 167.199 97.1818 167.085C97.4053 166.972 97.589 166.807 97.733 166.591C97.8807 166.371 97.9773 166.108 98.0227 165.801H100.307C100.269 166.468 100.087 167.055 99.7614 167.562C99.4394 168.066 98.9943 168.46 98.4261 168.744C97.858 169.028 97.1856 169.17 96.4091 169.17ZM101.857 169V160.273H104.203V161.795H104.294C104.453 161.254 104.72 160.845 105.095 160.568C105.47 160.288 105.902 160.148 106.391 160.148C106.512 160.148 106.643 160.155 106.783 160.17C106.923 160.186 107.046 160.206 107.152 160.233V162.381C107.038 162.347 106.881 162.316 106.68 162.29C106.48 162.263 106.296 162.25 106.129 162.25C105.773 162.25 105.455 162.328 105.175 162.483C104.898 162.634 104.679 162.847 104.516 163.119C104.357 163.392 104.277 163.706 104.277 164.062V169H101.857ZM108.403 169V160.273H110.824V169H108.403ZM109.619 159.148C109.259 159.148 108.951 159.028 108.693 158.79C108.439 158.547 108.312 158.258 108.312 157.92C108.312 157.587 108.439 157.301 108.693 157.062C108.951 156.82 109.259 156.699 109.619 156.699C109.979 156.699 110.286 156.82 110.54 157.062C110.797 157.301 110.926 157.587 110.926 157.92C110.926 158.258 110.797 158.547 110.54 158.79C110.286 159.028 109.979 159.148 109.619 159.148ZM112.763 172.273V160.273H115.149V161.739H115.257C115.363 161.504 115.517 161.265 115.717 161.023C115.922 160.777 116.187 160.572 116.513 160.409C116.842 160.242 117.251 160.159 117.74 160.159C118.376 160.159 118.964 160.326 119.501 160.659C120.039 160.989 120.469 161.487 120.791 162.153C121.113 162.816 121.274 163.648 121.274 164.648C121.274 165.621 121.117 166.443 120.803 167.114C120.492 167.78 120.068 168.286 119.53 168.631C118.996 168.972 118.397 169.142 117.734 169.142C117.265 169.142 116.865 169.064 116.536 168.909C116.21 168.754 115.943 168.559 115.734 168.324C115.526 168.085 115.367 167.845 115.257 167.602H115.183V172.273H112.763ZM115.132 164.636C115.132 165.155 115.204 165.608 115.348 165.994C115.492 166.381 115.7 166.682 115.973 166.898C116.246 167.11 116.577 167.216 116.967 167.216C117.361 167.216 117.695 167.108 117.967 166.892C118.24 166.672 118.446 166.369 118.587 165.983C118.731 165.593 118.803 165.144 118.803 164.636C118.803 164.133 118.732 163.689 118.592 163.307C118.452 162.924 118.246 162.625 117.973 162.409C117.7 162.193 117.365 162.085 116.967 162.085C116.573 162.085 116.24 162.189 115.967 162.398C115.698 162.606 115.492 162.902 115.348 163.284C115.204 163.667 115.132 164.117 115.132 164.636ZM127.53 160.273V162.091H122.274V160.273H127.53ZM123.467 158.182H125.888V166.318C125.888 166.542 125.922 166.716 125.99 166.841C126.058 166.962 126.153 167.047 126.274 167.097C126.399 167.146 126.543 167.17 126.706 167.17C126.82 167.17 126.933 167.161 127.047 167.142C127.161 167.119 127.248 167.102 127.308 167.091L127.689 168.892C127.568 168.93 127.397 168.973 127.178 169.023C126.958 169.076 126.691 169.108 126.376 169.119C125.793 169.142 125.282 169.064 124.842 168.886C124.407 168.708 124.068 168.432 123.825 168.057C123.583 167.682 123.464 167.208 123.467 166.636V158.182Z" fill="#C9CBD0"/>
<defs>
<filter id="filter0_d_60_1415" x="4.47527" y="0.0479126" width="169.05" height="153.904" filterUnits="userSpaceOnUse" color-interpolation-filters="sRGB">
<feFlood flood-opacity="0" result="BackgroundImageFix"/>
<feColorMatrix in="SourceAlpha" type="matrix" values="0 0 0 0 0 0 0 0 0 0 0 0 0 0 0 0 0 0 127 0" result="hardAlpha"/>
<feOffset dx="2" dy="2"/>
<feGaussianBlur stdDeviation="6"/>
<feComposite in2="hardAlpha" operator="out"/>
<feColorMatrix type="matrix" values="0 0 0 0 0 0 0 0 0 0 0 0 0 0 0 0 0 0 0.08 0"/>
<feBlend mode="normal" in2="BackgroundImageFix" result="effect1_dropShadow_60_1415"/>
<feBlend mode="normal" in="SourceGraphic" in2="effect1_dropShadow_60_1415" result="shape"/>
</filter>
<clipPath id="clip0_60_1415">
<rect width="80" height="80" fill="white" transform="translate(47.5 35)"/>
</clipPath>
</defs>
</svg>
