<svg width="174" height="174" viewBox="0 0 174 174" fill="none" xmlns="http://www.w3.org/2000/svg">
<g filter="url(#filter0_d_60_1332)">
<path d="M157.381 66.9998C160.239 71.9502 160.239 78.0494 157.381 82.9998L129.119 131.952C126.261 136.902 120.979 139.952 115.262 139.952L58.7377 139.952C53.0214 139.952 47.7394 136.902 44.8813 131.952L16.6189 82.9998C13.7607 78.0494 13.7607 71.9502 16.6189 66.9998L44.8813 18.0479C47.7394 13.0975 53.0214 10.0479 58.7377 10.0479L115.262 10.0479C120.979 10.0479 126.261 13.0975 129.119 18.0479L157.381 66.9998Z" fill="#C9CBD0" fill-opacity="0.02" shape-rendering="crispEdges"/>
<path d="M156.948 67.2498C159.717 72.0455 159.717 77.9541 156.948 82.7498L128.686 131.702C125.917 136.497 120.8 139.452 115.262 139.452L58.7377 139.452C53.2001 139.452 48.0831 136.497 45.3143 131.702L17.0519 82.7498C14.2831 77.9541 14.2831 72.0455 17.0519 67.2498L45.3143 18.2979C48.0831 13.5022 53.2001 10.5479 58.7377 10.5479L115.262 10.5479C120.8 10.5479 125.917 13.5022 128.686 18.2979L156.948 67.2498Z" stroke="white" stroke-opacity="0.06" shape-rendering="crispEdges"/>
</g>
<path d="M53.875 37.5L59.9024 105.029L86.9495 112.5L114.071 105.038L120.105 37.5H53.875ZM107.568 53.4881L107.19 57.8088L107.024 59.7902H75.2965L76.0538 68.2244H106.27L106.067 70.3154L104.12 92.0749L103.976 93.4425L86.9899 98.1107V98.112L86.9694 98.1228L69.9945 93.6509L68.842 80.8756H77.1647L77.7545 87.4536L86.964 89.9122H86.9899V89.5832L96.2403 87.2488L97.2066 76.6585H68.4715L66.4335 53.6954L66.2352 51.3561H107.767L107.568 53.4881Z" fill="#E44D26"/>
<path d="M58.0114 169V157.364H60.4716V162.165H65.4659V157.364H67.9205V169H65.4659V164.193H60.4716V169H58.0114ZM69.5057 159.392V157.364H79.0625V159.392H75.5V169H73.0682V159.392H69.5057ZM80.6364 157.364H83.6705L86.875 165.182H87.0114L90.2159 157.364H93.25V169H90.8636V161.426H90.767L87.7557 168.943H86.1307L83.1193 161.398H83.0227V169H80.6364V157.364ZM95.277 169V157.364H97.7372V166.972H102.726V169H95.277ZM112.24 169.159C111.437 169.159 110.721 169.011 110.092 168.716C109.467 168.42 108.971 168.013 108.604 167.494C108.236 166.975 108.045 166.381 108.03 165.71H110.416C110.443 166.161 110.632 166.527 110.984 166.807C111.337 167.087 111.755 167.227 112.24 167.227C112.626 167.227 112.967 167.142 113.263 166.972C113.562 166.797 113.795 166.557 113.962 166.25C114.132 165.939 114.217 165.583 114.217 165.182C114.217 164.773 114.13 164.413 113.956 164.102C113.786 163.792 113.549 163.549 113.246 163.375C112.943 163.201 112.596 163.112 112.206 163.108C111.865 163.108 111.534 163.178 111.212 163.318C110.893 163.458 110.645 163.65 110.467 163.892L108.28 163.5L108.831 157.364H115.945V159.375H110.859L110.558 162.29H110.626C110.831 162.002 111.14 161.763 111.553 161.574C111.965 161.384 112.428 161.29 112.939 161.29C113.64 161.29 114.265 161.455 114.814 161.784C115.363 162.114 115.797 162.566 116.115 163.142C116.433 163.714 116.59 164.373 116.587 165.119C116.59 165.903 116.409 166.6 116.041 167.21C115.678 167.816 115.168 168.294 114.513 168.642C113.861 168.987 113.104 169.159 112.24 169.159Z" fill="#C9CBD0"/>
<defs>
<filter id="filter0_d_60_1332" x="4.47527" y="0.0478821" width="169.05" height="153.904" filterUnits="userSpaceOnUse" color-interpolation-filters="sRGB">
<feFlood flood-opacity="0" result="BackgroundImageFix"/>
<feColorMatrix in="SourceAlpha" type="matrix" values="0 0 0 0 0 0 0 0 0 0 0 0 0 0 0 0 0 0 127 0" result="hardAlpha"/>
<feOffset dx="2" dy="2"/>
<feGaussianBlur stdDeviation="6"/>
<feComposite in2="hardAlpha" operator="out"/>
<feColorMatrix type="matrix" values="0 0 0 0 0 0 0 0 0 0 0 0 0 0 0 0 0 0 0.08 0"/>
<feBlend mode="normal" in2="BackgroundImageFix" result="effect1_dropShadow_60_1332"/>
<feBlend mode="normal" in="SourceGraphic" in2="effect1_dropShadow_60_1332" result="shape"/>
</filter>
</defs>
</svg>
