<svg width="174" height="174" viewBox="0 0 174 174" fill="none" xmlns="http://www.w3.org/2000/svg">
<g filter="url(#filter0_d_60_1347)">
<path d="M157.381 66.9998C160.239 71.9502 160.239 78.0494 157.381 82.9998L129.119 131.952C126.261 136.902 120.979 139.952 115.262 139.952L58.7377 139.952C53.0214 139.952 47.7394 136.902 44.8813 131.952L16.6189 82.9998C13.7607 78.0494 13.7607 71.9502 16.6189 66.9998L44.8813 18.0479C47.7394 13.0975 53.0214 10.0479 58.7377 10.0479L115.262 10.0479C120.979 10.0479 126.261 13.0975 129.119 18.0479L157.381 66.9998Z" fill="#C9CBD0" fill-opacity="0.02" shape-rendering="crispEdges"/>
<path d="M156.948 67.2498C159.717 72.0455 159.717 77.9541 156.948 82.7498L128.686 131.702C125.917 136.497 120.8 139.452 115.262 139.452L58.7377 139.452C53.2001 139.452 48.0831 136.497 45.3143 131.702L17.0519 82.7498C14.2831 77.9541 14.2831 72.0455 17.0519 67.2498L45.3143 18.2979C48.0831 13.5022 53.2001 10.5479 58.7377 10.5479L115.262 10.5479C120.8 10.5479 125.917 13.5022 128.686 18.2979L156.948 67.2498Z" stroke="white" stroke-opacity="0.06" shape-rendering="crispEdges"/>
</g>
<path d="M82.713 35.8498C84.6881 34.7193 87.2605 34.7142 89.2339 35.8498C99.1615 41.4594 109.092 47.0603 119.018 52.6733C120.885 53.725 122.134 55.8027 122.115 57.9539V91.7037C122.129 93.944 120.757 96.0713 118.787 97.0991C108.892 102.678 99.0021 108.263 89.1088 113.842C87.0929 114.995 84.4688 114.906 82.5159 113.659C79.5493 111.939 76.5777 110.228 73.6109 108.51C73.0047 108.149 72.3212 107.861 71.8932 107.273C72.2716 106.763 72.9482 106.699 73.498 106.477C74.7363 106.083 75.8736 105.451 77.0112 104.838C77.2988 104.641 77.65 104.716 77.9258 104.892C80.4625 106.347 82.9768 107.844 85.5221 109.284C86.0651 109.598 86.6149 109.181 87.079 108.923C96.7891 103.435 106.511 97.9675 116.219 92.4779C116.579 92.3048 116.778 91.923 116.749 91.5289C116.756 80.3956 116.75 69.2603 116.752 58.127C116.793 57.6799 116.535 57.2688 116.13 57.0858C106.27 51.5326 96.414 45.9709 86.555 40.4163C86.3842 40.2989 86.1818 40.2359 85.9746 40.2356C85.7673 40.2353 85.5647 40.2977 85.3936 40.4146C75.5346 45.9709 65.6807 51.5377 55.8217 57.0906C55.4188 57.2739 55.1485 57.6782 55.1964 58.127C55.1981 69.2603 55.1964 80.3956 55.1964 91.5306C55.1793 91.7229 55.2216 91.9158 55.3174 92.0833C55.4133 92.2509 55.5582 92.385 55.7326 92.4677C58.3635 93.9596 60.9978 95.441 63.6305 96.9278C65.1136 97.7261 66.9346 98.2004 68.5686 97.5888C70.0106 97.0716 71.0214 95.6001 70.9939 94.0691C71.0075 83.0007 70.9871 71.9306 71.0041 60.864C70.9681 60.3726 71.4342 59.9667 71.9119 60.0129C73.176 60.0044 74.4418 59.9959 75.7059 60.0163C76.2336 60.0044 76.5967 60.5335 76.5315 61.0285C76.5264 72.167 76.5451 83.3057 76.5229 94.4441C76.5264 97.4126 75.3068 100.643 72.561 102.095C69.1783 103.848 64.9973 103.476 61.6554 101.796C58.7624 100.352 56.0015 98.6475 53.1598 97.1006C51.1851 96.0784 49.8197 93.9426 49.8336 91.704V57.9539C49.8129 55.7582 51.1113 53.6427 53.0364 52.6064C62.9298 47.0231 72.8214 41.4356 82.713 35.8498Z" fill="#8CC84B"/>
<path d="M91.3439 59.2285C95.6588 58.9508 100.278 59.064 104.161 61.1896C107.167 62.8186 108.834 66.2373 108.887 69.5772C108.803 70.0277 108.332 70.2762 107.902 70.2452C106.65 70.2435 105.398 70.2623 104.146 70.2367C103.615 70.2572 103.306 69.7675 103.24 69.298C102.88 67.7 102.008 66.1173 100.504 65.3465C98.1953 64.1905 95.5181 64.2487 93.0004 64.2728C91.1624 64.3704 89.1859 64.5295 87.6288 65.6104C86.4333 66.4291 86.0702 68.0818 86.4969 69.4129C86.8991 70.3687 88.0024 70.677 88.9051 70.9613C94.1051 72.3213 99.6154 72.186 104.716 73.9757C106.828 74.7054 108.894 76.1238 109.617 78.3349C110.562 81.2983 110.148 84.8404 108.039 87.2194C106.329 89.1772 103.839 90.2427 101.356 90.8214C98.0515 91.5582 94.6225 91.5769 91.2671 91.2498C88.1119 90.8901 84.8285 90.0611 82.3927 87.9113C80.3099 86.1028 79.2926 83.285 79.3936 80.5652C79.4177 80.106 79.875 79.7857 80.315 79.8234C81.5757 79.8132 82.8364 79.8098 84.0971 79.8251C84.6007 79.7891 84.974 80.2243 84.9998 80.6989C85.2325 82.2214 85.8047 83.8194 87.1323 84.7221C89.6946 86.3752 92.9096 86.262 95.8435 86.3082C98.2742 86.2004 101.003 86.1678 102.986 84.5613C104.033 83.645 104.343 82.1119 104.06 80.793C103.754 79.6796 102.589 79.1607 101.588 78.8214C96.4552 77.1976 90.8832 77.7868 85.7996 75.9505C83.7357 75.2211 81.74 73.8421 80.9471 71.7218C79.8407 68.721 80.3476 65.0092 82.677 62.7105C84.9482 60.424 88.2268 59.5437 91.3439 59.2285Z" fill="#8CC84B"/>
<path d="M70.7443 157.364V169H68.6193L63.5568 161.676H63.4716V169H61.0114V157.364H63.1705L68.1932 164.682H68.2955V157.364H70.7443ZM76.6747 169.17C75.7921 169.17 75.0289 168.983 74.3849 168.608C73.7448 168.229 73.2505 167.703 72.902 167.028C72.5535 166.35 72.3793 165.564 72.3793 164.67C72.3793 163.769 72.5535 162.981 72.902 162.307C73.2505 161.629 73.7448 161.102 74.3849 160.727C75.0289 160.348 75.7921 160.159 76.6747 160.159C77.5573 160.159 78.3187 160.348 78.9588 160.727C79.6027 161.102 80.099 161.629 80.4474 162.307C80.7959 162.981 80.9702 163.769 80.9702 164.67C80.9702 165.564 80.7959 166.35 80.4474 167.028C80.099 167.703 79.6027 168.229 78.9588 168.608C78.3187 168.983 77.5573 169.17 76.6747 169.17ZM76.6861 167.295C77.0876 167.295 77.4228 167.182 77.6918 166.955C77.9607 166.723 78.1634 166.409 78.2997 166.011C78.4399 165.614 78.5099 165.161 78.5099 164.653C78.5099 164.146 78.4399 163.693 78.2997 163.295C78.1634 162.898 77.9607 162.583 77.6918 162.352C77.4228 162.121 77.0876 162.006 76.6861 162.006C76.2808 162.006 75.9399 162.121 75.6634 162.352C75.3906 162.583 75.1842 162.898 75.044 163.295C74.9077 163.693 74.8395 164.146 74.8395 164.653C74.8395 165.161 74.9077 165.614 75.044 166.011C75.1842 166.409 75.3906 166.723 75.6634 166.955C75.9399 167.182 76.2808 167.295 76.6861 167.295ZM85.7599 169.142C85.0971 169.142 84.4967 168.972 83.9588 168.631C83.4247 168.286 83.0005 167.78 82.6861 167.114C82.3755 166.443 82.2202 165.621 82.2202 164.648C82.2202 163.648 82.3812 162.816 82.7031 162.153C83.0251 161.487 83.4531 160.989 83.9872 160.659C84.5251 160.326 85.1141 160.159 85.7543 160.159C86.2429 160.159 86.6501 160.242 86.9759 160.409C87.3054 160.572 87.5705 160.777 87.7713 161.023C87.9759 161.265 88.1312 161.504 88.2372 161.739H88.3111V157.364H90.7259V169H88.3395V167.602H88.2372C88.1236 167.845 87.9626 168.085 87.7543 168.324C87.5497 168.559 87.2827 168.754 86.9531 168.909C86.6274 169.064 86.2296 169.142 85.7599 169.142ZM86.527 167.216C86.9171 167.216 87.2467 167.11 87.5156 166.898C87.7884 166.682 87.9967 166.381 88.1406 165.994C88.2884 165.608 88.3622 165.155 88.3622 164.636C88.3622 164.117 88.2902 163.667 88.1463 163.284C88.0024 162.902 87.794 162.606 87.5213 162.398C87.2486 162.189 86.9171 162.085 86.527 162.085C86.1293 162.085 85.794 162.193 85.5213 162.409C85.2486 162.625 85.0421 162.924 84.902 163.307C84.7618 163.689 84.6918 164.133 84.6918 164.636C84.6918 165.144 84.7618 165.593 84.902 165.983C85.0459 166.369 85.2524 166.672 85.5213 166.892C85.794 167.108 86.1293 167.216 86.527 167.216ZM96.6932 169.17C95.7955 169.17 95.0227 168.989 94.375 168.625C93.7311 168.258 93.2348 167.739 92.8864 167.068C92.5379 166.394 92.3636 165.597 92.3636 164.676C92.3636 163.778 92.5379 162.991 92.8864 162.312C93.2348 161.634 93.7254 161.106 94.358 160.727C94.9943 160.348 95.7405 160.159 96.5966 160.159C97.1723 160.159 97.7083 160.252 98.2045 160.438C98.7045 160.619 99.1402 160.894 99.5114 161.261C99.8864 161.629 100.178 162.091 100.386 162.648C100.595 163.201 100.699 163.848 100.699 164.591V165.256H93.3295V163.756H98.4205C98.4205 163.407 98.3447 163.098 98.1932 162.83C98.0417 162.561 97.8314 162.35 97.5625 162.199C97.2973 162.044 96.9886 161.966 96.6364 161.966C96.2689 161.966 95.9432 162.051 95.6591 162.222C95.3788 162.388 95.1591 162.614 95 162.898C94.8409 163.178 94.7595 163.491 94.7557 163.835V165.261C94.7557 165.693 94.8352 166.066 94.9943 166.381C95.1572 166.695 95.3864 166.938 95.6818 167.108C95.9773 167.278 96.3277 167.364 96.733 167.364C97.0019 167.364 97.2481 167.326 97.4716 167.25C97.6951 167.174 97.8864 167.061 98.0455 166.909C98.2045 166.758 98.3258 166.572 98.4091 166.352L100.648 166.5C100.534 167.038 100.301 167.508 99.9489 167.909C99.6004 168.307 99.1496 168.617 98.5966 168.841C98.0473 169.061 97.4129 169.17 96.6932 169.17ZM102.278 160.273H104.699V169.432C104.699 170.106 104.566 170.652 104.301 171.068C104.036 171.485 103.655 171.79 103.159 171.983C102.667 172.176 102.078 172.273 101.392 172.273C101.309 172.273 101.229 172.271 101.153 172.267C101.074 172.267 100.991 172.265 100.903 172.261V170.369C100.968 170.373 101.025 170.375 101.074 170.375C101.119 170.379 101.169 170.381 101.222 170.381C101.612 170.381 101.884 170.297 102.04 170.131C102.199 169.968 102.278 169.722 102.278 169.392V160.273ZM103.483 159.148C103.127 159.148 102.82 159.028 102.562 158.79C102.305 158.547 102.176 158.258 102.176 157.92C102.176 157.587 102.305 157.301 102.562 157.062C102.82 156.82 103.127 156.699 103.483 156.699C103.847 156.699 104.155 156.82 104.409 157.062C104.667 157.301 104.795 157.587 104.795 157.92C104.795 158.258 104.667 158.547 104.409 158.79C104.155 159.028 103.847 159.148 103.483 159.148ZM113.899 162.761L111.683 162.898C111.645 162.708 111.564 162.538 111.439 162.386C111.314 162.231 111.149 162.108 110.945 162.017C110.744 161.922 110.503 161.875 110.223 161.875C109.848 161.875 109.532 161.955 109.274 162.114C109.017 162.269 108.888 162.477 108.888 162.739C108.888 162.947 108.971 163.123 109.138 163.267C109.304 163.411 109.59 163.527 109.996 163.614L111.575 163.932C112.424 164.106 113.056 164.386 113.473 164.773C113.89 165.159 114.098 165.667 114.098 166.295C114.098 166.867 113.929 167.369 113.592 167.801C113.259 168.233 112.801 168.57 112.217 168.812C111.638 169.051 110.969 169.17 110.212 169.17C109.056 169.17 108.136 168.93 107.45 168.449C106.768 167.964 106.369 167.305 106.251 166.472L108.632 166.347C108.704 166.699 108.878 166.968 109.155 167.153C109.431 167.335 109.786 167.426 110.217 167.426C110.642 167.426 110.982 167.345 111.24 167.182C111.501 167.015 111.634 166.801 111.638 166.54C111.634 166.32 111.541 166.14 111.359 166C111.178 165.856 110.897 165.746 110.518 165.67L109.007 165.369C108.155 165.199 107.52 164.903 107.104 164.483C106.691 164.062 106.484 163.527 106.484 162.875C106.484 162.314 106.636 161.831 106.939 161.426C107.246 161.021 107.676 160.708 108.229 160.489C108.786 160.269 109.437 160.159 110.183 160.159C111.286 160.159 112.153 160.392 112.786 160.858C113.422 161.324 113.793 161.958 113.899 162.761Z" fill="#C9CBD0"/>
<defs>
<filter id="filter0_d_60_1347" x="4.47528" y="0.0478821" width="169.05" height="153.904" filterUnits="userSpaceOnUse" color-interpolation-filters="sRGB">
<feFlood flood-opacity="0" result="BackgroundImageFix"/>
<feColorMatrix in="SourceAlpha" type="matrix" values="0 0 0 0 0 0 0 0 0 0 0 0 0 0 0 0 0 0 127 0" result="hardAlpha"/>
<feOffset dx="2" dy="2"/>
<feGaussianBlur stdDeviation="6"/>
<feComposite in2="hardAlpha" operator="out"/>
<feColorMatrix type="matrix" values="0 0 0 0 0 0 0 0 0 0 0 0 0 0 0 0 0 0 0.08 0"/>
<feBlend mode="normal" in2="BackgroundImageFix" result="effect1_dropShadow_60_1347"/>
<feBlend mode="normal" in="SourceGraphic" in2="effect1_dropShadow_60_1347" result="shape"/>
</filter>
</defs>
</svg>
