<svg width="174" height="174" viewBox="0 0 174 174" fill="none" xmlns="http://www.w3.org/2000/svg">
<g filter="url(#filter0_d_60_1421)">
<path d="M157.381 66.9998C160.239 71.9502 160.239 78.0494 157.381 82.9998L129.119 131.952C126.261 136.902 120.979 139.952 115.262 139.952L58.7377 139.952C53.0214 139.952 47.7394 136.902 44.8813 131.952L16.6189 82.9998C13.7607 78.0494 13.7607 71.9502 16.6189 66.9998L44.8813 18.0479C47.7394 13.0975 53.0214 10.0479 58.7377 10.0479L115.262 10.0479C120.979 10.0479 126.261 13.0975 129.119 18.0479L157.381 66.9998Z" fill="#C9CBD0" fill-opacity="0.02" shape-rendering="crispEdges"/>
<path d="M156.948 67.2498C159.717 72.0455 159.717 77.9541 156.948 82.7498L128.686 131.702C125.917 136.497 120.8 139.452 115.262 139.452L58.7377 139.452C53.2001 139.452 48.0831 136.497 45.3143 131.702L17.0519 82.7498C14.2831 77.9541 14.2831 72.0455 17.0519 67.2498L45.3143 18.2979C48.0831 13.5022 53.2001 10.5479 58.7377 10.5479L115.262 10.5479C120.8 10.5479 125.917 13.5022 128.686 18.2979L156.948 67.2498Z" stroke="white" stroke-opacity="0.06" shape-rendering="crispEdges"/>
</g>
<g clip-path="url(#clip0_60_1421)">
<mask id="mask0_60_1421" style="mask-type:luminance" maskUnits="userSpaceOnUse" x="47" y="35" width="81" height="80">
<path d="M47.5005 35H127.5V115H47.5005V35Z" fill="white"/>
</mask>
<g mask="url(#mask0_60_1421)">
<path d="M53.1861 74.999C53.1861 88.5821 61.0795 100.319 72.5255 105.882L56.157 61.034C54.1948 65.428 53.1824 70.1868 53.1861 74.999ZM110.666 73.2674C110.666 69.0266 109.142 66.0897 107.836 63.8037C106.096 60.9772 104.467 58.5835 104.467 55.7569C104.467 52.6026 106.858 49.6663 110.228 49.6663C110.38 49.6663 110.525 49.6852 110.673 49.6937C104.568 44.1007 96.4342 40.6858 87.5006 40.6858C75.5127 40.6858 64.9658 46.8365 58.8301 56.1526C59.6352 56.1768 60.3945 56.1931 61.0383 56.1931C64.6276 56.1931 70.1834 55.7576 70.1834 55.7576C72.0332 55.6485 72.2513 58.3654 70.4041 58.5841C70.4041 58.5841 68.5445 58.8029 66.476 58.9113L78.972 96.0798L86.4821 73.558L81.1351 58.9106C79.2873 58.8022 77.5368 58.5835 77.5368 58.5835C75.6877 58.4751 75.9045 55.6479 77.7536 55.7569C77.7536 55.7569 83.4204 56.1924 86.7922 56.1924C90.3808 56.1924 95.9373 55.7569 95.9373 55.7569C97.7883 55.6479 98.0058 58.3648 96.1573 58.5835C96.1573 58.5835 94.2945 58.8022 92.2299 58.9106L104.63 95.7977L108.053 84.3602C109.537 79.614 110.666 76.205 110.666 73.2674Z" fill="#00749A"/>
<path d="M88.1027 78.0006L77.8071 107.917C80.9547 108.845 84.2192 109.316 87.5007 109.316C91.4966 109.316 95.3287 108.624 98.8957 107.37C98.8001 107.221 98.7183 107.062 98.6515 106.898L88.1027 78.0006ZM117.61 58.5358C117.758 59.6288 117.841 60.8028 117.841 62.0643C117.841 65.5464 117.191 69.4608 115.232 74.3552L104.751 104.66C114.952 98.7111 121.814 87.6588 121.814 74.999C121.823 69.2447 120.377 63.5814 117.61 58.5358Z" fill="#00749A"/>
<path d="M87.5009 35C65.4452 35 47.5005 52.9434 47.5005 74.999C47.5005 97.0572 65.4446 115.001 87.5009 115.001C109.556 115.001 127.503 97.0579 127.503 74.999C127.502 52.9434 109.556 35 87.5009 35ZM87.5009 113.167C66.4566 113.167 49.3346 96.0445 49.3346 74.999C49.3346 53.9555 66.456 36.8348 87.5009 36.8348C108.544 36.8348 125.665 53.9555 125.665 74.999C125.665 96.0445 108.544 113.167 87.5009 113.167Z" fill="#00749A"/>
</g>
</g>
<path d="M47.6307 169L44.3011 157.364H46.9886L48.9148 165.449H49.0114L51.1364 157.364H53.4375L55.5568 165.466H55.6591L57.5852 157.364H60.2727L56.9432 169H54.5455L52.3295 161.392H52.2386L50.0284 169H47.6307ZM64.5497 169.17C63.6671 169.17 62.9039 168.983 62.2599 168.608C61.6198 168.229 61.1255 167.703 60.777 167.028C60.4285 166.35 60.2543 165.564 60.2543 164.67C60.2543 163.769 60.4285 162.981 60.777 162.307C61.1255 161.629 61.6198 161.102 62.2599 160.727C62.9039 160.348 63.6671 160.159 64.5497 160.159C65.4323 160.159 66.1937 160.348 66.8338 160.727C67.4777 161.102 67.974 161.629 68.3224 162.307C68.6709 162.981 68.8452 163.769 68.8452 164.67C68.8452 165.564 68.6709 166.35 68.3224 167.028C67.974 167.703 67.4777 168.229 66.8338 168.608C66.1937 168.983 65.4323 169.17 64.5497 169.17ZM64.5611 167.295C64.9626 167.295 65.2978 167.182 65.5668 166.955C65.8357 166.723 66.0384 166.409 66.1747 166.011C66.3149 165.614 66.3849 165.161 66.3849 164.653C66.3849 164.146 66.3149 163.693 66.1747 163.295C66.0384 162.898 65.8357 162.583 65.5668 162.352C65.2978 162.121 64.9626 162.006 64.5611 162.006C64.1558 162.006 63.8149 162.121 63.5384 162.352C63.2656 162.583 63.0592 162.898 62.919 163.295C62.7827 163.693 62.7145 164.146 62.7145 164.653C62.7145 165.161 62.7827 165.614 62.919 166.011C63.0592 166.409 63.2656 166.723 63.5384 166.955C63.8149 167.182 64.1558 167.295 64.5611 167.295ZM70.419 169V160.273H72.7656V161.795H72.8565C73.0156 161.254 73.2827 160.845 73.6577 160.568C74.0327 160.288 74.4645 160.148 74.9531 160.148C75.0743 160.148 75.205 160.155 75.3452 160.17C75.4853 160.186 75.6084 160.206 75.7145 160.233V162.381C75.6009 162.347 75.4437 162.316 75.2429 162.29C75.0421 162.263 74.8584 162.25 74.6918 162.25C74.3357 162.25 74.0175 162.328 73.7372 162.483C73.4607 162.634 73.241 162.847 73.0781 163.119C72.919 163.392 72.8395 163.706 72.8395 164.062V169H70.419ZM79.7756 169.142C79.1127 169.142 78.5123 168.972 77.9744 168.631C77.4403 168.286 77.0161 167.78 76.7017 167.114C76.3911 166.443 76.2358 165.621 76.2358 164.648C76.2358 163.648 76.3968 162.816 76.7188 162.153C77.0407 161.487 77.4688 160.989 78.0028 160.659C78.5407 160.326 79.1297 160.159 79.7699 160.159C80.2585 160.159 80.6657 160.242 80.9915 160.409C81.321 160.572 81.5862 160.777 81.7869 161.023C81.9915 161.265 82.1468 161.504 82.2528 161.739H82.3267V157.364H84.7415V169H82.3551V167.602H82.2528C82.1392 167.845 81.9782 168.085 81.7699 168.324C81.5653 168.559 81.2983 168.754 80.9688 168.909C80.643 169.064 80.2453 169.142 79.7756 169.142ZM80.5426 167.216C80.9328 167.216 81.2623 167.11 81.5312 166.898C81.804 166.682 82.0123 166.381 82.1562 165.994C82.304 165.608 82.3778 165.155 82.3778 164.636C82.3778 164.117 82.3059 163.667 82.1619 163.284C82.018 162.902 81.8097 162.606 81.5369 162.398C81.2642 162.189 80.9328 162.085 80.5426 162.085C80.1449 162.085 79.8097 162.193 79.5369 162.409C79.2642 162.625 79.0578 162.924 78.9176 163.307C78.7775 163.689 78.7074 164.133 78.7074 164.636C78.7074 165.144 78.7775 165.593 78.9176 165.983C79.0616 166.369 79.268 166.672 79.5369 166.892C79.8097 167.108 80.1449 167.216 80.5426 167.216ZM86.7315 172.273V160.273H89.1179V161.739H89.2259C89.3319 161.504 89.4853 161.265 89.6861 161.023C89.8906 160.777 90.1558 160.572 90.4815 160.409C90.8111 160.242 91.2202 160.159 91.7088 160.159C92.3452 160.159 92.9323 160.326 93.4702 160.659C94.008 160.989 94.438 161.487 94.7599 162.153C95.0819 162.816 95.2429 163.648 95.2429 164.648C95.2429 165.621 95.0857 166.443 94.7713 167.114C94.4607 167.78 94.0365 168.286 93.4986 168.631C92.9645 168.972 92.366 169.142 91.7031 169.142C91.2334 169.142 90.8338 169.064 90.5043 168.909C90.1785 168.754 89.9115 168.559 89.7031 168.324C89.4948 168.085 89.3357 167.845 89.2259 167.602H89.152V172.273H86.7315ZM89.1009 164.636C89.1009 165.155 89.1728 165.608 89.3168 165.994C89.4607 166.381 89.669 166.682 89.9418 166.898C90.2145 167.11 90.5459 167.216 90.9361 167.216C91.33 167.216 91.6634 167.108 91.9361 166.892C92.2088 166.672 92.4152 166.369 92.5554 165.983C92.6993 165.593 92.7713 165.144 92.7713 164.636C92.7713 164.133 92.7012 163.689 92.5611 163.307C92.4209 162.924 92.2145 162.625 91.9418 162.409C91.669 162.193 91.3338 162.085 90.9361 162.085C90.5421 162.085 90.2088 162.189 89.9361 162.398C89.6671 162.606 89.4607 162.902 89.3168 163.284C89.1728 163.667 89.1009 164.117 89.1009 164.636ZM96.8565 169V160.273H99.2031V161.795H99.294C99.4531 161.254 99.7202 160.845 100.095 160.568C100.47 160.288 100.902 160.148 101.391 160.148C101.512 160.148 101.643 160.155 101.783 160.17C101.923 160.186 102.046 160.206 102.152 160.233V162.381C102.038 162.347 101.881 162.316 101.68 162.29C101.48 162.263 101.296 162.25 101.129 162.25C100.773 162.25 100.455 162.328 100.175 162.483C99.8982 162.634 99.6785 162.847 99.5156 163.119C99.3565 163.392 99.277 163.706 99.277 164.062V169H96.8565ZM106.974 169.17C106.077 169.17 105.304 168.989 104.656 168.625C104.012 168.258 103.516 167.739 103.168 167.068C102.819 166.394 102.645 165.597 102.645 164.676C102.645 163.778 102.819 162.991 103.168 162.312C103.516 161.634 104.007 161.106 104.639 160.727C105.276 160.348 106.022 160.159 106.878 160.159C107.454 160.159 107.99 160.252 108.486 160.438C108.986 160.619 109.421 160.894 109.793 161.261C110.168 161.629 110.459 162.091 110.668 162.648C110.876 163.201 110.98 163.848 110.98 164.591V165.256H103.611V163.756H108.702C108.702 163.407 108.626 163.098 108.474 162.83C108.323 162.561 108.113 162.35 107.844 162.199C107.579 162.044 107.27 161.966 106.918 161.966C106.55 161.966 106.224 162.051 105.94 162.222C105.66 162.388 105.44 162.614 105.281 162.898C105.122 163.178 105.041 163.491 105.037 163.835V165.261C105.037 165.693 105.116 166.066 105.276 166.381C105.438 166.695 105.668 166.938 105.963 167.108C106.259 167.278 106.609 167.364 107.014 167.364C107.283 167.364 107.529 167.326 107.753 167.25C107.976 167.174 108.168 167.061 108.327 166.909C108.486 166.758 108.607 166.572 108.69 166.352L110.929 166.5C110.815 167.038 110.582 167.508 110.23 167.909C109.882 168.307 109.431 168.617 108.878 168.841C108.329 169.061 107.694 169.17 106.974 169.17ZM119.821 162.761L117.605 162.898C117.567 162.708 117.486 162.538 117.361 162.386C117.236 162.231 117.071 162.108 116.866 162.017C116.666 161.922 116.425 161.875 116.145 161.875C115.77 161.875 115.454 161.955 115.196 162.114C114.938 162.269 114.81 162.477 114.81 162.739C114.81 162.947 114.893 163.123 115.06 163.267C115.226 163.411 115.512 163.527 115.918 163.614L117.497 163.932C118.346 164.106 118.978 164.386 119.395 164.773C119.812 165.159 120.02 165.667 120.02 166.295C120.02 166.867 119.851 167.369 119.514 167.801C119.181 168.233 118.723 168.57 118.139 168.812C117.56 169.051 116.891 169.17 116.134 169.17C114.978 169.17 114.058 168.93 113.372 168.449C112.69 167.964 112.291 167.305 112.173 166.472L114.554 166.347C114.626 166.699 114.8 166.968 115.077 167.153C115.353 167.335 115.707 167.426 116.139 167.426C116.563 167.426 116.904 167.345 117.162 167.182C117.423 167.015 117.556 166.801 117.56 166.54C117.556 166.32 117.463 166.14 117.281 166C117.099 165.856 116.819 165.746 116.44 165.67L114.929 165.369C114.077 165.199 113.442 164.903 113.026 164.483C112.613 164.062 112.406 163.527 112.406 162.875C112.406 162.314 112.558 161.831 112.861 161.426C113.168 161.021 113.598 160.708 114.151 160.489C114.707 160.269 115.359 160.159 116.105 160.159C117.207 160.159 118.075 160.392 118.707 160.858C119.344 161.324 119.715 161.958 119.821 162.761ZM128.805 162.761L126.589 162.898C126.552 162.708 126.47 162.538 126.345 162.386C126.22 162.231 126.055 162.108 125.851 162.017C125.65 161.922 125.41 161.875 125.129 161.875C124.754 161.875 124.438 161.955 124.18 162.114C123.923 162.269 123.794 162.477 123.794 162.739C123.794 162.947 123.877 163.123 124.044 163.267C124.211 163.411 124.497 163.527 124.902 163.614L126.482 163.932C127.33 164.106 127.963 164.386 128.379 164.773C128.796 165.159 129.004 165.667 129.004 166.295C129.004 166.867 128.836 167.369 128.499 167.801C128.165 168.233 127.707 168.57 127.124 168.812C126.544 169.051 125.875 169.17 125.118 169.17C123.963 169.17 123.042 168.93 122.357 168.449C121.675 167.964 121.275 167.305 121.158 166.472L123.538 166.347C123.61 166.699 123.785 166.968 124.061 167.153C124.338 167.335 124.692 167.426 125.124 167.426C125.548 167.426 125.889 167.345 126.146 167.182C126.408 167.015 126.54 166.801 126.544 166.54C126.54 166.32 126.447 166.14 126.266 166C126.084 165.856 125.804 165.746 125.425 165.67L123.913 165.369C123.061 165.199 122.427 164.903 122.01 164.483C121.597 164.062 121.391 163.527 121.391 162.875C121.391 162.314 121.542 161.831 121.845 161.426C122.152 161.021 122.582 160.708 123.135 160.489C123.692 160.269 124.343 160.159 125.089 160.159C126.192 160.159 127.059 160.392 127.692 160.858C128.328 161.324 128.699 161.958 128.805 162.761Z" fill="#C9CBD0"/>
<defs>
<filter id="filter0_d_60_1421" x="4.47528" y="0.0479126" width="169.05" height="153.904" filterUnits="userSpaceOnUse" color-interpolation-filters="sRGB">
<feFlood flood-opacity="0" result="BackgroundImageFix"/>
<feColorMatrix in="SourceAlpha" type="matrix" values="0 0 0 0 0 0 0 0 0 0 0 0 0 0 0 0 0 0 127 0" result="hardAlpha"/>
<feOffset dx="2" dy="2"/>
<feGaussianBlur stdDeviation="6"/>
<feComposite in2="hardAlpha" operator="out"/>
<feColorMatrix type="matrix" values="0 0 0 0 0 0 0 0 0 0 0 0 0 0 0 0 0 0 0.08 0"/>
<feBlend mode="normal" in2="BackgroundImageFix" result="effect1_dropShadow_60_1421"/>
<feBlend mode="normal" in="SourceGraphic" in2="effect1_dropShadow_60_1421" result="shape"/>
</filter>
<clipPath id="clip0_60_1421">
<rect width="80" height="80" fill="white" transform="translate(47.5 35)"/>
</clipPath>
</defs>
</svg>
