<svg width="174" height="174" viewBox="0 0 174 174" fill="none" xmlns="http://www.w3.org/2000/svg">
<g filter="url(#filter0_d_60_1405)">
<path d="M157.381 66.9998C160.239 71.9502 160.239 78.0494 157.381 82.9998L129.119 131.952C126.261 136.902 120.979 139.952 115.262 139.952L58.7376 139.952C53.0214 139.952 47.7393 136.902 44.8812 131.952L16.6188 82.9998C13.7607 78.0494 13.7607 71.9502 16.6188 66.9998L44.8812 18.0479C47.7393 13.0975 53.0214 10.0479 58.7376 10.0479L115.262 10.0479C120.979 10.0479 126.261 13.0975 129.119 18.0479L157.381 66.9998Z" fill="#C9CBD0" fill-opacity="0.02" shape-rendering="crispEdges"/>
<path d="M156.948 67.2498C159.717 72.0455 159.717 77.9541 156.948 82.7498L128.686 131.702C125.917 136.497 120.8 139.452 115.262 139.452L58.7376 139.452C53.2 139.452 48.083 136.497 45.3142 131.702L17.0518 82.7498C14.283 77.9541 14.283 72.0455 17.0518 67.2498L45.3142 18.2979C48.083 13.5022 53.2 10.5479 58.7376 10.5479L115.262 10.5479C120.8 10.5479 125.917 13.5022 128.686 18.2979L156.948 67.2498Z" stroke="white" stroke-opacity="0.06" shape-rendering="crispEdges"/>
</g>
<path d="M118.25 37.5H55.75C52.2969 37.5 49.5 40.3 49.5 43.75V106.25C49.5 109.7 52.2969 112.5 55.75 112.5H118.25C121.7 112.5 124.5 109.7 124.5 106.25V43.75C124.5 40.3 121.7 37.5 118.25 37.5ZM105.163 90.1656V90.1719C104.541 91.6781 103.547 93.0031 102.278 94.0281C100.966 95.0906 99.3031 95.9656 97.2594 96.5906C95.2156 97.225 92.7875 97.5438 89.9688 97.5438H69.8688V53.7938H91.1281C95.0594 53.7938 98.2094 54.6781 100.562 56.4813C102.938 58.2938 104.122 60.9937 104.122 64.6375C104.122 66.8406 103.581 68.7313 102.5 70.2938C101.425 71.8469 99.875 73.0625 97.875 73.9062V74.05C100.544 74.6125 102.609 75.8812 103.966 77.85C105.328 79.8187 106.022 82.3031 106.022 85.3094C106.022 86.9906 105.697 88.5906 105.084 90.0844L105.163 90.1656Z" fill="#543B79"/>
<path d="M96.4906 79.3906C95.2094 78.2188 93.4094 77.6469 91.0812 77.6469H77.5781V91.2969H91.1219C93.4313 91.2969 95.2469 90.6969 96.5281 89.4844C97.8094 88.2812 98.4656 86.5656 98.4656 84.3594C98.4438 82.2031 97.8094 80.5344 96.5281 79.3906H96.4906ZM94.6 70.5687H94.6156C95.8531 69.5187 96.4594 68.0156 96.4594 66.0562C96.4594 63.8562 95.9094 62.2937 94.8 61.4C93.7 60.5094 92.1125 60.0469 90.025 60.0469H77.525V72.1187H90.025C91.85 72.1187 93.4031 71.5875 94.6 70.5687Z" fill="#543B79"/>
<path d="M87 53.7938H69.8688V97.5438L87 97.5437V91.2969L77.5781 91.2969V77.6469H87V72.1187H77.5281V60.0469H87V53.7938Z" fill="#DEDEDE"/>
<path d="M87 37.5H55.75C52.2969 37.5 49.5 40.3 49.5 43.75V106.25C49.5 109.7 52.2969 112.5 55.75 112.5H87V97.5437L69.8688 97.5438V53.7938H87V37.5Z" fill="#493369"/>
<path d="M87 77.6469H77.5781V91.2969L87 91.2969V77.6469Z" fill="#493369"/>
<path d="M87 60.0469H77.5281V72.1187H87V60.0469Z" fill="#493369"/>
<path d="M49.0114 169V157.364H53.6705C54.5265 157.364 55.2405 157.491 55.8125 157.744C56.3845 157.998 56.8144 158.35 57.1023 158.801C57.3902 159.248 57.5341 159.763 57.5341 160.347C57.5341 160.801 57.4432 161.201 57.2614 161.545C57.0795 161.886 56.8295 162.167 56.5114 162.386C56.197 162.602 55.8371 162.756 55.4318 162.847V162.96C55.875 162.979 56.2898 163.104 56.6761 163.335C57.0663 163.566 57.3826 163.89 57.625 164.307C57.8674 164.72 57.9886 165.212 57.9886 165.784C57.9886 166.402 57.8352 166.953 57.5284 167.438C57.2254 167.919 56.7765 168.299 56.1818 168.58C55.5871 168.86 54.8542 169 53.983 169H49.0114ZM51.4716 166.989H53.4773C54.1629 166.989 54.6629 166.858 54.9773 166.597C55.2917 166.331 55.4489 165.979 55.4489 165.54C55.4489 165.218 55.3712 164.934 55.2159 164.688C55.0606 164.441 54.839 164.248 54.5511 164.108C54.267 163.968 53.928 163.898 53.5341 163.898H51.4716V166.989ZM51.4716 162.233H53.2955C53.6326 162.233 53.9318 162.174 54.1932 162.057C54.4583 161.936 54.6667 161.765 54.8182 161.545C54.9735 161.326 55.0511 161.062 55.0511 160.756C55.0511 160.335 54.9015 159.996 54.6023 159.739C54.3068 159.481 53.8864 159.352 53.3409 159.352H51.4716V162.233ZM63.4872 169.17C62.6046 169.17 61.8414 168.983 61.1974 168.608C60.5573 168.229 60.063 167.703 59.7145 167.028C59.366 166.35 59.1918 165.564 59.1918 164.67C59.1918 163.769 59.366 162.981 59.7145 162.307C60.063 161.629 60.5573 161.102 61.1974 160.727C61.8414 160.348 62.6046 160.159 63.4872 160.159C64.3698 160.159 65.1312 160.348 65.7713 160.727C66.4152 161.102 66.9115 161.629 67.2599 162.307C67.6084 162.981 67.7827 163.769 67.7827 164.67C67.7827 165.564 67.6084 166.35 67.2599 167.028C66.9115 167.703 66.4152 168.229 65.7713 168.608C65.1312 168.983 64.3698 169.17 63.4872 169.17ZM63.4986 167.295C63.9001 167.295 64.2353 167.182 64.5043 166.955C64.7732 166.723 64.9759 166.409 65.1122 166.011C65.2524 165.614 65.3224 165.161 65.3224 164.653C65.3224 164.146 65.2524 163.693 65.1122 163.295C64.9759 162.898 64.7732 162.583 64.5043 162.352C64.2353 162.121 63.9001 162.006 63.4986 162.006C63.0933 162.006 62.7524 162.121 62.4759 162.352C62.2031 162.583 61.9967 162.898 61.8565 163.295C61.7202 163.693 61.652 164.146 61.652 164.653C61.652 165.161 61.7202 165.614 61.8565 166.011C61.9967 166.409 62.2031 166.723 62.4759 166.955C62.7524 167.182 63.0933 167.295 63.4986 167.295ZM73.2997 169.17C72.4171 169.17 71.6539 168.983 71.0099 168.608C70.3698 168.229 69.8755 167.703 69.527 167.028C69.1785 166.35 69.0043 165.564 69.0043 164.67C69.0043 163.769 69.1785 162.981 69.527 162.307C69.8755 161.629 70.3698 161.102 71.0099 160.727C71.6539 160.348 72.4171 160.159 73.2997 160.159C74.1823 160.159 74.9437 160.348 75.5838 160.727C76.2277 161.102 76.724 161.629 77.0724 162.307C77.4209 162.981 77.5952 163.769 77.5952 164.67C77.5952 165.564 77.4209 166.35 77.0724 167.028C76.724 167.703 76.2277 168.229 75.5838 168.608C74.9437 168.983 74.1823 169.17 73.2997 169.17ZM73.3111 167.295C73.7126 167.295 74.0478 167.182 74.3168 166.955C74.5857 166.723 74.7884 166.409 74.9247 166.011C75.0649 165.614 75.1349 165.161 75.1349 164.653C75.1349 164.146 75.0649 163.693 74.9247 163.295C74.7884 162.898 74.5857 162.583 74.3168 162.352C74.0478 162.121 73.7126 162.006 73.3111 162.006C72.9058 162.006 72.5649 162.121 72.2884 162.352C72.0156 162.583 71.8092 162.898 71.669 163.295C71.5327 163.693 71.4645 164.146 71.4645 164.653C71.4645 165.161 71.5327 165.614 71.669 166.011C71.8092 166.409 72.0156 166.723 72.2884 166.955C72.5649 167.182 72.9058 167.295 73.3111 167.295ZM83.8111 160.273V162.091H78.5554V160.273H83.8111ZM79.7486 158.182H82.169V166.318C82.169 166.542 82.2031 166.716 82.2713 166.841C82.3395 166.962 82.4342 167.047 82.5554 167.097C82.6804 167.146 82.8243 167.17 82.9872 167.17C83.1009 167.17 83.2145 167.161 83.3281 167.142C83.4418 167.119 83.5289 167.102 83.5895 167.091L83.9702 168.892C83.849 168.93 83.6785 168.973 83.4588 169.023C83.2391 169.076 82.9721 169.108 82.6577 169.119C82.0743 169.142 81.563 169.064 81.1236 168.886C80.688 168.708 80.349 168.432 80.1065 168.057C79.8641 167.682 79.7448 167.208 79.7486 166.636V158.182ZM92.5398 162.761L90.3239 162.898C90.286 162.708 90.2045 162.538 90.0795 162.386C89.9545 162.231 89.7898 162.108 89.5852 162.017C89.3845 161.922 89.1439 161.875 88.8636 161.875C88.4886 161.875 88.1723 161.955 87.9148 162.114C87.6572 162.269 87.5284 162.477 87.5284 162.739C87.5284 162.947 87.6117 163.123 87.7784 163.267C87.9451 163.411 88.2311 163.527 88.6364 163.614L90.2159 163.932C91.0644 164.106 91.697 164.386 92.1136 164.773C92.5303 165.159 92.7386 165.667 92.7386 166.295C92.7386 166.867 92.5701 167.369 92.233 167.801C91.8996 168.233 91.4413 168.57 90.858 168.812C90.2784 169.051 89.6098 169.17 88.8523 169.17C87.697 169.17 86.7765 168.93 86.0909 168.449C85.4091 167.964 85.0095 167.305 84.892 166.472L87.2727 166.347C87.3447 166.699 87.5189 166.968 87.7955 167.153C88.072 167.335 88.4261 167.426 88.858 167.426C89.2822 167.426 89.6231 167.345 89.8807 167.182C90.142 167.015 90.2746 166.801 90.2784 166.54C90.2746 166.32 90.1818 166.14 90 166C89.8182 165.856 89.5379 165.746 89.1591 165.67L87.6477 165.369C86.7955 165.199 86.161 164.903 85.7443 164.483C85.3314 164.062 85.125 163.527 85.125 162.875C85.125 162.314 85.2765 161.831 85.5795 161.426C85.8864 161.021 86.3163 160.708 86.8693 160.489C87.4261 160.269 88.0777 160.159 88.8239 160.159C89.9261 160.159 90.7936 160.392 91.4261 160.858C92.0625 161.324 92.4337 161.958 92.5398 162.761ZM98.9048 160.273V162.091H93.6491V160.273H98.9048ZM94.8423 158.182H97.2628V166.318C97.2628 166.542 97.2969 166.716 97.3651 166.841C97.4332 166.962 97.5279 167.047 97.6491 167.097C97.7741 167.146 97.9181 167.17 98.081 167.17C98.1946 167.17 98.3082 167.161 98.4219 167.142C98.5355 167.119 98.6226 167.102 98.6832 167.091L99.0639 168.892C98.9427 168.93 98.7723 168.973 98.5526 169.023C98.3329 169.076 98.0658 169.108 97.7514 169.119C97.1681 169.142 96.6567 169.064 96.2173 168.886C95.7817 168.708 95.4427 168.432 95.2003 168.057C94.9579 167.682 94.8385 167.208 94.8423 166.636V158.182ZM100.482 169V160.273H102.828V161.795H102.919C103.078 161.254 103.345 160.845 103.72 160.568C104.095 160.288 104.527 160.148 105.016 160.148C105.137 160.148 105.268 160.155 105.408 160.17C105.548 160.186 105.671 160.206 105.777 160.233V162.381C105.663 162.347 105.506 162.316 105.305 162.29C105.105 162.263 104.921 162.25 104.754 162.25C104.398 162.25 104.08 162.328 103.8 162.483C103.523 162.634 103.304 162.847 103.141 163.119C102.982 163.392 102.902 163.706 102.902 164.062V169H100.482ZM109.267 169.165C108.71 169.165 108.214 169.068 107.778 168.875C107.343 168.678 106.998 168.388 106.744 168.006C106.494 167.619 106.369 167.138 106.369 166.562C106.369 166.078 106.458 165.67 106.636 165.341C106.814 165.011 107.057 164.746 107.364 164.545C107.67 164.345 108.019 164.193 108.409 164.091C108.803 163.989 109.216 163.917 109.648 163.875C110.155 163.822 110.564 163.773 110.875 163.727C111.186 163.678 111.411 163.606 111.551 163.511C111.691 163.417 111.761 163.277 111.761 163.091V163.057C111.761 162.697 111.648 162.419 111.42 162.222C111.197 162.025 110.879 161.926 110.466 161.926C110.03 161.926 109.684 162.023 109.426 162.216C109.169 162.405 108.998 162.644 108.915 162.932L106.676 162.75C106.79 162.22 107.013 161.761 107.347 161.375C107.68 160.985 108.11 160.686 108.636 160.477C109.167 160.265 109.78 160.159 110.477 160.159C110.962 160.159 111.426 160.216 111.869 160.33C112.316 160.443 112.712 160.619 113.057 160.858C113.405 161.097 113.68 161.403 113.881 161.778C114.081 162.15 114.182 162.595 114.182 163.114V169H111.886V167.79H111.818C111.678 168.062 111.491 168.303 111.256 168.511C111.021 168.716 110.739 168.877 110.409 168.994C110.08 169.108 109.699 169.165 109.267 169.165ZM109.96 167.494C110.316 167.494 110.631 167.424 110.903 167.284C111.176 167.14 111.39 166.947 111.545 166.705C111.701 166.462 111.778 166.187 111.778 165.881V164.955C111.703 165.004 111.598 165.049 111.466 165.091C111.337 165.129 111.191 165.165 111.028 165.199C110.866 165.229 110.703 165.258 110.54 165.284C110.377 165.307 110.229 165.328 110.097 165.347C109.813 165.388 109.564 165.455 109.352 165.545C109.14 165.636 108.975 165.759 108.858 165.915C108.741 166.066 108.682 166.256 108.682 166.483C108.682 166.812 108.801 167.064 109.04 167.239C109.282 167.409 109.589 167.494 109.96 167.494ZM116.06 172.273V160.273H118.446V161.739H118.554C118.66 161.504 118.813 161.265 119.014 161.023C119.219 160.777 119.484 160.572 119.81 160.409C120.139 160.242 120.548 160.159 121.037 160.159C121.673 160.159 122.26 160.326 122.798 160.659C123.336 160.989 123.766 161.487 124.088 162.153C124.41 162.816 124.571 163.648 124.571 164.648C124.571 165.621 124.414 166.443 124.099 167.114C123.789 167.78 123.365 168.286 122.827 168.631C122.293 168.972 121.694 169.142 121.031 169.142C120.562 169.142 120.162 169.064 119.832 168.909C119.507 168.754 119.24 168.559 119.031 168.324C118.823 168.085 118.664 167.845 118.554 167.602H118.48V172.273H116.06ZM118.429 164.636C118.429 165.155 118.501 165.608 118.645 165.994C118.789 166.381 118.997 166.682 119.27 166.898C119.543 167.11 119.874 167.216 120.264 167.216C120.658 167.216 120.991 167.108 121.264 166.892C121.537 166.672 121.743 166.369 121.884 165.983C122.027 165.593 122.099 165.144 122.099 164.636C122.099 164.133 122.029 163.689 121.889 163.307C121.749 162.924 121.543 162.625 121.27 162.409C120.997 162.193 120.662 162.085 120.264 162.085C119.87 162.085 119.537 162.189 119.264 162.398C118.995 162.606 118.789 162.902 118.645 163.284C118.501 163.667 118.429 164.117 118.429 164.636Z" fill="#C9CBD0"/>
<defs>
<filter id="filter0_d_60_1405" x="4.47522" y="0.0478821" width="169.05" height="153.904" filterUnits="userSpaceOnUse" color-interpolation-filters="sRGB">
<feFlood flood-opacity="0" result="BackgroundImageFix"/>
<feColorMatrix in="SourceAlpha" type="matrix" values="0 0 0 0 0 0 0 0 0 0 0 0 0 0 0 0 0 0 127 0" result="hardAlpha"/>
<feOffset dx="2" dy="2"/>
<feGaussianBlur stdDeviation="6"/>
<feComposite in2="hardAlpha" operator="out"/>
<feColorMatrix type="matrix" values="0 0 0 0 0 0 0 0 0 0 0 0 0 0 0 0 0 0 0.08 0"/>
<feBlend mode="normal" in2="BackgroundImageFix" result="effect1_dropShadow_60_1405"/>
<feBlend mode="normal" in="SourceGraphic" in2="effect1_dropShadow_60_1405" result="shape"/>
</filter>
</defs>
</svg>
