<svg width="174" height="174" viewBox="0 0 174 174" fill="none" xmlns="http://www.w3.org/2000/svg">
<g filter="url(#filter0_d_60_1342)">
<path d="M157.381 66.9998C160.239 71.9502 160.239 78.0494 157.381 82.9998L129.119 131.952C126.261 136.902 120.979 139.952 115.262 139.952L58.7377 139.952C53.0214 139.952 47.7394 136.902 44.8813 131.952L16.6189 82.9998C13.7607 78.0494 13.7607 71.9502 16.6189 66.9998L44.8813 18.0479C47.7394 13.0975 53.0214 10.0479 58.7377 10.0479L115.262 10.0479C120.979 10.0479 126.261 13.0975 129.119 18.0479L157.381 66.9998Z" fill="#C9CBD0" fill-opacity="0.02" shape-rendering="crispEdges"/>
<path d="M156.948 67.2498C159.717 72.0455 159.717 77.9541 156.948 82.7498L128.686 131.702C125.917 136.497 120.8 139.452 115.262 139.452L58.7377 139.452C53.2001 139.452 48.0831 136.497 45.3143 131.702L17.0519 82.7498C14.2831 77.9541 14.2831 72.0455 17.0519 67.2498L45.3143 18.2979C48.0831 13.5022 53.2001 10.5479 58.7377 10.5479L115.262 10.5479C120.8 10.5479 125.917 13.5022 128.686 18.2979L156.948 67.2498Z" stroke="white" stroke-opacity="0.06" shape-rendering="crispEdges"/>
</g>
<path d="M58.7588 106.327L52.475 35.845H121.525L115.235 106.316L86.9581 114.156L58.7588 106.327Z" fill="#1572B6"/>
<path d="M87.0006 108.164L109.85 101.829L115.226 41.6075H87.0006V108.164Z" fill="#33A9DC"/>
<path d="M87.0006 67.1431H98.4394L99.2294 58.2913H87.0006V49.6469H108.677L106.344 75.7875H87.0006V67.1431Z" fill="white"/>
<path d="M87.0519 89.5931L87.0138 89.6044L77.3869 87.005L76.7713 80.1106H68.095L69.3056 93.6838L87.0125 98.5981L87.0519 98.5869V89.5931Z" fill="#EBEBEB"/>
<path d="M97.7044 75.4219L96.6631 86.9981L87.0219 89.6006V98.5944L104.743 93.6831L106.377 75.4219H97.7044Z" fill="white"/>
<path d="M87.03 49.6469V58.2913H66.15L65.3763 49.6469H87.03ZM87.0006 67.1444V75.7888H77.495L76.9275 69.4637L76.7213 67.1444H87.0006Z" fill="#EBEBEB"/>
<path d="M74.2784 161.438H71.7898C71.7443 161.116 71.6515 160.83 71.5114 160.58C71.3712 160.326 71.1913 160.11 70.9716 159.932C70.7519 159.754 70.4981 159.617 70.2102 159.523C69.9261 159.428 69.6174 159.381 69.2841 159.381C68.6818 159.381 68.1572 159.53 67.7102 159.83C67.2633 160.125 66.9167 160.557 66.6705 161.125C66.4242 161.689 66.3011 162.375 66.3011 163.182C66.3011 164.011 66.4242 164.708 66.6705 165.273C66.9205 165.837 67.2689 166.263 67.7159 166.551C68.1629 166.839 68.6799 166.983 69.267 166.983C69.5966 166.983 69.9015 166.939 70.1818 166.852C70.4659 166.765 70.7178 166.638 70.9375 166.472C71.1572 166.301 71.339 166.095 71.483 165.852C71.6307 165.61 71.733 165.333 71.7898 165.023L74.2784 165.034C74.214 165.568 74.053 166.083 73.7955 166.58C73.5417 167.072 73.1989 167.513 72.767 167.903C72.339 168.29 71.8277 168.597 71.233 168.824C70.642 169.047 69.9735 169.159 69.2273 169.159C68.1894 169.159 67.2614 168.924 66.4432 168.455C65.6288 167.985 64.9848 167.305 64.5114 166.415C64.0417 165.525 63.8068 164.447 63.8068 163.182C63.8068 161.913 64.0455 160.833 64.5227 159.943C65 159.053 65.6477 158.375 66.4659 157.909C67.2841 157.439 68.2045 157.205 69.2273 157.205C69.9015 157.205 70.5265 157.299 71.1023 157.489C71.6818 157.678 72.1951 157.955 72.642 158.318C73.089 158.678 73.4527 159.119 73.733 159.642C74.017 160.165 74.1989 160.763 74.2784 161.438ZM82.3551 160.71C82.3097 160.252 82.1146 159.896 81.7699 159.642C81.4252 159.388 80.9574 159.261 80.3665 159.261C79.965 159.261 79.6259 159.318 79.3494 159.432C79.0729 159.542 78.8608 159.695 78.7131 159.892C78.5691 160.089 78.4972 160.312 78.4972 160.562C78.4896 160.771 78.5331 160.953 78.6278 161.108C78.7263 161.263 78.8608 161.398 79.0312 161.511C79.2017 161.621 79.3987 161.718 79.6222 161.801C79.8456 161.881 80.0843 161.949 80.3381 162.006L81.3835 162.256C81.8911 162.369 82.357 162.521 82.7812 162.71C83.2055 162.9 83.5729 163.133 83.8835 163.409C84.1941 163.686 84.4347 164.011 84.6051 164.386C84.7794 164.761 84.8684 165.191 84.8722 165.676C84.8684 166.388 84.6866 167.006 84.3267 167.528C83.9706 168.047 83.4555 168.451 82.7812 168.739C82.1108 169.023 81.3021 169.165 80.3551 169.165C79.4157 169.165 78.5975 169.021 77.9006 168.733C77.2074 168.445 76.6657 168.019 76.2756 167.455C75.8892 166.886 75.6866 166.184 75.6676 165.347H78.0483C78.0748 165.737 78.1866 166.062 78.3835 166.324C78.5843 166.581 78.8513 166.777 79.1847 166.909C79.5218 167.038 79.9025 167.102 80.3267 167.102C80.7434 167.102 81.1051 167.042 81.4119 166.92C81.7225 166.799 81.9631 166.631 82.1335 166.415C82.304 166.199 82.3892 165.951 82.3892 165.67C82.3892 165.409 82.3116 165.189 82.1562 165.011C82.0047 164.833 81.7813 164.682 81.4858 164.557C81.1941 164.432 80.8362 164.318 80.4119 164.216L79.1449 163.898C78.1638 163.659 77.3892 163.286 76.821 162.778C76.2528 162.271 75.9706 161.587 75.9744 160.727C75.9706 160.023 76.1581 159.407 76.5369 158.881C76.9195 158.354 77.4441 157.943 78.1108 157.648C78.7775 157.352 79.535 157.205 80.3835 157.205C81.2472 157.205 82.0009 157.352 82.6449 157.648C83.2926 157.943 83.7964 158.354 84.1562 158.881C84.5161 159.407 84.7017 160.017 84.7131 160.71H82.3551ZM92.8395 160.71C92.794 160.252 92.599 159.896 92.2543 159.642C91.9096 159.388 91.4418 159.261 90.8509 159.261C90.4493 159.261 90.1103 159.318 89.8338 159.432C89.5573 159.542 89.3452 159.695 89.1974 159.892C89.0535 160.089 88.9815 160.312 88.9815 160.562C88.974 160.771 89.0175 160.953 89.1122 161.108C89.2107 161.263 89.3452 161.398 89.5156 161.511C89.6861 161.621 89.883 161.718 90.1065 161.801C90.33 161.881 90.5687 161.949 90.8224 162.006L91.8679 162.256C92.3755 162.369 92.8414 162.521 93.2656 162.71C93.6899 162.9 94.0573 163.133 94.3679 163.409C94.6785 163.686 94.919 164.011 95.0895 164.386C95.2637 164.761 95.3527 165.191 95.3565 165.676C95.3527 166.388 95.1709 167.006 94.8111 167.528C94.455 168.047 93.9399 168.451 93.2656 168.739C92.5952 169.023 91.7865 169.165 90.8395 169.165C89.9001 169.165 89.0819 169.021 88.3849 168.733C87.6918 168.445 87.1501 168.019 86.7599 167.455C86.3736 166.886 86.1709 166.184 86.152 165.347H88.5327C88.5592 165.737 88.6709 166.062 88.8679 166.324C89.0687 166.581 89.3357 166.777 89.669 166.909C90.0062 167.038 90.3868 167.102 90.8111 167.102C91.2277 167.102 91.5895 167.042 91.8963 166.92C92.2069 166.799 92.4474 166.631 92.6179 166.415C92.7884 166.199 92.8736 165.951 92.8736 165.67C92.8736 165.409 92.7959 165.189 92.6406 165.011C92.4891 164.833 92.2656 164.682 91.9702 164.557C91.6785 164.432 91.3205 164.318 90.8963 164.216L89.6293 163.898C88.6482 163.659 87.8736 163.286 87.3054 162.778C86.7372 162.271 86.455 161.587 86.4588 160.727C86.455 160.023 86.6425 159.407 87.0213 158.881C87.4039 158.354 87.9285 157.943 88.5952 157.648C89.2618 157.352 90.0194 157.205 90.8679 157.205C91.7315 157.205 92.4853 157.352 93.1293 157.648C93.777 157.943 94.2808 158.354 94.6406 158.881C95.0005 159.407 95.1861 160.017 95.1974 160.71H92.8395ZM104.947 169.159C104.099 169.159 103.343 169.013 102.68 168.722C102.021 168.426 101.5 168.021 101.118 167.506C100.739 166.987 100.544 166.388 100.533 165.71H103.01C103.025 165.994 103.118 166.244 103.288 166.46C103.463 166.672 103.694 166.837 103.982 166.955C104.269 167.072 104.593 167.131 104.953 167.131C105.328 167.131 105.66 167.064 105.947 166.932C106.235 166.799 106.461 166.616 106.624 166.381C106.786 166.146 106.868 165.875 106.868 165.568C106.868 165.258 106.781 164.983 106.607 164.744C106.436 164.502 106.19 164.312 105.868 164.176C105.55 164.04 105.171 163.972 104.732 163.972H103.646V162.165H104.732C105.103 162.165 105.43 162.1 105.714 161.972C106.002 161.843 106.226 161.665 106.385 161.438C106.544 161.206 106.624 160.938 106.624 160.631C106.624 160.339 106.554 160.083 106.413 159.864C106.277 159.64 106.084 159.466 105.834 159.341C105.588 159.216 105.3 159.153 104.97 159.153C104.637 159.153 104.332 159.214 104.055 159.335C103.779 159.453 103.557 159.621 103.391 159.841C103.224 160.061 103.135 160.318 103.124 160.614H100.766C100.777 159.943 100.968 159.352 101.339 158.841C101.711 158.33 102.211 157.93 102.839 157.642C103.472 157.35 104.186 157.205 104.982 157.205C105.785 157.205 106.487 157.35 107.089 157.642C107.692 157.934 108.16 158.328 108.493 158.824C108.83 159.316 108.997 159.869 108.993 160.483C108.997 161.134 108.794 161.678 108.385 162.114C107.98 162.549 107.451 162.826 106.8 162.943V163.034C107.656 163.144 108.307 163.441 108.754 163.926C109.205 164.407 109.429 165.009 109.425 165.733C109.429 166.396 109.237 166.985 108.851 167.5C108.468 168.015 107.94 168.42 107.266 168.716C106.591 169.011 105.819 169.159 104.947 169.159Z" fill="#C9CBD0"/>
<defs>
<filter id="filter0_d_60_1342" x="4.47528" y="0.0478821" width="169.05" height="153.904" filterUnits="userSpaceOnUse" color-interpolation-filters="sRGB">
<feFlood flood-opacity="0" result="BackgroundImageFix"/>
<feColorMatrix in="SourceAlpha" type="matrix" values="0 0 0 0 0 0 0 0 0 0 0 0 0 0 0 0 0 0 127 0" result="hardAlpha"/>
<feOffset dx="2" dy="2"/>
<feGaussianBlur stdDeviation="6"/>
<feComposite in2="hardAlpha" operator="out"/>
<feColorMatrix type="matrix" values="0 0 0 0 0 0 0 0 0 0 0 0 0 0 0 0 0 0 0.08 0"/>
<feBlend mode="normal" in2="BackgroundImageFix" result="effect1_dropShadow_60_1342"/>
<feBlend mode="normal" in="SourceGraphic" in2="effect1_dropShadow_60_1342" result="shape"/>
</filter>
</defs>
</svg>
