<svg width="174" height="174" viewBox="0 0 174 174" fill="none" xmlns="http://www.w3.org/2000/svg">
<g filter="url(#filter0_d_60_1440)">
<path d="M157.381 66.9998C160.239 71.9502 160.239 78.0494 157.381 82.9998L129.119 131.952C126.261 136.902 120.979 139.952 115.262 139.952L58.7376 139.952C53.0214 139.952 47.7393 136.902 44.8812 131.952L16.6188 82.9998C13.7607 78.0494 13.7607 71.9502 16.6188 66.9998L44.8812 18.0479C47.7393 13.0975 53.0214 10.0479 58.7376 10.0479L115.262 10.0479C120.979 10.0479 126.261 13.0975 129.119 18.0479L157.381 66.9998Z" fill="#C9CBD0" fill-opacity="0.02" shape-rendering="crispEdges"/>
<path d="M156.948 67.2498C159.717 72.0455 159.717 77.9541 156.948 82.7498L128.686 131.702C125.917 136.497 120.8 139.452 115.262 139.452L58.7376 139.452C53.2 139.452 48.083 136.497 45.3142 131.702L17.0518 82.7498C14.283 77.9541 14.283 72.0455 17.0518 67.2498L45.3142 18.2979C48.083 13.5022 53.2 10.5479 58.7376 10.5479L115.262 10.5479C120.8 10.5479 125.917 13.5022 128.686 18.2979L156.948 67.2498Z" stroke="white" stroke-opacity="0.06" shape-rendering="crispEdges"/>
</g>
<g clip-path="url(#clip0_60_1440)">
<path d="M124.964 71.4862L90.5156 37.04C88.5331 35.0562 85.3156 35.0562 83.33 37.04L76.1781 44.1937L85.2519 53.2675C87.3612 52.5556 89.7787 53.0331 91.4594 54.7137C93.1487 56.405 93.6231 58.8431 92.8925 60.9594L101.637 69.7056C103.753 68.9762 106.195 69.4475 107.884 71.14C110.246 73.5006 110.246 77.3275 107.884 79.6894C105.521 82.0519 101.696 82.0519 99.3319 79.6894C97.5556 77.9119 97.1162 75.3025 98.0162 73.1137L89.8612 64.9581L89.86 86.4212C90.4362 86.7056 90.9794 87.0856 91.4594 87.5637C93.8212 89.9244 93.8212 93.75 91.4594 96.1156C89.0975 98.4762 85.2694 98.4762 82.91 96.1156C80.5487 93.7506 80.355 89.925 82.7156 87.5637C83.2994 86.9806 83.875 86.54 84.5 86.245V64.5831C83.875 64.2881 83.3 63.8506 82.715 63.2637C80.9269 61.4762 80.5925 58.8512 81.51 56.6537L72.6144 47.7081L49.0181 71.3269C47.0337 73.3125 47.0462 76.53 49.0306 78.5144L83.4844 112.961C85.4675 114.944 88.6875 114.944 90.6737 112.961L124.961 78.6744C126.946 76.6894 126.947 73.47 124.964 71.4862Z" fill="#F34F29"/>
</g>
<path d="M81.7273 161.125C81.6477 160.848 81.536 160.604 81.392 160.392C81.2481 160.176 81.072 159.994 80.8636 159.847C80.6591 159.695 80.4242 159.58 80.1591 159.5C79.8977 159.42 79.608 159.381 79.2898 159.381C78.6951 159.381 78.1723 159.528 77.7216 159.824C77.2746 160.119 76.9261 160.549 76.6761 161.114C76.4261 161.674 76.3011 162.36 76.3011 163.17C76.3011 163.981 76.4242 164.67 76.6705 165.239C76.9167 165.807 77.2652 166.241 77.7159 166.54C78.1667 166.835 78.6989 166.983 79.3125 166.983C79.8693 166.983 80.3447 166.884 80.7386 166.688C81.1364 166.487 81.4394 166.205 81.6477 165.841C81.8598 165.477 81.9659 165.047 81.9659 164.551L82.4659 164.625H79.4659V162.773H84.3352V164.239C84.3352 165.261 84.1193 166.14 83.6875 166.875C83.2557 167.606 82.661 168.17 81.9034 168.568C81.1458 168.962 80.2784 169.159 79.3011 169.159C78.2102 169.159 77.2519 168.919 76.4261 168.438C75.6004 167.953 74.9564 167.265 74.4943 166.375C74.036 165.481 73.8068 164.42 73.8068 163.193C73.8068 162.25 73.9432 161.409 74.2159 160.67C74.4924 159.928 74.8788 159.299 75.375 158.784C75.8712 158.269 76.4489 157.877 77.108 157.608C77.767 157.339 78.4811 157.205 79.25 157.205C79.9091 157.205 80.5227 157.301 81.0909 157.494C81.6591 157.684 82.1629 157.953 82.6023 158.301C83.0455 158.65 83.4072 159.064 83.6875 159.545C83.9678 160.023 84.1477 160.549 84.2273 161.125H81.7273ZM88.6435 157.364V169H86.1832V157.364H88.6435ZM90.2244 159.392V157.364H99.7812V159.392H96.2188V169H93.7869V159.392H90.2244Z" fill="#C9CBD0"/>
<defs>
<filter id="filter0_d_60_1440" x="4.47522" y="0.0479126" width="169.05" height="153.904" filterUnits="userSpaceOnUse" color-interpolation-filters="sRGB">
<feFlood flood-opacity="0" result="BackgroundImageFix"/>
<feColorMatrix in="SourceAlpha" type="matrix" values="0 0 0 0 0 0 0 0 0 0 0 0 0 0 0 0 0 0 127 0" result="hardAlpha"/>
<feOffset dx="2" dy="2"/>
<feGaussianBlur stdDeviation="6"/>
<feComposite in2="hardAlpha" operator="out"/>
<feColorMatrix type="matrix" values="0 0 0 0 0 0 0 0 0 0 0 0 0 0 0 0 0 0 0.08 0"/>
<feBlend mode="normal" in2="BackgroundImageFix" result="effect1_dropShadow_60_1440"/>
<feBlend mode="normal" in="SourceGraphic" in2="effect1_dropShadow_60_1440" result="shape"/>
</filter>
<clipPath id="clip0_60_1440">
<rect width="80" height="80" fill="white" transform="translate(47 35)"/>
</clipPath>
</defs>
</svg>
